<?xml version="1.0" encoding="utf-8" standalone="no"?>
<!DOCTYPE svg PUBLIC "-//W3C//DTD SVG 1.1//EN"
  "http://www.w3.org/Graphics/SVG/1.1/DTD/svg11.dtd">
<!-- Created with matplotlib (https://matplotlib.org/) -->
<svg height="487.17pt" version="1.1" viewBox="0 0 525.96 487.17" width="525.96pt" xmlns="http://www.w3.org/2000/svg" xmlns:xlink="http://www.w3.org/1999/xlink">
 <defs>
  <style type="text/css">
*{stroke-linecap:butt;stroke-linejoin:round;}
  </style>
 </defs>
 <g id="figure_1">
  <g id="patch_1">
   <path d="M 0 487.17 
L 525.96 487.17 
L 525.96 0 
L 0 0 
z
" style="fill:#ffffff;"/>
  </g>
  <g id="axes_1">
   <g id="patch_2">
    <path d="M 97.81 428.15 
L 523.44 428.15 
L 523.44 2.52 
L 97.81 2.52 
z
" style="fill:#ffffff;"/>
   </g>
   <g id="PolyCollection_1">
    <defs>
     <path d="M 132.194628 -436.568126 
L 132.194628 -468.887374 
L 133.565009 -470.213985 
L 134.935391 -471.39834 
L 136.305773 -472.39999 
L 137.676155 -473.184083 
L 139.046536 -473.723566 
L 140.416918 -474.000913 
L 141.7873 -474.00925 
L 143.157682 -473.752743 
L 144.528063 -473.24623 
L 145.898445 -472.514123 
L 147.268827 -471.588686 
L 148.639209 -470.507841 
L 150.00959 -469.312716 
L 151.379972 -468.045128 
L 152.750354 -466.745226 
L 154.120735 -465.44946 
L 155.491117 -464.189017 
L 156.861499 -462.988807 
L 158.231881 -461.86701 
L 159.602262 -460.835159 
L 160.972644 -459.898689 
L 162.343026 -459.057816 
L 163.713408 -458.308651 
L 165.083789 -457.644393 
L 166.454171 -457.056504 
L 167.824553 -456.535749 
L 169.194935 -456.073058 
L 170.565316 -455.660142 
L 171.935698 -455.289894 
L 173.30608 -454.956548 
L 174.676462 -454.655672 
L 176.046843 -454.384019 
L 177.417225 -454.139284 
L 178.787607 -453.91984 
L 180.157989 -453.724462 
L 181.52837 -453.552099 
L 182.898752 -453.401688 
L 184.269134 -453.272041 
L 185.639515 -453.161779 
L 187.009897 -453.069332 
L 188.380279 -452.992968 
L 189.750661 -452.930851 
L 191.121042 -452.881111 
L 192.491424 -452.841912 
L 193.861806 -452.811513 
L 195.232188 -452.788319 
L 196.602569 -452.770909 
L 197.972951 -452.758051 
L 199.343333 -452.748709 
L 200.713715 -452.742032 
L 202.084096 -452.737337 
L 203.454478 -452.734089 
L 204.82486 -452.731879 
L 206.195242 -452.730399 
L 207.565623 -452.729424 
L 208.936005 -452.728792 
L 210.306387 -452.728389 
L 211.676769 -452.728137 
L 213.04715 -452.727982 
L 214.417532 -452.727889 
L 215.787914 -452.727836 
L 217.158296 -452.72781 
L 218.528677 -452.727803 
L 219.899059 -452.727813 
L 221.269441 -452.727843 
L 222.639822 -452.727898 
L 224.010204 -452.727992 
L 225.380586 -452.728145 
L 226.750968 -452.728387 
L 228.121349 -452.728762 
L 229.491731 -452.729333 
L 230.862113 -452.730188 
L 232.232495 -452.731446 
L 233.602876 -452.733265 
L 234.973258 -452.73585 
L 236.34364 -452.739461 
L 237.714022 -452.744415 
L 239.084403 -452.751094 
L 240.454785 -452.759938 
L 241.825167 -452.771436 
L 243.195549 -452.786113 
L 244.56593 -452.804499 
L 245.936312 -452.827095 
L 247.306694 -452.85433 
L 248.677076 -452.886504 
L 250.047457 -452.923735 
L 251.417839 -452.965908 
L 252.788221 -453.012621 
L 254.158602 -453.063157 
L 255.528984 -453.116471 
L 256.899366 -453.1712 
L 258.269748 -453.225709 
L 259.640129 -453.278156 
L 261.010511 -453.326594 
L 262.380893 -453.369087 
L 263.751275 -453.403833 
L 265.121656 -453.429294 
L 266.492038 -453.444308 
L 267.86242 -453.448176 
L 267.86242 -452.007324 
L 267.86242 -452.007324 
L 266.492038 -452.011192 
L 265.121656 -452.026206 
L 263.751275 -452.051667 
L 262.380893 -452.086413 
L 261.010511 -452.128906 
L 259.640129 -452.177344 
L 258.269748 -452.229791 
L 256.899366 -452.2843 
L 255.528984 -452.339029 
L 254.158602 -452.392343 
L 252.788221 -452.442879 
L 251.417839 -452.489592 
L 250.047457 -452.531765 
L 248.677076 -452.568996 
L 247.306694 -452.60117 
L 245.936312 -452.628405 
L 244.56593 -452.651001 
L 243.195549 -452.669387 
L 241.825167 -452.684064 
L 240.454785 -452.695562 
L 239.084403 -452.704406 
L 237.714022 -452.711085 
L 236.34364 -452.716039 
L 234.973258 -452.71965 
L 233.602876 -452.722235 
L 232.232495 -452.724054 
L 230.862113 -452.725312 
L 229.491731 -452.726167 
L 228.121349 -452.726738 
L 226.750968 -452.727113 
L 225.380586 -452.727355 
L 224.010204 -452.727508 
L 222.639822 -452.727602 
L 221.269441 -452.727657 
L 219.899059 -452.727687 
L 218.528677 -452.727697 
L 217.158296 -452.72769 
L 215.787914 -452.727664 
L 214.417532 -452.727611 
L 213.04715 -452.727518 
L 211.676769 -452.727363 
L 210.306387 -452.727111 
L 208.936005 -452.726708 
L 207.565623 -452.726076 
L 206.195242 -452.725101 
L 204.82486 -452.723621 
L 203.454478 -452.721411 
L 202.084096 -452.718163 
L 200.713715 -452.713468 
L 199.343333 -452.706791 
L 197.972951 -452.697449 
L 196.602569 -452.684591 
L 195.232188 -452.667181 
L 193.861806 -452.643987 
L 192.491424 -452.613588 
L 191.121042 -452.574389 
L 189.750661 -452.524649 
L 188.380279 -452.462532 
L 187.009897 -452.386168 
L 185.639515 -452.293721 
L 184.269134 -452.183459 
L 182.898752 -452.053812 
L 181.52837 -451.903401 
L 180.157989 -451.731038 
L 178.787607 -451.53566 
L 177.417225 -451.316216 
L 176.046843 -451.071481 
L 174.676462 -450.799828 
L 173.30608 -450.498952 
L 171.935698 -450.165606 
L 170.565316 -449.795358 
L 169.194935 -449.382442 
L 167.824553 -448.919751 
L 166.454171 -448.398996 
L 165.083789 -447.811107 
L 163.713408 -447.146849 
L 162.343026 -446.397684 
L 160.972644 -445.556811 
L 159.602262 -444.620341 
L 158.231881 -443.58849 
L 156.861499 -442.466693 
L 155.491117 -441.266483 
L 154.120735 -440.00604 
L 152.750354 -438.710274 
L 151.379972 -437.410372 
L 150.00959 -436.142784 
L 148.639209 -434.947659 
L 147.268827 -433.866814 
L 145.898445 -432.941377 
L 144.528063 -432.20927 
L 143.157682 -431.702757 
L 141.7873 -431.44625 
L 140.416918 -431.454587 
L 139.046536 -431.731934 
L 137.676155 -432.271417 
L 136.305773 -433.05551 
L 134.935391 -434.05716 
L 133.565009 -435.241515 
L 132.194628 -436.568126 
z
" id="mbd62f56fa0" style="stroke:#424242;"/>
    </defs>
    <g clip-path="url(#p05bf3abcc1)">
     <use style="fill:#7c78ab;stroke:#424242;" x="0" xlink:href="#mbd62f56fa0" y="487.17"/>
    </g>
   </g>
   <g id="PolyCollection_2">
    <defs>
     <path d="M 139.934294 -408.713522 
L 139.934294 -411.615978 
L 141.996447 -411.624522 
L 144.058599 -411.632883 
L 146.120752 -411.64106 
L 148.182904 -411.649053 
L 150.245056 -411.65686 
L 152.307209 -411.664482 
L 154.369361 -411.671918 
L 156.431514 -411.679169 
L 158.493666 -411.686233 
L 160.555819 -411.693111 
L 162.617971 -411.699803 
L 164.680123 -411.706309 
L 166.742276 -411.712629 
L 168.804428 -411.718765 
L 170.866581 -411.724715 
L 172.928733 -411.730482 
L 174.990886 -411.736065 
L 177.053038 -411.741465 
L 179.11519 -411.746683 
L 181.177343 -411.75172 
L 183.239495 -411.756577 
L 185.301648 -411.761253 
L 187.3638 -411.765751 
L 189.425953 -411.770071 
L 191.488105 -411.774215 
L 193.550257 -411.778182 
L 195.61241 -411.781975 
L 197.674562 -411.785594 
L 199.736715 -411.78904 
L 201.798867 -411.792314 
L 203.86102 -411.795417 
L 205.923172 -411.798351 
L 207.985324 -411.801116 
L 210.047477 -411.803712 
L 212.109629 -411.806142 
L 214.171782 -411.808405 
L 216.233934 -411.810503 
L 218.296087 -411.812436 
L 220.358239 -411.814206 
L 222.420391 -411.815812 
L 224.482544 -411.817256 
L 226.544696 -411.818538 
L 228.606849 -411.819658 
L 230.669001 -411.820617 
L 232.731154 -411.821416 
L 234.793306 -411.822055 
L 236.855458 -411.822534 
L 238.917611 -411.822853 
L 240.979763 -411.823013 
L 243.041916 -411.823013 
L 245.104068 -411.822853 
L 247.166221 -411.822534 
L 249.228373 -411.822055 
L 251.290525 -411.821416 
L 253.352678 -411.820617 
L 255.41483 -411.819658 
L 257.476983 -411.818538 
L 259.539135 -411.817256 
L 261.601287 -411.815812 
L 263.66344 -411.814206 
L 265.725592 -411.812436 
L 267.787745 -411.810503 
L 269.849897 -411.808405 
L 271.91205 -411.806142 
L 273.974202 -411.803712 
L 276.036354 -411.801116 
L 278.098507 -411.798351 
L 280.160659 -411.795417 
L 282.222812 -411.792314 
L 284.284964 -411.78904 
L 286.347117 -411.785594 
L 288.409269 -411.781975 
L 290.471421 -411.778182 
L 292.533574 -411.774215 
L 294.595726 -411.770071 
L 296.657879 -411.765751 
L 298.720031 -411.761253 
L 300.782184 -411.756577 
L 302.844336 -411.75172 
L 304.906488 -411.746683 
L 306.968641 -411.741465 
L 309.030793 -411.736065 
L 311.092946 -411.730482 
L 313.155098 -411.724715 
L 315.217251 -411.718765 
L 317.279403 -411.712629 
L 319.341555 -411.706309 
L 321.403708 -411.699803 
L 323.46586 -411.693111 
L 325.528013 -411.686233 
L 327.590165 -411.679169 
L 329.652318 -411.671918 
L 331.71447 -411.664482 
L 333.776622 -411.65686 
L 335.838775 -411.649053 
L 337.900927 -411.64106 
L 339.96308 -411.632883 
L 342.025232 -411.624522 
L 344.087385 -411.615978 
L 344.087385 -408.713522 
L 344.087385 -408.713522 
L 342.025232 -408.704978 
L 339.96308 -408.696617 
L 337.900927 -408.68844 
L 335.838775 -408.680447 
L 333.776622 -408.67264 
L 331.71447 -408.665018 
L 329.652318 -408.657582 
L 327.590165 -408.650331 
L 325.528013 -408.643267 
L 323.46586 -408.636389 
L 321.403708 -408.629697 
L 319.341555 -408.623191 
L 317.279403 -408.616871 
L 315.217251 -408.610735 
L 313.155098 -408.604785 
L 311.092946 -408.599018 
L 309.030793 -408.593435 
L 306.968641 -408.588035 
L 304.906488 -408.582817 
L 302.844336 -408.57778 
L 300.782184 -408.572923 
L 298.720031 -408.568247 
L 296.657879 -408.563749 
L 294.595726 -408.559429 
L 292.533574 -408.555285 
L 290.471421 -408.551318 
L 288.409269 -408.547525 
L 286.347117 -408.543906 
L 284.284964 -408.54046 
L 282.222812 -408.537186 
L 280.160659 -408.534083 
L 278.098507 -408.531149 
L 276.036354 -408.528384 
L 273.974202 -408.525788 
L 271.91205 -408.523358 
L 269.849897 -408.521095 
L 267.787745 -408.518997 
L 265.725592 -408.517064 
L 263.66344 -408.515294 
L 261.601287 -408.513688 
L 259.539135 -408.512244 
L 257.476983 -408.510962 
L 255.41483 -408.509842 
L 253.352678 -408.508883 
L 251.290525 -408.508084 
L 249.228373 -408.507445 
L 247.166221 -408.506966 
L 245.104068 -408.506647 
L 243.041916 -408.506487 
L 240.979763 -408.506487 
L 238.917611 -408.506647 
L 236.855458 -408.506966 
L 234.793306 -408.507445 
L 232.731154 -408.508084 
L 230.669001 -408.508883 
L 228.606849 -408.509842 
L 226.544696 -408.510962 
L 224.482544 -408.512244 
L 222.420391 -408.513688 
L 220.358239 -408.515294 
L 218.296087 -408.517064 
L 216.233934 -408.518997 
L 214.171782 -408.521095 
L 212.109629 -408.523358 
L 210.047477 -408.525788 
L 207.985324 -408.528384 
L 205.923172 -408.531149 
L 203.86102 -408.534083 
L 201.798867 -408.537186 
L 199.736715 -408.54046 
L 197.674562 -408.543906 
L 195.61241 -408.547525 
L 193.550257 -408.551318 
L 191.488105 -408.555285 
L 189.425953 -408.559429 
L 187.3638 -408.563749 
L 185.301648 -408.568247 
L 183.239495 -408.572923 
L 181.177343 -408.57778 
L 179.11519 -408.582817 
L 177.053038 -408.588035 
L 174.990886 -408.593435 
L 172.928733 -408.599018 
L 170.866581 -408.604785 
L 168.804428 -408.610735 
L 166.742276 -408.616871 
L 164.680123 -408.623191 
L 162.617971 -408.629697 
L 160.555819 -408.636389 
L 158.493666 -408.643267 
L 156.431514 -408.650331 
L 154.369361 -408.657582 
L 152.307209 -408.665018 
L 150.245056 -408.67264 
L 148.182904 -408.680447 
L 146.120752 -408.68844 
L 144.058599 -408.696617 
L 141.996447 -408.704978 
L 139.934294 -408.713522 
z
" id="m428289048c" style="stroke:#424242;"/>
    </defs>
    <g clip-path="url(#p05bf3abcc1)">
     <use style="fill:#be631d;stroke:#424242;" x="0" xlink:href="#m428289048c" y="487.17"/>
    </g>
   </g>
   <g id="PolyCollection_3">
    <defs>
     <path d="M 139.922844 -326.119965 
L 139.922844 -366.520535 
L 140.475253 -366.654287 
L 141.027661 -366.779368 
L 141.580069 -366.89569 
L 142.132478 -367.003183 
L 142.684886 -367.101792 
L 143.237294 -367.191481 
L 143.789703 -367.272228 
L 144.342111 -367.344031 
L 144.894519 -367.406905 
L 145.446928 -367.460881 
L 145.999336 -367.506007 
L 146.551744 -367.542349 
L 147.104153 -367.569988 
L 147.656561 -367.589023 
L 148.208969 -367.599567 
L 148.761378 -367.60175 
L 149.313786 -367.595717 
L 149.866194 -367.581627 
L 150.418603 -367.559654 
L 150.971011 -367.529984 
L 151.52342 -367.492818 
L 152.075828 -367.448366 
L 152.628236 -367.396853 
L 153.180645 -367.338513 
L 153.733053 -367.273589 
L 154.285461 -367.202334 
L 154.83787 -367.12501 
L 155.390278 -367.041887 
L 155.942686 -366.953238 
L 156.495095 -366.859345 
L 157.047503 -366.760493 
L 157.599911 -366.656972 
L 158.15232 -366.549074 
L 158.704728 -366.437092 
L 159.257136 -366.321322 
L 159.809545 -366.202058 
L 160.361953 -366.079595 
L 160.914361 -365.954224 
L 161.46677 -365.826234 
L 162.019178 -365.695912 
L 162.571586 -365.563537 
L 163.123995 -365.429387 
L 163.676403 -365.293729 
L 164.228811 -365.156827 
L 164.78122 -365.018936 
L 165.333628 -364.880302 
L 165.886036 -364.741161 
L 166.438445 -364.601742 
L 166.990853 -364.462262 
L 167.543261 -364.322926 
L 168.09567 -364.183931 
L 168.648078 -364.045458 
L 169.200486 -363.907679 
L 169.752895 -363.770753 
L 170.305303 -363.634824 
L 170.857712 -363.500025 
L 171.41012 -363.366476 
L 171.962528 -363.234283 
L 172.514937 -363.103537 
L 173.067345 -362.974317 
L 173.619753 -362.84669 
L 174.172162 -362.720707 
L 174.72457 -362.596407 
L 175.276978 -362.473816 
L 175.829387 -362.352948 
L 176.381795 -362.233802 
L 176.934203 -362.116368 
L 177.486612 -362.000621 
L 178.03902 -361.886528 
L 178.591428 -361.774042 
L 179.143837 -361.663108 
L 179.696245 -361.553659 
L 180.248653 -361.44562 
L 180.801062 -361.338907 
L 181.35347 -361.233429 
L 181.905878 -361.129084 
L 182.458287 -361.025768 
L 183.010695 -360.923366 
L 183.563103 -360.821762 
L 184.115512 -360.720831 
L 184.66792 -360.620448 
L 185.220328 -360.520481 
L 185.772737 -360.420798 
L 186.325145 -360.321264 
L 186.877553 -360.221744 
L 187.429962 -360.122099 
L 187.98237 -360.022195 
L 188.534778 -359.921896 
L 189.087187 -359.821067 
L 189.639595 -359.719577 
L 190.192004 -359.617297 
L 190.744412 -359.514102 
L 191.29682 -359.40987 
L 191.849229 -359.304484 
L 192.401637 -359.197831 
L 192.954045 -359.089806 
L 193.506454 -358.980308 
L 194.058862 -358.869244 
L 194.61127 -358.756524 
L 194.61127 -333.883976 
L 194.61127 -333.883976 
L 194.058862 -333.771256 
L 193.506454 -333.660192 
L 192.954045 -333.550694 
L 192.401637 -333.442669 
L 191.849229 -333.336016 
L 191.29682 -333.23063 
L 190.744412 -333.126398 
L 190.192004 -333.023203 
L 189.639595 -332.920923 
L 189.087187 -332.819433 
L 188.534778 -332.718604 
L 187.98237 -332.618305 
L 187.429962 -332.518401 
L 186.877553 -332.418756 
L 186.325145 -332.319236 
L 185.772737 -332.219702 
L 185.220328 -332.120019 
L 184.66792 -332.020052 
L 184.115512 -331.919669 
L 183.563103 -331.818738 
L 183.010695 -331.717134 
L 182.458287 -331.614732 
L 181.905878 -331.511416 
L 181.35347 -331.407071 
L 180.801062 -331.301593 
L 180.248653 -331.19488 
L 179.696245 -331.086841 
L 179.143837 -330.977392 
L 178.591428 -330.866458 
L 178.03902 -330.753972 
L 177.486612 -330.639879 
L 176.934203 -330.524132 
L 176.381795 -330.406698 
L 175.829387 -330.287552 
L 175.276978 -330.166684 
L 174.72457 -330.044093 
L 174.172162 -329.919793 
L 173.619753 -329.79381 
L 173.067345 -329.666183 
L 172.514937 -329.536963 
L 171.962528 -329.406217 
L 171.41012 -329.274024 
L 170.857712 -329.140475 
L 170.305303 -329.005676 
L 169.752895 -328.869747 
L 169.200486 -328.732821 
L 168.648078 -328.595042 
L 168.09567 -328.456569 
L 167.543261 -328.317574 
L 166.990853 -328.178238 
L 166.438445 -328.038758 
L 165.886036 -327.899339 
L 165.333628 -327.760198 
L 164.78122 -327.621564 
L 164.228811 -327.483673 
L 163.676403 -327.346771 
L 163.123995 -327.211113 
L 162.571586 -327.076963 
L 162.019178 -326.944588 
L 161.46677 -326.814266 
L 160.914361 -326.686276 
L 160.361953 -326.560905 
L 159.809545 -326.438442 
L 159.257136 -326.319178 
L 158.704728 -326.203408 
L 158.15232 -326.091426 
L 157.599911 -325.983528 
L 157.047503 -325.880007 
L 156.495095 -325.781155 
L 155.942686 -325.687262 
L 155.390278 -325.598613 
L 154.83787 -325.51549 
L 154.285461 -325.438166 
L 153.733053 -325.366911 
L 153.180645 -325.301987 
L 152.628236 -325.243647 
L 152.075828 -325.192134 
L 151.52342 -325.147682 
L 150.971011 -325.110516 
L 150.418603 -325.080846 
L 149.866194 -325.058873 
L 149.313786 -325.044783 
L 148.761378 -325.03875 
L 148.208969 -325.040933 
L 147.656561 -325.051477 
L 147.104153 -325.070512 
L 146.551744 -325.098151 
L 145.999336 -325.134493 
L 145.446928 -325.179619 
L 144.894519 -325.233595 
L 144.342111 -325.296469 
L 143.789703 -325.368272 
L 143.237294 -325.449019 
L 142.684886 -325.538708 
L 142.132478 -325.637317 
L 141.580069 -325.74481 
L 141.027661 -325.861132 
L 140.475253 -325.986213 
L 139.922844 -326.119965 
z
" id="mfc3be74ebc" style="stroke:#424242;"/>
    </defs>
    <g clip-path="url(#p05bf3abcc1)">
     <use style="fill:#7c78ab;stroke:#424242;" x="0" xlink:href="#mfc3be74ebc" y="487.17"/>
    </g>
   </g>
   <g id="PolyCollection_4">
    <defs>
     <path d="M 172.476024 -292.018938 
L 172.476024 -315.495562 
L 173.104976 -315.614213 
L 173.733928 -315.731212 
L 174.362879 -315.846616 
L 174.991831 -315.96049 
L 175.620783 -316.072904 
L 176.249735 -316.183934 
L 176.878686 -316.293658 
L 177.507638 -316.402161 
L 178.13659 -316.509532 
L 178.765542 -316.61586 
L 179.394493 -316.72124 
L 180.023445 -316.825767 
L 180.652397 -316.92954 
L 181.281348 -317.032656 
L 181.9103 -317.135214 
L 182.539252 -317.237314 
L 183.168204 -317.339052 
L 183.797155 -317.440525 
L 184.426107 -317.541827 
L 185.055059 -317.64305 
L 185.684011 -317.744282 
L 186.312962 -317.845607 
L 186.941914 -317.947104 
L 187.570866 -318.048848 
L 188.199818 -318.150908 
L 188.828769 -318.253345 
L 189.457721 -318.356215 
L 190.086673 -318.459566 
L 190.715624 -318.563439 
L 191.344576 -318.667864 
L 191.973528 -318.772866 
L 192.60248 -318.878458 
L 193.231431 -318.984644 
L 193.860383 -319.09142 
L 194.489335 -319.198769 
L 195.118287 -319.306666 
L 195.747238 -319.415074 
L 196.37619 -319.523947 
L 197.005142 -319.633226 
L 197.634094 -319.742844 
L 198.263045 -319.852719 
L 198.891997 -319.962763 
L 199.520949 -320.072873 
L 200.1499 -320.182939 
L 200.778852 -320.292839 
L 201.407804 -320.402439 
L 202.036756 -320.511599 
L 202.665707 -320.620165 
L 203.294659 -320.727979 
L 203.923611 -320.834868 
L 204.552563 -320.940657 
L 205.181514 -321.045158 
L 205.810466 -321.148179 
L 206.439418 -321.24952 
L 207.06837 -321.348973 
L 207.697321 -321.446329 
L 208.326273 -321.54137 
L 208.955225 -321.633875 
L 209.584176 -321.723621 
L 210.213128 -321.81038 
L 210.84208 -321.893924 
L 211.471032 -321.974022 
L 212.099983 -322.050444 
L 212.728935 -322.12296 
L 213.357887 -322.19134 
L 213.986839 -322.255357 
L 214.61579 -322.314787 
L 215.244742 -322.369408 
L 215.873694 -322.419004 
L 216.502646 -322.463364 
L 217.131597 -322.50228 
L 217.760549 -322.535554 
L 218.389501 -322.562993 
L 219.018452 -322.584414 
L 219.647404 -322.599639 
L 220.276356 -322.608503 
L 220.905308 -322.610849 
L 221.534259 -322.606531 
L 222.163211 -322.595414 
L 222.792163 -322.577372 
L 223.421115 -322.552295 
L 224.050066 -322.520083 
L 224.679018 -322.480649 
L 225.30797 -322.43392 
L 225.936922 -322.379833 
L 226.565873 -322.318344 
L 227.194825 -322.249418 
L 227.823777 -322.173037 
L 228.452728 -322.089196 
L 229.08168 -321.997903 
L 229.710632 -321.899183 
L 230.339584 -321.793073 
L 230.968535 -321.679625 
L 231.597487 -321.558904 
L 232.226439 -321.430989 
L 232.855391 -321.295973 
L 233.484342 -321.153964 
L 234.113294 -321.00508 
L 234.742246 -320.849453 
L 234.742246 -286.665047 
L 234.742246 -286.665047 
L 234.113294 -286.50942 
L 233.484342 -286.360536 
L 232.855391 -286.218527 
L 232.226439 -286.083511 
L 231.597487 -285.955596 
L 230.968535 -285.834875 
L 230.339584 -285.721427 
L 229.710632 -285.615317 
L 229.08168 -285.516597 
L 228.452728 -285.425304 
L 227.823777 -285.341463 
L 227.194825 -285.265082 
L 226.565873 -285.196156 
L 225.936922 -285.134667 
L 225.30797 -285.08058 
L 224.679018 -285.033851 
L 224.050066 -284.994417 
L 223.421115 -284.962205 
L 222.792163 -284.937128 
L 222.163211 -284.919086 
L 221.534259 -284.907969 
L 220.905308 -284.903651 
L 220.276356 -284.905997 
L 219.647404 -284.914861 
L 219.018452 -284.930086 
L 218.389501 -284.951507 
L 217.760549 -284.978946 
L 217.131597 -285.01222 
L 216.502646 -285.051136 
L 215.873694 -285.095496 
L 215.244742 -285.145092 
L 214.61579 -285.199713 
L 213.986839 -285.259143 
L 213.357887 -285.32316 
L 212.728935 -285.39154 
L 212.099983 -285.464056 
L 211.471032 -285.540478 
L 210.84208 -285.620576 
L 210.213128 -285.70412 
L 209.584176 -285.790879 
L 208.955225 -285.880625 
L 208.326273 -285.97313 
L 207.697321 -286.068171 
L 207.06837 -286.165527 
L 206.439418 -286.26498 
L 205.810466 -286.366321 
L 205.181514 -286.469342 
L 204.552563 -286.573843 
L 203.923611 -286.679632 
L 203.294659 -286.786521 
L 202.665707 -286.894335 
L 202.036756 -287.002901 
L 201.407804 -287.112061 
L 200.778852 -287.221661 
L 200.1499 -287.331561 
L 199.520949 -287.441627 
L 198.891997 -287.551737 
L 198.263045 -287.661781 
L 197.634094 -287.771656 
L 197.005142 -287.881274 
L 196.37619 -287.990553 
L 195.747238 -288.099426 
L 195.118287 -288.207834 
L 194.489335 -288.315731 
L 193.860383 -288.42308 
L 193.231431 -288.529856 
L 192.60248 -288.636042 
L 191.973528 -288.741634 
L 191.344576 -288.846636 
L 190.715624 -288.951061 
L 190.086673 -289.054934 
L 189.457721 -289.158285 
L 188.828769 -289.261155 
L 188.199818 -289.363592 
L 187.570866 -289.465652 
L 186.941914 -289.567396 
L 186.312962 -289.668893 
L 185.684011 -289.770218 
L 185.055059 -289.87145 
L 184.426107 -289.972673 
L 183.797155 -290.073975 
L 183.168204 -290.175448 
L 182.539252 -290.277186 
L 181.9103 -290.379286 
L 181.281348 -290.481844 
L 180.652397 -290.58496 
L 180.023445 -290.688733 
L 179.394493 -290.79326 
L 178.765542 -290.89864 
L 178.13659 -291.004968 
L 177.507638 -291.112339 
L 176.878686 -291.220842 
L 176.249735 -291.330566 
L 175.620783 -291.441596 
L 174.991831 -291.55401 
L 174.362879 -291.667884 
L 173.733928 -291.783288 
L 173.104976 -291.900287 
L 172.476024 -292.018938 
z
" id="m1b051ddb0e" style="stroke:#424242;"/>
    </defs>
    <g clip-path="url(#p05bf3abcc1)">
     <use style="fill:#be631d;stroke:#424242;" x="0" xlink:href="#m1b051ddb0e" y="487.17"/>
    </g>
   </g>
   <g id="patch_3">
    <path clip-path="url(#p05bf3abcc1)" d="M 126.185333 55.72375 
L 126.185333 55.72375 
L 126.185333 55.72375 
L 126.185333 55.72375 
z
" style="fill:#7c78ab;stroke:#424242;stroke-linejoin:miter;stroke-width:0.5;"/>
   </g>
   <g id="patch_4">
    <path clip-path="url(#p05bf3abcc1)" d="M 126.185333 55.72375 
L 126.185333 55.72375 
L 126.185333 55.72375 
L 126.185333 55.72375 
z
" style="fill:#be631d;stroke:#424242;stroke-linejoin:miter;stroke-width:0.5;"/>
   </g>
   <g id="matplotlib.axis_1">
    <g id="xtick_1">
     <g id="line2d_1">
      <defs>
       <path d="M 0 0 
L 0 3.5 
" id="m04cfa43bb2" style="stroke:#000000;stroke-width:1.6;"/>
      </defs>
      <g>
       <use style="stroke:#000000;stroke-width:1.6;" x="126.185333" xlink:href="#m04cfa43bb2" y="428.15"/>
      </g>
     </g>
     <g id="text_1">
      <!-- 0.0 -->
      <defs>
       <path d="M 31.78125 66.40625 
Q 24.171875 66.40625 20.328125 58.90625 
Q 16.5 51.421875 16.5 36.375 
Q 16.5 21.390625 20.328125 13.890625 
Q 24.171875 6.390625 31.78125 6.390625 
Q 39.453125 6.390625 43.28125 13.890625 
Q 47.125 21.390625 47.125 36.375 
Q 47.125 51.421875 43.28125 58.90625 
Q 39.453125 66.40625 31.78125 66.40625 
z
M 31.78125 74.21875 
Q 44.046875 74.21875 50.515625 64.515625 
Q 56.984375 54.828125 56.984375 36.375 
Q 56.984375 17.96875 50.515625 8.265625 
Q 44.046875 -1.421875 31.78125 -1.421875 
Q 19.53125 -1.421875 13.0625 8.265625 
Q 6.59375 17.96875 6.59375 36.375 
Q 6.59375 54.828125 13.0625 64.515625 
Q 19.53125 74.21875 31.78125 74.21875 
z
" id="DejaVuSans-48"/>
       <path d="M 10.6875 12.40625 
L 21 12.40625 
L 21 0 
L 10.6875 0 
z
" id="DejaVuSans-46"/>
      </defs>
      <g transform="translate(110.282208 458.046875)scale(0.2 -0.2)">
       <use xlink:href="#DejaVuSans-48"/>
       <use x="63.623047" xlink:href="#DejaVuSans-46"/>
       <use x="95.410156" xlink:href="#DejaVuSans-48"/>
      </g>
     </g>
    </g>
    <g id="xtick_2">
     <g id="line2d_2">
      <g>
       <use style="stroke:#000000;stroke-width:1.6;" x="239.686667" xlink:href="#m04cfa43bb2" y="428.15"/>
      </g>
     </g>
     <g id="text_2">
      <!-- 0.2 -->
      <defs>
       <path d="M 19.1875 8.296875 
L 53.609375 8.296875 
L 53.609375 0 
L 7.328125 0 
L 7.328125 8.296875 
Q 12.9375 14.109375 22.625 23.890625 
Q 32.328125 33.6875 34.8125 36.53125 
Q 39.546875 41.84375 41.421875 45.53125 
Q 43.3125 49.21875 43.3125 52.78125 
Q 43.3125 58.59375 39.234375 62.25 
Q 35.15625 65.921875 28.609375 65.921875 
Q 23.96875 65.921875 18.8125 64.3125 
Q 13.671875 62.703125 7.8125 59.421875 
L 7.8125 69.390625 
Q 13.765625 71.78125 18.9375 73 
Q 24.125 74.21875 28.421875 74.21875 
Q 39.75 74.21875 46.484375 68.546875 
Q 53.21875 62.890625 53.21875 53.421875 
Q 53.21875 48.921875 51.53125 44.890625 
Q 49.859375 40.875 45.40625 35.40625 
Q 44.1875 33.984375 37.640625 27.21875 
Q 31.109375 20.453125 19.1875 8.296875 
z
" id="DejaVuSans-50"/>
      </defs>
      <g transform="translate(223.783542 458.046875)scale(0.2 -0.2)">
       <use xlink:href="#DejaVuSans-48"/>
       <use x="63.623047" xlink:href="#DejaVuSans-46"/>
       <use x="95.410156" xlink:href="#DejaVuSans-50"/>
      </g>
     </g>
    </g>
    <g id="xtick_3">
     <g id="line2d_3">
      <g>
       <use style="stroke:#000000;stroke-width:1.6;" x="353.188" xlink:href="#m04cfa43bb2" y="428.15"/>
      </g>
     </g>
     <g id="text_3">
      <!-- 0.4 -->
      <defs>
       <path d="M 37.796875 64.3125 
L 12.890625 25.390625 
L 37.796875 25.390625 
z
M 35.203125 72.90625 
L 47.609375 72.90625 
L 47.609375 25.390625 
L 58.015625 25.390625 
L 58.015625 17.1875 
L 47.609375 17.1875 
L 47.609375 0 
L 37.796875 0 
L 37.796875 17.1875 
L 4.890625 17.1875 
L 4.890625 26.703125 
z
" id="DejaVuSans-52"/>
      </defs>
      <g transform="translate(337.284875 458.046875)scale(0.2 -0.2)">
       <use xlink:href="#DejaVuSans-48"/>
       <use x="63.623047" xlink:href="#DejaVuSans-46"/>
       <use x="95.410156" xlink:href="#DejaVuSans-52"/>
      </g>
     </g>
    </g>
    <g id="xtick_4">
     <g id="line2d_4">
      <g>
       <use style="stroke:#000000;stroke-width:1.6;" x="466.689333" xlink:href="#m04cfa43bb2" y="428.15"/>
      </g>
     </g>
     <g id="text_4">
      <!-- 0.6 -->
      <defs>
       <path d="M 33.015625 40.375 
Q 26.375 40.375 22.484375 35.828125 
Q 18.609375 31.296875 18.609375 23.390625 
Q 18.609375 15.53125 22.484375 10.953125 
Q 26.375 6.390625 33.015625 6.390625 
Q 39.65625 6.390625 43.53125 10.953125 
Q 47.40625 15.53125 47.40625 23.390625 
Q 47.40625 31.296875 43.53125 35.828125 
Q 39.65625 40.375 33.015625 40.375 
z
M 52.59375 71.296875 
L 52.59375 62.3125 
Q 48.875 64.0625 45.09375 64.984375 
Q 41.3125 65.921875 37.59375 65.921875 
Q 27.828125 65.921875 22.671875 59.328125 
Q 17.53125 52.734375 16.796875 39.40625 
Q 19.671875 43.65625 24.015625 45.921875 
Q 28.375 48.1875 33.59375 48.1875 
Q 44.578125 48.1875 50.953125 41.515625 
Q 57.328125 34.859375 57.328125 23.390625 
Q 57.328125 12.15625 50.6875 5.359375 
Q 44.046875 -1.421875 33.015625 -1.421875 
Q 20.359375 -1.421875 13.671875 8.265625 
Q 6.984375 17.96875 6.984375 36.375 
Q 6.984375 53.65625 15.1875 63.9375 
Q 23.390625 74.21875 37.203125 74.21875 
Q 40.921875 74.21875 44.703125 73.484375 
Q 48.484375 72.75 52.59375 71.296875 
z
" id="DejaVuSans-54"/>
      </defs>
      <g transform="translate(450.786208 458.046875)scale(0.2 -0.2)">
       <use xlink:href="#DejaVuSans-48"/>
       <use x="63.623047" xlink:href="#DejaVuSans-46"/>
       <use x="95.410156" xlink:href="#DejaVuSans-54"/>
      </g>
     </g>
    </g>
    <g id="text_5">
     <!-- JSD (seeds vs base) -->
     <defs>
      <path d="M 9.8125 72.90625 
L 19.671875 72.90625 
L 19.671875 5.078125 
Q 19.671875 -8.109375 14.671875 -14.0625 
Q 9.671875 -20.015625 -1.421875 -20.015625 
L -5.171875 -20.015625 
L -5.171875 -11.71875 
L -2.09375 -11.71875 
Q 4.4375 -11.71875 7.125 -8.046875 
Q 9.8125 -4.390625 9.8125 5.078125 
z
" id="DejaVuSans-74"/>
      <path d="M 53.515625 70.515625 
L 53.515625 60.890625 
Q 47.90625 63.578125 42.921875 64.890625 
Q 37.9375 66.21875 33.296875 66.21875 
Q 25.25 66.21875 20.875 63.09375 
Q 16.5 59.96875 16.5 54.203125 
Q 16.5 49.359375 19.40625 46.890625 
Q 22.3125 44.4375 30.421875 42.921875 
L 36.375 41.703125 
Q 47.40625 39.59375 52.65625 34.296875 
Q 57.90625 29 57.90625 20.125 
Q 57.90625 9.515625 50.796875 4.046875 
Q 43.703125 -1.421875 29.984375 -1.421875 
Q 24.8125 -1.421875 18.96875 -0.25 
Q 13.140625 0.921875 6.890625 3.21875 
L 6.890625 13.375 
Q 12.890625 10.015625 18.65625 8.296875 
Q 24.421875 6.59375 29.984375 6.59375 
Q 38.421875 6.59375 43.015625 9.90625 
Q 47.609375 13.234375 47.609375 19.390625 
Q 47.609375 24.75 44.3125 27.78125 
Q 41.015625 30.8125 33.5 32.328125 
L 27.484375 33.5 
Q 16.453125 35.6875 11.515625 40.375 
Q 6.59375 45.0625 6.59375 53.421875 
Q 6.59375 63.09375 13.40625 68.65625 
Q 20.21875 74.21875 32.171875 74.21875 
Q 37.3125 74.21875 42.625 73.28125 
Q 47.953125 72.359375 53.515625 70.515625 
z
" id="DejaVuSans-83"/>
      <path d="M 19.671875 64.796875 
L 19.671875 8.109375 
L 31.59375 8.109375 
Q 46.6875 8.109375 53.6875 14.9375 
Q 60.6875 21.78125 60.6875 36.53125 
Q 60.6875 51.171875 53.6875 57.984375 
Q 46.6875 64.796875 31.59375 64.796875 
z
M 9.8125 72.90625 
L 30.078125 72.90625 
Q 51.265625 72.90625 61.171875 64.09375 
Q 71.09375 55.28125 71.09375 36.53125 
Q 71.09375 17.671875 61.125 8.828125 
Q 51.171875 0 30.078125 0 
L 9.8125 0 
z
" id="DejaVuSans-68"/>
      <path id="DejaVuSans-32"/>
      <path d="M 31 75.875 
Q 24.46875 64.65625 21.28125 53.65625 
Q 18.109375 42.671875 18.109375 31.390625 
Q 18.109375 20.125 21.3125 9.0625 
Q 24.515625 -2 31 -13.1875 
L 23.1875 -13.1875 
Q 15.875 -1.703125 12.234375 9.375 
Q 8.59375 20.453125 8.59375 31.390625 
Q 8.59375 42.28125 12.203125 53.3125 
Q 15.828125 64.359375 23.1875 75.875 
z
" id="DejaVuSans-40"/>
      <path d="M 44.28125 53.078125 
L 44.28125 44.578125 
Q 40.484375 46.53125 36.375 47.5 
Q 32.28125 48.484375 27.875 48.484375 
Q 21.1875 48.484375 17.84375 46.4375 
Q 14.5 44.390625 14.5 40.28125 
Q 14.5 37.15625 16.890625 35.375 
Q 19.28125 33.59375 26.515625 31.984375 
L 29.59375 31.296875 
Q 39.15625 29.25 43.1875 25.515625 
Q 47.21875 21.78125 47.21875 15.09375 
Q 47.21875 7.46875 41.1875 3.015625 
Q 35.15625 -1.421875 24.609375 -1.421875 
Q 20.21875 -1.421875 15.453125 -0.5625 
Q 10.6875 0.296875 5.421875 2 
L 5.421875 11.28125 
Q 10.40625 8.6875 15.234375 7.390625 
Q 20.0625 6.109375 24.8125 6.109375 
Q 31.15625 6.109375 34.5625 8.28125 
Q 37.984375 10.453125 37.984375 14.40625 
Q 37.984375 18.0625 35.515625 20.015625 
Q 33.0625 21.96875 24.703125 23.78125 
L 21.578125 24.515625 
Q 13.234375 26.265625 9.515625 29.90625 
Q 5.8125 33.546875 5.8125 39.890625 
Q 5.8125 47.609375 11.28125 51.796875 
Q 16.75 56 26.8125 56 
Q 31.78125 56 36.171875 55.265625 
Q 40.578125 54.546875 44.28125 53.078125 
z
" id="DejaVuSans-115"/>
      <path d="M 56.203125 29.59375 
L 56.203125 25.203125 
L 14.890625 25.203125 
Q 15.484375 15.921875 20.484375 11.0625 
Q 25.484375 6.203125 34.421875 6.203125 
Q 39.59375 6.203125 44.453125 7.46875 
Q 49.3125 8.734375 54.109375 11.28125 
L 54.109375 2.78125 
Q 49.265625 0.734375 44.1875 -0.34375 
Q 39.109375 -1.421875 33.890625 -1.421875 
Q 20.796875 -1.421875 13.15625 6.1875 
Q 5.515625 13.8125 5.515625 26.8125 
Q 5.515625 40.234375 12.765625 48.109375 
Q 20.015625 56 32.328125 56 
Q 43.359375 56 49.78125 48.890625 
Q 56.203125 41.796875 56.203125 29.59375 
z
M 47.21875 32.234375 
Q 47.125 39.59375 43.09375 43.984375 
Q 39.0625 48.390625 32.421875 48.390625 
Q 24.90625 48.390625 20.390625 44.140625 
Q 15.875 39.890625 15.1875 32.171875 
z
" id="DejaVuSans-101"/>
      <path d="M 45.40625 46.390625 
L 45.40625 75.984375 
L 54.390625 75.984375 
L 54.390625 0 
L 45.40625 0 
L 45.40625 8.203125 
Q 42.578125 3.328125 38.25 0.953125 
Q 33.9375 -1.421875 27.875 -1.421875 
Q 17.96875 -1.421875 11.734375 6.484375 
Q 5.515625 14.40625 5.515625 27.296875 
Q 5.515625 40.1875 11.734375 48.09375 
Q 17.96875 56 27.875 56 
Q 33.9375 56 38.25 53.625 
Q 42.578125 51.265625 45.40625 46.390625 
z
M 14.796875 27.296875 
Q 14.796875 17.390625 18.875 11.75 
Q 22.953125 6.109375 30.078125 6.109375 
Q 37.203125 6.109375 41.296875 11.75 
Q 45.40625 17.390625 45.40625 27.296875 
Q 45.40625 37.203125 41.296875 42.84375 
Q 37.203125 48.484375 30.078125 48.484375 
Q 22.953125 48.484375 18.875 42.84375 
Q 14.796875 37.203125 14.796875 27.296875 
z
" id="DejaVuSans-100"/>
      <path d="M 2.984375 54.6875 
L 12.5 54.6875 
L 29.59375 8.796875 
L 46.6875 54.6875 
L 56.203125 54.6875 
L 35.6875 0 
L 23.484375 0 
z
" id="DejaVuSans-118"/>
      <path d="M 48.6875 27.296875 
Q 48.6875 37.203125 44.609375 42.84375 
Q 40.53125 48.484375 33.40625 48.484375 
Q 26.265625 48.484375 22.1875 42.84375 
Q 18.109375 37.203125 18.109375 27.296875 
Q 18.109375 17.390625 22.1875 11.75 
Q 26.265625 6.109375 33.40625 6.109375 
Q 40.53125 6.109375 44.609375 11.75 
Q 48.6875 17.390625 48.6875 27.296875 
z
M 18.109375 46.390625 
Q 20.953125 51.265625 25.265625 53.625 
Q 29.59375 56 35.59375 56 
Q 45.5625 56 51.78125 48.09375 
Q 58.015625 40.1875 58.015625 27.296875 
Q 58.015625 14.40625 51.78125 6.484375 
Q 45.5625 -1.421875 35.59375 -1.421875 
Q 29.59375 -1.421875 25.265625 0.953125 
Q 20.953125 3.328125 18.109375 8.203125 
L 18.109375 0 
L 9.078125 0 
L 9.078125 75.984375 
L 18.109375 75.984375 
z
" id="DejaVuSans-98"/>
      <path d="M 34.28125 27.484375 
Q 23.390625 27.484375 19.1875 25 
Q 14.984375 22.515625 14.984375 16.5 
Q 14.984375 11.71875 18.140625 8.90625 
Q 21.296875 6.109375 26.703125 6.109375 
Q 34.1875 6.109375 38.703125 11.40625 
Q 43.21875 16.703125 43.21875 25.484375 
L 43.21875 27.484375 
z
M 52.203125 31.203125 
L 52.203125 0 
L 43.21875 0 
L 43.21875 8.296875 
Q 40.140625 3.328125 35.546875 0.953125 
Q 30.953125 -1.421875 24.3125 -1.421875 
Q 15.921875 -1.421875 10.953125 3.296875 
Q 6 8.015625 6 15.921875 
Q 6 25.140625 12.171875 29.828125 
Q 18.359375 34.515625 30.609375 34.515625 
L 43.21875 34.515625 
L 43.21875 35.40625 
Q 43.21875 41.609375 39.140625 45 
Q 35.0625 48.390625 27.6875 48.390625 
Q 23 48.390625 18.546875 47.265625 
Q 14.109375 46.140625 10.015625 43.890625 
L 10.015625 52.203125 
Q 14.9375 54.109375 19.578125 55.046875 
Q 24.21875 56 28.609375 56 
Q 40.484375 56 46.34375 49.84375 
Q 52.203125 43.703125 52.203125 31.203125 
z
" id="DejaVuSans-97"/>
      <path d="M 8.015625 75.875 
L 15.828125 75.875 
Q 23.140625 64.359375 26.78125 53.3125 
Q 30.421875 42.28125 30.421875 31.390625 
Q 30.421875 20.453125 26.78125 9.375 
Q 23.140625 -1.703125 15.828125 -13.1875 
L 8.015625 -13.1875 
Q 14.5 -2 17.703125 9.0625 
Q 20.90625 20.125 20.90625 31.390625 
Q 20.90625 42.671875 17.703125 53.65625 
Q 14.5 64.65625 8.015625 75.875 
z
" id="DejaVuSans-41"/>
     </defs>
     <g transform="translate(212.248437 481.403125)scale(0.2 -0.2)">
      <use xlink:href="#DejaVuSans-74"/>
      <use x="29.492188" xlink:href="#DejaVuSans-83"/>
      <use x="92.96875" xlink:href="#DejaVuSans-68"/>
      <use x="169.970703" xlink:href="#DejaVuSans-32"/>
      <use x="201.757812" xlink:href="#DejaVuSans-40"/>
      <use x="240.771484" xlink:href="#DejaVuSans-115"/>
      <use x="292.871094" xlink:href="#DejaVuSans-101"/>
      <use x="354.394531" xlink:href="#DejaVuSans-101"/>
      <use x="415.917969" xlink:href="#DejaVuSans-100"/>
      <use x="479.394531" xlink:href="#DejaVuSans-115"/>
      <use x="531.494141" xlink:href="#DejaVuSans-32"/>
      <use x="563.28125" xlink:href="#DejaVuSans-118"/>
      <use x="622.460938" xlink:href="#DejaVuSans-115"/>
      <use x="674.560547" xlink:href="#DejaVuSans-32"/>
      <use x="706.347656" xlink:href="#DejaVuSans-98"/>
      <use x="769.824219" xlink:href="#DejaVuSans-97"/>
      <use x="831.103516" xlink:href="#DejaVuSans-115"/>
      <use x="883.203125" xlink:href="#DejaVuSans-101"/>
      <use x="944.726562" xlink:href="#DejaVuSans-41"/>
     </g>
    </g>
   </g>
   <g id="matplotlib.axis_2">
    <g id="ytick_1">
     <g id="line2d_5">
      <defs>
       <path d="M 0 0 
L -3.5 0 
" id="m7226b0924c" style="stroke:#000000;stroke-width:1.6;"/>
      </defs>
      <g>
       <use style="stroke:#000000;stroke-width:1.6;" x="97.81" xlink:href="#m7226b0924c" y="55.72375"/>
      </g>
     </g>
     <g id="text_6">
      <!-- [0.00, -->
      <defs>
       <path d="M 8.59375 75.984375 
L 29.296875 75.984375 
L 29.296875 69 
L 17.578125 69 
L 17.578125 -6.203125 
L 29.296875 -6.203125 
L 29.296875 -13.1875 
L 8.59375 -13.1875 
z
" id="DejaVuSans-91"/>
       <path d="M 11.71875 12.40625 
L 22.015625 12.40625 
L 22.015625 4 
L 14.015625 -11.625 
L 7.71875 -11.625 
L 11.71875 4 
z
" id="DejaVuSans-44"/>
      </defs>
      <g transform="translate(24.419375 52.124375)scale(0.2 -0.2)">
       <use xlink:href="#DejaVuSans-91"/>
       <use x="39.013672" xlink:href="#DejaVuSans-48"/>
       <use x="102.636719" xlink:href="#DejaVuSans-46"/>
       <use x="134.423828" xlink:href="#DejaVuSans-48"/>
       <use x="198.046875" xlink:href="#DejaVuSans-48"/>
       <use x="261.669922" xlink:href="#DejaVuSans-44"/>
      </g>
      <!-- 0.25) -->
      <defs>
       <path d="M 10.796875 72.90625 
L 49.515625 72.90625 
L 49.515625 64.59375 
L 19.828125 64.59375 
L 19.828125 46.734375 
Q 21.96875 47.46875 24.109375 47.828125 
Q 26.265625 48.1875 28.421875 48.1875 
Q 40.625 48.1875 47.75 41.5 
Q 54.890625 34.8125 54.890625 23.390625 
Q 54.890625 11.625 47.5625 5.09375 
Q 40.234375 -1.421875 26.90625 -1.421875 
Q 22.3125 -1.421875 17.546875 -0.640625 
Q 12.796875 0.140625 7.71875 1.703125 
L 7.71875 11.625 
Q 12.109375 9.234375 16.796875 8.0625 
Q 21.484375 6.890625 26.703125 6.890625 
Q 35.15625 6.890625 40.078125 11.328125 
Q 45.015625 15.765625 45.015625 23.390625 
Q 45.015625 31 40.078125 35.4375 
Q 35.15625 39.890625 26.703125 39.890625 
Q 22.75 39.890625 18.8125 39.015625 
Q 14.890625 38.140625 10.796875 36.28125 
z
" id="DejaVuSans-53"/>
      </defs>
      <g transform="translate(30.775625 74.52)scale(0.2 -0.2)">
       <use xlink:href="#DejaVuSans-48"/>
       <use x="63.623047" xlink:href="#DejaVuSans-46"/>
       <use x="95.410156" xlink:href="#DejaVuSans-50"/>
       <use x="159.033203" xlink:href="#DejaVuSans-53"/>
       <use x="222.65625" xlink:href="#DejaVuSans-41"/>
      </g>
     </g>
    </g>
    <g id="ytick_2">
     <g id="line2d_6">
      <g>
       <use style="stroke:#000000;stroke-width:1.6;" x="97.81" xlink:href="#m7226b0924c" y="162.13125"/>
      </g>
     </g>
     <g id="text_7">
      <!-- [0.25, -->
      <g transform="translate(24.419375 158.531875)scale(0.2 -0.2)">
       <use xlink:href="#DejaVuSans-91"/>
       <use x="39.013672" xlink:href="#DejaVuSans-48"/>
       <use x="102.636719" xlink:href="#DejaVuSans-46"/>
       <use x="134.423828" xlink:href="#DejaVuSans-50"/>
       <use x="198.046875" xlink:href="#DejaVuSans-53"/>
       <use x="261.669922" xlink:href="#DejaVuSans-44"/>
      </g>
      <!-- 0.50) -->
      <g transform="translate(30.775625 180.9275)scale(0.2 -0.2)">
       <use xlink:href="#DejaVuSans-48"/>
       <use x="63.623047" xlink:href="#DejaVuSans-46"/>
       <use x="95.410156" xlink:href="#DejaVuSans-53"/>
       <use x="159.033203" xlink:href="#DejaVuSans-48"/>
       <use x="222.65625" xlink:href="#DejaVuSans-41"/>
      </g>
     </g>
    </g>
    <g id="ytick_3">
     <g id="line2d_7">
      <g>
       <use style="stroke:#000000;stroke-width:1.6;" x="97.81" xlink:href="#m7226b0924c" y="268.53875"/>
      </g>
     </g>
     <g id="text_8">
      <!-- [0.50, -->
      <g transform="translate(24.419375 264.939375)scale(0.2 -0.2)">
       <use xlink:href="#DejaVuSans-91"/>
       <use x="39.013672" xlink:href="#DejaVuSans-48"/>
       <use x="102.636719" xlink:href="#DejaVuSans-46"/>
       <use x="134.423828" xlink:href="#DejaVuSans-53"/>
       <use x="198.046875" xlink:href="#DejaVuSans-48"/>
       <use x="261.669922" xlink:href="#DejaVuSans-44"/>
      </g>
      <!-- 0.75) -->
      <defs>
       <path d="M 8.203125 72.90625 
L 55.078125 72.90625 
L 55.078125 68.703125 
L 28.609375 0 
L 18.3125 0 
L 43.21875 64.59375 
L 8.203125 64.59375 
z
" id="DejaVuSans-55"/>
      </defs>
      <g transform="translate(30.775625 287.335)scale(0.2 -0.2)">
       <use xlink:href="#DejaVuSans-48"/>
       <use x="63.623047" xlink:href="#DejaVuSans-46"/>
       <use x="95.410156" xlink:href="#DejaVuSans-55"/>
       <use x="159.033203" xlink:href="#DejaVuSans-53"/>
       <use x="222.65625" xlink:href="#DejaVuSans-41"/>
      </g>
     </g>
    </g>
    <g id="ytick_4">
     <g id="line2d_8">
      <g>
       <use style="stroke:#000000;stroke-width:1.6;" x="97.81" xlink:href="#m7226b0924c" y="374.94625"/>
      </g>
     </g>
     <g id="text_9">
      <!-- [0.75, -->
      <g transform="translate(24.419375 371.346875)scale(0.2 -0.2)">
       <use xlink:href="#DejaVuSans-91"/>
       <use x="39.013672" xlink:href="#DejaVuSans-48"/>
       <use x="102.636719" xlink:href="#DejaVuSans-46"/>
       <use x="134.423828" xlink:href="#DejaVuSans-55"/>
       <use x="198.046875" xlink:href="#DejaVuSans-53"/>
       <use x="261.669922" xlink:href="#DejaVuSans-44"/>
      </g>
      <!-- 1.00) -->
      <defs>
       <path d="M 12.40625 8.296875 
L 28.515625 8.296875 
L 28.515625 63.921875 
L 10.984375 60.40625 
L 10.984375 69.390625 
L 28.421875 72.90625 
L 38.28125 72.90625 
L 38.28125 8.296875 
L 54.390625 8.296875 
L 54.390625 0 
L 12.40625 0 
z
" id="DejaVuSans-49"/>
      </defs>
      <g transform="translate(30.775625 393.7425)scale(0.2 -0.2)">
       <use xlink:href="#DejaVuSans-49"/>
       <use x="63.623047" xlink:href="#DejaVuSans-46"/>
       <use x="95.410156" xlink:href="#DejaVuSans-48"/>
       <use x="159.033203" xlink:href="#DejaVuSans-48"/>
       <use x="222.65625" xlink:href="#DejaVuSans-41"/>
      </g>
     </g>
    </g>
    <g id="text_10">
     <!-- Max Attention -->
     <defs>
      <path d="M 9.8125 72.90625 
L 24.515625 72.90625 
L 43.109375 23.296875 
L 61.8125 72.90625 
L 76.515625 72.90625 
L 76.515625 0 
L 66.890625 0 
L 66.890625 64.015625 
L 48.09375 14.015625 
L 38.1875 14.015625 
L 19.390625 64.015625 
L 19.390625 0 
L 9.8125 0 
z
" id="DejaVuSans-77"/>
      <path d="M 54.890625 54.6875 
L 35.109375 28.078125 
L 55.90625 0 
L 45.3125 0 
L 29.390625 21.484375 
L 13.484375 0 
L 2.875 0 
L 24.125 28.609375 
L 4.6875 54.6875 
L 15.28125 54.6875 
L 29.78125 35.203125 
L 44.28125 54.6875 
z
" id="DejaVuSans-120"/>
      <path d="M 34.1875 63.1875 
L 20.796875 26.90625 
L 47.609375 26.90625 
z
M 28.609375 72.90625 
L 39.796875 72.90625 
L 67.578125 0 
L 57.328125 0 
L 50.6875 18.703125 
L 17.828125 18.703125 
L 11.1875 0 
L 0.78125 0 
z
" id="DejaVuSans-65"/>
      <path d="M 18.3125 70.21875 
L 18.3125 54.6875 
L 36.8125 54.6875 
L 36.8125 47.703125 
L 18.3125 47.703125 
L 18.3125 18.015625 
Q 18.3125 11.328125 20.140625 9.421875 
Q 21.96875 7.515625 27.59375 7.515625 
L 36.8125 7.515625 
L 36.8125 0 
L 27.59375 0 
Q 17.1875 0 13.234375 3.875 
Q 9.28125 7.765625 9.28125 18.015625 
L 9.28125 47.703125 
L 2.6875 47.703125 
L 2.6875 54.6875 
L 9.28125 54.6875 
L 9.28125 70.21875 
z
" id="DejaVuSans-116"/>
      <path d="M 54.890625 33.015625 
L 54.890625 0 
L 45.90625 0 
L 45.90625 32.71875 
Q 45.90625 40.484375 42.875 44.328125 
Q 39.84375 48.1875 33.796875 48.1875 
Q 26.515625 48.1875 22.3125 43.546875 
Q 18.109375 38.921875 18.109375 30.90625 
L 18.109375 0 
L 9.078125 0 
L 9.078125 54.6875 
L 18.109375 54.6875 
L 18.109375 46.1875 
Q 21.34375 51.125 25.703125 53.5625 
Q 30.078125 56 35.796875 56 
Q 45.21875 56 50.046875 50.171875 
Q 54.890625 44.34375 54.890625 33.015625 
z
" id="DejaVuSans-110"/>
      <path d="M 9.421875 54.6875 
L 18.40625 54.6875 
L 18.40625 0 
L 9.421875 0 
z
M 9.421875 75.984375 
L 18.40625 75.984375 
L 18.40625 64.59375 
L 9.421875 64.59375 
z
" id="DejaVuSans-105"/>
      <path d="M 30.609375 48.390625 
Q 23.390625 48.390625 19.1875 42.75 
Q 14.984375 37.109375 14.984375 27.296875 
Q 14.984375 17.484375 19.15625 11.84375 
Q 23.34375 6.203125 30.609375 6.203125 
Q 37.796875 6.203125 41.984375 11.859375 
Q 46.1875 17.53125 46.1875 27.296875 
Q 46.1875 37.015625 41.984375 42.703125 
Q 37.796875 48.390625 30.609375 48.390625 
z
M 30.609375 56 
Q 42.328125 56 49.015625 48.375 
Q 55.71875 40.765625 55.71875 27.296875 
Q 55.71875 13.875 49.015625 6.21875 
Q 42.328125 -1.421875 30.609375 -1.421875 
Q 18.84375 -1.421875 12.171875 6.21875 
Q 5.515625 13.875 5.515625 27.296875 
Q 5.515625 40.765625 12.171875 48.375 
Q 18.84375 56 30.609375 56 
z
" id="DejaVuSans-111"/>
     </defs>
     <g transform="translate(16.26 285.513125)rotate(-90)scale(0.2 -0.2)">
      <use xlink:href="#DejaVuSans-77"/>
      <use x="86.279297" xlink:href="#DejaVuSans-97"/>
      <use x="147.558594" xlink:href="#DejaVuSans-120"/>
      <use x="206.738281" xlink:href="#DejaVuSans-32"/>
      <use x="238.525391" xlink:href="#DejaVuSans-65"/>
      <use x="306.917969" xlink:href="#DejaVuSans-116"/>
      <use x="346.126953" xlink:href="#DejaVuSans-116"/>
      <use x="385.335938" xlink:href="#DejaVuSans-101"/>
      <use x="446.859375" xlink:href="#DejaVuSans-110"/>
      <use x="510.238281" xlink:href="#DejaVuSans-116"/>
      <use x="549.447266" xlink:href="#DejaVuSans-105"/>
      <use x="577.230469" xlink:href="#DejaVuSans-111"/>
      <use x="638.412109" xlink:href="#DejaVuSans-110"/>
     </g>
    </g>
   </g>
   <g id="line2d_9">
    <path clip-path="url(#p05bf3abcc1)" d="M 138.228278 14.19048 
L 138.228278 54.69402 
" style="fill:none;stroke:#424242;stroke-dasharray:1.5,1.5;stroke-dashoffset:0;"/>
   </g>
   <g id="line2d_10">
    <path clip-path="url(#p05bf3abcc1)" d="M 140.752123 13.381819 
L 140.752123 55.502681 
" style="fill:none;stroke:#424242;stroke-dasharray:3,3;stroke-dashoffset:0;"/>
   </g>
   <g id="line2d_11">
    <path clip-path="url(#p05bf3abcc1)" d="M 145.287693 14.85374 
L 145.287693 54.03076 
" style="fill:none;stroke:#424242;stroke-dasharray:1.5,1.5;stroke-dashoffset:0;"/>
   </g>
   <g id="line2d_12">
    <path clip-path="url(#p05bf3abcc1)" d="M 192.199076 75.41188 
L 192.199076 78.59862 
" style="fill:none;stroke:#424242;stroke-dasharray:1.5,1.5;stroke-dashoffset:0;"/>
   </g>
   <g id="line2d_13">
    <path clip-path="url(#p05bf3abcc1)" d="M 242.010839 75.36357 
L 242.010839 78.64693 
" style="fill:none;stroke:#424242;stroke-dasharray:3,3;stroke-dashoffset:0;"/>
   </g>
   <g id="line2d_14">
    <path clip-path="url(#p05bf3abcc1)" d="M 291.822603 75.41188 
L 291.822603 78.59862 
" style="fill:none;stroke:#424242;stroke-dasharray:1.5,1.5;stroke-dashoffset:0;"/>
   </g>
   <g id="line2d_15">
    <path clip-path="url(#p05bf3abcc1)" d="M 145.147833 119.973961 
L 145.147833 161.725539 
" style="fill:none;stroke:#424242;stroke-dasharray:1.5,1.5;stroke-dashoffset:0;"/>
   </g>
   <g id="line2d_16">
    <path clip-path="url(#p05bf3abcc1)" d="M 149.912207 119.800986 
L 149.912207 161.898514 
" style="fill:none;stroke:#424242;stroke-dasharray:3,3;stroke-dashoffset:0;"/>
   </g>
   <g id="line2d_17">
    <path clip-path="url(#p05bf3abcc1)" d="M 172.031431 124.104858 
L 172.031431 157.594642 
" style="fill:none;stroke:#424242;stroke-dasharray:1.5,1.5;stroke-dashoffset:0;"/>
   </g>
   <g id="line2d_18">
    <path clip-path="url(#p05bf3abcc1)" d="M 195.095781 168.018828 
L 195.095781 198.806672 
" style="fill:none;stroke:#424242;stroke-dasharray:1.5,1.5;stroke-dashoffset:0;"/>
   </g>
   <g id="line2d_19">
    <path clip-path="url(#p05bf3abcc1)" d="M 217.207951 164.85517 
L 217.207951 201.97033 
" style="fill:none;stroke:#424242;stroke-dasharray:3,3;stroke-dashoffset:0;"/>
   </g>
   <g id="line2d_20">
    <path clip-path="url(#p05bf3abcc1)" d="M 225.721304 164.976393 
L 225.721304 201.849107 
" style="fill:none;stroke:#424242;stroke-dasharray:1.5,1.5;stroke-dashoffset:0;"/>
   </g>
   <g id="patch_5">
    <path d="M 97.81 428.15 
L 97.81 2.52 
" style="fill:none;stroke:#000000;stroke-linecap:square;stroke-linejoin:miter;stroke-width:0.8;"/>
   </g>
   <g id="patch_6">
    <path d="M 97.81 428.15 
L 523.44 428.15 
" style="fill:none;stroke:#000000;stroke-linecap:square;stroke-linejoin:miter;stroke-width:0.8;"/>
   </g>
  </g>
  <g id="axes_2">
   <g id="patch_7">
    <path d="M 615.13 428.15 
L 1040.76 428.15 
L 1040.76 2.52 
L 615.13 2.52 
z
" style="fill:#ffffff;"/>
   </g>
   <g id="PathCollection_1">
    <path clip-path="url(#p8bf8bc8bab)" d="M 689.513043 334.493708 
L 690.303612 333.703139 
L 691.094182 334.493708 
L 691.884751 333.703139 
L 691.094182 332.91257 
L 691.884751 332.122 
L 691.094182 331.331431 
L 690.303612 332.122 
L 689.513043 331.331431 
L 688.722473 332.122 
L 689.513043 332.91257 
L 688.722473 333.703139 
z
" style="fill:#d95f02;fill-opacity:0.7;"/>
    <path clip-path="url(#p8bf8bc8bab)" d="M 667.232207 391.738808 
C 667.65153 391.738808 668.053735 391.572209 668.350241 391.275703 
C 668.646747 390.979197 668.813346 390.576992 668.813346 390.157669 
C 668.813346 389.738346 668.646747 389.336141 668.350241 389.039635 
C 668.053735 388.743129 667.65153 388.57653 667.232207 388.57653 
C 666.812884 388.57653 666.410679 388.743129 666.114173 389.039635 
C 665.817667 389.336141 665.651068 389.738346 665.651068 390.157669 
C 665.651068 390.576992 665.817667 390.979197 666.114173 391.275703 
C 666.410679 391.572209 666.812884 391.738808 667.232207 391.738808 
z
" style="fill:#7570b3;fill-opacity:0.7;"/>
    <path clip-path="url(#p8bf8bc8bab)" d="M 654.781456 313.873804 
C 655.200779 313.873804 655.602984 313.707206 655.89949 313.4107 
C 656.195996 313.114194 656.362595 312.711989 656.362595 312.292666 
C 656.362595 311.873343 656.195996 311.471138 655.89949 311.174632 
C 655.602984 310.878126 655.200779 310.711527 654.781456 310.711527 
C 654.362133 310.711527 653.959928 310.878126 653.663422 311.174632 
C 653.366916 311.471138 653.200317 311.873343 653.200317 312.292666 
C 653.200317 312.711989 653.366916 313.114194 653.663422 313.4107 
C 653.959928 313.707206 654.362133 313.873804 654.781456 313.873804 
z
" style="fill:#7570b3;fill-opacity:0.7;"/>
    <path clip-path="url(#p8bf8bc8bab)" d="M 649.732722 388.032904 
C 650.152045 388.032904 650.55425 387.866306 650.850756 387.569799 
C 651.147262 387.273293 651.313861 386.871088 651.313861 386.451765 
C 651.313861 386.032443 651.147262 385.630238 650.850756 385.333731 
C 650.55425 385.037225 650.152045 384.870627 649.732722 384.870627 
C 649.313399 384.870627 648.911194 385.037225 648.614688 385.333731 
C 648.318182 385.630238 648.151583 386.032443 648.151583 386.451765 
C 648.151583 386.871088 648.318182 387.273293 648.614688 387.569799 
C 648.911194 387.866306 649.313399 388.032904 649.732722 388.032904 
z
" style="fill:#7570b3;fill-opacity:0.7;"/>
    <path clip-path="url(#p8bf8bc8bab)" d="M 733.737381 356.912642 
L 734.527951 356.122073 
L 735.31852 356.912642 
L 736.10909 356.122073 
L 735.31852 355.331503 
L 736.10909 354.540934 
L 735.31852 353.750365 
L 734.527951 354.540934 
L 733.737381 353.750365 
L 732.946812 354.540934 
L 733.737381 355.331503 
L 732.946812 356.122073 
z
" style="fill:#d95f02;fill-opacity:0.7;"/>
    <path clip-path="url(#p8bf8bc8bab)" d="M 657.895451 345.357343 
C 658.314774 345.357343 658.716979 345.190744 659.013485 344.894238 
C 659.309991 344.597732 659.47659 344.195527 659.47659 343.776204 
C 659.47659 343.356881 659.309991 342.954676 659.013485 342.65817 
C 658.716979 342.361664 658.314774 342.195065 657.895451 342.195065 
C 657.476128 342.195065 657.073923 342.361664 656.777417 342.65817 
C 656.480911 342.954676 656.314312 343.356881 656.314312 343.776204 
C 656.314312 344.195527 656.480911 344.597732 656.777417 344.894238 
C 657.073923 345.190744 657.476128 345.357343 657.895451 345.357343 
z
" style="fill:#7570b3;fill-opacity:0.7;"/>
    <path clip-path="url(#p8bf8bc8bab)" d="M 711.470655 336.997052 
C 711.889978 336.997052 712.292183 336.830453 712.588689 336.533947 
C 712.885195 336.237441 713.051794 335.835236 713.051794 335.415913 
C 713.051794 334.99659 712.885195 334.594385 712.588689 334.297879 
C 712.292183 334.001373 711.889978 333.834774 711.470655 333.834774 
C 711.051332 333.834774 710.649127 334.001373 710.352621 334.297879 
C 710.056115 334.594385 709.889516 334.99659 709.889516 335.415913 
C 709.889516 335.835236 710.056115 336.237441 710.352621 336.533947 
C 710.649127 336.830453 711.051332 336.997052 711.470655 336.997052 
z
" style="fill:#7570b3;fill-opacity:0.7;"/>
    <path clip-path="url(#p8bf8bc8bab)" d="M 658.077252 352.741307 
C 658.496575 352.741307 658.89878 352.574708 659.195286 352.278202 
C 659.491792 351.981696 659.65839 351.579491 659.65839 351.160168 
C 659.65839 350.740845 659.491792 350.33864 659.195286 350.042134 
C 658.89878 349.745628 658.496575 349.57903 658.077252 349.57903 
C 657.657929 349.57903 657.255724 349.745628 656.959218 350.042134 
C 656.662712 350.33864 656.496113 350.740845 656.496113 351.160168 
C 656.496113 351.579491 656.662712 351.981696 656.959218 352.278202 
C 657.255724 352.574708 657.657929 352.741307 658.077252 352.741307 
z
" style="fill:#7570b3;fill-opacity:0.7;"/>
    <path clip-path="url(#p8bf8bc8bab)" d="M 664.57228 377.938351 
C 664.991603 377.938351 665.393808 377.771752 665.690314 377.475246 
C 665.98682 377.17874 666.153419 376.776535 666.153419 376.357212 
C 666.153419 375.937889 665.98682 375.535684 665.690314 375.239178 
C 665.393808 374.942672 664.991603 374.776073 664.57228 374.776073 
C 664.152957 374.776073 663.750752 374.942672 663.454246 375.239178 
C 663.15774 375.535684 662.991141 375.937889 662.991141 376.357212 
C 662.991141 376.776535 663.15774 377.17874 663.454246 377.475246 
C 663.750752 377.771752 664.152957 377.938351 664.57228 377.938351 
z
" style="fill:#7570b3;fill-opacity:0.7;"/>
    <path clip-path="url(#p8bf8bc8bab)" d="M 657.70346 398.111259 
C 658.122783 398.111259 658.524988 397.944661 658.821494 397.648155 
C 659.118 397.351649 659.284599 396.949444 659.284599 396.530121 
C 659.284599 396.110798 659.118 395.708593 658.821494 395.412087 
C 658.524988 395.115581 658.122783 394.948982 657.70346 394.948982 
C 657.284137 394.948982 656.881932 395.115581 656.585426 395.412087 
C 656.28892 395.708593 656.122321 396.110798 656.122321 396.530121 
C 656.122321 396.949444 656.28892 397.351649 656.585426 397.648155 
C 656.881932 397.944661 657.284137 398.111259 657.70346 398.111259 
z
" style="fill:#7570b3;fill-opacity:0.7;"/>
    <path clip-path="url(#p8bf8bc8bab)" d="M 657.979373 397.855787 
C 658.398695 397.855787 658.8009 397.689188 659.097407 397.392682 
C 659.393913 397.096176 659.560511 396.693971 659.560511 396.274648 
C 659.560511 395.855325 659.393913 395.45312 659.097407 395.156614 
C 658.8009 394.860108 658.398695 394.693509 657.979373 394.693509 
C 657.56005 394.693509 657.157845 394.860108 656.861339 395.156614 
C 656.564832 395.45312 656.398234 395.855325 656.398234 396.274648 
C 656.398234 396.693971 656.564832 397.096176 656.861339 397.392682 
C 657.157845 397.689188 657.56005 397.855787 657.979373 397.855787 
z
" style="fill:#7570b3;fill-opacity:0.7;"/>
    <path clip-path="url(#p8bf8bc8bab)" d="M 750.764088 338.877166 
L 751.554658 338.086597 
L 752.345227 338.877166 
L 753.135797 338.086597 
L 752.345227 337.296028 
L 753.135797 336.505458 
L 752.345227 335.714889 
L 751.554658 336.505458 
L 750.764088 335.714889 
L 749.973519 336.505458 
L 750.764088 337.296028 
L 749.973519 338.086597 
z
" style="fill:#d95f02;fill-opacity:0.7;"/>
    <path clip-path="url(#p8bf8bc8bab)" d="M 655.310189 405.532616 
C 655.729512 405.532616 656.131717 405.366018 656.428223 405.069512 
C 656.724729 404.773005 656.891328 404.370801 656.891328 403.951478 
C 656.891328 403.532155 656.724729 403.12995 656.428223 402.833444 
C 656.131717 402.536938 655.729512 402.370339 655.310189 402.370339 
C 654.890866 402.370339 654.488661 402.536938 654.192155 402.833444 
C 653.895649 403.12995 653.72905 403.532155 653.72905 403.951478 
C 653.72905 404.370801 653.895649 404.773005 654.192155 405.069512 
C 654.488661 405.366018 654.890866 405.532616 655.310189 405.532616 
z
" style="fill:#7570b3;fill-opacity:0.7;"/>
    <path clip-path="url(#p8bf8bc8bab)" d="M 661.772564 380.901672 
C 662.191887 380.901672 662.594092 380.735073 662.890598 380.438567 
C 663.187104 380.142061 663.353703 379.739856 663.353703 379.320533 
C 663.353703 378.90121 663.187104 378.499005 662.890598 378.202499 
C 662.594092 377.905993 662.191887 377.739394 661.772564 377.739394 
C 661.353241 377.739394 660.951036 377.905993 660.65453 378.202499 
C 660.358024 378.499005 660.191425 378.90121 660.191425 379.320533 
C 660.191425 379.739856 660.358024 380.142061 660.65453 380.438567 
C 660.951036 380.735073 661.353241 380.901672 661.772564 380.901672 
z
" style="fill:#7570b3;fill-opacity:0.7;"/>
    <path clip-path="url(#p8bf8bc8bab)" d="M 663.431398 346.299443 
C 663.850721 346.299443 664.252926 346.132844 664.549432 345.836338 
C 664.845938 345.539832 665.012537 345.137627 665.012537 344.718304 
C 665.012537 344.298981 664.845938 343.896776 664.549432 343.60027 
C 664.252926 343.303764 663.850721 343.137165 663.431398 343.137165 
C 663.012075 343.137165 662.60987 343.303764 662.313364 343.60027 
C 662.016858 343.896776 661.850259 344.298981 661.850259 344.718304 
C 661.850259 345.137627 662.016858 345.539832 662.313364 345.836338 
C 662.60987 346.132844 663.012075 346.299443 663.431398 346.299443 
z
" style="fill:#7570b3;fill-opacity:0.7;"/>
    <path clip-path="url(#p8bf8bc8bab)" d="M 664.936667 351.501988 
C 665.35599 351.501988 665.758195 351.335389 666.054701 351.038883 
C 666.351208 350.742377 666.517806 350.340172 666.517806 349.920849 
C 666.517806 349.501526 666.351208 349.099321 666.054701 348.802815 
C 665.758195 348.506309 665.35599 348.33971 664.936667 348.33971 
C 664.517345 348.33971 664.11514 348.506309 663.818633 348.802815 
C 663.522127 349.099321 663.355529 349.501526 663.355529 349.920849 
C 663.355529 350.340172 663.522127 350.742377 663.818633 351.038883 
C 664.11514 351.335389 664.517345 351.501988 664.936667 351.501988 
z
" style="fill:#7570b3;fill-opacity:0.7;"/>
    <path clip-path="url(#p8bf8bc8bab)" d="M 660.673219 407.034451 
C 661.092542 407.034451 661.494747 406.867852 661.791253 406.571346 
C 662.087759 406.27484 662.254358 405.872635 662.254358 405.453312 
C 662.254358 405.033989 662.087759 404.631784 661.791253 404.335278 
C 661.494747 404.038772 661.092542 403.872173 660.673219 403.872173 
C 660.253896 403.872173 659.851691 404.038772 659.555185 404.335278 
C 659.258679 404.631784 659.09208 405.033989 659.09208 405.453312 
C 659.09208 405.872635 659.258679 406.27484 659.555185 406.571346 
C 659.851691 406.867852 660.253896 407.034451 660.673219 407.034451 
z
" style="fill:#7570b3;fill-opacity:0.7;"/>
    <path clip-path="url(#p8bf8bc8bab)" d="M 660.784181 388.7927 
C 661.203504 388.7927 661.605709 388.626102 661.902215 388.329596 
C 662.198721 388.03309 662.36532 387.630885 662.36532 387.211562 
C 662.36532 386.792239 662.198721 386.390034 661.902215 386.093528 
C 661.605709 385.797022 661.203504 385.630423 660.784181 385.630423 
C 660.364858 385.630423 659.962653 385.797022 659.666147 386.093528 
C 659.369641 386.390034 659.203042 386.792239 659.203042 387.211562 
C 659.203042 387.630885 659.369641 388.03309 659.666147 388.329596 
C 659.962653 388.626102 660.364858 388.7927 660.784181 388.7927 
z
" style="fill:#7570b3;fill-opacity:0.7;"/>
    <path clip-path="url(#p8bf8bc8bab)" d="M 679.949759 375.797182 
C 680.369082 375.797182 680.771287 375.630584 681.067793 375.334078 
C 681.364299 375.037571 681.530898 374.635366 681.530898 374.216044 
C 681.530898 373.796721 681.364299 373.394516 681.067793 373.09801 
C 680.771287 372.801504 680.369082 372.634905 679.949759 372.634905 
C 679.530436 372.634905 679.128231 372.801504 678.831725 373.09801 
C 678.535219 373.394516 678.368621 373.796721 678.368621 374.216044 
C 678.368621 374.635366 678.535219 375.037571 678.831725 375.334078 
C 679.128231 375.630584 679.530436 375.797182 679.949759 375.797182 
z
" style="fill:#7570b3;fill-opacity:0.7;"/>
    <path clip-path="url(#p8bf8bc8bab)" d="M 653.698314 403.385932 
C 654.117637 403.385932 654.519842 403.219333 654.816348 402.922827 
C 655.112854 402.626321 655.279453 402.224116 655.279453 401.804793 
C 655.279453 401.38547 655.112854 400.983265 654.816348 400.686759 
C 654.519842 400.390253 654.117637 400.223654 653.698314 400.223654 
C 653.278991 400.223654 652.876786 400.390253 652.58028 400.686759 
C 652.283774 400.983265 652.117175 401.38547 652.117175 401.804793 
C 652.117175 402.224116 652.283774 402.626321 652.58028 402.922827 
C 652.876786 403.219333 653.278991 403.385932 653.698314 403.385932 
z
" style="fill:#7570b3;fill-opacity:0.7;"/>
    <path clip-path="url(#p8bf8bc8bab)" d="M 659.361991 403.40707 
C 659.781314 403.40707 660.183519 403.240471 660.480025 402.943965 
C 660.776531 402.647459 660.94313 402.245254 660.94313 401.825931 
C 660.94313 401.406608 660.776531 401.004403 660.480025 400.707897 
C 660.183519 400.411391 659.781314 400.244792 659.361991 400.244792 
C 658.942668 400.244792 658.540463 400.411391 658.243957 400.707897 
C 657.947451 401.004403 657.780852 401.406608 657.780852 401.825931 
C 657.780852 402.245254 657.947451 402.647459 658.243957 402.943965 
C 658.540463 403.240471 658.942668 403.40707 659.361991 403.40707 
z
" style="fill:#7570b3;fill-opacity:0.7;"/>
    <path clip-path="url(#p8bf8bc8bab)" d="M 654.267095 383.433254 
C 654.686418 383.433254 655.088623 383.266655 655.385129 382.970149 
C 655.681635 382.673643 655.848234 382.271438 655.848234 381.852115 
C 655.848234 381.432792 655.681635 381.030587 655.385129 380.734081 
C 655.088623 380.437575 654.686418 380.270976 654.267095 380.270976 
C 653.847772 380.270976 653.445567 380.437575 653.149061 380.734081 
C 652.852555 381.030587 652.685956 381.432792 652.685956 381.852115 
C 652.685956 382.271438 652.852555 382.673643 653.149061 382.970149 
C 653.445567 383.266655 653.847772 383.433254 654.267095 383.433254 
z
" style="fill:#7570b3;fill-opacity:0.7;"/>
    <path clip-path="url(#p8bf8bc8bab)" d="M 784.964325 371.917825 
C 785.383648 371.917825 785.785853 371.751226 786.082359 371.45472 
C 786.378866 371.158214 786.545464 370.756009 786.545464 370.336686 
C 786.545464 369.917363 786.378866 369.515158 786.082359 369.218652 
C 785.785853 368.922146 785.383648 368.755547 784.964325 368.755547 
C 784.545003 368.755547 784.142798 368.922146 783.846291 369.218652 
C 783.549785 369.515158 783.383187 369.917363 783.383187 370.336686 
C 783.383187 370.756009 783.549785 371.158214 783.846291 371.45472 
C 784.142798 371.751226 784.545003 371.917825 784.964325 371.917825 
z
" style="fill:#7570b3;fill-opacity:0.7;"/>
    <path clip-path="url(#p8bf8bc8bab)" d="M 668.022455 285.561504 
C 668.441777 285.561504 668.843982 285.394906 669.140488 285.0984 
C 669.436995 284.801894 669.603593 284.399689 669.603593 283.980366 
C 669.603593 283.561043 669.436995 283.158838 669.140488 282.862332 
C 668.843982 282.565826 668.441777 282.399227 668.022455 282.399227 
C 667.603132 282.399227 667.200927 282.565826 666.904421 282.862332 
C 666.607914 283.158838 666.441316 283.561043 666.441316 283.980366 
C 666.441316 284.399689 666.607914 284.801894 666.904421 285.0984 
C 667.200927 285.394906 667.603132 285.561504 668.022455 285.561504 
z
" style="fill:#7570b3;fill-opacity:0.7;"/>
    <path clip-path="url(#p8bf8bc8bab)" d="M 685.656643 362.723339 
C 686.075966 362.723339 686.478171 362.55674 686.774677 362.260234 
C 687.071183 361.963728 687.237782 361.561523 687.237782 361.1422 
C 687.237782 360.722877 687.071183 360.320672 686.774677 360.024166 
C 686.478171 359.72766 686.075966 359.561061 685.656643 359.561061 
C 685.23732 359.561061 684.835115 359.72766 684.538609 360.024166 
C 684.242103 360.320672 684.075504 360.722877 684.075504 361.1422 
C 684.075504 361.561523 684.242103 361.963728 684.538609 362.260234 
C 684.835115 362.55674 685.23732 362.723339 685.656643 362.723339 
z
" style="fill:#7570b3;fill-opacity:0.7;"/>
    <path clip-path="url(#p8bf8bc8bab)" d="M 656.139102 407.071409 
C 656.558425 407.071409 656.96063 406.90481 657.257136 406.608304 
C 657.553642 406.311798 657.720241 405.909593 657.720241 405.49027 
C 657.720241 405.070947 657.553642 404.668742 657.257136 404.372236 
C 656.96063 404.07573 656.558425 403.909131 656.139102 403.909131 
C 655.719779 403.909131 655.317574 404.07573 655.021068 404.372236 
C 654.724562 404.668742 654.557963 405.070947 654.557963 405.49027 
C 654.557963 405.909593 654.724562 406.311798 655.021068 406.608304 
C 655.317574 406.90481 655.719779 407.071409 656.139102 407.071409 
z
" style="fill:#7570b3;fill-opacity:0.7;"/>
    <path clip-path="url(#p8bf8bc8bab)" d="M 659.118259 407.380412 
C 659.537582 407.380412 659.939787 407.213813 660.236293 406.917307 
C 660.532799 406.620801 660.699398 406.218596 660.699398 405.799273 
C 660.699398 405.37995 660.532799 404.977745 660.236293 404.681239 
C 659.939787 404.384733 659.537582 404.218134 659.118259 404.218134 
C 658.698936 404.218134 658.296731 404.384733 658.000225 404.681239 
C 657.703719 404.977745 657.53712 405.37995 657.53712 405.799273 
C 657.53712 406.218596 657.703719 406.620801 658.000225 406.917307 
C 658.296731 407.213813 658.698936 407.380412 659.118259 407.380412 
z
" style="fill:#7570b3;fill-opacity:0.7;"/>
    <path clip-path="url(#p8bf8bc8bab)" d="M 660.821507 405.463021 
C 661.24083 405.463021 661.643035 405.296423 661.939541 404.999916 
C 662.236047 404.70341 662.402646 404.301205 662.402646 403.881882 
C 662.402646 403.46256 662.236047 403.060355 661.939541 402.763848 
C 661.643035 402.467342 661.24083 402.300744 660.821507 402.300744 
C 660.402184 402.300744 659.999979 402.467342 659.703473 402.763848 
C 659.406967 403.060355 659.240368 403.46256 659.240368 403.881882 
C 659.240368 404.301205 659.406967 404.70341 659.703473 404.999916 
C 659.999979 405.296423 660.402184 405.463021 660.821507 405.463021 
z
" style="fill:#7570b3;fill-opacity:0.7;"/>
    <path clip-path="url(#p8bf8bc8bab)" d="M 654.308592 407.623448 
C 654.727915 407.623448 655.13012 407.456849 655.426626 407.160343 
C 655.723132 406.863837 655.889731 406.461632 655.889731 406.042309 
C 655.889731 405.622986 655.723132 405.220781 655.426626 404.924275 
C 655.13012 404.627769 654.727915 404.461171 654.308592 404.461171 
C 653.889269 404.461171 653.487064 404.627769 653.190558 404.924275 
C 652.894052 405.220781 652.727453 405.622986 652.727453 406.042309 
C 652.727453 406.461632 652.894052 406.863837 653.190558 407.160343 
C 653.487064 407.456849 653.889269 407.623448 654.308592 407.623448 
z
" style="fill:#7570b3;fill-opacity:0.7;"/>
    <path clip-path="url(#p8bf8bc8bab)" d="M 658.916744 260.349512 
L 659.707313 259.558943 
L 660.497883 260.349512 
L 661.288452 259.558943 
L 660.497883 258.768373 
L 661.288452 257.977804 
L 660.497883 257.187235 
L 659.707313 257.977804 
L 658.916744 257.187235 
L 658.126174 257.977804 
L 658.916744 258.768373 
L 658.126174 259.558943 
z
" style="fill:#d95f02;fill-opacity:0.7;"/>
    <path clip-path="url(#p8bf8bc8bab)" d="M 662.333125 374.394547 
C 662.752448 374.394547 663.154653 374.227949 663.451159 373.931443 
C 663.747665 373.634937 663.914264 373.232732 663.914264 372.813409 
C 663.914264 372.394086 663.747665 371.991881 663.451159 371.695375 
C 663.154653 371.398869 662.752448 371.23227 662.333125 371.23227 
C 661.913802 371.23227 661.511597 371.398869 661.215091 371.695375 
C 660.918585 371.991881 660.751986 372.394086 660.751986 372.813409 
C 660.751986 373.232732 660.918585 373.634937 661.215091 373.931443 
C 661.511597 374.227949 661.913802 374.394547 662.333125 374.394547 
z
" style="fill:#7570b3;fill-opacity:0.7;"/>
    <path clip-path="url(#p8bf8bc8bab)" d="M 661.975853 410.137855 
C 662.395176 410.137855 662.797381 409.971256 663.093887 409.67475 
C 663.390393 409.378244 663.556992 408.976039 663.556992 408.556716 
C 663.556992 408.137393 663.390393 407.735188 663.093887 407.438682 
C 662.797381 407.142176 662.395176 406.975577 661.975853 406.975577 
C 661.55653 406.975577 661.154326 407.142176 660.857819 407.438682 
C 660.561313 407.735188 660.394715 408.137393 660.394715 408.556716 
C 660.394715 408.976039 660.561313 409.378244 660.857819 409.67475 
C 661.154326 409.971256 661.55653 410.137855 661.975853 410.137855 
z
" style="fill:#7570b3;fill-opacity:0.7;"/>
    <path clip-path="url(#p8bf8bc8bab)" d="M 682.694031 388.169423 
C 683.113354 388.169423 683.515559 388.002824 683.812065 387.706318 
C 684.108571 387.409812 684.27517 387.007607 684.27517 386.588284 
C 684.27517 386.168961 684.108571 385.766756 683.812065 385.47025 
C 683.515559 385.173744 683.113354 385.007145 682.694031 385.007145 
C 682.274708 385.007145 681.872503 385.173744 681.575997 385.47025 
C 681.279491 385.766756 681.112892 386.168961 681.112892 386.588284 
C 681.112892 387.007607 681.279491 387.409812 681.575997 387.706318 
C 681.872503 388.002824 682.274708 388.169423 682.694031 388.169423 
z
" style="fill:#7570b3;fill-opacity:0.7;"/>
    <path clip-path="url(#p8bf8bc8bab)" d="M 658.038997 409.220089 
C 658.45832 409.220089 658.860525 409.053491 659.157031 408.756985 
C 659.453537 408.460478 659.620136 408.058273 659.620136 407.638951 
C 659.620136 407.219628 659.453537 406.817423 659.157031 406.520917 
C 658.860525 406.22441 658.45832 406.057812 658.038997 406.057812 
C 657.619674 406.057812 657.217469 406.22441 656.920963 406.520917 
C 656.624457 406.817423 656.457858 407.219628 656.457858 407.638951 
C 656.457858 408.058273 656.624457 408.460478 656.920963 408.756985 
C 657.217469 409.053491 657.619674 409.220089 658.038997 409.220089 
z
" style="fill:#7570b3;fill-opacity:0.7;"/>
    <path clip-path="url(#p8bf8bc8bab)" d="M 650.080546 406.25665 
C 650.499869 406.25665 650.902074 406.090051 651.19858 405.793545 
C 651.495086 405.497039 651.661685 405.094834 651.661685 404.675511 
C 651.661685 404.256188 651.495086 403.853983 651.19858 403.557477 
C 650.902074 403.260971 650.499869 403.094373 650.080546 403.094373 
C 649.661223 403.094373 649.259018 403.260971 648.962512 403.557477 
C 648.666006 403.853983 648.499408 404.256188 648.499408 404.675511 
C 648.499408 405.094834 648.666006 405.497039 648.962512 405.793545 
C 649.259018 406.090051 649.661223 406.25665 650.080546 406.25665 
z
" style="fill:#7570b3;fill-opacity:0.7;"/>
    <path clip-path="url(#p8bf8bc8bab)" d="M 654.329593 409.099819 
C 654.748916 409.099819 655.151121 408.93322 655.447627 408.636714 
C 655.744133 408.340208 655.910732 407.938003 655.910732 407.51868 
C 655.910732 407.099357 655.744133 406.697152 655.447627 406.400646 
C 655.151121 406.10414 654.748916 405.937541 654.329593 405.937541 
C 653.91027 405.937541 653.508065 406.10414 653.211559 406.400646 
C 652.915053 406.697152 652.748454 407.099357 652.748454 407.51868 
C 652.748454 407.938003 652.915053 408.340208 653.211559 408.636714 
C 653.508065 408.93322 653.91027 409.099819 654.329593 409.099819 
z
" style="fill:#7570b3;fill-opacity:0.7;"/>
    <path clip-path="url(#p8bf8bc8bab)" d="M 858.163796 269.796304 
L 858.954366 269.005734 
L 859.744935 269.796304 
L 860.535504 269.005734 
L 859.744935 268.215165 
L 860.535504 267.424595 
L 859.744935 266.634026 
L 858.954366 267.424595 
L 858.163796 266.634026 
L 857.373227 267.424595 
L 858.163796 268.215165 
L 857.373227 269.005734 
z
" style="fill:#d95f02;fill-opacity:0.7;"/>
    <path clip-path="url(#p8bf8bc8bab)" d="M 671.105741 409.849578 
C 671.525064 409.849578 671.927269 409.682979 672.223775 409.386473 
C 672.520281 409.089967 672.68688 408.687762 672.68688 408.268439 
C 672.68688 407.849116 672.520281 407.446911 672.223775 407.150405 
C 671.927269 406.853899 671.525064 406.6873 671.105741 406.6873 
C 670.686418 406.6873 670.284213 406.853899 669.987707 407.150405 
C 669.691201 407.446911 669.524602 407.849116 669.524602 408.268439 
C 669.524602 408.687762 669.691201 409.089967 669.987707 409.386473 
C 670.284213 409.682979 670.686418 409.849578 671.105741 409.849578 
z
" style="fill:#7570b3;fill-opacity:0.7;"/>
    <path clip-path="url(#p8bf8bc8bab)" d="M 657.004111 409.144865 
C 657.423434 409.144865 657.825639 408.978267 658.122145 408.681761 
C 658.418651 408.385254 658.58525 407.983049 658.58525 407.563727 
C 658.58525 407.144404 658.418651 406.742199 658.122145 406.445693 
C 657.825639 406.149186 657.423434 405.982588 657.004111 405.982588 
C 656.584788 405.982588 656.182583 406.149186 655.886077 406.445693 
C 655.589571 406.742199 655.422972 407.144404 655.422972 407.563727 
C 655.422972 407.983049 655.589571 408.385254 655.886077 408.681761 
C 656.182583 408.978267 656.584788 409.144865 657.004111 409.144865 
z
" style="fill:#7570b3;fill-opacity:0.7;"/>
    <path clip-path="url(#p8bf8bc8bab)" d="M 658.066995 408.566612 
C 658.486318 408.566612 658.888523 408.400013 659.185029 408.103507 
C 659.481535 407.807001 659.648134 407.404796 659.648134 406.985473 
C 659.648134 406.56615 659.481535 406.163945 659.185029 405.867439 
C 658.888523 405.570933 658.486318 405.404334 658.066995 405.404334 
C 657.647672 405.404334 657.245467 405.570933 656.948961 405.867439 
C 656.652455 406.163945 656.485856 406.56615 656.485856 406.985473 
C 656.485856 407.404796 656.652455 407.807001 656.948961 408.103507 
C 657.245467 408.400013 657.647672 408.566612 658.066995 408.566612 
z
" style="fill:#7570b3;fill-opacity:0.7;"/>
    <path clip-path="url(#p8bf8bc8bab)" d="M 658.035978 409.655359 
C 658.455301 409.655359 658.857506 409.48876 659.154012 409.192254 
C 659.450518 408.895748 659.617117 408.493543 659.617117 408.07422 
C 659.617117 407.654897 659.450518 407.252692 659.154012 406.956186 
C 658.857506 406.65968 658.455301 406.493081 658.035978 406.493081 
C 657.616655 406.493081 657.21445 406.65968 656.917944 406.956186 
C 656.621438 407.252692 656.454839 407.654897 656.454839 408.07422 
C 656.454839 408.493543 656.621438 408.895748 656.917944 409.192254 
C 657.21445 409.48876 657.616655 409.655359 658.035978 409.655359 
z
" style="fill:#7570b3;fill-opacity:0.7;"/>
    <path clip-path="url(#p8bf8bc8bab)" d="M 655.741322 409.317408 
C 656.160645 409.317408 656.56285 409.150809 656.859356 408.854303 
C 657.155862 408.557797 657.322461 408.155592 657.322461 407.736269 
C 657.322461 407.316946 657.155862 406.914741 656.859356 406.618235 
C 656.56285 406.321729 656.160645 406.15513 655.741322 406.15513 
C 655.321999 406.15513 654.919794 406.321729 654.623288 406.618235 
C 654.326782 406.914741 654.160183 407.316946 654.160183 407.736269 
C 654.160183 408.155592 654.326782 408.557797 654.623288 408.854303 
C 654.919794 409.150809 655.321999 409.317408 655.741322 409.317408 
z
" style="fill:#7570b3;fill-opacity:0.7;"/>
    <path clip-path="url(#p8bf8bc8bab)" d="M 655.627641 408.959738 
C 656.046964 408.959738 656.449169 408.793139 656.745675 408.496633 
C 657.042181 408.200127 657.20878 407.797922 657.20878 407.378599 
C 657.20878 406.959276 657.042181 406.557071 656.745675 406.260565 
C 656.449169 405.964059 656.046964 405.79746 655.627641 405.79746 
C 655.208318 405.79746 654.806113 405.964059 654.509607 406.260565 
C 654.213101 406.557071 654.046502 406.959276 654.046502 407.378599 
C 654.046502 407.797922 654.213101 408.200127 654.509607 408.496633 
C 654.806113 408.793139 655.208318 408.959738 655.627641 408.959738 
z
" style="fill:#7570b3;fill-opacity:0.7;"/>
    <path clip-path="url(#p8bf8bc8bab)" d="M 650.625437 406.937549 
C 651.04476 406.937549 651.446965 406.77095 651.743471 406.474444 
C 652.039977 406.177938 652.206576 405.775733 652.206576 405.35641 
C 652.206576 404.937087 652.039977 404.534883 651.743471 404.238376 
C 651.446965 403.94187 651.04476 403.775272 650.625437 403.775272 
C 650.206114 403.775272 649.803909 403.94187 649.507403 404.238376 
C 649.210897 404.534883 649.044298 404.937087 649.044298 405.35641 
C 649.044298 405.775733 649.210897 406.177938 649.507403 406.474444 
C 649.803909 406.77095 650.206114 406.937549 650.625437 406.937549 
z
" style="fill:#7570b3;fill-opacity:0.7;"/>
   </g>
   <g id="PathCollection_2"/>
   <g id="PathCollection_3"/>
   <g id="PathCollection_4"/>
   <g id="matplotlib.axis_3">
    <g id="xtick_5">
     <g id="line2d_21">
      <g>
       <use style="stroke:#000000;stroke-width:1.6;" x="643.505333" xlink:href="#m04cfa43bb2" y="428.15"/>
      </g>
     </g>
     <g id="text_11">
      <!-- 0.0 -->
      <g transform="translate(627.602208 458.046875)scale(0.2 -0.2)">
       <use xlink:href="#DejaVuSans-48"/>
       <use x="63.623047" xlink:href="#DejaVuSans-46"/>
       <use x="95.410156" xlink:href="#DejaVuSans-48"/>
      </g>
     </g>
    </g>
    <g id="xtick_6">
     <g id="line2d_22">
      <g>
       <use style="stroke:#000000;stroke-width:1.6;" x="757.006667" xlink:href="#m04cfa43bb2" y="428.15"/>
      </g>
     </g>
     <g id="text_12">
      <!-- 0.2 -->
      <g transform="translate(741.103542 458.046875)scale(0.2 -0.2)">
       <use xlink:href="#DejaVuSans-48"/>
       <use x="63.623047" xlink:href="#DejaVuSans-46"/>
       <use x="95.410156" xlink:href="#DejaVuSans-50"/>
      </g>
     </g>
    </g>
    <g id="xtick_7">
     <g id="line2d_23">
      <g>
       <use style="stroke:#000000;stroke-width:1.6;" x="870.508" xlink:href="#m04cfa43bb2" y="428.15"/>
      </g>
     </g>
     <g id="text_13">
      <!-- 0.4 -->
      <g transform="translate(854.604875 458.046875)scale(0.2 -0.2)">
       <use xlink:href="#DejaVuSans-48"/>
       <use x="63.623047" xlink:href="#DejaVuSans-46"/>
       <use x="95.410156" xlink:href="#DejaVuSans-52"/>
      </g>
     </g>
    </g>
    <g id="xtick_8">
     <g id="line2d_24">
      <g>
       <use style="stroke:#000000;stroke-width:1.6;" x="984.009333" xlink:href="#m04cfa43bb2" y="428.15"/>
      </g>
     </g>
     <g id="text_14">
      <!-- 0.6 -->
      <g transform="translate(968.106208 458.046875)scale(0.2 -0.2)">
       <use xlink:href="#DejaVuSans-48"/>
       <use x="63.623047" xlink:href="#DejaVuSans-46"/>
       <use x="95.410156" xlink:href="#DejaVuSans-54"/>
      </g>
     </g>
    </g>
    <g id="text_15">
     <!-- JSD (seeds vs base) -->
     <g transform="translate(729.568438 481.403125)scale(0.2 -0.2)">
      <use xlink:href="#DejaVuSans-74"/>
      <use x="29.492188" xlink:href="#DejaVuSans-83"/>
      <use x="92.96875" xlink:href="#DejaVuSans-68"/>
      <use x="169.970703" xlink:href="#DejaVuSans-32"/>
      <use x="201.757812" xlink:href="#DejaVuSans-40"/>
      <use x="240.771484" xlink:href="#DejaVuSans-115"/>
      <use x="292.871094" xlink:href="#DejaVuSans-101"/>
      <use x="354.394531" xlink:href="#DejaVuSans-101"/>
      <use x="415.917969" xlink:href="#DejaVuSans-100"/>
      <use x="479.394531" xlink:href="#DejaVuSans-115"/>
      <use x="531.494141" xlink:href="#DejaVuSans-32"/>
      <use x="563.28125" xlink:href="#DejaVuSans-118"/>
      <use x="622.460938" xlink:href="#DejaVuSans-115"/>
      <use x="674.560547" xlink:href="#DejaVuSans-32"/>
      <use x="706.347656" xlink:href="#DejaVuSans-98"/>
      <use x="769.824219" xlink:href="#DejaVuSans-97"/>
      <use x="831.103516" xlink:href="#DejaVuSans-115"/>
      <use x="883.203125" xlink:href="#DejaVuSans-101"/>
      <use x="944.726562" xlink:href="#DejaVuSans-41"/>
     </g>
    </g>
   </g>
   <g id="matplotlib.axis_4">
    <g id="ytick_5">
     <g id="line2d_25">
      <g>
       <use style="stroke:#000000;stroke-width:1.6;" x="615.13" xlink:href="#m7226b0924c" y="408.803182"/>
      </g>
     </g>
     <g id="text_16">
      <!-- 0.0 -->
      <g transform="translate(568.62375 416.401619)scale(0.2 -0.2)">
       <use xlink:href="#DejaVuSans-48"/>
       <use x="63.623047" xlink:href="#DejaVuSans-46"/>
       <use x="95.410156" xlink:href="#DejaVuSans-48"/>
      </g>
     </g>
    </g>
    <g id="ytick_6">
     <g id="line2d_26">
      <g>
       <use style="stroke:#000000;stroke-width:1.6;" x="615.13" xlink:href="#m7226b0924c" y="331.415909"/>
      </g>
     </g>
     <g id="text_17">
      <!-- 0.2 -->
      <g transform="translate(568.62375 339.014347)scale(0.2 -0.2)">
       <use xlink:href="#DejaVuSans-48"/>
       <use x="63.623047" xlink:href="#DejaVuSans-46"/>
       <use x="95.410156" xlink:href="#DejaVuSans-50"/>
      </g>
     </g>
    </g>
    <g id="ytick_7">
     <g id="line2d_27">
      <g>
       <use style="stroke:#000000;stroke-width:1.6;" x="615.13" xlink:href="#m7226b0924c" y="254.028636"/>
      </g>
     </g>
     <g id="text_18">
      <!-- 0.4 -->
      <g transform="translate(568.62375 261.627074)scale(0.2 -0.2)">
       <use xlink:href="#DejaVuSans-48"/>
       <use x="63.623047" xlink:href="#DejaVuSans-46"/>
       <use x="95.410156" xlink:href="#DejaVuSans-52"/>
      </g>
     </g>
    </g>
    <g id="ytick_8">
     <g id="line2d_28">
      <g>
       <use style="stroke:#000000;stroke-width:1.6;" x="615.13" xlink:href="#m7226b0924c" y="176.641364"/>
      </g>
     </g>
     <g id="text_19">
      <!-- 0.6 -->
      <g transform="translate(568.62375 184.239801)scale(0.2 -0.2)">
       <use xlink:href="#DejaVuSans-48"/>
       <use x="63.623047" xlink:href="#DejaVuSans-46"/>
       <use x="95.410156" xlink:href="#DejaVuSans-54"/>
      </g>
     </g>
    </g>
    <g id="ytick_9">
     <g id="line2d_29">
      <g>
       <use style="stroke:#000000;stroke-width:1.6;" x="615.13" xlink:href="#m7226b0924c" y="99.254091"/>
      </g>
     </g>
     <g id="text_20">
      <!-- 0.8 -->
      <defs>
       <path d="M 31.78125 34.625 
Q 24.75 34.625 20.71875 30.859375 
Q 16.703125 27.09375 16.703125 20.515625 
Q 16.703125 13.921875 20.71875 10.15625 
Q 24.75 6.390625 31.78125 6.390625 
Q 38.8125 6.390625 42.859375 10.171875 
Q 46.921875 13.96875 46.921875 20.515625 
Q 46.921875 27.09375 42.890625 30.859375 
Q 38.875 34.625 31.78125 34.625 
z
M 21.921875 38.8125 
Q 15.578125 40.375 12.03125 44.71875 
Q 8.5 49.078125 8.5 55.328125 
Q 8.5 64.0625 14.71875 69.140625 
Q 20.953125 74.21875 31.78125 74.21875 
Q 42.671875 74.21875 48.875 69.140625 
Q 55.078125 64.0625 55.078125 55.328125 
Q 55.078125 49.078125 51.53125 44.71875 
Q 48 40.375 41.703125 38.8125 
Q 48.828125 37.15625 52.796875 32.3125 
Q 56.78125 27.484375 56.78125 20.515625 
Q 56.78125 9.90625 50.3125 4.234375 
Q 43.84375 -1.421875 31.78125 -1.421875 
Q 19.734375 -1.421875 13.25 4.234375 
Q 6.78125 9.90625 6.78125 20.515625 
Q 6.78125 27.484375 10.78125 32.3125 
Q 14.796875 37.15625 21.921875 38.8125 
z
M 18.3125 54.390625 
Q 18.3125 48.734375 21.84375 45.5625 
Q 25.390625 42.390625 31.78125 42.390625 
Q 38.140625 42.390625 41.71875 45.5625 
Q 45.3125 48.734375 45.3125 54.390625 
Q 45.3125 60.0625 41.71875 63.234375 
Q 38.140625 66.40625 31.78125 66.40625 
Q 25.390625 66.40625 21.84375 63.234375 
Q 18.3125 60.0625 18.3125 54.390625 
z
" id="DejaVuSans-56"/>
      </defs>
      <g transform="translate(568.62375 106.852528)scale(0.2 -0.2)">
       <use xlink:href="#DejaVuSans-48"/>
       <use x="63.623047" xlink:href="#DejaVuSans-46"/>
       <use x="95.410156" xlink:href="#DejaVuSans-56"/>
      </g>
     </g>
    </g>
    <g id="ytick_10">
     <g id="line2d_30">
      <g>
       <use style="stroke:#000000;stroke-width:1.6;" x="615.13" xlink:href="#m7226b0924c" y="21.866818"/>
      </g>
     </g>
     <g id="text_21">
      <!-- 1.0 -->
      <g transform="translate(568.62375 29.465256)scale(0.2 -0.2)">
       <use xlink:href="#DejaVuSans-49"/>
       <use x="63.623047" xlink:href="#DejaVuSans-46"/>
       <use x="95.410156" xlink:href="#DejaVuSans-48"/>
      </g>
     </g>
    </g>
    <g id="text_22">
     <!-- Output Difference -->
     <defs>
      <path d="M 39.40625 66.21875 
Q 28.65625 66.21875 22.328125 58.203125 
Q 16.015625 50.203125 16.015625 36.375 
Q 16.015625 22.609375 22.328125 14.59375 
Q 28.65625 6.59375 39.40625 6.59375 
Q 50.140625 6.59375 56.421875 14.59375 
Q 62.703125 22.609375 62.703125 36.375 
Q 62.703125 50.203125 56.421875 58.203125 
Q 50.140625 66.21875 39.40625 66.21875 
z
M 39.40625 74.21875 
Q 54.734375 74.21875 63.90625 63.9375 
Q 73.09375 53.65625 73.09375 36.375 
Q 73.09375 19.140625 63.90625 8.859375 
Q 54.734375 -1.421875 39.40625 -1.421875 
Q 24.03125 -1.421875 14.8125 8.828125 
Q 5.609375 19.09375 5.609375 36.375 
Q 5.609375 53.65625 14.8125 63.9375 
Q 24.03125 74.21875 39.40625 74.21875 
z
" id="DejaVuSans-79"/>
      <path d="M 8.5 21.578125 
L 8.5 54.6875 
L 17.484375 54.6875 
L 17.484375 21.921875 
Q 17.484375 14.15625 20.5 10.265625 
Q 23.53125 6.390625 29.59375 6.390625 
Q 36.859375 6.390625 41.078125 11.03125 
Q 45.3125 15.671875 45.3125 23.6875 
L 45.3125 54.6875 
L 54.296875 54.6875 
L 54.296875 0 
L 45.3125 0 
L 45.3125 8.40625 
Q 42.046875 3.421875 37.71875 1 
Q 33.40625 -1.421875 27.6875 -1.421875 
Q 18.265625 -1.421875 13.375 4.4375 
Q 8.5 10.296875 8.5 21.578125 
z
M 31.109375 56 
z
" id="DejaVuSans-117"/>
      <path d="M 18.109375 8.203125 
L 18.109375 -20.796875 
L 9.078125 -20.796875 
L 9.078125 54.6875 
L 18.109375 54.6875 
L 18.109375 46.390625 
Q 20.953125 51.265625 25.265625 53.625 
Q 29.59375 56 35.59375 56 
Q 45.5625 56 51.78125 48.09375 
Q 58.015625 40.1875 58.015625 27.296875 
Q 58.015625 14.40625 51.78125 6.484375 
Q 45.5625 -1.421875 35.59375 -1.421875 
Q 29.59375 -1.421875 25.265625 0.953125 
Q 20.953125 3.328125 18.109375 8.203125 
z
M 48.6875 27.296875 
Q 48.6875 37.203125 44.609375 42.84375 
Q 40.53125 48.484375 33.40625 48.484375 
Q 26.265625 48.484375 22.1875 42.84375 
Q 18.109375 37.203125 18.109375 27.296875 
Q 18.109375 17.390625 22.1875 11.75 
Q 26.265625 6.109375 33.40625 6.109375 
Q 40.53125 6.109375 44.609375 11.75 
Q 48.6875 17.390625 48.6875 27.296875 
z
" id="DejaVuSans-112"/>
      <path d="M 37.109375 75.984375 
L 37.109375 68.5 
L 28.515625 68.5 
Q 23.6875 68.5 21.796875 66.546875 
Q 19.921875 64.59375 19.921875 59.515625 
L 19.921875 54.6875 
L 34.71875 54.6875 
L 34.71875 47.703125 
L 19.921875 47.703125 
L 19.921875 0 
L 10.890625 0 
L 10.890625 47.703125 
L 2.296875 47.703125 
L 2.296875 54.6875 
L 10.890625 54.6875 
L 10.890625 58.5 
Q 10.890625 67.625 15.140625 71.796875 
Q 19.390625 75.984375 28.609375 75.984375 
z
" id="DejaVuSans-102"/>
      <path d="M 41.109375 46.296875 
Q 39.59375 47.171875 37.8125 47.578125 
Q 36.03125 48 33.890625 48 
Q 26.265625 48 22.1875 43.046875 
Q 18.109375 38.09375 18.109375 28.8125 
L 18.109375 0 
L 9.078125 0 
L 9.078125 54.6875 
L 18.109375 54.6875 
L 18.109375 46.1875 
Q 20.953125 51.171875 25.484375 53.578125 
Q 30.03125 56 36.53125 56 
Q 37.453125 56 38.578125 55.875 
Q 39.703125 55.765625 41.0625 55.515625 
z
" id="DejaVuSans-114"/>
      <path d="M 48.78125 52.59375 
L 48.78125 44.1875 
Q 44.96875 46.296875 41.140625 47.34375 
Q 37.3125 48.390625 33.40625 48.390625 
Q 24.65625 48.390625 19.8125 42.84375 
Q 14.984375 37.3125 14.984375 27.296875 
Q 14.984375 17.28125 19.8125 11.734375 
Q 24.65625 6.203125 33.40625 6.203125 
Q 37.3125 6.203125 41.140625 7.25 
Q 44.96875 8.296875 48.78125 10.40625 
L 48.78125 2.09375 
Q 45.015625 0.34375 40.984375 -0.53125 
Q 36.96875 -1.421875 32.421875 -1.421875 
Q 20.0625 -1.421875 12.78125 6.34375 
Q 5.515625 14.109375 5.515625 27.296875 
Q 5.515625 40.671875 12.859375 48.328125 
Q 20.21875 56 33.015625 56 
Q 37.15625 56 41.109375 55.140625 
Q 45.0625 54.296875 48.78125 52.59375 
z
" id="DejaVuSans-99"/>
     </defs>
     <g transform="translate(560.464375 305.170937)rotate(-90)scale(0.2 -0.2)">
      <use xlink:href="#DejaVuSans-79"/>
      <use x="78.710938" xlink:href="#DejaVuSans-117"/>
      <use x="142.089844" xlink:href="#DejaVuSans-116"/>
      <use x="181.298828" xlink:href="#DejaVuSans-112"/>
      <use x="244.775391" xlink:href="#DejaVuSans-117"/>
      <use x="308.154297" xlink:href="#DejaVuSans-116"/>
      <use x="347.363281" xlink:href="#DejaVuSans-32"/>
      <use x="379.150391" xlink:href="#DejaVuSans-68"/>
      <use x="456.152344" xlink:href="#DejaVuSans-105"/>
      <use x="483.935547" xlink:href="#DejaVuSans-102"/>
      <use x="519.140625" xlink:href="#DejaVuSans-102"/>
      <use x="554.345703" xlink:href="#DejaVuSans-101"/>
      <use x="615.869141" xlink:href="#DejaVuSans-114"/>
      <use x="656.951172" xlink:href="#DejaVuSans-101"/>
      <use x="718.474609" xlink:href="#DejaVuSans-110"/>
      <use x="781.853516" xlink:href="#DejaVuSans-99"/>
      <use x="836.833984" xlink:href="#DejaVuSans-101"/>
     </g>
    </g>
   </g>
   <g id="patch_8">
    <path style="fill:none;stroke:#000000;stroke-linecap:square;stroke-linejoin:miter;stroke-width:0.8;"/>
   </g>
   <g id="patch_9">
    <path style="fill:none;stroke:#000000;stroke-linecap:square;stroke-linejoin:miter;stroke-width:0.8;"/>
   </g>
  </g>
 </g>
 <defs>
  <clipPath id="p05bf3abcc1">
   <rect height="425.63" width="425.63" x="97.81" y="2.52"/>
  </clipPath>
  <clipPath id="p8bf8bc8bab">
   <rect height="425.63" width="425.63" x="615.13" y="2.52"/>
  </clipPath>
 </defs>
</svg>
