<?xml version="1.0" encoding="utf-8" standalone="no"?>
<!DOCTYPE svg PUBLIC "-//W3C//DTD SVG 1.1//EN"
  "http://www.w3.org/Graphics/SVG/1.1/DTD/svg11.dtd">
<!-- Created with matplotlib (https://matplotlib.org/) -->
<svg height="487.17pt" version="1.1" viewBox="0 0 525.96 487.17" width="525.96pt" xmlns="http://www.w3.org/2000/svg" xmlns:xlink="http://www.w3.org/1999/xlink">
 <defs>
  <style type="text/css">
*{stroke-linecap:butt;stroke-linejoin:round;}
  </style>
 </defs>
 <g id="figure_1">
  <g id="patch_1">
   <path d="M 0 487.17 
L 525.96 487.17 
L 525.96 0 
L 0 0 
z
" style="fill:#ffffff;"/>
  </g>
  <g id="axes_1">
   <g id="patch_2">
    <path d="M 97.81 428.15 
L 523.44 428.15 
L 523.44 2.52 
L 97.81 2.52 
z
" style="fill:#ffffff;"/>
   </g>
   <g id="PolyCollection_1">
    <defs>
     <path d="M 126.185607 -444.005572 
L 126.185607 -461.449928 
L 126.186013 -462.244194 
L 126.186419 -463.044146 
L 126.186825 -463.843397 
L 126.187231 -464.635995 
L 126.187637 -465.416558 
L 126.188043 -466.180338 
L 126.188448 -466.923224 
L 126.188854 -467.641688 
L 126.18926 -468.332681 
L 126.189666 -468.993486 
L 126.190072 -469.621563 
L 126.190478 -470.214394 
L 126.190884 -470.76935 
L 126.19129 -471.283597 
L 126.191696 -471.754053 
L 126.192102 -472.177408 
L 126.192507 -472.550191 
L 126.192913 -472.868897 
L 126.193319 -473.130152 
L 126.193725 -473.330897 
L 126.194131 -473.468593 
L 126.194537 -473.541405 
L 126.194943 -473.548372 
L 126.195349 -473.489533 
L 126.195755 -473.366023 
L 126.196161 -473.180102 
L 126.196567 -472.935149 
L 126.196972 -472.635602 
L 126.197378 -472.28685 
L 126.197784 -471.895096 
L 126.19819 -471.467174 
L 126.198596 -471.010344 
L 126.199002 -470.532072 
L 126.199408 -470.039783 
L 126.199814 -469.540619 
L 126.20022 -469.041187 
L 126.200626 -468.547328 
L 126.201031 -468.063907 
L 126.201437 -467.594631 
L 126.201843 -467.141924 
L 126.202249 -466.706853 
L 126.202655 -466.289128 
L 126.203061 -465.887166 
L 126.203467 -465.498238 
L 126.203873 -465.118672 
L 126.204279 -464.744125 
L 126.204685 -464.369886 
L 126.205091 -463.991207 
L 126.205496 -463.603629 
L 126.205902 -463.203285 
L 126.206308 -462.787163 
L 126.206714 -462.353303 
L 126.20712 -461.90092 
L 126.207526 -461.430455 
L 126.207932 -460.943534 
L 126.208338 -460.442872 
L 126.208744 -459.9321 
L 126.20915 -459.41556 
L 126.209555 -458.898067 
L 126.209961 -458.384662 
L 126.210367 -457.880376 
L 126.210773 -457.390016 
L 126.211179 -456.917982 
L 126.211585 -456.468127 
L 126.211991 -456.043661 
L 126.212397 -455.647093 
L 126.212803 -455.280225 
L 126.213209 -454.944166 
L 126.213615 -454.639391 
L 126.21402 -454.365803 
L 126.214426 -454.122824 
L 126.214832 -453.909486 
L 126.215238 -453.724525 
L 126.215644 -453.566467 
L 126.21605 -453.433715 
L 126.216456 -453.324611 
L 126.216862 -453.237503 
L 126.217268 -453.170775 
L 126.217674 -453.122885 
L 126.218079 -453.092364 
L 126.218485 -453.077823 
L 126.218891 -453.077926 
L 126.219297 -453.091372 
L 126.219703 -453.116857 
L 126.220109 -453.153035 
L 126.220515 -453.198488 
L 126.220921 -453.251691 
L 126.221327 -453.31099 
L 126.221733 -453.3746 
L 126.222139 -453.440609 
L 126.222544 -453.507001 
L 126.22295 -453.571704 
L 126.223356 -453.63264 
L 126.223762 -453.687801 
L 126.224168 -453.735318 
L 126.224574 -453.773546 
L 126.22498 -453.801129 
L 126.225386 -453.817071 
L 126.225792 -453.820776 
L 126.225792 -451.634724 
L 126.225792 -451.634724 
L 126.225386 -451.638429 
L 126.22498 -451.654371 
L 126.224574 -451.681954 
L 126.224168 -451.720182 
L 126.223762 -451.767699 
L 126.223356 -451.82286 
L 126.22295 -451.883796 
L 126.222544 -451.948499 
L 126.222139 -452.014891 
L 126.221733 -452.0809 
L 126.221327 -452.14451 
L 126.220921 -452.203809 
L 126.220515 -452.257012 
L 126.220109 -452.302465 
L 126.219703 -452.338643 
L 126.219297 -452.364128 
L 126.218891 -452.377574 
L 126.218485 -452.377677 
L 126.218079 -452.363136 
L 126.217674 -452.332615 
L 126.217268 -452.284725 
L 126.216862 -452.217997 
L 126.216456 -452.130889 
L 126.21605 -452.021785 
L 126.215644 -451.889033 
L 126.215238 -451.730975 
L 126.214832 -451.546014 
L 126.214426 -451.332676 
L 126.21402 -451.089697 
L 126.213615 -450.816109 
L 126.213209 -450.511334 
L 126.212803 -450.175275 
L 126.212397 -449.808407 
L 126.211991 -449.411839 
L 126.211585 -448.987373 
L 126.211179 -448.537518 
L 126.210773 -448.065484 
L 126.210367 -447.575124 
L 126.209961 -447.070838 
L 126.209555 -446.557433 
L 126.20915 -446.03994 
L 126.208744 -445.5234 
L 126.208338 -445.012628 
L 126.207932 -444.511966 
L 126.207526 -444.025045 
L 126.20712 -443.55458 
L 126.206714 -443.102197 
L 126.206308 -442.668337 
L 126.205902 -442.252215 
L 126.205496 -441.851871 
L 126.205091 -441.464293 
L 126.204685 -441.085614 
L 126.204279 -440.711375 
L 126.203873 -440.336828 
L 126.203467 -439.957262 
L 126.203061 -439.568334 
L 126.202655 -439.166372 
L 126.202249 -438.748647 
L 126.201843 -438.313576 
L 126.201437 -437.860869 
L 126.201031 -437.391593 
L 126.200626 -436.908172 
L 126.20022 -436.414313 
L 126.199814 -435.914881 
L 126.199408 -435.415717 
L 126.199002 -434.923428 
L 126.198596 -434.445156 
L 126.19819 -433.988326 
L 126.197784 -433.560404 
L 126.197378 -433.16865 
L 126.196972 -432.819898 
L 126.196567 -432.520351 
L 126.196161 -432.275398 
L 126.195755 -432.089477 
L 126.195349 -431.965967 
L 126.194943 -431.907128 
L 126.194537 -431.914095 
L 126.194131 -431.986907 
L 126.193725 -432.124603 
L 126.193319 -432.325348 
L 126.192913 -432.586603 
L 126.192507 -432.905309 
L 126.192102 -433.278092 
L 126.191696 -433.701447 
L 126.19129 -434.171903 
L 126.190884 -434.68615 
L 126.190478 -435.241106 
L 126.190072 -435.833937 
L 126.189666 -436.462014 
L 126.18926 -437.122819 
L 126.188854 -437.813812 
L 126.188448 -438.532276 
L 126.188043 -439.275162 
L 126.187637 -440.038942 
L 126.187231 -440.819505 
L 126.186825 -441.612103 
L 126.186419 -442.411354 
L 126.186013 -443.211306 
L 126.185607 -444.005572 
z
" id="m05977fa741" style="stroke:#424242;"/>
    </defs>
    <g clip-path="url(#p1a0c0e7d01)">
     <use style="fill:#7c78ab;stroke:#424242;" x="0" xlink:href="#m05977fa741" y="487.17"/>
    </g>
   </g>
   <g id="PolyCollection_2">
    <defs>
     <path d="M 126.196001 -398.667517 
L 126.196001 -421.661983 
L 126.19615 -421.819909 
L 126.196298 -421.975566 
L 126.196447 -422.128992 
L 126.196596 -422.280233 
L 126.196744 -422.429349 
L 126.196893 -422.576411 
L 126.197042 -422.721496 
L 126.19719 -422.864697 
L 126.197339 -423.006109 
L 126.197488 -423.145842 
L 126.197636 -423.284007 
L 126.197785 -423.420727 
L 126.197933 -423.556128 
L 126.198082 -423.690342 
L 126.198231 -423.823505 
L 126.198379 -423.955757 
L 126.198528 -424.087237 
L 126.198677 -424.218091 
L 126.198825 -424.348459 
L 126.198974 -424.478486 
L 126.199123 -424.608313 
L 126.199271 -424.738077 
L 126.19942 -424.867914 
L 126.199568 -424.997954 
L 126.199717 -425.128322 
L 126.199866 -425.259137 
L 126.200014 -425.39051 
L 126.200163 -425.522545 
L 126.200312 -425.655335 
L 126.20046 -425.788966 
L 126.200609 -425.92351 
L 126.200758 -426.059032 
L 126.200906 -426.19558 
L 126.201055 -426.333194 
L 126.201204 -426.471898 
L 126.201352 -426.611702 
L 126.201501 -426.752604 
L 126.201649 -426.894584 
L 126.201798 -427.037611 
L 126.201947 -427.181635 
L 126.202095 -427.326591 
L 126.202244 -427.4724 
L 126.202393 -427.618964 
L 126.202541 -427.766171 
L 126.20269 -427.913892 
L 126.202839 -428.061982 
L 126.202987 -428.21028 
L 126.203136 -428.358608 
L 126.203284 -428.506773 
L 126.203433 -428.654569 
L 126.203582 -428.801771 
L 126.20373 -428.948141 
L 126.203879 -429.093428 
L 126.204028 -429.237367 
L 126.204176 -429.379679 
L 126.204325 -429.520073 
L 126.204474 -429.658248 
L 126.204622 -429.793891 
L 126.204771 -429.92668 
L 126.204919 -430.056283 
L 126.205068 -430.182361 
L 126.205217 -430.304569 
L 126.205365 -430.422555 
L 126.205514 -430.535962 
L 126.205663 -430.644431 
L 126.205811 -430.7476 
L 126.20596 -430.845107 
L 126.206109 -430.93659 
L 126.206257 -431.021687 
L 126.206406 -431.100043 
L 126.206555 -431.171304 
L 126.206703 -431.235123 
L 126.206852 -431.291161 
L 126.207 -431.339087 
L 126.207149 -431.378581 
L 126.207298 -431.409333 
L 126.207446 -431.431047 
L 126.207595 -431.443442 
L 126.207744 -431.44625 
L 126.207892 -431.439222 
L 126.208041 -431.422128 
L 126.20819 -431.394753 
L 126.208338 -431.356908 
L 126.208487 -431.308421 
L 126.208635 -431.249144 
L 126.208784 -431.178954 
L 126.208933 -431.097749 
L 126.209081 -431.005455 
L 126.20923 -430.902022 
L 126.209379 -430.787426 
L 126.209527 -430.66167 
L 126.209676 -430.524783 
L 126.209825 -430.376824 
L 126.209973 -430.217876 
L 126.210122 -430.04805 
L 126.210271 -429.867486 
L 126.210419 -429.676348 
L 126.210568 -429.474829 
L 126.210716 -429.263147 
L 126.210716 -391.066353 
L 126.210716 -391.066353 
L 126.210568 -390.854671 
L 126.210419 -390.653152 
L 126.210271 -390.462014 
L 126.210122 -390.28145 
L 126.209973 -390.111624 
L 126.209825 -389.952676 
L 126.209676 -389.804717 
L 126.209527 -389.66783 
L 126.209379 -389.542074 
L 126.20923 -389.427478 
L 126.209081 -389.324045 
L 126.208933 -389.231751 
L 126.208784 -389.150546 
L 126.208635 -389.080356 
L 126.208487 -389.021079 
L 126.208338 -388.972592 
L 126.20819 -388.934747 
L 126.208041 -388.907372 
L 126.207892 -388.890278 
L 126.207744 -388.88325 
L 126.207595 -388.886058 
L 126.207446 -388.898453 
L 126.207298 -388.920167 
L 126.207149 -388.950919 
L 126.207 -388.990413 
L 126.206852 -389.038339 
L 126.206703 -389.094377 
L 126.206555 -389.158196 
L 126.206406 -389.229457 
L 126.206257 -389.307813 
L 126.206109 -389.39291 
L 126.20596 -389.484393 
L 126.205811 -389.5819 
L 126.205663 -389.685069 
L 126.205514 -389.793538 
L 126.205365 -389.906945 
L 126.205217 -390.024931 
L 126.205068 -390.147139 
L 126.204919 -390.273217 
L 126.204771 -390.40282 
L 126.204622 -390.535609 
L 126.204474 -390.671252 
L 126.204325 -390.809427 
L 126.204176 -390.949821 
L 126.204028 -391.092133 
L 126.203879 -391.236072 
L 126.20373 -391.381359 
L 126.203582 -391.527729 
L 126.203433 -391.674931 
L 126.203284 -391.822727 
L 126.203136 -391.970892 
L 126.202987 -392.11922 
L 126.202839 -392.267518 
L 126.20269 -392.415608 
L 126.202541 -392.563329 
L 126.202393 -392.710536 
L 126.202244 -392.8571 
L 126.202095 -393.002909 
L 126.201947 -393.147865 
L 126.201798 -393.291889 
L 126.201649 -393.434916 
L 126.201501 -393.576896 
L 126.201352 -393.717798 
L 126.201204 -393.857602 
L 126.201055 -393.996306 
L 126.200906 -394.13392 
L 126.200758 -394.270468 
L 126.200609 -394.40599 
L 126.20046 -394.540534 
L 126.200312 -394.674165 
L 126.200163 -394.806955 
L 126.200014 -394.93899 
L 126.199866 -395.070363 
L 126.199717 -395.201178 
L 126.199568 -395.331546 
L 126.19942 -395.461586 
L 126.199271 -395.591423 
L 126.199123 -395.721187 
L 126.198974 -395.851014 
L 126.198825 -395.981041 
L 126.198677 -396.111409 
L 126.198528 -396.242263 
L 126.198379 -396.373743 
L 126.198231 -396.505995 
L 126.198082 -396.639158 
L 126.197933 -396.773372 
L 126.197785 -396.908773 
L 126.197636 -397.045493 
L 126.197488 -397.183658 
L 126.197339 -397.323391 
L 126.19719 -397.464803 
L 126.197042 -397.608004 
L 126.196893 -397.753089 
L 126.196744 -397.900151 
L 126.196596 -398.049267 
L 126.196447 -398.200508 
L 126.196298 -398.353934 
L 126.19615 -398.509591 
L 126.196001 -398.667517 
z
" id="m8a53c2f248" style="stroke:#424242;"/>
    </defs>
    <g clip-path="url(#p1a0c0e7d01)">
     <use style="fill:#be631d;stroke:#424242;" x="0" xlink:href="#m8a53c2f248" y="487.17"/>
    </g>
   </g>
   <g id="patch_3">
    <path clip-path="url(#p1a0c0e7d01)" d="M 126.185333 55.72375 
L 126.185333 55.72375 
L 126.185333 55.72375 
L 126.185333 55.72375 
z
" style="fill:#7c78ab;stroke:#424242;stroke-linejoin:miter;stroke-width:0.5;"/>
   </g>
   <g id="patch_4">
    <path clip-path="url(#p1a0c0e7d01)" d="M 126.185333 55.72375 
L 126.185333 55.72375 
L 126.185333 55.72375 
L 126.185333 55.72375 
z
" style="fill:#be631d;stroke:#424242;stroke-linejoin:miter;stroke-width:0.5;"/>
   </g>
   <g id="matplotlib.axis_1">
    <g id="xtick_1">
     <g id="line2d_1">
      <defs>
       <path d="M 0 0 
L 0 3.5 
" id="m56e74a7e89" style="stroke:#000000;stroke-width:1.6;"/>
      </defs>
      <g>
       <use style="stroke:#000000;stroke-width:1.6;" x="126.185333" xlink:href="#m56e74a7e89" y="428.15"/>
      </g>
     </g>
     <g id="text_1">
      <!-- 0.0 -->
      <defs>
       <path d="M 31.78125 66.40625 
Q 24.171875 66.40625 20.328125 58.90625 
Q 16.5 51.421875 16.5 36.375 
Q 16.5 21.390625 20.328125 13.890625 
Q 24.171875 6.390625 31.78125 6.390625 
Q 39.453125 6.390625 43.28125 13.890625 
Q 47.125 21.390625 47.125 36.375 
Q 47.125 51.421875 43.28125 58.90625 
Q 39.453125 66.40625 31.78125 66.40625 
z
M 31.78125 74.21875 
Q 44.046875 74.21875 50.515625 64.515625 
Q 56.984375 54.828125 56.984375 36.375 
Q 56.984375 17.96875 50.515625 8.265625 
Q 44.046875 -1.421875 31.78125 -1.421875 
Q 19.53125 -1.421875 13.0625 8.265625 
Q 6.59375 17.96875 6.59375 36.375 
Q 6.59375 54.828125 13.0625 64.515625 
Q 19.53125 74.21875 31.78125 74.21875 
z
" id="DejaVuSans-48"/>
       <path d="M 10.6875 12.40625 
L 21 12.40625 
L 21 0 
L 10.6875 0 
z
" id="DejaVuSans-46"/>
      </defs>
      <g transform="translate(110.282208 458.046875)scale(0.2 -0.2)">
       <use xlink:href="#DejaVuSans-48"/>
       <use x="63.623047" xlink:href="#DejaVuSans-46"/>
       <use x="95.410156" xlink:href="#DejaVuSans-48"/>
      </g>
     </g>
    </g>
    <g id="xtick_2">
     <g id="line2d_2">
      <g>
       <use style="stroke:#000000;stroke-width:1.6;" x="239.686667" xlink:href="#m56e74a7e89" y="428.15"/>
      </g>
     </g>
     <g id="text_2">
      <!-- 0.2 -->
      <defs>
       <path d="M 19.1875 8.296875 
L 53.609375 8.296875 
L 53.609375 0 
L 7.328125 0 
L 7.328125 8.296875 
Q 12.9375 14.109375 22.625 23.890625 
Q 32.328125 33.6875 34.8125 36.53125 
Q 39.546875 41.84375 41.421875 45.53125 
Q 43.3125 49.21875 43.3125 52.78125 
Q 43.3125 58.59375 39.234375 62.25 
Q 35.15625 65.921875 28.609375 65.921875 
Q 23.96875 65.921875 18.8125 64.3125 
Q 13.671875 62.703125 7.8125 59.421875 
L 7.8125 69.390625 
Q 13.765625 71.78125 18.9375 73 
Q 24.125 74.21875 28.421875 74.21875 
Q 39.75 74.21875 46.484375 68.546875 
Q 53.21875 62.890625 53.21875 53.421875 
Q 53.21875 48.921875 51.53125 44.890625 
Q 49.859375 40.875 45.40625 35.40625 
Q 44.1875 33.984375 37.640625 27.21875 
Q 31.109375 20.453125 19.1875 8.296875 
z
" id="DejaVuSans-50"/>
      </defs>
      <g transform="translate(223.783542 458.046875)scale(0.2 -0.2)">
       <use xlink:href="#DejaVuSans-48"/>
       <use x="63.623047" xlink:href="#DejaVuSans-46"/>
       <use x="95.410156" xlink:href="#DejaVuSans-50"/>
      </g>
     </g>
    </g>
    <g id="xtick_3">
     <g id="line2d_3">
      <g>
       <use style="stroke:#000000;stroke-width:1.6;" x="353.188" xlink:href="#m56e74a7e89" y="428.15"/>
      </g>
     </g>
     <g id="text_3">
      <!-- 0.4 -->
      <defs>
       <path d="M 37.796875 64.3125 
L 12.890625 25.390625 
L 37.796875 25.390625 
z
M 35.203125 72.90625 
L 47.609375 72.90625 
L 47.609375 25.390625 
L 58.015625 25.390625 
L 58.015625 17.1875 
L 47.609375 17.1875 
L 47.609375 0 
L 37.796875 0 
L 37.796875 17.1875 
L 4.890625 17.1875 
L 4.890625 26.703125 
z
" id="DejaVuSans-52"/>
      </defs>
      <g transform="translate(337.284875 458.046875)scale(0.2 -0.2)">
       <use xlink:href="#DejaVuSans-48"/>
       <use x="63.623047" xlink:href="#DejaVuSans-46"/>
       <use x="95.410156" xlink:href="#DejaVuSans-52"/>
      </g>
     </g>
    </g>
    <g id="xtick_4">
     <g id="line2d_4">
      <g>
       <use style="stroke:#000000;stroke-width:1.6;" x="466.689333" xlink:href="#m56e74a7e89" y="428.15"/>
      </g>
     </g>
     <g id="text_4">
      <!-- 0.6 -->
      <defs>
       <path d="M 33.015625 40.375 
Q 26.375 40.375 22.484375 35.828125 
Q 18.609375 31.296875 18.609375 23.390625 
Q 18.609375 15.53125 22.484375 10.953125 
Q 26.375 6.390625 33.015625 6.390625 
Q 39.65625 6.390625 43.53125 10.953125 
Q 47.40625 15.53125 47.40625 23.390625 
Q 47.40625 31.296875 43.53125 35.828125 
Q 39.65625 40.375 33.015625 40.375 
z
M 52.59375 71.296875 
L 52.59375 62.3125 
Q 48.875 64.0625 45.09375 64.984375 
Q 41.3125 65.921875 37.59375 65.921875 
Q 27.828125 65.921875 22.671875 59.328125 
Q 17.53125 52.734375 16.796875 39.40625 
Q 19.671875 43.65625 24.015625 45.921875 
Q 28.375 48.1875 33.59375 48.1875 
Q 44.578125 48.1875 50.953125 41.515625 
Q 57.328125 34.859375 57.328125 23.390625 
Q 57.328125 12.15625 50.6875 5.359375 
Q 44.046875 -1.421875 33.015625 -1.421875 
Q 20.359375 -1.421875 13.671875 8.265625 
Q 6.984375 17.96875 6.984375 36.375 
Q 6.984375 53.65625 15.1875 63.9375 
Q 23.390625 74.21875 37.203125 74.21875 
Q 40.921875 74.21875 44.703125 73.484375 
Q 48.484375 72.75 52.59375 71.296875 
z
" id="DejaVuSans-54"/>
      </defs>
      <g transform="translate(450.786208 458.046875)scale(0.2 -0.2)">
       <use xlink:href="#DejaVuSans-48"/>
       <use x="63.623047" xlink:href="#DejaVuSans-46"/>
       <use x="95.410156" xlink:href="#DejaVuSans-54"/>
      </g>
     </g>
    </g>
    <g id="text_5">
     <!-- JSD (seeds vs base) -->
     <defs>
      <path d="M 9.8125 72.90625 
L 19.671875 72.90625 
L 19.671875 5.078125 
Q 19.671875 -8.109375 14.671875 -14.0625 
Q 9.671875 -20.015625 -1.421875 -20.015625 
L -5.171875 -20.015625 
L -5.171875 -11.71875 
L -2.09375 -11.71875 
Q 4.4375 -11.71875 7.125 -8.046875 
Q 9.8125 -4.390625 9.8125 5.078125 
z
" id="DejaVuSans-74"/>
      <path d="M 53.515625 70.515625 
L 53.515625 60.890625 
Q 47.90625 63.578125 42.921875 64.890625 
Q 37.9375 66.21875 33.296875 66.21875 
Q 25.25 66.21875 20.875 63.09375 
Q 16.5 59.96875 16.5 54.203125 
Q 16.5 49.359375 19.40625 46.890625 
Q 22.3125 44.4375 30.421875 42.921875 
L 36.375 41.703125 
Q 47.40625 39.59375 52.65625 34.296875 
Q 57.90625 29 57.90625 20.125 
Q 57.90625 9.515625 50.796875 4.046875 
Q 43.703125 -1.421875 29.984375 -1.421875 
Q 24.8125 -1.421875 18.96875 -0.25 
Q 13.140625 0.921875 6.890625 3.21875 
L 6.890625 13.375 
Q 12.890625 10.015625 18.65625 8.296875 
Q 24.421875 6.59375 29.984375 6.59375 
Q 38.421875 6.59375 43.015625 9.90625 
Q 47.609375 13.234375 47.609375 19.390625 
Q 47.609375 24.75 44.3125 27.78125 
Q 41.015625 30.8125 33.5 32.328125 
L 27.484375 33.5 
Q 16.453125 35.6875 11.515625 40.375 
Q 6.59375 45.0625 6.59375 53.421875 
Q 6.59375 63.09375 13.40625 68.65625 
Q 20.21875 74.21875 32.171875 74.21875 
Q 37.3125 74.21875 42.625 73.28125 
Q 47.953125 72.359375 53.515625 70.515625 
z
" id="DejaVuSans-83"/>
      <path d="M 19.671875 64.796875 
L 19.671875 8.109375 
L 31.59375 8.109375 
Q 46.6875 8.109375 53.6875 14.9375 
Q 60.6875 21.78125 60.6875 36.53125 
Q 60.6875 51.171875 53.6875 57.984375 
Q 46.6875 64.796875 31.59375 64.796875 
z
M 9.8125 72.90625 
L 30.078125 72.90625 
Q 51.265625 72.90625 61.171875 64.09375 
Q 71.09375 55.28125 71.09375 36.53125 
Q 71.09375 17.671875 61.125 8.828125 
Q 51.171875 0 30.078125 0 
L 9.8125 0 
z
" id="DejaVuSans-68"/>
      <path id="DejaVuSans-32"/>
      <path d="M 31 75.875 
Q 24.46875 64.65625 21.28125 53.65625 
Q 18.109375 42.671875 18.109375 31.390625 
Q 18.109375 20.125 21.3125 9.0625 
Q 24.515625 -2 31 -13.1875 
L 23.1875 -13.1875 
Q 15.875 -1.703125 12.234375 9.375 
Q 8.59375 20.453125 8.59375 31.390625 
Q 8.59375 42.28125 12.203125 53.3125 
Q 15.828125 64.359375 23.1875 75.875 
z
" id="DejaVuSans-40"/>
      <path d="M 44.28125 53.078125 
L 44.28125 44.578125 
Q 40.484375 46.53125 36.375 47.5 
Q 32.28125 48.484375 27.875 48.484375 
Q 21.1875 48.484375 17.84375 46.4375 
Q 14.5 44.390625 14.5 40.28125 
Q 14.5 37.15625 16.890625 35.375 
Q 19.28125 33.59375 26.515625 31.984375 
L 29.59375 31.296875 
Q 39.15625 29.25 43.1875 25.515625 
Q 47.21875 21.78125 47.21875 15.09375 
Q 47.21875 7.46875 41.1875 3.015625 
Q 35.15625 -1.421875 24.609375 -1.421875 
Q 20.21875 -1.421875 15.453125 -0.5625 
Q 10.6875 0.296875 5.421875 2 
L 5.421875 11.28125 
Q 10.40625 8.6875 15.234375 7.390625 
Q 20.0625 6.109375 24.8125 6.109375 
Q 31.15625 6.109375 34.5625 8.28125 
Q 37.984375 10.453125 37.984375 14.40625 
Q 37.984375 18.0625 35.515625 20.015625 
Q 33.0625 21.96875 24.703125 23.78125 
L 21.578125 24.515625 
Q 13.234375 26.265625 9.515625 29.90625 
Q 5.8125 33.546875 5.8125 39.890625 
Q 5.8125 47.609375 11.28125 51.796875 
Q 16.75 56 26.8125 56 
Q 31.78125 56 36.171875 55.265625 
Q 40.578125 54.546875 44.28125 53.078125 
z
" id="DejaVuSans-115"/>
      <path d="M 56.203125 29.59375 
L 56.203125 25.203125 
L 14.890625 25.203125 
Q 15.484375 15.921875 20.484375 11.0625 
Q 25.484375 6.203125 34.421875 6.203125 
Q 39.59375 6.203125 44.453125 7.46875 
Q 49.3125 8.734375 54.109375 11.28125 
L 54.109375 2.78125 
Q 49.265625 0.734375 44.1875 -0.34375 
Q 39.109375 -1.421875 33.890625 -1.421875 
Q 20.796875 -1.421875 13.15625 6.1875 
Q 5.515625 13.8125 5.515625 26.8125 
Q 5.515625 40.234375 12.765625 48.109375 
Q 20.015625 56 32.328125 56 
Q 43.359375 56 49.78125 48.890625 
Q 56.203125 41.796875 56.203125 29.59375 
z
M 47.21875 32.234375 
Q 47.125 39.59375 43.09375 43.984375 
Q 39.0625 48.390625 32.421875 48.390625 
Q 24.90625 48.390625 20.390625 44.140625 
Q 15.875 39.890625 15.1875 32.171875 
z
" id="DejaVuSans-101"/>
      <path d="M 45.40625 46.390625 
L 45.40625 75.984375 
L 54.390625 75.984375 
L 54.390625 0 
L 45.40625 0 
L 45.40625 8.203125 
Q 42.578125 3.328125 38.25 0.953125 
Q 33.9375 -1.421875 27.875 -1.421875 
Q 17.96875 -1.421875 11.734375 6.484375 
Q 5.515625 14.40625 5.515625 27.296875 
Q 5.515625 40.1875 11.734375 48.09375 
Q 17.96875 56 27.875 56 
Q 33.9375 56 38.25 53.625 
Q 42.578125 51.265625 45.40625 46.390625 
z
M 14.796875 27.296875 
Q 14.796875 17.390625 18.875 11.75 
Q 22.953125 6.109375 30.078125 6.109375 
Q 37.203125 6.109375 41.296875 11.75 
Q 45.40625 17.390625 45.40625 27.296875 
Q 45.40625 37.203125 41.296875 42.84375 
Q 37.203125 48.484375 30.078125 48.484375 
Q 22.953125 48.484375 18.875 42.84375 
Q 14.796875 37.203125 14.796875 27.296875 
z
" id="DejaVuSans-100"/>
      <path d="M 2.984375 54.6875 
L 12.5 54.6875 
L 29.59375 8.796875 
L 46.6875 54.6875 
L 56.203125 54.6875 
L 35.6875 0 
L 23.484375 0 
z
" id="DejaVuSans-118"/>
      <path d="M 48.6875 27.296875 
Q 48.6875 37.203125 44.609375 42.84375 
Q 40.53125 48.484375 33.40625 48.484375 
Q 26.265625 48.484375 22.1875 42.84375 
Q 18.109375 37.203125 18.109375 27.296875 
Q 18.109375 17.390625 22.1875 11.75 
Q 26.265625 6.109375 33.40625 6.109375 
Q 40.53125 6.109375 44.609375 11.75 
Q 48.6875 17.390625 48.6875 27.296875 
z
M 18.109375 46.390625 
Q 20.953125 51.265625 25.265625 53.625 
Q 29.59375 56 35.59375 56 
Q 45.5625 56 51.78125 48.09375 
Q 58.015625 40.1875 58.015625 27.296875 
Q 58.015625 14.40625 51.78125 6.484375 
Q 45.5625 -1.421875 35.59375 -1.421875 
Q 29.59375 -1.421875 25.265625 0.953125 
Q 20.953125 3.328125 18.109375 8.203125 
L 18.109375 0 
L 9.078125 0 
L 9.078125 75.984375 
L 18.109375 75.984375 
z
" id="DejaVuSans-98"/>
      <path d="M 34.28125 27.484375 
Q 23.390625 27.484375 19.1875 25 
Q 14.984375 22.515625 14.984375 16.5 
Q 14.984375 11.71875 18.140625 8.90625 
Q 21.296875 6.109375 26.703125 6.109375 
Q 34.1875 6.109375 38.703125 11.40625 
Q 43.21875 16.703125 43.21875 25.484375 
L 43.21875 27.484375 
z
M 52.203125 31.203125 
L 52.203125 0 
L 43.21875 0 
L 43.21875 8.296875 
Q 40.140625 3.328125 35.546875 0.953125 
Q 30.953125 -1.421875 24.3125 -1.421875 
Q 15.921875 -1.421875 10.953125 3.296875 
Q 6 8.015625 6 15.921875 
Q 6 25.140625 12.171875 29.828125 
Q 18.359375 34.515625 30.609375 34.515625 
L 43.21875 34.515625 
L 43.21875 35.40625 
Q 43.21875 41.609375 39.140625 45 
Q 35.0625 48.390625 27.6875 48.390625 
Q 23 48.390625 18.546875 47.265625 
Q 14.109375 46.140625 10.015625 43.890625 
L 10.015625 52.203125 
Q 14.9375 54.109375 19.578125 55.046875 
Q 24.21875 56 28.609375 56 
Q 40.484375 56 46.34375 49.84375 
Q 52.203125 43.703125 52.203125 31.203125 
z
" id="DejaVuSans-97"/>
      <path d="M 8.015625 75.875 
L 15.828125 75.875 
Q 23.140625 64.359375 26.78125 53.3125 
Q 30.421875 42.28125 30.421875 31.390625 
Q 30.421875 20.453125 26.78125 9.375 
Q 23.140625 -1.703125 15.828125 -13.1875 
L 8.015625 -13.1875 
Q 14.5 -2 17.703125 9.0625 
Q 20.90625 20.125 20.90625 31.390625 
Q 20.90625 42.671875 17.703125 53.65625 
Q 14.5 64.65625 8.015625 75.875 
z
" id="DejaVuSans-41"/>
     </defs>
     <g transform="translate(212.248437 481.403125)scale(0.2 -0.2)">
      <use xlink:href="#DejaVuSans-74"/>
      <use x="29.492188" xlink:href="#DejaVuSans-83"/>
      <use x="92.96875" xlink:href="#DejaVuSans-68"/>
      <use x="169.970703" xlink:href="#DejaVuSans-32"/>
      <use x="201.757812" xlink:href="#DejaVuSans-40"/>
      <use x="240.771484" xlink:href="#DejaVuSans-115"/>
      <use x="292.871094" xlink:href="#DejaVuSans-101"/>
      <use x="354.394531" xlink:href="#DejaVuSans-101"/>
      <use x="415.917969" xlink:href="#DejaVuSans-100"/>
      <use x="479.394531" xlink:href="#DejaVuSans-115"/>
      <use x="531.494141" xlink:href="#DejaVuSans-32"/>
      <use x="563.28125" xlink:href="#DejaVuSans-118"/>
      <use x="622.460938" xlink:href="#DejaVuSans-115"/>
      <use x="674.560547" xlink:href="#DejaVuSans-32"/>
      <use x="706.347656" xlink:href="#DejaVuSans-98"/>
      <use x="769.824219" xlink:href="#DejaVuSans-97"/>
      <use x="831.103516" xlink:href="#DejaVuSans-115"/>
      <use x="883.203125" xlink:href="#DejaVuSans-101"/>
      <use x="944.726562" xlink:href="#DejaVuSans-41"/>
     </g>
    </g>
   </g>
   <g id="matplotlib.axis_2">
    <g id="ytick_1">
     <g id="line2d_5">
      <defs>
       <path d="M 0 0 
L -3.5 0 
" id="m4eb3be6432" style="stroke:#000000;stroke-width:1.6;"/>
      </defs>
      <g>
       <use style="stroke:#000000;stroke-width:1.6;" x="97.81" xlink:href="#m4eb3be6432" y="55.72375"/>
      </g>
     </g>
     <g id="text_6">
      <!-- [0.00, -->
      <defs>
       <path d="M 8.59375 75.984375 
L 29.296875 75.984375 
L 29.296875 69 
L 17.578125 69 
L 17.578125 -6.203125 
L 29.296875 -6.203125 
L 29.296875 -13.1875 
L 8.59375 -13.1875 
z
" id="DejaVuSans-91"/>
       <path d="M 11.71875 12.40625 
L 22.015625 12.40625 
L 22.015625 4 
L 14.015625 -11.625 
L 7.71875 -11.625 
L 11.71875 4 
z
" id="DejaVuSans-44"/>
      </defs>
      <g transform="translate(24.419375 52.124375)scale(0.2 -0.2)">
       <use xlink:href="#DejaVuSans-91"/>
       <use x="39.013672" xlink:href="#DejaVuSans-48"/>
       <use x="102.636719" xlink:href="#DejaVuSans-46"/>
       <use x="134.423828" xlink:href="#DejaVuSans-48"/>
       <use x="198.046875" xlink:href="#DejaVuSans-48"/>
       <use x="261.669922" xlink:href="#DejaVuSans-44"/>
      </g>
      <!-- 0.25) -->
      <defs>
       <path d="M 10.796875 72.90625 
L 49.515625 72.90625 
L 49.515625 64.59375 
L 19.828125 64.59375 
L 19.828125 46.734375 
Q 21.96875 47.46875 24.109375 47.828125 
Q 26.265625 48.1875 28.421875 48.1875 
Q 40.625 48.1875 47.75 41.5 
Q 54.890625 34.8125 54.890625 23.390625 
Q 54.890625 11.625 47.5625 5.09375 
Q 40.234375 -1.421875 26.90625 -1.421875 
Q 22.3125 -1.421875 17.546875 -0.640625 
Q 12.796875 0.140625 7.71875 1.703125 
L 7.71875 11.625 
Q 12.109375 9.234375 16.796875 8.0625 
Q 21.484375 6.890625 26.703125 6.890625 
Q 35.15625 6.890625 40.078125 11.328125 
Q 45.015625 15.765625 45.015625 23.390625 
Q 45.015625 31 40.078125 35.4375 
Q 35.15625 39.890625 26.703125 39.890625 
Q 22.75 39.890625 18.8125 39.015625 
Q 14.890625 38.140625 10.796875 36.28125 
z
" id="DejaVuSans-53"/>
      </defs>
      <g transform="translate(30.775625 74.52)scale(0.2 -0.2)">
       <use xlink:href="#DejaVuSans-48"/>
       <use x="63.623047" xlink:href="#DejaVuSans-46"/>
       <use x="95.410156" xlink:href="#DejaVuSans-50"/>
       <use x="159.033203" xlink:href="#DejaVuSans-53"/>
       <use x="222.65625" xlink:href="#DejaVuSans-41"/>
      </g>
     </g>
    </g>
    <g id="ytick_2">
     <g id="line2d_6">
      <g>
       <use style="stroke:#000000;stroke-width:1.6;" x="97.81" xlink:href="#m4eb3be6432" y="162.13125"/>
      </g>
     </g>
     <g id="text_7">
      <!-- [0.25, -->
      <g transform="translate(24.419375 158.531875)scale(0.2 -0.2)">
       <use xlink:href="#DejaVuSans-91"/>
       <use x="39.013672" xlink:href="#DejaVuSans-48"/>
       <use x="102.636719" xlink:href="#DejaVuSans-46"/>
       <use x="134.423828" xlink:href="#DejaVuSans-50"/>
       <use x="198.046875" xlink:href="#DejaVuSans-53"/>
       <use x="261.669922" xlink:href="#DejaVuSans-44"/>
      </g>
      <!-- 0.50) -->
      <g transform="translate(30.775625 180.9275)scale(0.2 -0.2)">
       <use xlink:href="#DejaVuSans-48"/>
       <use x="63.623047" xlink:href="#DejaVuSans-46"/>
       <use x="95.410156" xlink:href="#DejaVuSans-53"/>
       <use x="159.033203" xlink:href="#DejaVuSans-48"/>
       <use x="222.65625" xlink:href="#DejaVuSans-41"/>
      </g>
     </g>
    </g>
    <g id="ytick_3">
     <g id="line2d_7">
      <g>
       <use style="stroke:#000000;stroke-width:1.6;" x="97.81" xlink:href="#m4eb3be6432" y="268.53875"/>
      </g>
     </g>
     <g id="text_8">
      <!-- [0.50, -->
      <g transform="translate(24.419375 264.939375)scale(0.2 -0.2)">
       <use xlink:href="#DejaVuSans-91"/>
       <use x="39.013672" xlink:href="#DejaVuSans-48"/>
       <use x="102.636719" xlink:href="#DejaVuSans-46"/>
       <use x="134.423828" xlink:href="#DejaVuSans-53"/>
       <use x="198.046875" xlink:href="#DejaVuSans-48"/>
       <use x="261.669922" xlink:href="#DejaVuSans-44"/>
      </g>
      <!-- 0.75) -->
      <defs>
       <path d="M 8.203125 72.90625 
L 55.078125 72.90625 
L 55.078125 68.703125 
L 28.609375 0 
L 18.3125 0 
L 43.21875 64.59375 
L 8.203125 64.59375 
z
" id="DejaVuSans-55"/>
      </defs>
      <g transform="translate(30.775625 287.335)scale(0.2 -0.2)">
       <use xlink:href="#DejaVuSans-48"/>
       <use x="63.623047" xlink:href="#DejaVuSans-46"/>
       <use x="95.410156" xlink:href="#DejaVuSans-55"/>
       <use x="159.033203" xlink:href="#DejaVuSans-53"/>
       <use x="222.65625" xlink:href="#DejaVuSans-41"/>
      </g>
     </g>
    </g>
    <g id="ytick_4">
     <g id="line2d_8">
      <g>
       <use style="stroke:#000000;stroke-width:1.6;" x="97.81" xlink:href="#m4eb3be6432" y="374.94625"/>
      </g>
     </g>
     <g id="text_9">
      <!-- [0.75, -->
      <g transform="translate(24.419375 371.346875)scale(0.2 -0.2)">
       <use xlink:href="#DejaVuSans-91"/>
       <use x="39.013672" xlink:href="#DejaVuSans-48"/>
       <use x="102.636719" xlink:href="#DejaVuSans-46"/>
       <use x="134.423828" xlink:href="#DejaVuSans-55"/>
       <use x="198.046875" xlink:href="#DejaVuSans-53"/>
       <use x="261.669922" xlink:href="#DejaVuSans-44"/>
      </g>
      <!-- 1.00) -->
      <defs>
       <path d="M 12.40625 8.296875 
L 28.515625 8.296875 
L 28.515625 63.921875 
L 10.984375 60.40625 
L 10.984375 69.390625 
L 28.421875 72.90625 
L 38.28125 72.90625 
L 38.28125 8.296875 
L 54.390625 8.296875 
L 54.390625 0 
L 12.40625 0 
z
" id="DejaVuSans-49"/>
      </defs>
      <g transform="translate(30.775625 393.7425)scale(0.2 -0.2)">
       <use xlink:href="#DejaVuSans-49"/>
       <use x="63.623047" xlink:href="#DejaVuSans-46"/>
       <use x="95.410156" xlink:href="#DejaVuSans-48"/>
       <use x="159.033203" xlink:href="#DejaVuSans-48"/>
       <use x="222.65625" xlink:href="#DejaVuSans-41"/>
      </g>
     </g>
    </g>
    <g id="text_10">
     <!-- Max Attention -->
     <defs>
      <path d="M 9.8125 72.90625 
L 24.515625 72.90625 
L 43.109375 23.296875 
L 61.8125 72.90625 
L 76.515625 72.90625 
L 76.515625 0 
L 66.890625 0 
L 66.890625 64.015625 
L 48.09375 14.015625 
L 38.1875 14.015625 
L 19.390625 64.015625 
L 19.390625 0 
L 9.8125 0 
z
" id="DejaVuSans-77"/>
      <path d="M 54.890625 54.6875 
L 35.109375 28.078125 
L 55.90625 0 
L 45.3125 0 
L 29.390625 21.484375 
L 13.484375 0 
L 2.875 0 
L 24.125 28.609375 
L 4.6875 54.6875 
L 15.28125 54.6875 
L 29.78125 35.203125 
L 44.28125 54.6875 
z
" id="DejaVuSans-120"/>
      <path d="M 34.1875 63.1875 
L 20.796875 26.90625 
L 47.609375 26.90625 
z
M 28.609375 72.90625 
L 39.796875 72.90625 
L 67.578125 0 
L 57.328125 0 
L 50.6875 18.703125 
L 17.828125 18.703125 
L 11.1875 0 
L 0.78125 0 
z
" id="DejaVuSans-65"/>
      <path d="M 18.3125 70.21875 
L 18.3125 54.6875 
L 36.8125 54.6875 
L 36.8125 47.703125 
L 18.3125 47.703125 
L 18.3125 18.015625 
Q 18.3125 11.328125 20.140625 9.421875 
Q 21.96875 7.515625 27.59375 7.515625 
L 36.8125 7.515625 
L 36.8125 0 
L 27.59375 0 
Q 17.1875 0 13.234375 3.875 
Q 9.28125 7.765625 9.28125 18.015625 
L 9.28125 47.703125 
L 2.6875 47.703125 
L 2.6875 54.6875 
L 9.28125 54.6875 
L 9.28125 70.21875 
z
" id="DejaVuSans-116"/>
      <path d="M 54.890625 33.015625 
L 54.890625 0 
L 45.90625 0 
L 45.90625 32.71875 
Q 45.90625 40.484375 42.875 44.328125 
Q 39.84375 48.1875 33.796875 48.1875 
Q 26.515625 48.1875 22.3125 43.546875 
Q 18.109375 38.921875 18.109375 30.90625 
L 18.109375 0 
L 9.078125 0 
L 9.078125 54.6875 
L 18.109375 54.6875 
L 18.109375 46.1875 
Q 21.34375 51.125 25.703125 53.5625 
Q 30.078125 56 35.796875 56 
Q 45.21875 56 50.046875 50.171875 
Q 54.890625 44.34375 54.890625 33.015625 
z
" id="DejaVuSans-110"/>
      <path d="M 9.421875 54.6875 
L 18.40625 54.6875 
L 18.40625 0 
L 9.421875 0 
z
M 9.421875 75.984375 
L 18.40625 75.984375 
L 18.40625 64.59375 
L 9.421875 64.59375 
z
" id="DejaVuSans-105"/>
      <path d="M 30.609375 48.390625 
Q 23.390625 48.390625 19.1875 42.75 
Q 14.984375 37.109375 14.984375 27.296875 
Q 14.984375 17.484375 19.15625 11.84375 
Q 23.34375 6.203125 30.609375 6.203125 
Q 37.796875 6.203125 41.984375 11.859375 
Q 46.1875 17.53125 46.1875 27.296875 
Q 46.1875 37.015625 41.984375 42.703125 
Q 37.796875 48.390625 30.609375 48.390625 
z
M 30.609375 56 
Q 42.328125 56 49.015625 48.375 
Q 55.71875 40.765625 55.71875 27.296875 
Q 55.71875 13.875 49.015625 6.21875 
Q 42.328125 -1.421875 30.609375 -1.421875 
Q 18.84375 -1.421875 12.171875 6.21875 
Q 5.515625 13.875 5.515625 27.296875 
Q 5.515625 40.765625 12.171875 48.375 
Q 18.84375 56 30.609375 56 
z
" id="DejaVuSans-111"/>
     </defs>
     <g transform="translate(16.26 285.513125)rotate(-90)scale(0.2 -0.2)">
      <use xlink:href="#DejaVuSans-77"/>
      <use x="86.279297" xlink:href="#DejaVuSans-97"/>
      <use x="147.558594" xlink:href="#DejaVuSans-120"/>
      <use x="206.738281" xlink:href="#DejaVuSans-32"/>
      <use x="238.525391" xlink:href="#DejaVuSans-65"/>
      <use x="306.917969" xlink:href="#DejaVuSans-116"/>
      <use x="346.126953" xlink:href="#DejaVuSans-116"/>
      <use x="385.335938" xlink:href="#DejaVuSans-101"/>
      <use x="446.859375" xlink:href="#DejaVuSans-110"/>
      <use x="510.238281" xlink:href="#DejaVuSans-116"/>
      <use x="549.447266" xlink:href="#DejaVuSans-105"/>
      <use x="577.230469" xlink:href="#DejaVuSans-111"/>
      <use x="638.412109" xlink:href="#DejaVuSans-110"/>
     </g>
    </g>
   </g>
   <g id="line2d_9">
    <path clip-path="url(#p1a0c0e7d01)" d="M 126.191891 15.60621 
L 126.191891 53.27829 
" style="fill:none;stroke:#424242;stroke-dasharray:1.5,1.5;stroke-dashoffset:0;"/>
   </g>
   <g id="line2d_10">
    <path clip-path="url(#p1a0c0e7d01)" d="M 126.195844 14.01036 
L 126.195844 54.87414 
" style="fill:none;stroke:#424242;stroke-dasharray:3,3;stroke-dashoffset:0;"/>
   </g>
   <g id="line2d_11">
    <path clip-path="url(#p1a0c0e7d01)" d="M 126.201333 19.724038 
L 126.201333 49.160462 
" style="fill:none;stroke:#424242;stroke-dasharray:1.5,1.5;stroke-dashoffset:0;"/>
   </g>
   <g id="line2d_12">
    <path clip-path="url(#p1a0c0e7d01)" d="M 126.201545 60.583275 
L 126.201545 93.427225 
" style="fill:none;stroke:#424242;stroke-dasharray:1.5,1.5;stroke-dashoffset:0;"/>
   </g>
   <g id="line2d_13">
    <path clip-path="url(#p1a0c0e7d01)" d="M 126.206204 56.356882 
L 126.206204 97.653618 
" style="fill:none;stroke:#424242;stroke-dasharray:3,3;stroke-dashoffset:0;"/>
   </g>
   <g id="line2d_14">
    <path clip-path="url(#p1a0c0e7d01)" d="M 126.20944 56.588801 
L 126.20944 97.421699 
" style="fill:none;stroke:#424242;stroke-dasharray:1.5,1.5;stroke-dashoffset:0;"/>
   </g>
   <g id="patch_5">
    <path d="M 97.81 428.15 
L 97.81 2.52 
" style="fill:none;stroke:#000000;stroke-linecap:square;stroke-linejoin:miter;stroke-width:0.8;"/>
   </g>
   <g id="patch_6">
    <path d="M 97.81 428.15 
L 523.44 428.15 
" style="fill:none;stroke:#000000;stroke-linecap:square;stroke-linejoin:miter;stroke-width:0.8;"/>
   </g>
  </g>
  <g id="axes_2">
   <g id="patch_7">
    <path d="M 615.13 428.15 
L 1040.76 428.15 
L 1040.76 2.52 
L 615.13 2.52 
z
" style="fill:#ffffff;"/>
   </g>
   <g id="PathCollection_1">
    <path clip-path="url(#p271c6dd0f7)" d="M 643.508123 409.91356 
C 643.927446 409.91356 644.329651 409.746962 644.626157 409.450455 
C 644.922663 409.153949 645.089262 408.751744 645.089262 408.332421 
C 645.089262 407.913099 644.922663 407.510894 644.626157 407.214387 
C 644.329651 406.917881 643.927446 406.751283 643.508123 406.751283 
C 643.0888 406.751283 642.686595 406.917881 642.390089 407.214387 
C 642.093583 407.510894 641.926985 407.913099 641.926985 408.332421 
C 641.926985 408.751744 642.093583 409.153949 642.390089 409.450455 
C 642.686595 409.746962 643.0888 409.91356 643.508123 409.91356 
z
" style="fill:#7570b3;fill-opacity:0.7;"/>
    <path clip-path="url(#p271c6dd0f7)" d="M 643.517656 410.021095 
C 643.936978 410.021095 644.339183 409.854497 644.63569 409.557991 
C 644.932196 409.261484 645.098794 408.859279 645.098794 408.439957 
C 645.098794 408.020634 644.932196 407.618429 644.63569 407.321923 
C 644.339183 407.025416 643.936978 406.858818 643.517656 406.858818 
C 643.098333 406.858818 642.696128 407.025416 642.399622 407.321923 
C 642.103115 407.618429 641.936517 408.020634 641.936517 408.439957 
C 641.936517 408.859279 642.103115 409.261484 642.399622 409.557991 
C 642.696128 409.854497 643.098333 410.021095 643.517656 410.021095 
z
" style="fill:#7570b3;fill-opacity:0.7;"/>
    <path clip-path="url(#p271c6dd0f7)" d="M 643.506793 410.142194 
C 643.926116 410.142194 644.328321 409.975596 644.624827 409.67909 
C 644.921333 409.382584 645.087932 408.980379 645.087932 408.561056 
C 645.087932 408.141733 644.921333 407.739528 644.624827 407.443022 
C 644.328321 407.146516 643.926116 406.979917 643.506793 406.979917 
C 643.08747 406.979917 642.685265 407.146516 642.388759 407.443022 
C 642.092253 407.739528 641.925654 408.141733 641.925654 408.561056 
C 641.925654 408.980379 642.092253 409.382584 642.388759 409.67909 
C 642.685265 409.975596 643.08747 410.142194 643.506793 410.142194 
z
" style="fill:#7570b3;fill-opacity:0.7;"/>
    <path clip-path="url(#p271c6dd0f7)" d="M 643.524486 409.69973 
C 643.943809 409.69973 644.346014 409.533131 644.64252 409.236625 
C 644.939026 408.940119 645.105625 408.537914 645.105625 408.118591 
C 645.105625 407.699268 644.939026 407.297063 644.64252 407.000557 
C 644.346014 406.704051 643.943809 406.537452 643.524486 406.537452 
C 643.105163 406.537452 642.702958 406.704051 642.406452 407.000557 
C 642.109946 407.297063 641.943347 407.699268 641.943347 408.118591 
C 641.943347 408.537914 642.109946 408.940119 642.406452 409.236625 
C 642.702958 409.533131 643.105163 409.69973 643.524486 409.69973 
z
" style="fill:#7570b3;fill-opacity:0.7;"/>
    <path clip-path="url(#p271c6dd0f7)" d="M 642.740047 409.425102 
L 643.530617 408.634532 
L 644.321186 409.425102 
L 645.111756 408.634532 
L 644.321186 407.843963 
L 645.111756 407.053394 
L 644.321186 406.262824 
L 643.530617 407.053394 
L 642.740047 406.262824 
L 641.949478 407.053394 
L 642.740047 407.843963 
L 641.949478 408.634532 
z
" style="fill:#d95f02;fill-opacity:0.7;"/>
    <path clip-path="url(#p271c6dd0f7)" d="M 643.511513 409.70602 
C 643.930836 409.70602 644.333041 409.539422 644.629547 409.242915 
C 644.926053 408.946409 645.092652 408.544204 645.092652 408.124881 
C 645.092652 407.705559 644.926053 407.303354 644.629547 407.006847 
C 644.333041 406.710341 643.930836 406.543743 643.511513 406.543743 
C 643.09219 406.543743 642.689985 406.710341 642.393479 407.006847 
C 642.096973 407.303354 641.930374 407.705559 641.930374 408.124881 
C 641.930374 408.544204 642.096973 408.946409 642.393479 409.242915 
C 642.689985 409.539422 643.09219 409.70602 643.511513 409.70602 
z
" style="fill:#7570b3;fill-opacity:0.7;"/>
    <path clip-path="url(#p271c6dd0f7)" d="M 643.513817 408.979648 
C 643.93314 408.979648 644.335345 408.813049 644.631851 408.516543 
C 644.928357 408.220037 645.094956 407.817832 645.094956 407.398509 
C 645.094956 406.979186 644.928357 406.576981 644.631851 406.280475 
C 644.335345 405.983969 643.93314 405.81737 643.513817 405.81737 
C 643.094494 405.81737 642.692289 405.983969 642.395783 406.280475 
C 642.099277 406.576981 641.932678 406.979186 641.932678 407.398509 
C 641.932678 407.817832 642.099277 408.220037 642.395783 408.516543 
C 642.692289 408.813049 643.094494 408.979648 643.513817 408.979648 
z
" style="fill:#7570b3;fill-opacity:0.7;"/>
    <path clip-path="url(#p271c6dd0f7)" d="M 643.52398 409.904246 
C 643.943303 409.904246 644.345508 409.737647 644.642014 409.441141 
C 644.93852 409.144635 645.105119 408.74243 645.105119 408.323107 
C 645.105119 407.903784 644.93852 407.501579 644.642014 407.205073 
C 644.345508 406.908567 643.943303 406.741968 643.52398 406.741968 
C 643.104657 406.741968 642.702452 406.908567 642.405946 407.205073 
C 642.10944 407.501579 641.942841 407.903784 641.942841 408.323107 
C 641.942841 408.74243 642.10944 409.144635 642.405946 409.441141 
C 642.702452 409.737647 643.104657 409.904246 643.52398 409.904246 
z
" style="fill:#7570b3;fill-opacity:0.7;"/>
    <path clip-path="url(#p271c6dd0f7)" d="M 642.725531 407.092731 
L 643.516101 406.302162 
L 644.30667 407.092731 
L 645.09724 406.302162 
L 644.30667 405.511593 
L 645.09724 404.721023 
L 644.30667 403.930454 
L 643.516101 404.721023 
L 642.725531 403.930454 
L 641.934962 404.721023 
L 642.725531 405.511593 
L 641.934962 406.302162 
z
" style="fill:#d95f02;fill-opacity:0.7;"/>
    <path clip-path="url(#p271c6dd0f7)" d="M 643.508738 409.92984 
C 643.928061 409.92984 644.330266 409.763241 644.626772 409.466735 
C 644.923278 409.170229 645.089877 408.768024 645.089877 408.348701 
C 645.089877 407.929378 644.923278 407.527173 644.626772 407.230667 
C 644.330266 406.934161 643.928061 406.767562 643.508738 406.767562 
C 643.089415 406.767562 642.68721 406.934161 642.390704 407.230667 
C 642.094198 407.527173 641.927599 407.929378 641.927599 408.348701 
C 641.927599 408.768024 642.094198 409.170229 642.390704 409.466735 
C 642.68721 409.763241 643.089415 409.92984 643.508738 409.92984 
z
" style="fill:#7570b3;fill-opacity:0.7;"/>
    <path clip-path="url(#p271c6dd0f7)" d="M 642.732791 407.62864 
L 643.52336 406.83807 
L 644.31393 407.62864 
L 645.104499 406.83807 
L 644.31393 406.047501 
L 645.104499 405.256931 
L 644.31393 404.466362 
L 643.52336 405.256931 
L 642.732791 404.466362 
L 641.942222 405.256931 
L 642.732791 406.047501 
L 641.942222 406.83807 
z
" style="fill:#d95f02;fill-opacity:0.7;"/>
    <path clip-path="url(#p271c6dd0f7)" d="M 642.738479 407.725413 
L 643.529048 406.934843 
L 644.319617 407.725413 
L 645.110187 406.934843 
L 644.319617 406.144274 
L 645.110187 405.353705 
L 644.319617 404.563135 
L 643.529048 405.353705 
L 642.738479 404.563135 
L 641.947909 405.353705 
L 642.738479 406.144274 
L 641.947909 406.934843 
z
" style="fill:#d95f02;fill-opacity:0.7;"/>
    <path clip-path="url(#p271c6dd0f7)" d="M 643.514847 409.82116 
C 643.93417 409.82116 644.336375 409.654562 644.632881 409.358056 
C 644.929387 409.06155 645.095986 408.659345 645.095986 408.240022 
C 645.095986 407.820699 644.929387 407.418494 644.632881 407.121988 
C 644.336375 406.825482 643.93417 406.658883 643.514847 406.658883 
C 643.095524 406.658883 642.693319 406.825482 642.396813 407.121988 
C 642.100307 407.418494 641.933708 407.820699 641.933708 408.240022 
C 641.933708 408.659345 642.100307 409.06155 642.396813 409.358056 
C 642.693319 409.654562 643.095524 409.82116 643.514847 409.82116 
z
" style="fill:#7570b3;fill-opacity:0.7;"/>
    <path clip-path="url(#p271c6dd0f7)" d="M 643.545716 408.367201 
C 643.965039 408.367201 644.367244 408.200602 644.66375 407.904096 
C 644.960256 407.60759 645.126855 407.205385 645.126855 406.786062 
C 645.126855 406.36674 644.960256 405.964535 644.66375 405.668028 
C 644.367244 405.371522 643.965039 405.204924 643.545716 405.204924 
C 643.126393 405.204924 642.724188 405.371522 642.427682 405.668028 
C 642.131176 405.964535 641.964577 406.36674 641.964577 406.786062 
C 641.964577 407.205385 642.131176 407.60759 642.427682 407.904096 
C 642.724188 408.200602 643.126393 408.367201 643.545716 408.367201 
z
" style="fill:#7570b3;fill-opacity:0.7;"/>
    <path clip-path="url(#p271c6dd0f7)" d="M 643.515565 409.261163 
C 643.934888 409.261163 644.337093 409.094564 644.633599 408.798058 
C 644.930105 408.501552 645.096704 408.099347 645.096704 407.680024 
C 645.096704 407.260701 644.930105 406.858496 644.633599 406.56199 
C 644.337093 406.265484 643.934888 406.098885 643.515565 406.098885 
C 643.096242 406.098885 642.694037 406.265484 642.397531 406.56199 
C 642.101025 406.858496 641.934427 407.260701 641.934427 407.680024 
C 641.934427 408.099347 642.101025 408.501552 642.397531 408.798058 
C 642.694037 409.094564 643.096242 409.261163 643.515565 409.261163 
z
" style="fill:#7570b3;fill-opacity:0.7;"/>
    <path clip-path="url(#p271c6dd0f7)" d="M 643.514027 409.908285 
C 643.93335 409.908285 644.335555 409.741686 644.632061 409.44518 
C 644.928567 409.148674 645.095166 408.746469 645.095166 408.327146 
C 645.095166 407.907823 644.928567 407.505618 644.632061 407.209112 
C 644.335555 406.912606 643.93335 406.746007 643.514027 406.746007 
C 643.094704 406.746007 642.692499 406.912606 642.395993 407.209112 
C 642.099487 407.505618 641.932888 407.907823 641.932888 408.327146 
C 641.932888 408.746469 642.099487 409.148674 642.395993 409.44518 
C 642.692499 409.741686 643.094704 409.908285 643.514027 409.908285 
z
" style="fill:#7570b3;fill-opacity:0.7;"/>
    <path clip-path="url(#p271c6dd0f7)" d="M 643.519198 409.765815 
C 643.938521 409.765815 644.340726 409.599216 644.637232 409.30271 
C 644.933738 409.006204 645.100337 408.603999 645.100337 408.184676 
C 645.100337 407.765353 644.933738 407.363148 644.637232 407.066642 
C 644.340726 406.770136 643.938521 406.603537 643.519198 406.603537 
C 643.099875 406.603537 642.69767 406.770136 642.401164 407.066642 
C 642.104658 407.363148 641.938059 407.765353 641.938059 408.184676 
C 641.938059 408.603999 642.104658 409.006204 642.401164 409.30271 
C 642.69767 409.599216 643.099875 409.765815 643.519198 409.765815 
z
" style="fill:#7570b3;fill-opacity:0.7;"/>
    <path clip-path="url(#p271c6dd0f7)" d="M 643.511715 409.75524 
C 643.931038 409.75524 644.333243 409.588641 644.629749 409.292135 
C 644.926255 408.995629 645.092854 408.593424 645.092854 408.174101 
C 645.092854 407.754778 644.926255 407.352573 644.629749 407.056067 
C 644.333243 406.759561 643.931038 406.592962 643.511715 406.592962 
C 643.092392 406.592962 642.690187 406.759561 642.393681 407.056067 
C 642.097175 407.352573 641.930576 407.754778 641.930576 408.174101 
C 641.930576 408.593424 642.097175 408.995629 642.393681 409.292135 
C 642.690187 409.588641 643.092392 409.75524 643.511715 409.75524 
z
" style="fill:#7570b3;fill-opacity:0.7;"/>
    <path clip-path="url(#p271c6dd0f7)" d="M 643.516122 409.933813 
C 643.935445 409.933813 644.33765 409.767214 644.634156 409.470708 
C 644.930662 409.174202 645.097261 408.771997 645.097261 408.352674 
C 645.097261 407.933351 644.930662 407.531146 644.634156 407.23464 
C 644.33765 406.938134 643.935445 406.771535 643.516122 406.771535 
C 643.096799 406.771535 642.694594 406.938134 642.398088 407.23464 
C 642.101582 407.531146 641.934983 407.933351 641.934983 408.352674 
C 641.934983 408.771997 642.101582 409.174202 642.398088 409.470708 
C 642.694594 409.767214 643.096799 409.933813 643.516122 409.933813 
z
" style="fill:#7570b3;fill-opacity:0.7;"/>
    <path clip-path="url(#p271c6dd0f7)" d="M 643.505683 409.99681 
C 643.925006 409.99681 644.327211 409.830211 644.623717 409.533705 
C 644.920223 409.237199 645.086822 408.834994 645.086822 408.415671 
C 645.086822 407.996348 644.920223 407.594143 644.623717 407.297637 
C 644.327211 407.001131 643.925006 406.834532 643.505683 406.834532 
C 643.08636 406.834532 642.684155 407.001131 642.387649 407.297637 
C 642.091143 407.594143 641.924544 407.996348 641.924544 408.415671 
C 641.924544 408.834994 642.091143 409.237199 642.387649 409.533705 
C 642.684155 409.830211 643.08636 409.99681 643.505683 409.99681 
z
" style="fill:#7570b3;fill-opacity:0.7;"/>
    <path clip-path="url(#p271c6dd0f7)" d="M 643.510172 410.01349 
C 643.929495 410.01349 644.3317 409.846892 644.628206 409.550385 
C 644.924712 409.253879 645.091311 408.851674 645.091311 408.432351 
C 645.091311 408.013029 644.924712 407.610824 644.628206 407.314317 
C 644.3317 407.017811 643.929495 406.851213 643.510172 406.851213 
C 643.090849 406.851213 642.688644 407.017811 642.392138 407.314317 
C 642.095632 407.610824 641.929033 408.013029 641.929033 408.432351 
C 641.929033 408.851674 642.095632 409.253879 642.392138 409.550385 
C 642.688644 409.846892 643.090849 410.01349 643.510172 410.01349 
z
" style="fill:#7570b3;fill-opacity:0.7;"/>
    <path clip-path="url(#p271c6dd0f7)" d="M 643.512408 409.156179 
C 643.931731 409.156179 644.333936 408.98958 644.630442 408.693074 
C 644.926948 408.396568 645.093547 407.994363 645.093547 407.57504 
C 645.093547 407.155717 644.926948 406.753512 644.630442 406.457006 
C 644.333936 406.1605 643.931731 405.993901 643.512408 405.993901 
C 643.093085 405.993901 642.69088 406.1605 642.394374 406.457006 
C 642.097868 406.753512 641.931269 407.155717 641.931269 407.57504 
C 641.931269 407.994363 642.097868 408.396568 642.394374 408.693074 
C 642.69088 408.98958 643.093085 409.156179 643.512408 409.156179 
z
" style="fill:#7570b3;fill-opacity:0.7;"/>
    <path clip-path="url(#p271c6dd0f7)" d="M 643.508835 409.37931 
C 643.928158 409.37931 644.330363 409.212711 644.626869 408.916205 
C 644.923375 408.619699 645.089974 408.217494 645.089974 407.798171 
C 645.089974 407.378848 644.923375 406.976643 644.626869 406.680137 
C 644.330363 406.383631 643.928158 406.217032 643.508835 406.217032 
C 643.089512 406.217032 642.687307 406.383631 642.390801 406.680137 
C 642.094295 406.976643 641.927696 407.378848 641.927696 407.798171 
C 641.927696 408.217494 642.094295 408.619699 642.390801 408.916205 
C 642.687307 409.212711 643.089512 409.37931 643.508835 409.37931 
z
" style="fill:#7570b3;fill-opacity:0.7;"/>
    <path clip-path="url(#p271c6dd0f7)" d="M 643.514475 410.06141 
C 643.933798 410.06141 644.336003 409.894811 644.632509 409.598305 
C 644.929015 409.301799 645.095614 408.899594 645.095614 408.480271 
C 645.095614 408.060948 644.929015 407.658743 644.632509 407.362237 
C 644.336003 407.065731 643.933798 406.899132 643.514475 406.899132 
C 643.095152 406.899132 642.692947 407.065731 642.396441 407.362237 
C 642.099935 407.658743 641.933336 408.060948 641.933336 408.480271 
C 641.933336 408.899594 642.099935 409.301799 642.396441 409.598305 
C 642.692947 409.894811 643.095152 410.06141 643.514475 410.06141 
z
" style="fill:#7570b3;fill-opacity:0.7;"/>
    <path clip-path="url(#p271c6dd0f7)" d="M 643.507635 409.955726 
C 643.926957 409.955726 644.329162 409.789127 644.625669 409.492621 
C 644.922175 409.196115 645.088773 408.79391 645.088773 408.374587 
C 645.088773 407.955264 644.922175 407.553059 644.625669 407.256553 
C 644.329162 406.960047 643.926957 406.793448 643.507635 406.793448 
C 643.088312 406.793448 642.686107 406.960047 642.389601 407.256553 
C 642.093095 407.553059 641.926496 407.955264 641.926496 408.374587 
C 641.926496 408.79391 642.093095 409.196115 642.389601 409.492621 
C 642.686107 409.789127 643.088312 409.955726 643.507635 409.955726 
z
" style="fill:#7570b3;fill-opacity:0.7;"/>
    <path clip-path="url(#p271c6dd0f7)" d="M 643.513653 409.673325 
C 643.932975 409.673325 644.33518 409.506727 644.631686 409.21022 
C 644.928193 408.913714 645.094791 408.511509 645.094791 408.092186 
C 645.094791 407.672864 644.928193 407.270659 644.631686 406.974152 
C 644.33518 406.677646 643.932975 406.511048 643.513653 406.511048 
C 643.09433 406.511048 642.692125 406.677646 642.395619 406.974152 
C 642.099112 407.270659 641.932514 407.672864 641.932514 408.092186 
C 641.932514 408.511509 642.099112 408.913714 642.395619 409.21022 
C 642.692125 409.506727 643.09433 409.673325 643.513653 409.673325 
z
" style="fill:#7570b3;fill-opacity:0.7;"/>
    <path clip-path="url(#p271c6dd0f7)" d="M 643.51195 409.689052 
C 643.931273 409.689052 644.333478 409.522453 644.629984 409.225947 
C 644.92649 408.929441 645.093089 408.527236 645.093089 408.107913 
C 645.093089 407.68859 644.92649 407.286385 644.629984 406.989879 
C 644.333478 406.693373 643.931273 406.526774 643.51195 406.526774 
C 643.092627 406.526774 642.690422 406.693373 642.393916 406.989879 
C 642.09741 407.286385 641.930811 407.68859 641.930811 408.107913 
C 641.930811 408.527236 642.09741 408.929441 642.393916 409.225947 
C 642.690422 409.522453 643.092627 409.689052 643.51195 409.689052 
z
" style="fill:#7570b3;fill-opacity:0.7;"/>
    <path clip-path="url(#p271c6dd0f7)" d="M 643.519482 409.638705 
C 643.938805 409.638705 644.34101 409.472106 644.637516 409.1756 
C 644.934022 408.879094 645.100621 408.476889 645.100621 408.057566 
C 645.100621 407.638243 644.934022 407.236038 644.637516 406.939532 
C 644.34101 406.643026 643.938805 406.476427 643.519482 406.476427 
C 643.100159 406.476427 642.697954 406.643026 642.401448 406.939532 
C 642.104942 407.236038 641.938343 407.638243 641.938343 408.057566 
C 641.938343 408.476889 642.104942 408.879094 642.401448 409.1756 
C 642.697954 409.472106 643.100159 409.638705 643.519482 409.638705 
z
" style="fill:#7570b3;fill-opacity:0.7;"/>
    <path clip-path="url(#p271c6dd0f7)" d="M 643.526443 409.460397 
C 643.945766 409.460397 644.347971 409.293798 644.644477 408.997292 
C 644.940983 408.700786 645.107582 408.298581 645.107582 407.879258 
C 645.107582 407.459935 644.940983 407.05773 644.644477 406.761224 
C 644.347971 406.464718 643.945766 406.298119 643.526443 406.298119 
C 643.10712 406.298119 642.704915 406.464718 642.408409 406.761224 
C 642.111903 407.05773 641.945304 407.459935 641.945304 407.879258 
C 641.945304 408.298581 642.111903 408.700786 642.408409 408.997292 
C 642.704915 409.293798 643.10712 409.460397 643.526443 409.460397 
z
" style="fill:#7570b3;fill-opacity:0.7;"/>
    <path clip-path="url(#p271c6dd0f7)" d="M 643.508036 409.954293 
C 643.927359 409.954293 644.329564 409.787694 644.62607 409.491188 
C 644.922576 409.194682 645.089175 408.792477 645.089175 408.373154 
C 645.089175 407.953831 644.922576 407.551626 644.62607 407.25512 
C 644.329564 406.958614 643.927359 406.792015 643.508036 406.792015 
C 643.088713 406.792015 642.686508 406.958614 642.390002 407.25512 
C 642.093496 407.551626 641.926897 407.953831 641.926897 408.373154 
C 641.926897 408.792477 642.093496 409.194682 642.390002 409.491188 
C 642.686508 409.787694 643.088713 409.954293 643.508036 409.954293 
z
" style="fill:#7570b3;fill-opacity:0.7;"/>
    <path clip-path="url(#p271c6dd0f7)" d="M 643.515356 410.175832 
C 643.934679 410.175832 644.336884 410.009233 644.63339 409.712727 
C 644.929896 409.416221 645.096495 409.014016 645.096495 408.594693 
C 645.096495 408.17537 644.929896 407.773165 644.63339 407.476659 
C 644.336884 407.180153 643.934679 407.013555 643.515356 407.013555 
C 643.096033 407.013555 642.693828 407.180153 642.397322 407.476659 
C 642.100816 407.773165 641.934218 408.17537 641.934218 408.594693 
C 641.934218 409.014016 642.100816 409.416221 642.397322 409.712727 
C 642.693828 410.009233 643.096033 410.175832 643.515356 410.175832 
z
" style="fill:#7570b3;fill-opacity:0.7;"/>
    <path clip-path="url(#p271c6dd0f7)" d="M 643.520336 409.284955 
C 643.939659 409.284955 644.341864 409.118357 644.63837 408.821851 
C 644.934876 408.525344 645.101475 408.123139 645.101475 407.703817 
C 645.101475 407.284494 644.934876 406.882289 644.63837 406.585783 
C 644.341864 406.289276 643.939659 406.122678 643.520336 406.122678 
C 643.101013 406.122678 642.698808 406.289276 642.402302 406.585783 
C 642.105796 406.882289 641.939197 407.284494 641.939197 407.703817 
C 641.939197 408.123139 642.105796 408.525344 642.402302 408.821851 
C 642.698808 409.118357 643.101013 409.284955 643.520336 409.284955 
z
" style="fill:#7570b3;fill-opacity:0.7;"/>
    <path clip-path="url(#p271c6dd0f7)" d="M 643.517434 409.277463 
C 643.936757 409.277463 644.338962 409.110864 644.635468 408.814358 
C 644.931974 408.517852 645.098573 408.115647 645.098573 407.696324 
C 645.098573 407.277001 644.931974 406.874796 644.635468 406.57829 
C 644.338962 406.281784 643.936757 406.115185 643.517434 406.115185 
C 643.098111 406.115185 642.695906 406.281784 642.3994 406.57829 
C 642.102894 406.874796 641.936296 407.277001 641.936296 407.696324 
C 641.936296 408.115647 642.102894 408.517852 642.3994 408.814358 
C 642.695906 409.110864 643.098111 409.277463 643.517434 409.277463 
z
" style="fill:#7570b3;fill-opacity:0.7;"/>
    <path clip-path="url(#p271c6dd0f7)" d="M 643.521293 410.2052 
C 643.940616 410.2052 644.342821 410.038602 644.639327 409.742095 
C 644.935833 409.445589 645.102432 409.043384 645.102432 408.624061 
C 645.102432 408.204739 644.935833 407.802534 644.639327 407.506027 
C 644.342821 407.209521 643.940616 407.042923 643.521293 407.042923 
C 643.10197 407.042923 642.699765 407.209521 642.403259 407.506027 
C 642.106753 407.802534 641.940154 408.204739 641.940154 408.624061 
C 641.940154 409.043384 642.106753 409.445589 642.403259 409.742095 
C 642.699765 410.038602 643.10197 410.2052 643.521293 410.2052 
z
" style="fill:#7570b3;fill-opacity:0.7;"/>
    <path clip-path="url(#p271c6dd0f7)" d="M 643.525648 409.987348 
C 643.944971 409.987348 644.347176 409.820749 644.643682 409.524243 
C 644.940188 409.227737 645.106787 408.825532 645.106787 408.406209 
C 645.106787 407.986886 644.940188 407.584681 644.643682 407.288175 
C 644.347176 406.991669 643.944971 406.82507 643.525648 406.82507 
C 643.106325 406.82507 642.70412 406.991669 642.407614 407.288175 
C 642.111108 407.584681 641.944509 407.986886 641.944509 408.406209 
C 641.944509 408.825532 642.111108 409.227737 642.407614 409.524243 
C 642.70412 409.820749 643.106325 409.987348 643.525648 409.987348 
z
" style="fill:#7570b3;fill-opacity:0.7;"/>
    <path clip-path="url(#p271c6dd0f7)" d="M 643.518721 409.747497 
C 643.938044 409.747497 644.340249 409.580898 644.636755 409.284392 
C 644.933261 408.987886 645.09986 408.585681 645.09986 408.166358 
C 645.09986 407.747035 644.933261 407.34483 644.636755 407.048324 
C 644.340249 406.751818 643.938044 406.585219 643.518721 406.585219 
C 643.099398 406.585219 642.697193 406.751818 642.400687 407.048324 
C 642.104181 407.34483 641.937583 407.747035 641.937583 408.166358 
C 641.937583 408.585681 642.104181 408.987886 642.400687 409.284392 
C 642.697193 409.580898 643.099398 409.747497 643.518721 409.747497 
z
" style="fill:#7570b3;fill-opacity:0.7;"/>
    <path clip-path="url(#p271c6dd0f7)" d="M 643.513735 409.921067 
C 643.933058 409.921067 644.335263 409.754469 644.631769 409.457963 
C 644.928275 409.161456 645.094874 408.759251 645.094874 408.339929 
C 645.094874 407.920606 644.928275 407.518401 644.631769 407.221895 
C 644.335263 406.925388 643.933058 406.75879 643.513735 406.75879 
C 643.094412 406.75879 642.692207 406.925388 642.395701 407.221895 
C 642.099195 407.518401 641.932596 407.920606 641.932596 408.339929 
C 641.932596 408.759251 642.099195 409.161456 642.395701 409.457963 
C 642.692207 409.754469 643.094412 409.921067 643.513735 409.921067 
z
" style="fill:#7570b3;fill-opacity:0.7;"/>
    <path clip-path="url(#p271c6dd0f7)" d="M 643.51648 409.997337 
C 643.935803 409.997337 644.338008 409.830739 644.634514 409.534233 
C 644.93102 409.237726 645.097619 408.835521 645.097619 408.416199 
C 645.097619 407.996876 644.93102 407.594671 644.634514 407.298165 
C 644.338008 407.001658 643.935803 406.83506 643.51648 406.83506 
C 643.097157 406.83506 642.694952 407.001658 642.398446 407.298165 
C 642.10194 407.594671 641.935341 407.996876 641.935341 408.416199 
C 641.935341 408.835521 642.10194 409.237726 642.398446 409.534233 
C 642.694952 409.830739 643.097157 409.997337 643.51648 409.997337 
z
" style="fill:#7570b3;fill-opacity:0.7;"/>
    <path clip-path="url(#p271c6dd0f7)" d="M 643.5306 410.098804 
C 643.949923 410.098804 644.352128 409.932205 644.648634 409.635699 
C 644.94514 409.339193 645.111739 408.936988 645.111739 408.517665 
C 645.111739 408.098342 644.94514 407.696137 644.648634 407.399631 
C 644.352128 407.103125 643.949923 406.936526 643.5306 406.936526 
C 643.111277 406.936526 642.709072 407.103125 642.412566 407.399631 
C 642.11606 407.696137 641.949462 408.098342 641.949462 408.517665 
C 641.949462 408.936988 642.11606 409.339193 642.412566 409.635699 
C 642.709072 409.932205 643.111277 410.098804 643.5306 410.098804 
z
" style="fill:#7570b3;fill-opacity:0.7;"/>
    <path clip-path="url(#p271c6dd0f7)" d="M 643.521455 408.805425 
C 643.940778 408.805425 644.342983 408.638826 644.639489 408.34232 
C 644.935995 408.045814 645.102594 407.643609 645.102594 407.224286 
C 645.102594 406.804963 644.935995 406.402758 644.639489 406.106252 
C 644.342983 405.809746 643.940778 405.643148 643.521455 405.643148 
C 643.102132 405.643148 642.699927 405.809746 642.403421 406.106252 
C 642.106915 406.402758 641.940316 406.804963 641.940316 407.224286 
C 641.940316 407.643609 642.106915 408.045814 642.403421 408.34232 
C 642.699927 408.638826 643.102132 408.805425 643.521455 408.805425 
z
" style="fill:#7570b3;fill-opacity:0.7;"/>
    <path clip-path="url(#p271c6dd0f7)" d="M 643.52761 409.932651 
C 643.946933 409.932651 644.349138 409.766052 644.645644 409.469546 
C 644.94215 409.17304 645.108749 408.770835 645.108749 408.351512 
C 645.108749 407.932189 644.94215 407.529984 644.645644 407.233478 
C 644.349138 406.936972 643.946933 406.770373 643.52761 406.770373 
C 643.108287 406.770373 642.706082 406.936972 642.409576 407.233478 
C 642.11307 407.529984 641.946472 407.932189 641.946472 408.351512 
C 641.946472 408.770835 642.11307 409.17304 642.409576 409.469546 
C 642.706082 409.766052 643.108287 409.932651 643.52761 409.932651 
z
" style="fill:#7570b3;fill-opacity:0.7;"/>
    <path clip-path="url(#p271c6dd0f7)" d="M 643.527117 409.671904 
C 643.94644 409.671904 644.348645 409.505305 644.645151 409.208799 
C 644.941657 408.912293 645.108256 408.510088 645.108256 408.090765 
C 645.108256 407.671442 644.941657 407.269237 644.645151 406.972731 
C 644.348645 406.676225 643.94644 406.509626 643.527117 406.509626 
C 643.107794 406.509626 642.705589 406.676225 642.409083 406.972731 
C 642.112577 407.269237 641.945978 407.671442 641.945978 408.090765 
C 641.945978 408.510088 642.112577 408.912293 642.409083 409.208799 
C 642.705589 409.505305 643.107794 409.671904 643.527117 409.671904 
z
" style="fill:#7570b3;fill-opacity:0.7;"/>
    <path clip-path="url(#p271c6dd0f7)" d="M 643.518812 409.798319 
C 643.938135 409.798319 644.34034 409.63172 644.636846 409.335214 
C 644.933352 409.038708 645.099951 408.636503 645.099951 408.21718 
C 645.099951 407.797857 644.933352 407.395652 644.636846 407.099146 
C 644.34034 406.80264 643.938135 406.636042 643.518812 406.636042 
C 643.099489 406.636042 642.697285 406.80264 642.400778 407.099146 
C 642.104272 407.395652 641.937674 407.797857 641.937674 408.21718 
C 641.937674 408.636503 642.104272 409.038708 642.400778 409.335214 
C 642.697285 409.63172 643.099489 409.798319 643.518812 409.798319 
z
" style="fill:#7570b3;fill-opacity:0.7;"/>
    <path clip-path="url(#p271c6dd0f7)" d="M 643.525619 409.256916 
C 643.944942 409.256916 644.347146 409.090317 644.643653 408.793811 
C 644.940159 408.497305 645.106757 408.0951 645.106757 407.675777 
C 645.106757 407.256455 644.940159 406.85425 644.643653 406.557743 
C 644.347146 406.261237 643.944942 406.094639 643.525619 406.094639 
C 643.106296 406.094639 642.704091 406.261237 642.407585 406.557743 
C 642.111079 406.85425 641.94448 407.256455 641.94448 407.675777 
C 641.94448 408.0951 642.111079 408.497305 642.407585 408.793811 
C 642.704091 409.090317 643.106296 409.256916 643.525619 409.256916 
z
" style="fill:#7570b3;fill-opacity:0.7;"/>
   </g>
   <g id="PathCollection_2"/>
   <g id="PathCollection_3"/>
   <g id="PathCollection_4"/>
   <g id="matplotlib.axis_3">
    <g id="xtick_5">
     <g id="line2d_15">
      <g>
       <use style="stroke:#000000;stroke-width:1.6;" x="643.505333" xlink:href="#m56e74a7e89" y="428.15"/>
      </g>
     </g>
     <g id="text_11">
      <!-- 0.0 -->
      <g transform="translate(627.602208 458.046875)scale(0.2 -0.2)">
       <use xlink:href="#DejaVuSans-48"/>
       <use x="63.623047" xlink:href="#DejaVuSans-46"/>
       <use x="95.410156" xlink:href="#DejaVuSans-48"/>
      </g>
     </g>
    </g>
    <g id="xtick_6">
     <g id="line2d_16">
      <g>
       <use style="stroke:#000000;stroke-width:1.6;" x="757.006667" xlink:href="#m56e74a7e89" y="428.15"/>
      </g>
     </g>
     <g id="text_12">
      <!-- 0.2 -->
      <g transform="translate(741.103542 458.046875)scale(0.2 -0.2)">
       <use xlink:href="#DejaVuSans-48"/>
       <use x="63.623047" xlink:href="#DejaVuSans-46"/>
       <use x="95.410156" xlink:href="#DejaVuSans-50"/>
      </g>
     </g>
    </g>
    <g id="xtick_7">
     <g id="line2d_17">
      <g>
       <use style="stroke:#000000;stroke-width:1.6;" x="870.508" xlink:href="#m56e74a7e89" y="428.15"/>
      </g>
     </g>
     <g id="text_13">
      <!-- 0.4 -->
      <g transform="translate(854.604875 458.046875)scale(0.2 -0.2)">
       <use xlink:href="#DejaVuSans-48"/>
       <use x="63.623047" xlink:href="#DejaVuSans-46"/>
       <use x="95.410156" xlink:href="#DejaVuSans-52"/>
      </g>
     </g>
    </g>
    <g id="xtick_8">
     <g id="line2d_18">
      <g>
       <use style="stroke:#000000;stroke-width:1.6;" x="984.009333" xlink:href="#m56e74a7e89" y="428.15"/>
      </g>
     </g>
     <g id="text_14">
      <!-- 0.6 -->
      <g transform="translate(968.106208 458.046875)scale(0.2 -0.2)">
       <use xlink:href="#DejaVuSans-48"/>
       <use x="63.623047" xlink:href="#DejaVuSans-46"/>
       <use x="95.410156" xlink:href="#DejaVuSans-54"/>
      </g>
     </g>
    </g>
    <g id="text_15">
     <!-- JSD (seeds vs base) -->
     <g transform="translate(729.568438 481.403125)scale(0.2 -0.2)">
      <use xlink:href="#DejaVuSans-74"/>
      <use x="29.492188" xlink:href="#DejaVuSans-83"/>
      <use x="92.96875" xlink:href="#DejaVuSans-68"/>
      <use x="169.970703" xlink:href="#DejaVuSans-32"/>
      <use x="201.757812" xlink:href="#DejaVuSans-40"/>
      <use x="240.771484" xlink:href="#DejaVuSans-115"/>
      <use x="292.871094" xlink:href="#DejaVuSans-101"/>
      <use x="354.394531" xlink:href="#DejaVuSans-101"/>
      <use x="415.917969" xlink:href="#DejaVuSans-100"/>
      <use x="479.394531" xlink:href="#DejaVuSans-115"/>
      <use x="531.494141" xlink:href="#DejaVuSans-32"/>
      <use x="563.28125" xlink:href="#DejaVuSans-118"/>
      <use x="622.460938" xlink:href="#DejaVuSans-115"/>
      <use x="674.560547" xlink:href="#DejaVuSans-32"/>
      <use x="706.347656" xlink:href="#DejaVuSans-98"/>
      <use x="769.824219" xlink:href="#DejaVuSans-97"/>
      <use x="831.103516" xlink:href="#DejaVuSans-115"/>
      <use x="883.203125" xlink:href="#DejaVuSans-101"/>
      <use x="944.726562" xlink:href="#DejaVuSans-41"/>
     </g>
    </g>
   </g>
   <g id="matplotlib.axis_4">
    <g id="ytick_5">
     <g id="line2d_19">
      <g>
       <use style="stroke:#000000;stroke-width:1.6;" x="615.13" xlink:href="#m4eb3be6432" y="408.803182"/>
      </g>
     </g>
     <g id="text_16">
      <!-- 0.0 -->
      <g transform="translate(568.62375 416.401619)scale(0.2 -0.2)">
       <use xlink:href="#DejaVuSans-48"/>
       <use x="63.623047" xlink:href="#DejaVuSans-46"/>
       <use x="95.410156" xlink:href="#DejaVuSans-48"/>
      </g>
     </g>
    </g>
    <g id="ytick_6">
     <g id="line2d_20">
      <g>
       <use style="stroke:#000000;stroke-width:1.6;" x="615.13" xlink:href="#m4eb3be6432" y="331.415909"/>
      </g>
     </g>
     <g id="text_17">
      <!-- 0.2 -->
      <g transform="translate(568.62375 339.014347)scale(0.2 -0.2)">
       <use xlink:href="#DejaVuSans-48"/>
       <use x="63.623047" xlink:href="#DejaVuSans-46"/>
       <use x="95.410156" xlink:href="#DejaVuSans-50"/>
      </g>
     </g>
    </g>
    <g id="ytick_7">
     <g id="line2d_21">
      <g>
       <use style="stroke:#000000;stroke-width:1.6;" x="615.13" xlink:href="#m4eb3be6432" y="254.028636"/>
      </g>
     </g>
     <g id="text_18">
      <!-- 0.4 -->
      <g transform="translate(568.62375 261.627074)scale(0.2 -0.2)">
       <use xlink:href="#DejaVuSans-48"/>
       <use x="63.623047" xlink:href="#DejaVuSans-46"/>
       <use x="95.410156" xlink:href="#DejaVuSans-52"/>
      </g>
     </g>
    </g>
    <g id="ytick_8">
     <g id="line2d_22">
      <g>
       <use style="stroke:#000000;stroke-width:1.6;" x="615.13" xlink:href="#m4eb3be6432" y="176.641364"/>
      </g>
     </g>
     <g id="text_19">
      <!-- 0.6 -->
      <g transform="translate(568.62375 184.239801)scale(0.2 -0.2)">
       <use xlink:href="#DejaVuSans-48"/>
       <use x="63.623047" xlink:href="#DejaVuSans-46"/>
       <use x="95.410156" xlink:href="#DejaVuSans-54"/>
      </g>
     </g>
    </g>
    <g id="ytick_9">
     <g id="line2d_23">
      <g>
       <use style="stroke:#000000;stroke-width:1.6;" x="615.13" xlink:href="#m4eb3be6432" y="99.254091"/>
      </g>
     </g>
     <g id="text_20">
      <!-- 0.8 -->
      <defs>
       <path d="M 31.78125 34.625 
Q 24.75 34.625 20.71875 30.859375 
Q 16.703125 27.09375 16.703125 20.515625 
Q 16.703125 13.921875 20.71875 10.15625 
Q 24.75 6.390625 31.78125 6.390625 
Q 38.8125 6.390625 42.859375 10.171875 
Q 46.921875 13.96875 46.921875 20.515625 
Q 46.921875 27.09375 42.890625 30.859375 
Q 38.875 34.625 31.78125 34.625 
z
M 21.921875 38.8125 
Q 15.578125 40.375 12.03125 44.71875 
Q 8.5 49.078125 8.5 55.328125 
Q 8.5 64.0625 14.71875 69.140625 
Q 20.953125 74.21875 31.78125 74.21875 
Q 42.671875 74.21875 48.875 69.140625 
Q 55.078125 64.0625 55.078125 55.328125 
Q 55.078125 49.078125 51.53125 44.71875 
Q 48 40.375 41.703125 38.8125 
Q 48.828125 37.15625 52.796875 32.3125 
Q 56.78125 27.484375 56.78125 20.515625 
Q 56.78125 9.90625 50.3125 4.234375 
Q 43.84375 -1.421875 31.78125 -1.421875 
Q 19.734375 -1.421875 13.25 4.234375 
Q 6.78125 9.90625 6.78125 20.515625 
Q 6.78125 27.484375 10.78125 32.3125 
Q 14.796875 37.15625 21.921875 38.8125 
z
M 18.3125 54.390625 
Q 18.3125 48.734375 21.84375 45.5625 
Q 25.390625 42.390625 31.78125 42.390625 
Q 38.140625 42.390625 41.71875 45.5625 
Q 45.3125 48.734375 45.3125 54.390625 
Q 45.3125 60.0625 41.71875 63.234375 
Q 38.140625 66.40625 31.78125 66.40625 
Q 25.390625 66.40625 21.84375 63.234375 
Q 18.3125 60.0625 18.3125 54.390625 
z
" id="DejaVuSans-56"/>
      </defs>
      <g transform="translate(568.62375 106.852528)scale(0.2 -0.2)">
       <use xlink:href="#DejaVuSans-48"/>
       <use x="63.623047" xlink:href="#DejaVuSans-46"/>
       <use x="95.410156" xlink:href="#DejaVuSans-56"/>
      </g>
     </g>
    </g>
    <g id="ytick_10">
     <g id="line2d_24">
      <g>
       <use style="stroke:#000000;stroke-width:1.6;" x="615.13" xlink:href="#m4eb3be6432" y="21.866818"/>
      </g>
     </g>
     <g id="text_21">
      <!-- 1.0 -->
      <g transform="translate(568.62375 29.465256)scale(0.2 -0.2)">
       <use xlink:href="#DejaVuSans-49"/>
       <use x="63.623047" xlink:href="#DejaVuSans-46"/>
       <use x="95.410156" xlink:href="#DejaVuSans-48"/>
      </g>
     </g>
    </g>
    <g id="text_22">
     <!-- Output Difference -->
     <defs>
      <path d="M 39.40625 66.21875 
Q 28.65625 66.21875 22.328125 58.203125 
Q 16.015625 50.203125 16.015625 36.375 
Q 16.015625 22.609375 22.328125 14.59375 
Q 28.65625 6.59375 39.40625 6.59375 
Q 50.140625 6.59375 56.421875 14.59375 
Q 62.703125 22.609375 62.703125 36.375 
Q 62.703125 50.203125 56.421875 58.203125 
Q 50.140625 66.21875 39.40625 66.21875 
z
M 39.40625 74.21875 
Q 54.734375 74.21875 63.90625 63.9375 
Q 73.09375 53.65625 73.09375 36.375 
Q 73.09375 19.140625 63.90625 8.859375 
Q 54.734375 -1.421875 39.40625 -1.421875 
Q 24.03125 -1.421875 14.8125 8.828125 
Q 5.609375 19.09375 5.609375 36.375 
Q 5.609375 53.65625 14.8125 63.9375 
Q 24.03125 74.21875 39.40625 74.21875 
z
" id="DejaVuSans-79"/>
      <path d="M 8.5 21.578125 
L 8.5 54.6875 
L 17.484375 54.6875 
L 17.484375 21.921875 
Q 17.484375 14.15625 20.5 10.265625 
Q 23.53125 6.390625 29.59375 6.390625 
Q 36.859375 6.390625 41.078125 11.03125 
Q 45.3125 15.671875 45.3125 23.6875 
L 45.3125 54.6875 
L 54.296875 54.6875 
L 54.296875 0 
L 45.3125 0 
L 45.3125 8.40625 
Q 42.046875 3.421875 37.71875 1 
Q 33.40625 -1.421875 27.6875 -1.421875 
Q 18.265625 -1.421875 13.375 4.4375 
Q 8.5 10.296875 8.5 21.578125 
z
M 31.109375 56 
z
" id="DejaVuSans-117"/>
      <path d="M 18.109375 8.203125 
L 18.109375 -20.796875 
L 9.078125 -20.796875 
L 9.078125 54.6875 
L 18.109375 54.6875 
L 18.109375 46.390625 
Q 20.953125 51.265625 25.265625 53.625 
Q 29.59375 56 35.59375 56 
Q 45.5625 56 51.78125 48.09375 
Q 58.015625 40.1875 58.015625 27.296875 
Q 58.015625 14.40625 51.78125 6.484375 
Q 45.5625 -1.421875 35.59375 -1.421875 
Q 29.59375 -1.421875 25.265625 0.953125 
Q 20.953125 3.328125 18.109375 8.203125 
z
M 48.6875 27.296875 
Q 48.6875 37.203125 44.609375 42.84375 
Q 40.53125 48.484375 33.40625 48.484375 
Q 26.265625 48.484375 22.1875 42.84375 
Q 18.109375 37.203125 18.109375 27.296875 
Q 18.109375 17.390625 22.1875 11.75 
Q 26.265625 6.109375 33.40625 6.109375 
Q 40.53125 6.109375 44.609375 11.75 
Q 48.6875 17.390625 48.6875 27.296875 
z
" id="DejaVuSans-112"/>
      <path d="M 37.109375 75.984375 
L 37.109375 68.5 
L 28.515625 68.5 
Q 23.6875 68.5 21.796875 66.546875 
Q 19.921875 64.59375 19.921875 59.515625 
L 19.921875 54.6875 
L 34.71875 54.6875 
L 34.71875 47.703125 
L 19.921875 47.703125 
L 19.921875 0 
L 10.890625 0 
L 10.890625 47.703125 
L 2.296875 47.703125 
L 2.296875 54.6875 
L 10.890625 54.6875 
L 10.890625 58.5 
Q 10.890625 67.625 15.140625 71.796875 
Q 19.390625 75.984375 28.609375 75.984375 
z
" id="DejaVuSans-102"/>
      <path d="M 41.109375 46.296875 
Q 39.59375 47.171875 37.8125 47.578125 
Q 36.03125 48 33.890625 48 
Q 26.265625 48 22.1875 43.046875 
Q 18.109375 38.09375 18.109375 28.8125 
L 18.109375 0 
L 9.078125 0 
L 9.078125 54.6875 
L 18.109375 54.6875 
L 18.109375 46.1875 
Q 20.953125 51.171875 25.484375 53.578125 
Q 30.03125 56 36.53125 56 
Q 37.453125 56 38.578125 55.875 
Q 39.703125 55.765625 41.0625 55.515625 
z
" id="DejaVuSans-114"/>
      <path d="M 48.78125 52.59375 
L 48.78125 44.1875 
Q 44.96875 46.296875 41.140625 47.34375 
Q 37.3125 48.390625 33.40625 48.390625 
Q 24.65625 48.390625 19.8125 42.84375 
Q 14.984375 37.3125 14.984375 27.296875 
Q 14.984375 17.28125 19.8125 11.734375 
Q 24.65625 6.203125 33.40625 6.203125 
Q 37.3125 6.203125 41.140625 7.25 
Q 44.96875 8.296875 48.78125 10.40625 
L 48.78125 2.09375 
Q 45.015625 0.34375 40.984375 -0.53125 
Q 36.96875 -1.421875 32.421875 -1.421875 
Q 20.0625 -1.421875 12.78125 6.34375 
Q 5.515625 14.109375 5.515625 27.296875 
Q 5.515625 40.671875 12.859375 48.328125 
Q 20.21875 56 33.015625 56 
Q 37.15625 56 41.109375 55.140625 
Q 45.0625 54.296875 48.78125 52.59375 
z
" id="DejaVuSans-99"/>
     </defs>
     <g transform="translate(560.464375 305.170937)rotate(-90)scale(0.2 -0.2)">
      <use xlink:href="#DejaVuSans-79"/>
      <use x="78.710938" xlink:href="#DejaVuSans-117"/>
      <use x="142.089844" xlink:href="#DejaVuSans-116"/>
      <use x="181.298828" xlink:href="#DejaVuSans-112"/>
      <use x="244.775391" xlink:href="#DejaVuSans-117"/>
      <use x="308.154297" xlink:href="#DejaVuSans-116"/>
      <use x="347.363281" xlink:href="#DejaVuSans-32"/>
      <use x="379.150391" xlink:href="#DejaVuSans-68"/>
      <use x="456.152344" xlink:href="#DejaVuSans-105"/>
      <use x="483.935547" xlink:href="#DejaVuSans-102"/>
      <use x="519.140625" xlink:href="#DejaVuSans-102"/>
      <use x="554.345703" xlink:href="#DejaVuSans-101"/>
      <use x="615.869141" xlink:href="#DejaVuSans-114"/>
      <use x="656.951172" xlink:href="#DejaVuSans-101"/>
      <use x="718.474609" xlink:href="#DejaVuSans-110"/>
      <use x="781.853516" xlink:href="#DejaVuSans-99"/>
      <use x="836.833984" xlink:href="#DejaVuSans-101"/>
     </g>
    </g>
   </g>
   <g id="patch_8">
    <path style="fill:none;stroke:#000000;stroke-linecap:square;stroke-linejoin:miter;stroke-width:0.8;"/>
   </g>
   <g id="patch_9">
    <path style="fill:none;stroke:#000000;stroke-linecap:square;stroke-linejoin:miter;stroke-width:0.8;"/>
   </g>
  </g>
 </g>
 <defs>
  <clipPath id="p1a0c0e7d01">
   <rect height="425.63" width="425.63" x="97.81" y="2.52"/>
  </clipPath>
  <clipPath id="p271c6dd0f7">
   <rect height="425.63" width="425.63" x="615.13" y="2.52"/>
  </clipPath>
 </defs>
</svg>
