<?xml version="1.0" encoding="utf-8" standalone="no"?>
<!DOCTYPE svg PUBLIC "-//W3C//DTD SVG 1.1//EN"
  "http://www.w3.org/Graphics/SVG/1.1/DTD/svg11.dtd">
<!-- Created with matplotlib (https://matplotlib.org/) -->
<svg height="487.17pt" version="1.1" viewBox="0 0 498.96 487.17" width="498.96pt" xmlns="http://www.w3.org/2000/svg" xmlns:xlink="http://www.w3.org/1999/xlink">
 <defs>
  <style type="text/css">
*{stroke-linecap:butt;stroke-linejoin:round;}
  </style>
 </defs>
 <g id="figure_1">
  <g id="patch_1">
   <path d="M 0 487.17 
L 498.96 487.17 
L 498.96 0 
L 0 0 
z
" style="fill:#ffffff;"/>
  </g>
  <g id="axes_1">
   <g id="patch_2">
    <path d="M -446.51 428.15 
L -20.88 428.15 
L -20.88 2.52 
L -446.51 2.52 
z
" style="fill:#ffffff;"/>
   </g>
   <g id="PolyCollection_1">
    <defs>
     <path d="M -418.134393 -444.005572 
L -418.134393 -461.449928 
L -418.133987 -462.244194 
L -418.133581 -463.044146 
L -418.133175 -463.843397 
L -418.132769 -464.635995 
L -418.132363 -465.416558 
L -418.131957 -466.180338 
L -418.131552 -466.923224 
L -418.131146 -467.641688 
L -418.13074 -468.332681 
L -418.130334 -468.993486 
L -418.129928 -469.621563 
L -418.129522 -470.214394 
L -418.129116 -470.76935 
L -418.12871 -471.283597 
L -418.128304 -471.754053 
L -418.127898 -472.177408 
L -418.127493 -472.550191 
L -418.127087 -472.868897 
L -418.126681 -473.130152 
L -418.126275 -473.330897 
L -418.125869 -473.468593 
L -418.125463 -473.541405 
L -418.125057 -473.548372 
L -418.124651 -473.489533 
L -418.124245 -473.366023 
L -418.123839 -473.180102 
L -418.123433 -472.935149 
L -418.123028 -472.635602 
L -418.122622 -472.28685 
L -418.122216 -471.895096 
L -418.12181 -471.467174 
L -418.121404 -471.010344 
L -418.120998 -470.532072 
L -418.120592 -470.039783 
L -418.120186 -469.540619 
L -418.11978 -469.041187 
L -418.119374 -468.547328 
L -418.118969 -468.063907 
L -418.118563 -467.594631 
L -418.118157 -467.141924 
L -418.117751 -466.706853 
L -418.117345 -466.289128 
L -418.116939 -465.887166 
L -418.116533 -465.498238 
L -418.116127 -465.118672 
L -418.115721 -464.744125 
L -418.115315 -464.369886 
L -418.114909 -463.991207 
L -418.114504 -463.603629 
L -418.114098 -463.203285 
L -418.113692 -462.787163 
L -418.113286 -462.353303 
L -418.11288 -461.90092 
L -418.112474 -461.430455 
L -418.112068 -460.943534 
L -418.111662 -460.442872 
L -418.111256 -459.9321 
L -418.11085 -459.41556 
L -418.110445 -458.898067 
L -418.110039 -458.384662 
L -418.109633 -457.880376 
L -418.109227 -457.390016 
L -418.108821 -456.917982 
L -418.108415 -456.468127 
L -418.108009 -456.043661 
L -418.107603 -455.647093 
L -418.107197 -455.280225 
L -418.106791 -454.944166 
L -418.106385 -454.639391 
L -418.10598 -454.365803 
L -418.105574 -454.122824 
L -418.105168 -453.909486 
L -418.104762 -453.724525 
L -418.104356 -453.566467 
L -418.10395 -453.433715 
L -418.103544 -453.324611 
L -418.103138 -453.237503 
L -418.102732 -453.170775 
L -418.102326 -453.122885 
L -418.101921 -453.092364 
L -418.101515 -453.077823 
L -418.101109 -453.077926 
L -418.100703 -453.091372 
L -418.100297 -453.116857 
L -418.099891 -453.153035 
L -418.099485 -453.198488 
L -418.099079 -453.251691 
L -418.098673 -453.31099 
L -418.098267 -453.3746 
L -418.097861 -453.440609 
L -418.097456 -453.507001 
L -418.09705 -453.571704 
L -418.096644 -453.63264 
L -418.096238 -453.687801 
L -418.095832 -453.735318 
L -418.095426 -453.773546 
L -418.09502 -453.801129 
L -418.094614 -453.817071 
L -418.094208 -453.820776 
L -418.094208 -451.634724 
L -418.094208 -451.634724 
L -418.094614 -451.638429 
L -418.09502 -451.654371 
L -418.095426 -451.681954 
L -418.095832 -451.720182 
L -418.096238 -451.767699 
L -418.096644 -451.82286 
L -418.09705 -451.883796 
L -418.097456 -451.948499 
L -418.097861 -452.014891 
L -418.098267 -452.0809 
L -418.098673 -452.14451 
L -418.099079 -452.203809 
L -418.099485 -452.257012 
L -418.099891 -452.302465 
L -418.100297 -452.338643 
L -418.100703 -452.364128 
L -418.101109 -452.377574 
L -418.101515 -452.377677 
L -418.101921 -452.363136 
L -418.102326 -452.332615 
L -418.102732 -452.284725 
L -418.103138 -452.217997 
L -418.103544 -452.130889 
L -418.10395 -452.021785 
L -418.104356 -451.889033 
L -418.104762 -451.730975 
L -418.105168 -451.546014 
L -418.105574 -451.332676 
L -418.10598 -451.089697 
L -418.106385 -450.816109 
L -418.106791 -450.511334 
L -418.107197 -450.175275 
L -418.107603 -449.808407 
L -418.108009 -449.411839 
L -418.108415 -448.987373 
L -418.108821 -448.537518 
L -418.109227 -448.065484 
L -418.109633 -447.575124 
L -418.110039 -447.070838 
L -418.110445 -446.557433 
L -418.11085 -446.03994 
L -418.111256 -445.5234 
L -418.111662 -445.012628 
L -418.112068 -444.511966 
L -418.112474 -444.025045 
L -418.11288 -443.55458 
L -418.113286 -443.102197 
L -418.113692 -442.668337 
L -418.114098 -442.252215 
L -418.114504 -441.851871 
L -418.114909 -441.464293 
L -418.115315 -441.085614 
L -418.115721 -440.711375 
L -418.116127 -440.336828 
L -418.116533 -439.957262 
L -418.116939 -439.568334 
L -418.117345 -439.166372 
L -418.117751 -438.748647 
L -418.118157 -438.313576 
L -418.118563 -437.860869 
L -418.118969 -437.391593 
L -418.119374 -436.908172 
L -418.11978 -436.414313 
L -418.120186 -435.914881 
L -418.120592 -435.415717 
L -418.120998 -434.923428 
L -418.121404 -434.445156 
L -418.12181 -433.988326 
L -418.122216 -433.560404 
L -418.122622 -433.16865 
L -418.123028 -432.819898 
L -418.123433 -432.520351 
L -418.123839 -432.275398 
L -418.124245 -432.089477 
L -418.124651 -431.965967 
L -418.125057 -431.907128 
L -418.125463 -431.914095 
L -418.125869 -431.986907 
L -418.126275 -432.124603 
L -418.126681 -432.325348 
L -418.127087 -432.586603 
L -418.127493 -432.905309 
L -418.127898 -433.278092 
L -418.128304 -433.701447 
L -418.12871 -434.171903 
L -418.129116 -434.68615 
L -418.129522 -435.241106 
L -418.129928 -435.833937 
L -418.130334 -436.462014 
L -418.13074 -437.122819 
L -418.131146 -437.813812 
L -418.131552 -438.532276 
L -418.131957 -439.275162 
L -418.132363 -440.038942 
L -418.132769 -440.819505 
L -418.133175 -441.612103 
L -418.133581 -442.411354 
L -418.133987 -443.211306 
L -418.134393 -444.005572 
z
" id="md718b07d5f" style="stroke:#424242;"/>
    </defs>
    <g clip-path="url(#p30761b42f2)">
     <use style="fill:#7c78ab;stroke:#424242;" x="0" xlink:href="#md718b07d5f" y="487.17"/>
    </g>
   </g>
   <g id="PolyCollection_2">
    <defs>
     <path d="M -418.123999 -398.667517 
L -418.123999 -421.661983 
L -418.12385 -421.819909 
L -418.123702 -421.975566 
L -418.123553 -422.128992 
L -418.123404 -422.280233 
L -418.123256 -422.429349 
L -418.123107 -422.576411 
L -418.122958 -422.721496 
L -418.12281 -422.864697 
L -418.122661 -423.006109 
L -418.122512 -423.145842 
L -418.122364 -423.284007 
L -418.122215 -423.420727 
L -418.122067 -423.556128 
L -418.121918 -423.690342 
L -418.121769 -423.823505 
L -418.121621 -423.955757 
L -418.121472 -424.087237 
L -418.121323 -424.218091 
L -418.121175 -424.348459 
L -418.121026 -424.478486 
L -418.120877 -424.608313 
L -418.120729 -424.738077 
L -418.12058 -424.867914 
L -418.120432 -424.997954 
L -418.120283 -425.128322 
L -418.120134 -425.259137 
L -418.119986 -425.39051 
L -418.119837 -425.522545 
L -418.119688 -425.655335 
L -418.11954 -425.788966 
L -418.119391 -425.92351 
L -418.119242 -426.059032 
L -418.119094 -426.19558 
L -418.118945 -426.333194 
L -418.118796 -426.471898 
L -418.118648 -426.611702 
L -418.118499 -426.752604 
L -418.118351 -426.894584 
L -418.118202 -427.037611 
L -418.118053 -427.181635 
L -418.117905 -427.326591 
L -418.117756 -427.4724 
L -418.117607 -427.618964 
L -418.117459 -427.766171 
L -418.11731 -427.913892 
L -418.117161 -428.061982 
L -418.117013 -428.21028 
L -418.116864 -428.358608 
L -418.116716 -428.506773 
L -418.116567 -428.654569 
L -418.116418 -428.801771 
L -418.11627 -428.948141 
L -418.116121 -429.093428 
L -418.115972 -429.237367 
L -418.115824 -429.379679 
L -418.115675 -429.520073 
L -418.115526 -429.658248 
L -418.115378 -429.793891 
L -418.115229 -429.92668 
L -418.115081 -430.056283 
L -418.114932 -430.182361 
L -418.114783 -430.304569 
L -418.114635 -430.422555 
L -418.114486 -430.535962 
L -418.114337 -430.644431 
L -418.114189 -430.7476 
L -418.11404 -430.845107 
L -418.113891 -430.93659 
L -418.113743 -431.021687 
L -418.113594 -431.100043 
L -418.113445 -431.171304 
L -418.113297 -431.235123 
L -418.113148 -431.291161 
L -418.113 -431.339087 
L -418.112851 -431.378581 
L -418.112702 -431.409333 
L -418.112554 -431.431047 
L -418.112405 -431.443442 
L -418.112256 -431.44625 
L -418.112108 -431.439222 
L -418.111959 -431.422128 
L -418.11181 -431.394753 
L -418.111662 -431.356908 
L -418.111513 -431.308421 
L -418.111365 -431.249144 
L -418.111216 -431.178954 
L -418.111067 -431.097749 
L -418.110919 -431.005455 
L -418.11077 -430.902022 
L -418.110621 -430.787426 
L -418.110473 -430.66167 
L -418.110324 -430.524783 
L -418.110175 -430.376824 
L -418.110027 -430.217876 
L -418.109878 -430.04805 
L -418.109729 -429.867486 
L -418.109581 -429.676348 
L -418.109432 -429.474829 
L -418.109284 -429.263147 
L -418.109284 -391.066353 
L -418.109284 -391.066353 
L -418.109432 -390.854671 
L -418.109581 -390.653152 
L -418.109729 -390.462014 
L -418.109878 -390.28145 
L -418.110027 -390.111624 
L -418.110175 -389.952676 
L -418.110324 -389.804717 
L -418.110473 -389.66783 
L -418.110621 -389.542074 
L -418.11077 -389.427478 
L -418.110919 -389.324045 
L -418.111067 -389.231751 
L -418.111216 -389.150546 
L -418.111365 -389.080356 
L -418.111513 -389.021079 
L -418.111662 -388.972592 
L -418.11181 -388.934747 
L -418.111959 -388.907372 
L -418.112108 -388.890278 
L -418.112256 -388.88325 
L -418.112405 -388.886058 
L -418.112554 -388.898453 
L -418.112702 -388.920167 
L -418.112851 -388.950919 
L -418.113 -388.990413 
L -418.113148 -389.038339 
L -418.113297 -389.094377 
L -418.113445 -389.158196 
L -418.113594 -389.229457 
L -418.113743 -389.307813 
L -418.113891 -389.39291 
L -418.11404 -389.484393 
L -418.114189 -389.5819 
L -418.114337 -389.685069 
L -418.114486 -389.793538 
L -418.114635 -389.906945 
L -418.114783 -390.024931 
L -418.114932 -390.147139 
L -418.115081 -390.273217 
L -418.115229 -390.40282 
L -418.115378 -390.535609 
L -418.115526 -390.671252 
L -418.115675 -390.809427 
L -418.115824 -390.949821 
L -418.115972 -391.092133 
L -418.116121 -391.236072 
L -418.11627 -391.381359 
L -418.116418 -391.527729 
L -418.116567 -391.674931 
L -418.116716 -391.822727 
L -418.116864 -391.970892 
L -418.117013 -392.11922 
L -418.117161 -392.267518 
L -418.11731 -392.415608 
L -418.117459 -392.563329 
L -418.117607 -392.710536 
L -418.117756 -392.8571 
L -418.117905 -393.002909 
L -418.118053 -393.147865 
L -418.118202 -393.291889 
L -418.118351 -393.434916 
L -418.118499 -393.576896 
L -418.118648 -393.717798 
L -418.118796 -393.857602 
L -418.118945 -393.996306 
L -418.119094 -394.13392 
L -418.119242 -394.270468 
L -418.119391 -394.40599 
L -418.11954 -394.540534 
L -418.119688 -394.674165 
L -418.119837 -394.806955 
L -418.119986 -394.93899 
L -418.120134 -395.070363 
L -418.120283 -395.201178 
L -418.120432 -395.331546 
L -418.12058 -395.461586 
L -418.120729 -395.591423 
L -418.120877 -395.721187 
L -418.121026 -395.851014 
L -418.121175 -395.981041 
L -418.121323 -396.111409 
L -418.121472 -396.242263 
L -418.121621 -396.373743 
L -418.121769 -396.505995 
L -418.121918 -396.639158 
L -418.122067 -396.773372 
L -418.122215 -396.908773 
L -418.122364 -397.045493 
L -418.122512 -397.183658 
L -418.122661 -397.323391 
L -418.12281 -397.464803 
L -418.122958 -397.608004 
L -418.123107 -397.753089 
L -418.123256 -397.900151 
L -418.123404 -398.049267 
L -418.123553 -398.200508 
L -418.123702 -398.353934 
L -418.12385 -398.509591 
L -418.123999 -398.667517 
z
" id="m84ca8f161d" style="stroke:#424242;"/>
    </defs>
    <g clip-path="url(#p30761b42f2)">
     <use style="fill:#be631d;stroke:#424242;" x="0" xlink:href="#m84ca8f161d" y="487.17"/>
    </g>
   </g>
   <g id="patch_3">
    <path clip-path="url(#p30761b42f2)" d="M -418.134667 55.72375 
L -418.134667 55.72375 
L -418.134667 55.72375 
L -418.134667 55.72375 
z
" style="fill:#7c78ab;stroke:#424242;stroke-linejoin:miter;stroke-width:0.5;"/>
   </g>
   <g id="patch_4">
    <path clip-path="url(#p30761b42f2)" d="M -418.134667 55.72375 
L -418.134667 55.72375 
L -418.134667 55.72375 
L -418.134667 55.72375 
z
" style="fill:#be631d;stroke:#424242;stroke-linejoin:miter;stroke-width:0.5;"/>
   </g>
   <g id="matplotlib.axis_1">
    <g id="xtick_1">
     <g id="line2d_1">
      <defs>
       <path d="M 0 0 
L 0 3.5 
" id="m47a58a1f5e" style="stroke:#000000;stroke-width:1.6;"/>
      </defs>
      <g/>
     </g>
     <g id="text_1">
      <!-- 0.0 -->
      <defs>
       <path d="M 31.78125 66.40625 
Q 24.171875 66.40625 20.328125 58.90625 
Q 16.5 51.421875 16.5 36.375 
Q 16.5 21.390625 20.328125 13.890625 
Q 24.171875 6.390625 31.78125 6.390625 
Q 39.453125 6.390625 43.28125 13.890625 
Q 47.125 21.390625 47.125 36.375 
Q 47.125 51.421875 43.28125 58.90625 
Q 39.453125 66.40625 31.78125 66.40625 
z
M 31.78125 74.21875 
Q 44.046875 74.21875 50.515625 64.515625 
Q 56.984375 54.828125 56.984375 36.375 
Q 56.984375 17.96875 50.515625 8.265625 
Q 44.046875 -1.421875 31.78125 -1.421875 
Q 19.53125 -1.421875 13.0625 8.265625 
Q 6.59375 17.96875 6.59375 36.375 
Q 6.59375 54.828125 13.0625 64.515625 
Q 19.53125 74.21875 31.78125 74.21875 
z
" id="DejaVuSans-48"/>
       <path d="M 10.6875 12.40625 
L 21 12.40625 
L 21 0 
L 10.6875 0 
z
" id="DejaVuSans-46"/>
      </defs>
      <g transform="translate(-434.037792 458.046875)scale(0.2 -0.2)">
       <use xlink:href="#DejaVuSans-48"/>
       <use x="63.623047" xlink:href="#DejaVuSans-46"/>
       <use x="95.410156" xlink:href="#DejaVuSans-48"/>
      </g>
     </g>
    </g>
    <g id="xtick_2">
     <g id="line2d_2">
      <g/>
     </g>
     <g id="text_2">
      <!-- 0.2 -->
      <defs>
       <path d="M 19.1875 8.296875 
L 53.609375 8.296875 
L 53.609375 0 
L 7.328125 0 
L 7.328125 8.296875 
Q 12.9375 14.109375 22.625 23.890625 
Q 32.328125 33.6875 34.8125 36.53125 
Q 39.546875 41.84375 41.421875 45.53125 
Q 43.3125 49.21875 43.3125 52.78125 
Q 43.3125 58.59375 39.234375 62.25 
Q 35.15625 65.921875 28.609375 65.921875 
Q 23.96875 65.921875 18.8125 64.3125 
Q 13.671875 62.703125 7.8125 59.421875 
L 7.8125 69.390625 
Q 13.765625 71.78125 18.9375 73 
Q 24.125 74.21875 28.421875 74.21875 
Q 39.75 74.21875 46.484375 68.546875 
Q 53.21875 62.890625 53.21875 53.421875 
Q 53.21875 48.921875 51.53125 44.890625 
Q 49.859375 40.875 45.40625 35.40625 
Q 44.1875 33.984375 37.640625 27.21875 
Q 31.109375 20.453125 19.1875 8.296875 
z
" id="DejaVuSans-50"/>
      </defs>
      <g transform="translate(-320.536458 458.046875)scale(0.2 -0.2)">
       <use xlink:href="#DejaVuSans-48"/>
       <use x="63.623047" xlink:href="#DejaVuSans-46"/>
       <use x="95.410156" xlink:href="#DejaVuSans-50"/>
      </g>
     </g>
    </g>
    <g id="xtick_3">
     <g id="line2d_3">
      <g/>
     </g>
     <g id="text_3">
      <!-- 0.4 -->
      <defs>
       <path d="M 37.796875 64.3125 
L 12.890625 25.390625 
L 37.796875 25.390625 
z
M 35.203125 72.90625 
L 47.609375 72.90625 
L 47.609375 25.390625 
L 58.015625 25.390625 
L 58.015625 17.1875 
L 47.609375 17.1875 
L 47.609375 0 
L 37.796875 0 
L 37.796875 17.1875 
L 4.890625 17.1875 
L 4.890625 26.703125 
z
" id="DejaVuSans-52"/>
      </defs>
      <g transform="translate(-207.035125 458.046875)scale(0.2 -0.2)">
       <use xlink:href="#DejaVuSans-48"/>
       <use x="63.623047" xlink:href="#DejaVuSans-46"/>
       <use x="95.410156" xlink:href="#DejaVuSans-52"/>
      </g>
     </g>
    </g>
    <g id="xtick_4">
     <g id="line2d_4">
      <g/>
     </g>
     <g id="text_4">
      <!-- 0.6 -->
      <defs>
       <path d="M 33.015625 40.375 
Q 26.375 40.375 22.484375 35.828125 
Q 18.609375 31.296875 18.609375 23.390625 
Q 18.609375 15.53125 22.484375 10.953125 
Q 26.375 6.390625 33.015625 6.390625 
Q 39.65625 6.390625 43.53125 10.953125 
Q 47.40625 15.53125 47.40625 23.390625 
Q 47.40625 31.296875 43.53125 35.828125 
Q 39.65625 40.375 33.015625 40.375 
z
M 52.59375 71.296875 
L 52.59375 62.3125 
Q 48.875 64.0625 45.09375 64.984375 
Q 41.3125 65.921875 37.59375 65.921875 
Q 27.828125 65.921875 22.671875 59.328125 
Q 17.53125 52.734375 16.796875 39.40625 
Q 19.671875 43.65625 24.015625 45.921875 
Q 28.375 48.1875 33.59375 48.1875 
Q 44.578125 48.1875 50.953125 41.515625 
Q 57.328125 34.859375 57.328125 23.390625 
Q 57.328125 12.15625 50.6875 5.359375 
Q 44.046875 -1.421875 33.015625 -1.421875 
Q 20.359375 -1.421875 13.671875 8.265625 
Q 6.984375 17.96875 6.984375 36.375 
Q 6.984375 53.65625 15.1875 63.9375 
Q 23.390625 74.21875 37.203125 74.21875 
Q 40.921875 74.21875 44.703125 73.484375 
Q 48.484375 72.75 52.59375 71.296875 
z
" id="DejaVuSans-54"/>
      </defs>
      <g transform="translate(-93.533792 458.046875)scale(0.2 -0.2)">
       <use xlink:href="#DejaVuSans-48"/>
       <use x="63.623047" xlink:href="#DejaVuSans-46"/>
       <use x="95.410156" xlink:href="#DejaVuSans-54"/>
      </g>
     </g>
    </g>
    <g id="text_5">
     <!--   -->
     <defs>
      <path id="DejaVuSans-32"/>
     </defs>
     <g transform="translate(-236.873125 481.403125)scale(0.2 -0.2)">
      <use xlink:href="#DejaVuSans-32"/>
     </g>
    </g>
   </g>
   <g id="matplotlib.axis_2">
    <g id="ytick_1">
     <g id="line2d_5">
      <defs>
       <path d="M 0 0 
L -3.5 0 
" id="ma1fd04723d" style="stroke:#000000;stroke-width:1.6;"/>
      </defs>
      <g/>
     </g>
     <g id="text_6">
      <!-- [0.00, -->
      <defs>
       <path d="M 8.59375 75.984375 
L 29.296875 75.984375 
L 29.296875 69 
L 17.578125 69 
L 17.578125 -6.203125 
L 29.296875 -6.203125 
L 29.296875 -13.1875 
L 8.59375 -13.1875 
z
" id="DejaVuSans-91"/>
       <path d="M 11.71875 12.40625 
L 22.015625 12.40625 
L 22.015625 4 
L 14.015625 -11.625 
L 7.71875 -11.625 
L 11.71875 4 
z
" id="DejaVuSans-44"/>
      </defs>
      <g transform="translate(-519.900625 52.124375)scale(0.2 -0.2)">
       <use xlink:href="#DejaVuSans-91"/>
       <use x="39.013672" xlink:href="#DejaVuSans-48"/>
       <use x="102.636719" xlink:href="#DejaVuSans-46"/>
       <use x="134.423828" xlink:href="#DejaVuSans-48"/>
       <use x="198.046875" xlink:href="#DejaVuSans-48"/>
       <use x="261.669922" xlink:href="#DejaVuSans-44"/>
      </g>
      <!-- 0.25) -->
      <defs>
       <path d="M 10.796875 72.90625 
L 49.515625 72.90625 
L 49.515625 64.59375 
L 19.828125 64.59375 
L 19.828125 46.734375 
Q 21.96875 47.46875 24.109375 47.828125 
Q 26.265625 48.1875 28.421875 48.1875 
Q 40.625 48.1875 47.75 41.5 
Q 54.890625 34.8125 54.890625 23.390625 
Q 54.890625 11.625 47.5625 5.09375 
Q 40.234375 -1.421875 26.90625 -1.421875 
Q 22.3125 -1.421875 17.546875 -0.640625 
Q 12.796875 0.140625 7.71875 1.703125 
L 7.71875 11.625 
Q 12.109375 9.234375 16.796875 8.0625 
Q 21.484375 6.890625 26.703125 6.890625 
Q 35.15625 6.890625 40.078125 11.328125 
Q 45.015625 15.765625 45.015625 23.390625 
Q 45.015625 31 40.078125 35.4375 
Q 35.15625 39.890625 26.703125 39.890625 
Q 22.75 39.890625 18.8125 39.015625 
Q 14.890625 38.140625 10.796875 36.28125 
z
" id="DejaVuSans-53"/>
       <path d="M 8.015625 75.875 
L 15.828125 75.875 
Q 23.140625 64.359375 26.78125 53.3125 
Q 30.421875 42.28125 30.421875 31.390625 
Q 30.421875 20.453125 26.78125 9.375 
Q 23.140625 -1.703125 15.828125 -13.1875 
L 8.015625 -13.1875 
Q 14.5 -2 17.703125 9.0625 
Q 20.90625 20.125 20.90625 31.390625 
Q 20.90625 42.671875 17.703125 53.65625 
Q 14.5 64.65625 8.015625 75.875 
z
" id="DejaVuSans-41"/>
      </defs>
      <g transform="translate(-513.544375 74.52)scale(0.2 -0.2)">
       <use xlink:href="#DejaVuSans-48"/>
       <use x="63.623047" xlink:href="#DejaVuSans-46"/>
       <use x="95.410156" xlink:href="#DejaVuSans-50"/>
       <use x="159.033203" xlink:href="#DejaVuSans-53"/>
       <use x="222.65625" xlink:href="#DejaVuSans-41"/>
      </g>
     </g>
    </g>
    <g id="ytick_2">
     <g id="line2d_6">
      <g/>
     </g>
     <g id="text_7">
      <!-- [0.25, -->
      <g transform="translate(-519.900625 158.531875)scale(0.2 -0.2)">
       <use xlink:href="#DejaVuSans-91"/>
       <use x="39.013672" xlink:href="#DejaVuSans-48"/>
       <use x="102.636719" xlink:href="#DejaVuSans-46"/>
       <use x="134.423828" xlink:href="#DejaVuSans-50"/>
       <use x="198.046875" xlink:href="#DejaVuSans-53"/>
       <use x="261.669922" xlink:href="#DejaVuSans-44"/>
      </g>
      <!-- 0.50) -->
      <g transform="translate(-513.544375 180.9275)scale(0.2 -0.2)">
       <use xlink:href="#DejaVuSans-48"/>
       <use x="63.623047" xlink:href="#DejaVuSans-46"/>
       <use x="95.410156" xlink:href="#DejaVuSans-53"/>
       <use x="159.033203" xlink:href="#DejaVuSans-48"/>
       <use x="222.65625" xlink:href="#DejaVuSans-41"/>
      </g>
     </g>
    </g>
    <g id="ytick_3">
     <g id="line2d_7">
      <g/>
     </g>
     <g id="text_8">
      <!-- [0.50, -->
      <g transform="translate(-519.900625 264.939375)scale(0.2 -0.2)">
       <use xlink:href="#DejaVuSans-91"/>
       <use x="39.013672" xlink:href="#DejaVuSans-48"/>
       <use x="102.636719" xlink:href="#DejaVuSans-46"/>
       <use x="134.423828" xlink:href="#DejaVuSans-53"/>
       <use x="198.046875" xlink:href="#DejaVuSans-48"/>
       <use x="261.669922" xlink:href="#DejaVuSans-44"/>
      </g>
      <!-- 0.75) -->
      <defs>
       <path d="M 8.203125 72.90625 
L 55.078125 72.90625 
L 55.078125 68.703125 
L 28.609375 0 
L 18.3125 0 
L 43.21875 64.59375 
L 8.203125 64.59375 
z
" id="DejaVuSans-55"/>
      </defs>
      <g transform="translate(-513.544375 287.335)scale(0.2 -0.2)">
       <use xlink:href="#DejaVuSans-48"/>
       <use x="63.623047" xlink:href="#DejaVuSans-46"/>
       <use x="95.410156" xlink:href="#DejaVuSans-55"/>
       <use x="159.033203" xlink:href="#DejaVuSans-53"/>
       <use x="222.65625" xlink:href="#DejaVuSans-41"/>
      </g>
     </g>
    </g>
    <g id="ytick_4">
     <g id="line2d_8">
      <g/>
     </g>
     <g id="text_9">
      <!-- [0.75, -->
      <g transform="translate(-519.900625 371.346875)scale(0.2 -0.2)">
       <use xlink:href="#DejaVuSans-91"/>
       <use x="39.013672" xlink:href="#DejaVuSans-48"/>
       <use x="102.636719" xlink:href="#DejaVuSans-46"/>
       <use x="134.423828" xlink:href="#DejaVuSans-55"/>
       <use x="198.046875" xlink:href="#DejaVuSans-53"/>
       <use x="261.669922" xlink:href="#DejaVuSans-44"/>
      </g>
      <!-- 1.00) -->
      <defs>
       <path d="M 12.40625 8.296875 
L 28.515625 8.296875 
L 28.515625 63.921875 
L 10.984375 60.40625 
L 10.984375 69.390625 
L 28.421875 72.90625 
L 38.28125 72.90625 
L 38.28125 8.296875 
L 54.390625 8.296875 
L 54.390625 0 
L 12.40625 0 
z
" id="DejaVuSans-49"/>
      </defs>
      <g transform="translate(-513.544375 393.7425)scale(0.2 -0.2)">
       <use xlink:href="#DejaVuSans-49"/>
       <use x="63.623047" xlink:href="#DejaVuSans-46"/>
       <use x="95.410156" xlink:href="#DejaVuSans-48"/>
       <use x="159.033203" xlink:href="#DejaVuSans-48"/>
       <use x="222.65625" xlink:href="#DejaVuSans-41"/>
      </g>
     </g>
    </g>
    <g id="text_10">
     <!--   -->
     <g transform="translate(-528.06 218.513125)rotate(-90)scale(0.2 -0.2)">
      <use xlink:href="#DejaVuSans-32"/>
     </g>
    </g>
   </g>
   <g id="line2d_9">
    <path clip-path="url(#p30761b42f2)" style="fill:none;stroke:#424242;stroke-dasharray:1.5,1.5;stroke-dashoffset:0;"/>
   </g>
   <g id="line2d_10">
    <path clip-path="url(#p30761b42f2)" style="fill:none;stroke:#424242;stroke-dasharray:3,3;stroke-dashoffset:0;"/>
   </g>
   <g id="line2d_11">
    <path clip-path="url(#p30761b42f2)" style="fill:none;stroke:#424242;stroke-dasharray:1.5,1.5;stroke-dashoffset:0;"/>
   </g>
   <g id="line2d_12">
    <path clip-path="url(#p30761b42f2)" style="fill:none;stroke:#424242;stroke-dasharray:1.5,1.5;stroke-dashoffset:0;"/>
   </g>
   <g id="line2d_13">
    <path clip-path="url(#p30761b42f2)" style="fill:none;stroke:#424242;stroke-dasharray:3,3;stroke-dashoffset:0;"/>
   </g>
   <g id="line2d_14">
    <path clip-path="url(#p30761b42f2)" style="fill:none;stroke:#424242;stroke-dasharray:1.5,1.5;stroke-dashoffset:0;"/>
   </g>
   <g id="patch_5">
    <path style="fill:none;stroke:#000000;stroke-linecap:square;stroke-linejoin:miter;stroke-width:0.8;"/>
   </g>
   <g id="patch_6">
    <path style="fill:none;stroke:#000000;stroke-linecap:square;stroke-linejoin:miter;stroke-width:0.8;"/>
   </g>
  </g>
  <g id="axes_2">
   <g id="patch_7">
    <path d="M 70.81 428.15 
L 496.44 428.15 
L 496.44 2.52 
L 70.81 2.52 
z
" style="fill:#ffffff;"/>
   </g>
   <g id="PathCollection_1">
    <path clip-path="url(#p5dbd4c5741)" d="M 99.188123 409.91356 
C 99.607446 409.91356 100.009651 409.746962 100.306157 409.450455 
C 100.602663 409.153949 100.769262 408.751744 100.769262 408.332421 
C 100.769262 407.913099 100.602663 407.510894 100.306157 407.214387 
C 100.009651 406.917881 99.607446 406.751283 99.188123 406.751283 
C 98.7688 406.751283 98.366595 406.917881 98.070089 407.214387 
C 97.773583 407.510894 97.606985 407.913099 97.606985 408.332421 
C 97.606985 408.751744 97.773583 409.153949 98.070089 409.450455 
C 98.366595 409.746962 98.7688 409.91356 99.188123 409.91356 
z
" style="fill:#7570b3;fill-opacity:0.7;"/>
    <path clip-path="url(#p5dbd4c5741)" d="M 99.197656 410.021095 
C 99.616978 410.021095 100.019183 409.854497 100.31569 409.557991 
C 100.612196 409.261484 100.778794 408.859279 100.778794 408.439957 
C 100.778794 408.020634 100.612196 407.618429 100.31569 407.321923 
C 100.019183 407.025416 99.616978 406.858818 99.197656 406.858818 
C 98.778333 406.858818 98.376128 407.025416 98.079622 407.321923 
C 97.783115 407.618429 97.616517 408.020634 97.616517 408.439957 
C 97.616517 408.859279 97.783115 409.261484 98.079622 409.557991 
C 98.376128 409.854497 98.778333 410.021095 99.197656 410.021095 
z
" style="fill:#7570b3;fill-opacity:0.7;"/>
    <path clip-path="url(#p5dbd4c5741)" d="M 99.186793 410.142194 
C 99.606116 410.142194 100.008321 409.975596 100.304827 409.67909 
C 100.601333 409.382584 100.767932 408.980379 100.767932 408.561056 
C 100.767932 408.141733 100.601333 407.739528 100.304827 407.443022 
C 100.008321 407.146516 99.606116 406.979917 99.186793 406.979917 
C 98.76747 406.979917 98.365265 407.146516 98.068759 407.443022 
C 97.772253 407.739528 97.605654 408.141733 97.605654 408.561056 
C 97.605654 408.980379 97.772253 409.382584 98.068759 409.67909 
C 98.365265 409.975596 98.76747 410.142194 99.186793 410.142194 
z
" style="fill:#7570b3;fill-opacity:0.7;"/>
    <path clip-path="url(#p5dbd4c5741)" d="M 99.204486 409.69973 
C 99.623809 409.69973 100.026014 409.533131 100.32252 409.236625 
C 100.619026 408.940119 100.785625 408.537914 100.785625 408.118591 
C 100.785625 407.699268 100.619026 407.297063 100.32252 407.000557 
C 100.026014 406.704051 99.623809 406.537452 99.204486 406.537452 
C 98.785163 406.537452 98.382958 406.704051 98.086452 407.000557 
C 97.789946 407.297063 97.623347 407.699268 97.623347 408.118591 
C 97.623347 408.537914 97.789946 408.940119 98.086452 409.236625 
C 98.382958 409.533131 98.785163 409.69973 99.204486 409.69973 
z
" style="fill:#7570b3;fill-opacity:0.7;"/>
    <path clip-path="url(#p5dbd4c5741)" d="M 98.420047 409.425102 
L 99.210617 408.634532 
L 100.001186 409.425102 
L 100.791756 408.634532 
L 100.001186 407.843963 
L 100.791756 407.053394 
L 100.001186 406.262824 
L 99.210617 407.053394 
L 98.420047 406.262824 
L 97.629478 407.053394 
L 98.420047 407.843963 
L 97.629478 408.634532 
z
" style="fill:#d95f02;fill-opacity:0.7;"/>
    <path clip-path="url(#p5dbd4c5741)" d="M 99.191513 409.70602 
C 99.610836 409.70602 100.013041 409.539422 100.309547 409.242915 
C 100.606053 408.946409 100.772652 408.544204 100.772652 408.124881 
C 100.772652 407.705559 100.606053 407.303354 100.309547 407.006847 
C 100.013041 406.710341 99.610836 406.543743 99.191513 406.543743 
C 98.77219 406.543743 98.369985 406.710341 98.073479 407.006847 
C 97.776973 407.303354 97.610374 407.705559 97.610374 408.124881 
C 97.610374 408.544204 97.776973 408.946409 98.073479 409.242915 
C 98.369985 409.539422 98.77219 409.70602 99.191513 409.70602 
z
" style="fill:#7570b3;fill-opacity:0.7;"/>
    <path clip-path="url(#p5dbd4c5741)" d="M 99.193817 408.979648 
C 99.61314 408.979648 100.015345 408.813049 100.311851 408.516543 
C 100.608357 408.220037 100.774956 407.817832 100.774956 407.398509 
C 100.774956 406.979186 100.608357 406.576981 100.311851 406.280475 
C 100.015345 405.983969 99.61314 405.81737 99.193817 405.81737 
C 98.774494 405.81737 98.372289 405.983969 98.075783 406.280475 
C 97.779277 406.576981 97.612678 406.979186 97.612678 407.398509 
C 97.612678 407.817832 97.779277 408.220037 98.075783 408.516543 
C 98.372289 408.813049 98.774494 408.979648 99.193817 408.979648 
z
" style="fill:#7570b3;fill-opacity:0.7;"/>
    <path clip-path="url(#p5dbd4c5741)" d="M 99.20398 409.904246 
C 99.623303 409.904246 100.025508 409.737647 100.322014 409.441141 
C 100.61852 409.144635 100.785119 408.74243 100.785119 408.323107 
C 100.785119 407.903784 100.61852 407.501579 100.322014 407.205073 
C 100.025508 406.908567 99.623303 406.741968 99.20398 406.741968 
C 98.784657 406.741968 98.382452 406.908567 98.085946 407.205073 
C 97.78944 407.501579 97.622841 407.903784 97.622841 408.323107 
C 97.622841 408.74243 97.78944 409.144635 98.085946 409.441141 
C 98.382452 409.737647 98.784657 409.904246 99.20398 409.904246 
z
" style="fill:#7570b3;fill-opacity:0.7;"/>
    <path clip-path="url(#p5dbd4c5741)" d="M 98.405531 407.092731 
L 99.196101 406.302162 
L 99.98667 407.092731 
L 100.77724 406.302162 
L 99.98667 405.511593 
L 100.77724 404.721023 
L 99.98667 403.930454 
L 99.196101 404.721023 
L 98.405531 403.930454 
L 97.614962 404.721023 
L 98.405531 405.511593 
L 97.614962 406.302162 
z
" style="fill:#d95f02;fill-opacity:0.7;"/>
    <path clip-path="url(#p5dbd4c5741)" d="M 99.188738 409.92984 
C 99.608061 409.92984 100.010266 409.763241 100.306772 409.466735 
C 100.603278 409.170229 100.769877 408.768024 100.769877 408.348701 
C 100.769877 407.929378 100.603278 407.527173 100.306772 407.230667 
C 100.010266 406.934161 99.608061 406.767562 99.188738 406.767562 
C 98.769415 406.767562 98.36721 406.934161 98.070704 407.230667 
C 97.774198 407.527173 97.607599 407.929378 97.607599 408.348701 
C 97.607599 408.768024 97.774198 409.170229 98.070704 409.466735 
C 98.36721 409.763241 98.769415 409.92984 99.188738 409.92984 
z
" style="fill:#7570b3;fill-opacity:0.7;"/>
    <path clip-path="url(#p5dbd4c5741)" d="M 98.412791 407.62864 
L 99.20336 406.83807 
L 99.99393 407.62864 
L 100.784499 406.83807 
L 99.99393 406.047501 
L 100.784499 405.256931 
L 99.99393 404.466362 
L 99.20336 405.256931 
L 98.412791 404.466362 
L 97.622222 405.256931 
L 98.412791 406.047501 
L 97.622222 406.83807 
z
" style="fill:#d95f02;fill-opacity:0.7;"/>
    <path clip-path="url(#p5dbd4c5741)" d="M 98.418479 407.725413 
L 99.209048 406.934843 
L 99.999617 407.725413 
L 100.790187 406.934843 
L 99.999617 406.144274 
L 100.790187 405.353705 
L 99.999617 404.563135 
L 99.209048 405.353705 
L 98.418479 404.563135 
L 97.627909 405.353705 
L 98.418479 406.144274 
L 97.627909 406.934843 
z
" style="fill:#d95f02;fill-opacity:0.7;"/>
    <path clip-path="url(#p5dbd4c5741)" d="M 99.194847 409.82116 
C 99.61417 409.82116 100.016375 409.654562 100.312881 409.358056 
C 100.609387 409.06155 100.775986 408.659345 100.775986 408.240022 
C 100.775986 407.820699 100.609387 407.418494 100.312881 407.121988 
C 100.016375 406.825482 99.61417 406.658883 99.194847 406.658883 
C 98.775524 406.658883 98.373319 406.825482 98.076813 407.121988 
C 97.780307 407.418494 97.613708 407.820699 97.613708 408.240022 
C 97.613708 408.659345 97.780307 409.06155 98.076813 409.358056 
C 98.373319 409.654562 98.775524 409.82116 99.194847 409.82116 
z
" style="fill:#7570b3;fill-opacity:0.7;"/>
    <path clip-path="url(#p5dbd4c5741)" d="M 99.225716 408.367201 
C 99.645039 408.367201 100.047244 408.200602 100.34375 407.904096 
C 100.640256 407.60759 100.806855 407.205385 100.806855 406.786062 
C 100.806855 406.36674 100.640256 405.964535 100.34375 405.668028 
C 100.047244 405.371522 99.645039 405.204924 99.225716 405.204924 
C 98.806393 405.204924 98.404188 405.371522 98.107682 405.668028 
C 97.811176 405.964535 97.644577 406.36674 97.644577 406.786062 
C 97.644577 407.205385 97.811176 407.60759 98.107682 407.904096 
C 98.404188 408.200602 98.806393 408.367201 99.225716 408.367201 
z
" style="fill:#7570b3;fill-opacity:0.7;"/>
    <path clip-path="url(#p5dbd4c5741)" d="M 99.195565 409.261163 
C 99.614888 409.261163 100.017093 409.094564 100.313599 408.798058 
C 100.610105 408.501552 100.776704 408.099347 100.776704 407.680024 
C 100.776704 407.260701 100.610105 406.858496 100.313599 406.56199 
C 100.017093 406.265484 99.614888 406.098885 99.195565 406.098885 
C 98.776242 406.098885 98.374037 406.265484 98.077531 406.56199 
C 97.781025 406.858496 97.614427 407.260701 97.614427 407.680024 
C 97.614427 408.099347 97.781025 408.501552 98.077531 408.798058 
C 98.374037 409.094564 98.776242 409.261163 99.195565 409.261163 
z
" style="fill:#7570b3;fill-opacity:0.7;"/>
    <path clip-path="url(#p5dbd4c5741)" d="M 99.194027 409.908285 
C 99.61335 409.908285 100.015555 409.741686 100.312061 409.44518 
C 100.608567 409.148674 100.775166 408.746469 100.775166 408.327146 
C 100.775166 407.907823 100.608567 407.505618 100.312061 407.209112 
C 100.015555 406.912606 99.61335 406.746007 99.194027 406.746007 
C 98.774704 406.746007 98.372499 406.912606 98.075993 407.209112 
C 97.779487 407.505618 97.612888 407.907823 97.612888 408.327146 
C 97.612888 408.746469 97.779487 409.148674 98.075993 409.44518 
C 98.372499 409.741686 98.774704 409.908285 99.194027 409.908285 
z
" style="fill:#7570b3;fill-opacity:0.7;"/>
    <path clip-path="url(#p5dbd4c5741)" d="M 99.199198 409.765815 
C 99.618521 409.765815 100.020726 409.599216 100.317232 409.30271 
C 100.613738 409.006204 100.780337 408.603999 100.780337 408.184676 
C 100.780337 407.765353 100.613738 407.363148 100.317232 407.066642 
C 100.020726 406.770136 99.618521 406.603537 99.199198 406.603537 
C 98.779875 406.603537 98.37767 406.770136 98.081164 407.066642 
C 97.784658 407.363148 97.618059 407.765353 97.618059 408.184676 
C 97.618059 408.603999 97.784658 409.006204 98.081164 409.30271 
C 98.37767 409.599216 98.779875 409.765815 99.199198 409.765815 
z
" style="fill:#7570b3;fill-opacity:0.7;"/>
    <path clip-path="url(#p5dbd4c5741)" d="M 99.191715 409.75524 
C 99.611038 409.75524 100.013243 409.588641 100.309749 409.292135 
C 100.606255 408.995629 100.772854 408.593424 100.772854 408.174101 
C 100.772854 407.754778 100.606255 407.352573 100.309749 407.056067 
C 100.013243 406.759561 99.611038 406.592962 99.191715 406.592962 
C 98.772392 406.592962 98.370187 406.759561 98.073681 407.056067 
C 97.777175 407.352573 97.610576 407.754778 97.610576 408.174101 
C 97.610576 408.593424 97.777175 408.995629 98.073681 409.292135 
C 98.370187 409.588641 98.772392 409.75524 99.191715 409.75524 
z
" style="fill:#7570b3;fill-opacity:0.7;"/>
    <path clip-path="url(#p5dbd4c5741)" d="M 99.196122 409.933813 
C 99.615445 409.933813 100.01765 409.767214 100.314156 409.470708 
C 100.610662 409.174202 100.777261 408.771997 100.777261 408.352674 
C 100.777261 407.933351 100.610662 407.531146 100.314156 407.23464 
C 100.01765 406.938134 99.615445 406.771535 99.196122 406.771535 
C 98.776799 406.771535 98.374594 406.938134 98.078088 407.23464 
C 97.781582 407.531146 97.614983 407.933351 97.614983 408.352674 
C 97.614983 408.771997 97.781582 409.174202 98.078088 409.470708 
C 98.374594 409.767214 98.776799 409.933813 99.196122 409.933813 
z
" style="fill:#7570b3;fill-opacity:0.7;"/>
    <path clip-path="url(#p5dbd4c5741)" d="M 99.185683 409.99681 
C 99.605006 409.99681 100.007211 409.830211 100.303717 409.533705 
C 100.600223 409.237199 100.766822 408.834994 100.766822 408.415671 
C 100.766822 407.996348 100.600223 407.594143 100.303717 407.297637 
C 100.007211 407.001131 99.605006 406.834532 99.185683 406.834532 
C 98.76636 406.834532 98.364155 407.001131 98.067649 407.297637 
C 97.771143 407.594143 97.604544 407.996348 97.604544 408.415671 
C 97.604544 408.834994 97.771143 409.237199 98.067649 409.533705 
C 98.364155 409.830211 98.76636 409.99681 99.185683 409.99681 
z
" style="fill:#7570b3;fill-opacity:0.7;"/>
    <path clip-path="url(#p5dbd4c5741)" d="M 99.190172 410.01349 
C 99.609495 410.01349 100.0117 409.846892 100.308206 409.550385 
C 100.604712 409.253879 100.771311 408.851674 100.771311 408.432351 
C 100.771311 408.013029 100.604712 407.610824 100.308206 407.314317 
C 100.0117 407.017811 99.609495 406.851213 99.190172 406.851213 
C 98.770849 406.851213 98.368644 407.017811 98.072138 407.314317 
C 97.775632 407.610824 97.609033 408.013029 97.609033 408.432351 
C 97.609033 408.851674 97.775632 409.253879 98.072138 409.550385 
C 98.368644 409.846892 98.770849 410.01349 99.190172 410.01349 
z
" style="fill:#7570b3;fill-opacity:0.7;"/>
    <path clip-path="url(#p5dbd4c5741)" d="M 99.192408 409.156179 
C 99.611731 409.156179 100.013936 408.98958 100.310442 408.693074 
C 100.606948 408.396568 100.773547 407.994363 100.773547 407.57504 
C 100.773547 407.155717 100.606948 406.753512 100.310442 406.457006 
C 100.013936 406.1605 99.611731 405.993901 99.192408 405.993901 
C 98.773085 405.993901 98.37088 406.1605 98.074374 406.457006 
C 97.777868 406.753512 97.611269 407.155717 97.611269 407.57504 
C 97.611269 407.994363 97.777868 408.396568 98.074374 408.693074 
C 98.37088 408.98958 98.773085 409.156179 99.192408 409.156179 
z
" style="fill:#7570b3;fill-opacity:0.7;"/>
    <path clip-path="url(#p5dbd4c5741)" d="M 99.188835 409.37931 
C 99.608158 409.37931 100.010363 409.212711 100.306869 408.916205 
C 100.603375 408.619699 100.769974 408.217494 100.769974 407.798171 
C 100.769974 407.378848 100.603375 406.976643 100.306869 406.680137 
C 100.010363 406.383631 99.608158 406.217032 99.188835 406.217032 
C 98.769512 406.217032 98.367307 406.383631 98.070801 406.680137 
C 97.774295 406.976643 97.607696 407.378848 97.607696 407.798171 
C 97.607696 408.217494 97.774295 408.619699 98.070801 408.916205 
C 98.367307 409.212711 98.769512 409.37931 99.188835 409.37931 
z
" style="fill:#7570b3;fill-opacity:0.7;"/>
    <path clip-path="url(#p5dbd4c5741)" d="M 99.194475 410.06141 
C 99.613798 410.06141 100.016003 409.894811 100.312509 409.598305 
C 100.609015 409.301799 100.775614 408.899594 100.775614 408.480271 
C 100.775614 408.060948 100.609015 407.658743 100.312509 407.362237 
C 100.016003 407.065731 99.613798 406.899132 99.194475 406.899132 
C 98.775152 406.899132 98.372947 407.065731 98.076441 407.362237 
C 97.779935 407.658743 97.613336 408.060948 97.613336 408.480271 
C 97.613336 408.899594 97.779935 409.301799 98.076441 409.598305 
C 98.372947 409.894811 98.775152 410.06141 99.194475 410.06141 
z
" style="fill:#7570b3;fill-opacity:0.7;"/>
    <path clip-path="url(#p5dbd4c5741)" d="M 99.187635 409.955726 
C 99.606957 409.955726 100.009162 409.789127 100.305669 409.492621 
C 100.602175 409.196115 100.768773 408.79391 100.768773 408.374587 
C 100.768773 407.955264 100.602175 407.553059 100.305669 407.256553 
C 100.009162 406.960047 99.606957 406.793448 99.187635 406.793448 
C 98.768312 406.793448 98.366107 406.960047 98.069601 407.256553 
C 97.773095 407.553059 97.606496 407.955264 97.606496 408.374587 
C 97.606496 408.79391 97.773095 409.196115 98.069601 409.492621 
C 98.366107 409.789127 98.768312 409.955726 99.187635 409.955726 
z
" style="fill:#7570b3;fill-opacity:0.7;"/>
    <path clip-path="url(#p5dbd4c5741)" d="M 99.193653 409.673325 
C 99.612975 409.673325 100.01518 409.506727 100.311686 409.21022 
C 100.608193 408.913714 100.774791 408.511509 100.774791 408.092186 
C 100.774791 407.672864 100.608193 407.270659 100.311686 406.974152 
C 100.01518 406.677646 99.612975 406.511048 99.193653 406.511048 
C 98.77433 406.511048 98.372125 406.677646 98.075619 406.974152 
C 97.779112 407.270659 97.612514 407.672864 97.612514 408.092186 
C 97.612514 408.511509 97.779112 408.913714 98.075619 409.21022 
C 98.372125 409.506727 98.77433 409.673325 99.193653 409.673325 
z
" style="fill:#7570b3;fill-opacity:0.7;"/>
    <path clip-path="url(#p5dbd4c5741)" d="M 99.19195 409.689052 
C 99.611273 409.689052 100.013478 409.522453 100.309984 409.225947 
C 100.60649 408.929441 100.773089 408.527236 100.773089 408.107913 
C 100.773089 407.68859 100.60649 407.286385 100.309984 406.989879 
C 100.013478 406.693373 99.611273 406.526774 99.19195 406.526774 
C 98.772627 406.526774 98.370422 406.693373 98.073916 406.989879 
C 97.77741 407.286385 97.610811 407.68859 97.610811 408.107913 
C 97.610811 408.527236 97.77741 408.929441 98.073916 409.225947 
C 98.370422 409.522453 98.772627 409.689052 99.19195 409.689052 
z
" style="fill:#7570b3;fill-opacity:0.7;"/>
    <path clip-path="url(#p5dbd4c5741)" d="M 99.199482 409.638705 
C 99.618805 409.638705 100.02101 409.472106 100.317516 409.1756 
C 100.614022 408.879094 100.780621 408.476889 100.780621 408.057566 
C 100.780621 407.638243 100.614022 407.236038 100.317516 406.939532 
C 100.02101 406.643026 99.618805 406.476427 99.199482 406.476427 
C 98.780159 406.476427 98.377954 406.643026 98.081448 406.939532 
C 97.784942 407.236038 97.618343 407.638243 97.618343 408.057566 
C 97.618343 408.476889 97.784942 408.879094 98.081448 409.1756 
C 98.377954 409.472106 98.780159 409.638705 99.199482 409.638705 
z
" style="fill:#7570b3;fill-opacity:0.7;"/>
    <path clip-path="url(#p5dbd4c5741)" d="M 99.206443 409.460397 
C 99.625766 409.460397 100.027971 409.293798 100.324477 408.997292 
C 100.620983 408.700786 100.787582 408.298581 100.787582 407.879258 
C 100.787582 407.459935 100.620983 407.05773 100.324477 406.761224 
C 100.027971 406.464718 99.625766 406.298119 99.206443 406.298119 
C 98.78712 406.298119 98.384915 406.464718 98.088409 406.761224 
C 97.791903 407.05773 97.625304 407.459935 97.625304 407.879258 
C 97.625304 408.298581 97.791903 408.700786 98.088409 408.997292 
C 98.384915 409.293798 98.78712 409.460397 99.206443 409.460397 
z
" style="fill:#7570b3;fill-opacity:0.7;"/>
    <path clip-path="url(#p5dbd4c5741)" d="M 99.188036 409.954293 
C 99.607359 409.954293 100.009564 409.787694 100.30607 409.491188 
C 100.602576 409.194682 100.769175 408.792477 100.769175 408.373154 
C 100.769175 407.953831 100.602576 407.551626 100.30607 407.25512 
C 100.009564 406.958614 99.607359 406.792015 99.188036 406.792015 
C 98.768713 406.792015 98.366508 406.958614 98.070002 407.25512 
C 97.773496 407.551626 97.606897 407.953831 97.606897 408.373154 
C 97.606897 408.792477 97.773496 409.194682 98.070002 409.491188 
C 98.366508 409.787694 98.768713 409.954293 99.188036 409.954293 
z
" style="fill:#7570b3;fill-opacity:0.7;"/>
    <path clip-path="url(#p5dbd4c5741)" d="M 99.195356 410.175832 
C 99.614679 410.175832 100.016884 410.009233 100.31339 409.712727 
C 100.609896 409.416221 100.776495 409.014016 100.776495 408.594693 
C 100.776495 408.17537 100.609896 407.773165 100.31339 407.476659 
C 100.016884 407.180153 99.614679 407.013555 99.195356 407.013555 
C 98.776033 407.013555 98.373828 407.180153 98.077322 407.476659 
C 97.780816 407.773165 97.614218 408.17537 97.614218 408.594693 
C 97.614218 409.014016 97.780816 409.416221 98.077322 409.712727 
C 98.373828 410.009233 98.776033 410.175832 99.195356 410.175832 
z
" style="fill:#7570b3;fill-opacity:0.7;"/>
    <path clip-path="url(#p5dbd4c5741)" d="M 99.200336 409.284955 
C 99.619659 409.284955 100.021864 409.118357 100.31837 408.821851 
C 100.614876 408.525344 100.781475 408.123139 100.781475 407.703817 
C 100.781475 407.284494 100.614876 406.882289 100.31837 406.585783 
C 100.021864 406.289276 99.619659 406.122678 99.200336 406.122678 
C 98.781013 406.122678 98.378808 406.289276 98.082302 406.585783 
C 97.785796 406.882289 97.619197 407.284494 97.619197 407.703817 
C 97.619197 408.123139 97.785796 408.525344 98.082302 408.821851 
C 98.378808 409.118357 98.781013 409.284955 99.200336 409.284955 
z
" style="fill:#7570b3;fill-opacity:0.7;"/>
    <path clip-path="url(#p5dbd4c5741)" d="M 99.197434 409.277463 
C 99.616757 409.277463 100.018962 409.110864 100.315468 408.814358 
C 100.611974 408.517852 100.778573 408.115647 100.778573 407.696324 
C 100.778573 407.277001 100.611974 406.874796 100.315468 406.57829 
C 100.018962 406.281784 99.616757 406.115185 99.197434 406.115185 
C 98.778111 406.115185 98.375906 406.281784 98.0794 406.57829 
C 97.782894 406.874796 97.616296 407.277001 97.616296 407.696324 
C 97.616296 408.115647 97.782894 408.517852 98.0794 408.814358 
C 98.375906 409.110864 98.778111 409.277463 99.197434 409.277463 
z
" style="fill:#7570b3;fill-opacity:0.7;"/>
    <path clip-path="url(#p5dbd4c5741)" d="M 99.201293 410.2052 
C 99.620616 410.2052 100.022821 410.038602 100.319327 409.742095 
C 100.615833 409.445589 100.782432 409.043384 100.782432 408.624061 
C 100.782432 408.204739 100.615833 407.802534 100.319327 407.506027 
C 100.022821 407.209521 99.620616 407.042923 99.201293 407.042923 
C 98.78197 407.042923 98.379765 407.209521 98.083259 407.506027 
C 97.786753 407.802534 97.620154 408.204739 97.620154 408.624061 
C 97.620154 409.043384 97.786753 409.445589 98.083259 409.742095 
C 98.379765 410.038602 98.78197 410.2052 99.201293 410.2052 
z
" style="fill:#7570b3;fill-opacity:0.7;"/>
    <path clip-path="url(#p5dbd4c5741)" d="M 99.205648 409.987348 
C 99.624971 409.987348 100.027176 409.820749 100.323682 409.524243 
C 100.620188 409.227737 100.786787 408.825532 100.786787 408.406209 
C 100.786787 407.986886 100.620188 407.584681 100.323682 407.288175 
C 100.027176 406.991669 99.624971 406.82507 99.205648 406.82507 
C 98.786325 406.82507 98.38412 406.991669 98.087614 407.288175 
C 97.791108 407.584681 97.624509 407.986886 97.624509 408.406209 
C 97.624509 408.825532 97.791108 409.227737 98.087614 409.524243 
C 98.38412 409.820749 98.786325 409.987348 99.205648 409.987348 
z
" style="fill:#7570b3;fill-opacity:0.7;"/>
    <path clip-path="url(#p5dbd4c5741)" d="M 99.198721 409.747497 
C 99.618044 409.747497 100.020249 409.580898 100.316755 409.284392 
C 100.613261 408.987886 100.77986 408.585681 100.77986 408.166358 
C 100.77986 407.747035 100.613261 407.34483 100.316755 407.048324 
C 100.020249 406.751818 99.618044 406.585219 99.198721 406.585219 
C 98.779398 406.585219 98.377193 406.751818 98.080687 407.048324 
C 97.784181 407.34483 97.617583 407.747035 97.617583 408.166358 
C 97.617583 408.585681 97.784181 408.987886 98.080687 409.284392 
C 98.377193 409.580898 98.779398 409.747497 99.198721 409.747497 
z
" style="fill:#7570b3;fill-opacity:0.7;"/>
    <path clip-path="url(#p5dbd4c5741)" d="M 99.193735 409.921067 
C 99.613058 409.921067 100.015263 409.754469 100.311769 409.457963 
C 100.608275 409.161456 100.774874 408.759251 100.774874 408.339929 
C 100.774874 407.920606 100.608275 407.518401 100.311769 407.221895 
C 100.015263 406.925388 99.613058 406.75879 99.193735 406.75879 
C 98.774412 406.75879 98.372207 406.925388 98.075701 407.221895 
C 97.779195 407.518401 97.612596 407.920606 97.612596 408.339929 
C 97.612596 408.759251 97.779195 409.161456 98.075701 409.457963 
C 98.372207 409.754469 98.774412 409.921067 99.193735 409.921067 
z
" style="fill:#7570b3;fill-opacity:0.7;"/>
    <path clip-path="url(#p5dbd4c5741)" d="M 99.19648 409.997337 
C 99.615803 409.997337 100.018008 409.830739 100.314514 409.534233 
C 100.61102 409.237726 100.777619 408.835521 100.777619 408.416199 
C 100.777619 407.996876 100.61102 407.594671 100.314514 407.298165 
C 100.018008 407.001658 99.615803 406.83506 99.19648 406.83506 
C 98.777157 406.83506 98.374952 407.001658 98.078446 407.298165 
C 97.78194 407.594671 97.615341 407.996876 97.615341 408.416199 
C 97.615341 408.835521 97.78194 409.237726 98.078446 409.534233 
C 98.374952 409.830739 98.777157 409.997337 99.19648 409.997337 
z
" style="fill:#7570b3;fill-opacity:0.7;"/>
    <path clip-path="url(#p5dbd4c5741)" d="M 99.2106 410.098804 
C 99.629923 410.098804 100.032128 409.932205 100.328634 409.635699 
C 100.62514 409.339193 100.791739 408.936988 100.791739 408.517665 
C 100.791739 408.098342 100.62514 407.696137 100.328634 407.399631 
C 100.032128 407.103125 99.629923 406.936526 99.2106 406.936526 
C 98.791277 406.936526 98.389072 407.103125 98.092566 407.399631 
C 97.79606 407.696137 97.629462 408.098342 97.629462 408.517665 
C 97.629462 408.936988 97.79606 409.339193 98.092566 409.635699 
C 98.389072 409.932205 98.791277 410.098804 99.2106 410.098804 
z
" style="fill:#7570b3;fill-opacity:0.7;"/>
    <path clip-path="url(#p5dbd4c5741)" d="M 99.201455 408.805425 
C 99.620778 408.805425 100.022983 408.638826 100.319489 408.34232 
C 100.615995 408.045814 100.782594 407.643609 100.782594 407.224286 
C 100.782594 406.804963 100.615995 406.402758 100.319489 406.106252 
C 100.022983 405.809746 99.620778 405.643148 99.201455 405.643148 
C 98.782132 405.643148 98.379927 405.809746 98.083421 406.106252 
C 97.786915 406.402758 97.620316 406.804963 97.620316 407.224286 
C 97.620316 407.643609 97.786915 408.045814 98.083421 408.34232 
C 98.379927 408.638826 98.782132 408.805425 99.201455 408.805425 
z
" style="fill:#7570b3;fill-opacity:0.7;"/>
    <path clip-path="url(#p5dbd4c5741)" d="M 99.20761 409.932651 
C 99.626933 409.932651 100.029138 409.766052 100.325644 409.469546 
C 100.62215 409.17304 100.788749 408.770835 100.788749 408.351512 
C 100.788749 407.932189 100.62215 407.529984 100.325644 407.233478 
C 100.029138 406.936972 99.626933 406.770373 99.20761 406.770373 
C 98.788287 406.770373 98.386082 406.936972 98.089576 407.233478 
C 97.79307 407.529984 97.626472 407.932189 97.626472 408.351512 
C 97.626472 408.770835 97.79307 409.17304 98.089576 409.469546 
C 98.386082 409.766052 98.788287 409.932651 99.20761 409.932651 
z
" style="fill:#7570b3;fill-opacity:0.7;"/>
    <path clip-path="url(#p5dbd4c5741)" d="M 99.207117 409.671904 
C 99.62644 409.671904 100.028645 409.505305 100.325151 409.208799 
C 100.621657 408.912293 100.788256 408.510088 100.788256 408.090765 
C 100.788256 407.671442 100.621657 407.269237 100.325151 406.972731 
C 100.028645 406.676225 99.62644 406.509626 99.207117 406.509626 
C 98.787794 406.509626 98.385589 406.676225 98.089083 406.972731 
C 97.792577 407.269237 97.625978 407.671442 97.625978 408.090765 
C 97.625978 408.510088 97.792577 408.912293 98.089083 409.208799 
C 98.385589 409.505305 98.787794 409.671904 99.207117 409.671904 
z
" style="fill:#7570b3;fill-opacity:0.7;"/>
    <path clip-path="url(#p5dbd4c5741)" d="M 99.198812 409.798319 
C 99.618135 409.798319 100.02034 409.63172 100.316846 409.335214 
C 100.613352 409.038708 100.779951 408.636503 100.779951 408.21718 
C 100.779951 407.797857 100.613352 407.395652 100.316846 407.099146 
C 100.02034 406.80264 99.618135 406.636042 99.198812 406.636042 
C 98.779489 406.636042 98.377285 406.80264 98.080778 407.099146 
C 97.784272 407.395652 97.617674 407.797857 97.617674 408.21718 
C 97.617674 408.636503 97.784272 409.038708 98.080778 409.335214 
C 98.377285 409.63172 98.779489 409.798319 99.198812 409.798319 
z
" style="fill:#7570b3;fill-opacity:0.7;"/>
    <path clip-path="url(#p5dbd4c5741)" d="M 99.205619 409.256916 
C 99.624942 409.256916 100.027146 409.090317 100.323653 408.793811 
C 100.620159 408.497305 100.786757 408.0951 100.786757 407.675777 
C 100.786757 407.256455 100.620159 406.85425 100.323653 406.557743 
C 100.027146 406.261237 99.624942 406.094639 99.205619 406.094639 
C 98.786296 406.094639 98.384091 406.261237 98.087585 406.557743 
C 97.791079 406.85425 97.62448 407.256455 97.62448 407.675777 
C 97.62448 408.0951 97.791079 408.497305 98.087585 408.793811 
C 98.384091 409.090317 98.786296 409.256916 99.205619 409.256916 
z
" style="fill:#7570b3;fill-opacity:0.7;"/>
   </g>
   <g id="PathCollection_2"/>
   <g id="PathCollection_3"/>
   <g id="PathCollection_4"/>
   <g id="matplotlib.axis_3">
    <g id="xtick_5">
     <g id="line2d_15">
      <g>
       <use style="stroke:#000000;stroke-width:1.6;" x="99.185333" xlink:href="#m47a58a1f5e" y="428.15"/>
      </g>
     </g>
     <g id="text_11">
      <!-- 0.0 -->
      <g transform="translate(83.282208 458.046875)scale(0.2 -0.2)">
       <use xlink:href="#DejaVuSans-48"/>
       <use x="63.623047" xlink:href="#DejaVuSans-46"/>
       <use x="95.410156" xlink:href="#DejaVuSans-48"/>
      </g>
     </g>
    </g>
    <g id="xtick_6">
     <g id="line2d_16">
      <g>
       <use style="stroke:#000000;stroke-width:1.6;" x="212.686667" xlink:href="#m47a58a1f5e" y="428.15"/>
      </g>
     </g>
     <g id="text_12">
      <!-- 0.2 -->
      <g transform="translate(196.783542 458.046875)scale(0.2 -0.2)">
       <use xlink:href="#DejaVuSans-48"/>
       <use x="63.623047" xlink:href="#DejaVuSans-46"/>
       <use x="95.410156" xlink:href="#DejaVuSans-50"/>
      </g>
     </g>
    </g>
    <g id="xtick_7">
     <g id="line2d_17">
      <g>
       <use style="stroke:#000000;stroke-width:1.6;" x="326.188" xlink:href="#m47a58a1f5e" y="428.15"/>
      </g>
     </g>
     <g id="text_13">
      <!-- 0.4 -->
      <g transform="translate(310.284875 458.046875)scale(0.2 -0.2)">
       <use xlink:href="#DejaVuSans-48"/>
       <use x="63.623047" xlink:href="#DejaVuSans-46"/>
       <use x="95.410156" xlink:href="#DejaVuSans-52"/>
      </g>
     </g>
    </g>
    <g id="xtick_8">
     <g id="line2d_18">
      <g>
       <use style="stroke:#000000;stroke-width:1.6;" x="439.689333" xlink:href="#m47a58a1f5e" y="428.15"/>
      </g>
     </g>
     <g id="text_14">
      <!-- 0.6 -->
      <g transform="translate(423.786208 458.046875)scale(0.2 -0.2)">
       <use xlink:href="#DejaVuSans-48"/>
       <use x="63.623047" xlink:href="#DejaVuSans-46"/>
       <use x="95.410156" xlink:href="#DejaVuSans-54"/>
      </g>
     </g>
    </g>
    <g id="text_15">
     <!-- JSD (seeds vs base) -->
     <defs>
      <path d="M 9.8125 72.90625 
L 19.671875 72.90625 
L 19.671875 5.078125 
Q 19.671875 -8.109375 14.671875 -14.0625 
Q 9.671875 -20.015625 -1.421875 -20.015625 
L -5.171875 -20.015625 
L -5.171875 -11.71875 
L -2.09375 -11.71875 
Q 4.4375 -11.71875 7.125 -8.046875 
Q 9.8125 -4.390625 9.8125 5.078125 
z
" id="DejaVuSans-74"/>
      <path d="M 53.515625 70.515625 
L 53.515625 60.890625 
Q 47.90625 63.578125 42.921875 64.890625 
Q 37.9375 66.21875 33.296875 66.21875 
Q 25.25 66.21875 20.875 63.09375 
Q 16.5 59.96875 16.5 54.203125 
Q 16.5 49.359375 19.40625 46.890625 
Q 22.3125 44.4375 30.421875 42.921875 
L 36.375 41.703125 
Q 47.40625 39.59375 52.65625 34.296875 
Q 57.90625 29 57.90625 20.125 
Q 57.90625 9.515625 50.796875 4.046875 
Q 43.703125 -1.421875 29.984375 -1.421875 
Q 24.8125 -1.421875 18.96875 -0.25 
Q 13.140625 0.921875 6.890625 3.21875 
L 6.890625 13.375 
Q 12.890625 10.015625 18.65625 8.296875 
Q 24.421875 6.59375 29.984375 6.59375 
Q 38.421875 6.59375 43.015625 9.90625 
Q 47.609375 13.234375 47.609375 19.390625 
Q 47.609375 24.75 44.3125 27.78125 
Q 41.015625 30.8125 33.5 32.328125 
L 27.484375 33.5 
Q 16.453125 35.6875 11.515625 40.375 
Q 6.59375 45.0625 6.59375 53.421875 
Q 6.59375 63.09375 13.40625 68.65625 
Q 20.21875 74.21875 32.171875 74.21875 
Q 37.3125 74.21875 42.625 73.28125 
Q 47.953125 72.359375 53.515625 70.515625 
z
" id="DejaVuSans-83"/>
      <path d="M 19.671875 64.796875 
L 19.671875 8.109375 
L 31.59375 8.109375 
Q 46.6875 8.109375 53.6875 14.9375 
Q 60.6875 21.78125 60.6875 36.53125 
Q 60.6875 51.171875 53.6875 57.984375 
Q 46.6875 64.796875 31.59375 64.796875 
z
M 9.8125 72.90625 
L 30.078125 72.90625 
Q 51.265625 72.90625 61.171875 64.09375 
Q 71.09375 55.28125 71.09375 36.53125 
Q 71.09375 17.671875 61.125 8.828125 
Q 51.171875 0 30.078125 0 
L 9.8125 0 
z
" id="DejaVuSans-68"/>
      <path d="M 31 75.875 
Q 24.46875 64.65625 21.28125 53.65625 
Q 18.109375 42.671875 18.109375 31.390625 
Q 18.109375 20.125 21.3125 9.0625 
Q 24.515625 -2 31 -13.1875 
L 23.1875 -13.1875 
Q 15.875 -1.703125 12.234375 9.375 
Q 8.59375 20.453125 8.59375 31.390625 
Q 8.59375 42.28125 12.203125 53.3125 
Q 15.828125 64.359375 23.1875 75.875 
z
" id="DejaVuSans-40"/>
      <path d="M 44.28125 53.078125 
L 44.28125 44.578125 
Q 40.484375 46.53125 36.375 47.5 
Q 32.28125 48.484375 27.875 48.484375 
Q 21.1875 48.484375 17.84375 46.4375 
Q 14.5 44.390625 14.5 40.28125 
Q 14.5 37.15625 16.890625 35.375 
Q 19.28125 33.59375 26.515625 31.984375 
L 29.59375 31.296875 
Q 39.15625 29.25 43.1875 25.515625 
Q 47.21875 21.78125 47.21875 15.09375 
Q 47.21875 7.46875 41.1875 3.015625 
Q 35.15625 -1.421875 24.609375 -1.421875 
Q 20.21875 -1.421875 15.453125 -0.5625 
Q 10.6875 0.296875 5.421875 2 
L 5.421875 11.28125 
Q 10.40625 8.6875 15.234375 7.390625 
Q 20.0625 6.109375 24.8125 6.109375 
Q 31.15625 6.109375 34.5625 8.28125 
Q 37.984375 10.453125 37.984375 14.40625 
Q 37.984375 18.0625 35.515625 20.015625 
Q 33.0625 21.96875 24.703125 23.78125 
L 21.578125 24.515625 
Q 13.234375 26.265625 9.515625 29.90625 
Q 5.8125 33.546875 5.8125 39.890625 
Q 5.8125 47.609375 11.28125 51.796875 
Q 16.75 56 26.8125 56 
Q 31.78125 56 36.171875 55.265625 
Q 40.578125 54.546875 44.28125 53.078125 
z
" id="DejaVuSans-115"/>
      <path d="M 56.203125 29.59375 
L 56.203125 25.203125 
L 14.890625 25.203125 
Q 15.484375 15.921875 20.484375 11.0625 
Q 25.484375 6.203125 34.421875 6.203125 
Q 39.59375 6.203125 44.453125 7.46875 
Q 49.3125 8.734375 54.109375 11.28125 
L 54.109375 2.78125 
Q 49.265625 0.734375 44.1875 -0.34375 
Q 39.109375 -1.421875 33.890625 -1.421875 
Q 20.796875 -1.421875 13.15625 6.1875 
Q 5.515625 13.8125 5.515625 26.8125 
Q 5.515625 40.234375 12.765625 48.109375 
Q 20.015625 56 32.328125 56 
Q 43.359375 56 49.78125 48.890625 
Q 56.203125 41.796875 56.203125 29.59375 
z
M 47.21875 32.234375 
Q 47.125 39.59375 43.09375 43.984375 
Q 39.0625 48.390625 32.421875 48.390625 
Q 24.90625 48.390625 20.390625 44.140625 
Q 15.875 39.890625 15.1875 32.171875 
z
" id="DejaVuSans-101"/>
      <path d="M 45.40625 46.390625 
L 45.40625 75.984375 
L 54.390625 75.984375 
L 54.390625 0 
L 45.40625 0 
L 45.40625 8.203125 
Q 42.578125 3.328125 38.25 0.953125 
Q 33.9375 -1.421875 27.875 -1.421875 
Q 17.96875 -1.421875 11.734375 6.484375 
Q 5.515625 14.40625 5.515625 27.296875 
Q 5.515625 40.1875 11.734375 48.09375 
Q 17.96875 56 27.875 56 
Q 33.9375 56 38.25 53.625 
Q 42.578125 51.265625 45.40625 46.390625 
z
M 14.796875 27.296875 
Q 14.796875 17.390625 18.875 11.75 
Q 22.953125 6.109375 30.078125 6.109375 
Q 37.203125 6.109375 41.296875 11.75 
Q 45.40625 17.390625 45.40625 27.296875 
Q 45.40625 37.203125 41.296875 42.84375 
Q 37.203125 48.484375 30.078125 48.484375 
Q 22.953125 48.484375 18.875 42.84375 
Q 14.796875 37.203125 14.796875 27.296875 
z
" id="DejaVuSans-100"/>
      <path d="M 2.984375 54.6875 
L 12.5 54.6875 
L 29.59375 8.796875 
L 46.6875 54.6875 
L 56.203125 54.6875 
L 35.6875 0 
L 23.484375 0 
z
" id="DejaVuSans-118"/>
      <path d="M 48.6875 27.296875 
Q 48.6875 37.203125 44.609375 42.84375 
Q 40.53125 48.484375 33.40625 48.484375 
Q 26.265625 48.484375 22.1875 42.84375 
Q 18.109375 37.203125 18.109375 27.296875 
Q 18.109375 17.390625 22.1875 11.75 
Q 26.265625 6.109375 33.40625 6.109375 
Q 40.53125 6.109375 44.609375 11.75 
Q 48.6875 17.390625 48.6875 27.296875 
z
M 18.109375 46.390625 
Q 20.953125 51.265625 25.265625 53.625 
Q 29.59375 56 35.59375 56 
Q 45.5625 56 51.78125 48.09375 
Q 58.015625 40.1875 58.015625 27.296875 
Q 58.015625 14.40625 51.78125 6.484375 
Q 45.5625 -1.421875 35.59375 -1.421875 
Q 29.59375 -1.421875 25.265625 0.953125 
Q 20.953125 3.328125 18.109375 8.203125 
L 18.109375 0 
L 9.078125 0 
L 9.078125 75.984375 
L 18.109375 75.984375 
z
" id="DejaVuSans-98"/>
      <path d="M 34.28125 27.484375 
Q 23.390625 27.484375 19.1875 25 
Q 14.984375 22.515625 14.984375 16.5 
Q 14.984375 11.71875 18.140625 8.90625 
Q 21.296875 6.109375 26.703125 6.109375 
Q 34.1875 6.109375 38.703125 11.40625 
Q 43.21875 16.703125 43.21875 25.484375 
L 43.21875 27.484375 
z
M 52.203125 31.203125 
L 52.203125 0 
L 43.21875 0 
L 43.21875 8.296875 
Q 40.140625 3.328125 35.546875 0.953125 
Q 30.953125 -1.421875 24.3125 -1.421875 
Q 15.921875 -1.421875 10.953125 3.296875 
Q 6 8.015625 6 15.921875 
Q 6 25.140625 12.171875 29.828125 
Q 18.359375 34.515625 30.609375 34.515625 
L 43.21875 34.515625 
L 43.21875 35.40625 
Q 43.21875 41.609375 39.140625 45 
Q 35.0625 48.390625 27.6875 48.390625 
Q 23 48.390625 18.546875 47.265625 
Q 14.109375 46.140625 10.015625 43.890625 
L 10.015625 52.203125 
Q 14.9375 54.109375 19.578125 55.046875 
Q 24.21875 56 28.609375 56 
Q 40.484375 56 46.34375 49.84375 
Q 52.203125 43.703125 52.203125 31.203125 
z
" id="DejaVuSans-97"/>
     </defs>
     <g transform="translate(185.248437 481.403125)scale(0.2 -0.2)">
      <use xlink:href="#DejaVuSans-74"/>
      <use x="29.492188" xlink:href="#DejaVuSans-83"/>
      <use x="92.96875" xlink:href="#DejaVuSans-68"/>
      <use x="169.970703" xlink:href="#DejaVuSans-32"/>
      <use x="201.757812" xlink:href="#DejaVuSans-40"/>
      <use x="240.771484" xlink:href="#DejaVuSans-115"/>
      <use x="292.871094" xlink:href="#DejaVuSans-101"/>
      <use x="354.394531" xlink:href="#DejaVuSans-101"/>
      <use x="415.917969" xlink:href="#DejaVuSans-100"/>
      <use x="479.394531" xlink:href="#DejaVuSans-115"/>
      <use x="531.494141" xlink:href="#DejaVuSans-32"/>
      <use x="563.28125" xlink:href="#DejaVuSans-118"/>
      <use x="622.460938" xlink:href="#DejaVuSans-115"/>
      <use x="674.560547" xlink:href="#DejaVuSans-32"/>
      <use x="706.347656" xlink:href="#DejaVuSans-98"/>
      <use x="769.824219" xlink:href="#DejaVuSans-97"/>
      <use x="831.103516" xlink:href="#DejaVuSans-115"/>
      <use x="883.203125" xlink:href="#DejaVuSans-101"/>
      <use x="944.726562" xlink:href="#DejaVuSans-41"/>
     </g>
    </g>
   </g>
   <g id="matplotlib.axis_4">
    <g id="ytick_5">
     <g id="line2d_19">
      <g>
       <use style="stroke:#000000;stroke-width:1.6;" x="70.81" xlink:href="#ma1fd04723d" y="408.803182"/>
      </g>
     </g>
     <g id="text_16">
      <!-- 0.0 -->
      <g transform="translate(24.30375 416.401619)scale(0.2 -0.2)">
       <use xlink:href="#DejaVuSans-48"/>
       <use x="63.623047" xlink:href="#DejaVuSans-46"/>
       <use x="95.410156" xlink:href="#DejaVuSans-48"/>
      </g>
     </g>
    </g>
    <g id="ytick_6">
     <g id="line2d_20">
      <g>
       <use style="stroke:#000000;stroke-width:1.6;" x="70.81" xlink:href="#ma1fd04723d" y="331.415909"/>
      </g>
     </g>
     <g id="text_17">
      <!-- 0.2 -->
      <g transform="translate(24.30375 339.014347)scale(0.2 -0.2)">
       <use xlink:href="#DejaVuSans-48"/>
       <use x="63.623047" xlink:href="#DejaVuSans-46"/>
       <use x="95.410156" xlink:href="#DejaVuSans-50"/>
      </g>
     </g>
    </g>
    <g id="ytick_7">
     <g id="line2d_21">
      <g>
       <use style="stroke:#000000;stroke-width:1.6;" x="70.81" xlink:href="#ma1fd04723d" y="254.028636"/>
      </g>
     </g>
     <g id="text_18">
      <!-- 0.4 -->
      <g transform="translate(24.30375 261.627074)scale(0.2 -0.2)">
       <use xlink:href="#DejaVuSans-48"/>
       <use x="63.623047" xlink:href="#DejaVuSans-46"/>
       <use x="95.410156" xlink:href="#DejaVuSans-52"/>
      </g>
     </g>
    </g>
    <g id="ytick_8">
     <g id="line2d_22">
      <g>
       <use style="stroke:#000000;stroke-width:1.6;" x="70.81" xlink:href="#ma1fd04723d" y="176.641364"/>
      </g>
     </g>
     <g id="text_19">
      <!-- 0.6 -->
      <g transform="translate(24.30375 184.239801)scale(0.2 -0.2)">
       <use xlink:href="#DejaVuSans-48"/>
       <use x="63.623047" xlink:href="#DejaVuSans-46"/>
       <use x="95.410156" xlink:href="#DejaVuSans-54"/>
      </g>
     </g>
    </g>
    <g id="ytick_9">
     <g id="line2d_23">
      <g>
       <use style="stroke:#000000;stroke-width:1.6;" x="70.81" xlink:href="#ma1fd04723d" y="99.254091"/>
      </g>
     </g>
     <g id="text_20">
      <!-- 0.8 -->
      <defs>
       <path d="M 31.78125 34.625 
Q 24.75 34.625 20.71875 30.859375 
Q 16.703125 27.09375 16.703125 20.515625 
Q 16.703125 13.921875 20.71875 10.15625 
Q 24.75 6.390625 31.78125 6.390625 
Q 38.8125 6.390625 42.859375 10.171875 
Q 46.921875 13.96875 46.921875 20.515625 
Q 46.921875 27.09375 42.890625 30.859375 
Q 38.875 34.625 31.78125 34.625 
z
M 21.921875 38.8125 
Q 15.578125 40.375 12.03125 44.71875 
Q 8.5 49.078125 8.5 55.328125 
Q 8.5 64.0625 14.71875 69.140625 
Q 20.953125 74.21875 31.78125 74.21875 
Q 42.671875 74.21875 48.875 69.140625 
Q 55.078125 64.0625 55.078125 55.328125 
Q 55.078125 49.078125 51.53125 44.71875 
Q 48 40.375 41.703125 38.8125 
Q 48.828125 37.15625 52.796875 32.3125 
Q 56.78125 27.484375 56.78125 20.515625 
Q 56.78125 9.90625 50.3125 4.234375 
Q 43.84375 -1.421875 31.78125 -1.421875 
Q 19.734375 -1.421875 13.25 4.234375 
Q 6.78125 9.90625 6.78125 20.515625 
Q 6.78125 27.484375 10.78125 32.3125 
Q 14.796875 37.15625 21.921875 38.8125 
z
M 18.3125 54.390625 
Q 18.3125 48.734375 21.84375 45.5625 
Q 25.390625 42.390625 31.78125 42.390625 
Q 38.140625 42.390625 41.71875 45.5625 
Q 45.3125 48.734375 45.3125 54.390625 
Q 45.3125 60.0625 41.71875 63.234375 
Q 38.140625 66.40625 31.78125 66.40625 
Q 25.390625 66.40625 21.84375 63.234375 
Q 18.3125 60.0625 18.3125 54.390625 
z
" id="DejaVuSans-56"/>
      </defs>
      <g transform="translate(24.30375 106.852528)scale(0.2 -0.2)">
       <use xlink:href="#DejaVuSans-48"/>
       <use x="63.623047" xlink:href="#DejaVuSans-46"/>
       <use x="95.410156" xlink:href="#DejaVuSans-56"/>
      </g>
     </g>
    </g>
    <g id="ytick_10">
     <g id="line2d_24">
      <g>
       <use style="stroke:#000000;stroke-width:1.6;" x="70.81" xlink:href="#ma1fd04723d" y="21.866818"/>
      </g>
     </g>
     <g id="text_21">
      <!-- 1.0 -->
      <g transform="translate(24.30375 29.465256)scale(0.2 -0.2)">
       <use xlink:href="#DejaVuSans-49"/>
       <use x="63.623047" xlink:href="#DejaVuSans-46"/>
       <use x="95.410156" xlink:href="#DejaVuSans-48"/>
      </g>
     </g>
    </g>
    <g id="text_22">
     <!-- Output Difference -->
     <defs>
      <path d="M 39.40625 66.21875 
Q 28.65625 66.21875 22.328125 58.203125 
Q 16.015625 50.203125 16.015625 36.375 
Q 16.015625 22.609375 22.328125 14.59375 
Q 28.65625 6.59375 39.40625 6.59375 
Q 50.140625 6.59375 56.421875 14.59375 
Q 62.703125 22.609375 62.703125 36.375 
Q 62.703125 50.203125 56.421875 58.203125 
Q 50.140625 66.21875 39.40625 66.21875 
z
M 39.40625 74.21875 
Q 54.734375 74.21875 63.90625 63.9375 
Q 73.09375 53.65625 73.09375 36.375 
Q 73.09375 19.140625 63.90625 8.859375 
Q 54.734375 -1.421875 39.40625 -1.421875 
Q 24.03125 -1.421875 14.8125 8.828125 
Q 5.609375 19.09375 5.609375 36.375 
Q 5.609375 53.65625 14.8125 63.9375 
Q 24.03125 74.21875 39.40625 74.21875 
z
" id="DejaVuSans-79"/>
      <path d="M 8.5 21.578125 
L 8.5 54.6875 
L 17.484375 54.6875 
L 17.484375 21.921875 
Q 17.484375 14.15625 20.5 10.265625 
Q 23.53125 6.390625 29.59375 6.390625 
Q 36.859375 6.390625 41.078125 11.03125 
Q 45.3125 15.671875 45.3125 23.6875 
L 45.3125 54.6875 
L 54.296875 54.6875 
L 54.296875 0 
L 45.3125 0 
L 45.3125 8.40625 
Q 42.046875 3.421875 37.71875 1 
Q 33.40625 -1.421875 27.6875 -1.421875 
Q 18.265625 -1.421875 13.375 4.4375 
Q 8.5 10.296875 8.5 21.578125 
z
M 31.109375 56 
z
" id="DejaVuSans-117"/>
      <path d="M 18.3125 70.21875 
L 18.3125 54.6875 
L 36.8125 54.6875 
L 36.8125 47.703125 
L 18.3125 47.703125 
L 18.3125 18.015625 
Q 18.3125 11.328125 20.140625 9.421875 
Q 21.96875 7.515625 27.59375 7.515625 
L 36.8125 7.515625 
L 36.8125 0 
L 27.59375 0 
Q 17.1875 0 13.234375 3.875 
Q 9.28125 7.765625 9.28125 18.015625 
L 9.28125 47.703125 
L 2.6875 47.703125 
L 2.6875 54.6875 
L 9.28125 54.6875 
L 9.28125 70.21875 
z
" id="DejaVuSans-116"/>
      <path d="M 18.109375 8.203125 
L 18.109375 -20.796875 
L 9.078125 -20.796875 
L 9.078125 54.6875 
L 18.109375 54.6875 
L 18.109375 46.390625 
Q 20.953125 51.265625 25.265625 53.625 
Q 29.59375 56 35.59375 56 
Q 45.5625 56 51.78125 48.09375 
Q 58.015625 40.1875 58.015625 27.296875 
Q 58.015625 14.40625 51.78125 6.484375 
Q 45.5625 -1.421875 35.59375 -1.421875 
Q 29.59375 -1.421875 25.265625 0.953125 
Q 20.953125 3.328125 18.109375 8.203125 
z
M 48.6875 27.296875 
Q 48.6875 37.203125 44.609375 42.84375 
Q 40.53125 48.484375 33.40625 48.484375 
Q 26.265625 48.484375 22.1875 42.84375 
Q 18.109375 37.203125 18.109375 27.296875 
Q 18.109375 17.390625 22.1875 11.75 
Q 26.265625 6.109375 33.40625 6.109375 
Q 40.53125 6.109375 44.609375 11.75 
Q 48.6875 17.390625 48.6875 27.296875 
z
" id="DejaVuSans-112"/>
      <path d="M 9.421875 54.6875 
L 18.40625 54.6875 
L 18.40625 0 
L 9.421875 0 
z
M 9.421875 75.984375 
L 18.40625 75.984375 
L 18.40625 64.59375 
L 9.421875 64.59375 
z
" id="DejaVuSans-105"/>
      <path d="M 37.109375 75.984375 
L 37.109375 68.5 
L 28.515625 68.5 
Q 23.6875 68.5 21.796875 66.546875 
Q 19.921875 64.59375 19.921875 59.515625 
L 19.921875 54.6875 
L 34.71875 54.6875 
L 34.71875 47.703125 
L 19.921875 47.703125 
L 19.921875 0 
L 10.890625 0 
L 10.890625 47.703125 
L 2.296875 47.703125 
L 2.296875 54.6875 
L 10.890625 54.6875 
L 10.890625 58.5 
Q 10.890625 67.625 15.140625 71.796875 
Q 19.390625 75.984375 28.609375 75.984375 
z
" id="DejaVuSans-102"/>
      <path d="M 41.109375 46.296875 
Q 39.59375 47.171875 37.8125 47.578125 
Q 36.03125 48 33.890625 48 
Q 26.265625 48 22.1875 43.046875 
Q 18.109375 38.09375 18.109375 28.8125 
L 18.109375 0 
L 9.078125 0 
L 9.078125 54.6875 
L 18.109375 54.6875 
L 18.109375 46.1875 
Q 20.953125 51.171875 25.484375 53.578125 
Q 30.03125 56 36.53125 56 
Q 37.453125 56 38.578125 55.875 
Q 39.703125 55.765625 41.0625 55.515625 
z
" id="DejaVuSans-114"/>
      <path d="M 54.890625 33.015625 
L 54.890625 0 
L 45.90625 0 
L 45.90625 32.71875 
Q 45.90625 40.484375 42.875 44.328125 
Q 39.84375 48.1875 33.796875 48.1875 
Q 26.515625 48.1875 22.3125 43.546875 
Q 18.109375 38.921875 18.109375 30.90625 
L 18.109375 0 
L 9.078125 0 
L 9.078125 54.6875 
L 18.109375 54.6875 
L 18.109375 46.1875 
Q 21.34375 51.125 25.703125 53.5625 
Q 30.078125 56 35.796875 56 
Q 45.21875 56 50.046875 50.171875 
Q 54.890625 44.34375 54.890625 33.015625 
z
" id="DejaVuSans-110"/>
      <path d="M 48.78125 52.59375 
L 48.78125 44.1875 
Q 44.96875 46.296875 41.140625 47.34375 
Q 37.3125 48.390625 33.40625 48.390625 
Q 24.65625 48.390625 19.8125 42.84375 
Q 14.984375 37.3125 14.984375 27.296875 
Q 14.984375 17.28125 19.8125 11.734375 
Q 24.65625 6.203125 33.40625 6.203125 
Q 37.3125 6.203125 41.140625 7.25 
Q 44.96875 8.296875 48.78125 10.40625 
L 48.78125 2.09375 
Q 45.015625 0.34375 40.984375 -0.53125 
Q 36.96875 -1.421875 32.421875 -1.421875 
Q 20.0625 -1.421875 12.78125 6.34375 
Q 5.515625 14.109375 5.515625 27.296875 
Q 5.515625 40.671875 12.859375 48.328125 
Q 20.21875 56 33.015625 56 
Q 37.15625 56 41.109375 55.140625 
Q 45.0625 54.296875 48.78125 52.59375 
z
" id="DejaVuSans-99"/>
     </defs>
     <g transform="translate(16.144375 305.170937)rotate(-90)scale(0.2 -0.2)">
      <use xlink:href="#DejaVuSans-79"/>
      <use x="78.710938" xlink:href="#DejaVuSans-117"/>
      <use x="142.089844" xlink:href="#DejaVuSans-116"/>
      <use x="181.298828" xlink:href="#DejaVuSans-112"/>
      <use x="244.775391" xlink:href="#DejaVuSans-117"/>
      <use x="308.154297" xlink:href="#DejaVuSans-116"/>
      <use x="347.363281" xlink:href="#DejaVuSans-32"/>
      <use x="379.150391" xlink:href="#DejaVuSans-68"/>
      <use x="456.152344" xlink:href="#DejaVuSans-105"/>
      <use x="483.935547" xlink:href="#DejaVuSans-102"/>
      <use x="519.140625" xlink:href="#DejaVuSans-102"/>
      <use x="554.345703" xlink:href="#DejaVuSans-101"/>
      <use x="615.869141" xlink:href="#DejaVuSans-114"/>
      <use x="656.951172" xlink:href="#DejaVuSans-101"/>
      <use x="718.474609" xlink:href="#DejaVuSans-110"/>
      <use x="781.853516" xlink:href="#DejaVuSans-99"/>
      <use x="836.833984" xlink:href="#DejaVuSans-101"/>
     </g>
    </g>
   </g>
   <g id="patch_8">
    <path d="M 70.81 428.15 
L 70.81 2.52 
" style="fill:none;stroke:#000000;stroke-linecap:square;stroke-linejoin:miter;stroke-width:0.8;"/>
   </g>
   <g id="patch_9">
    <path d="M 70.81 428.15 
L 496.44 428.15 
" style="fill:none;stroke:#000000;stroke-linecap:square;stroke-linejoin:miter;stroke-width:0.8;"/>
   </g>
  </g>
 </g>
 <defs>
  <clipPath id="p30761b42f2">
   <rect height="425.63" width="425.63" x="-446.51" y="2.52"/>
  </clipPath>
  <clipPath id="p5dbd4c5741">
   <rect height="425.63" width="425.63" x="70.81" y="2.52"/>
  </clipPath>
 </defs>
</svg>
