<?xml version="1.0" encoding="utf-8" standalone="no"?>
<!DOCTYPE svg PUBLIC "-//W3C//DTD SVG 1.1//EN"
  "http://www.w3.org/Graphics/SVG/1.1/DTD/svg11.dtd">
<!-- Created with matplotlib (https://matplotlib.org/) -->
<svg height="487.17pt" version="1.1" viewBox="0 0 498.96 487.17" width="498.96pt" xmlns="http://www.w3.org/2000/svg" xmlns:xlink="http://www.w3.org/1999/xlink">
 <defs>
  <style type="text/css">
*{stroke-linecap:butt;stroke-linejoin:round;}
  </style>
 </defs>
 <g id="figure_1">
  <g id="patch_1">
   <path d="M 0 487.17 
L 498.96 487.17 
L 498.96 0 
L 0 0 
z
" style="fill:#ffffff;"/>
  </g>
  <g id="axes_1">
   <g id="patch_2">
    <path d="M -446.51 428.15 
L -20.88 428.15 
L -20.88 2.52 
L -446.51 2.52 
z
" style="fill:#ffffff;"/>
   </g>
   <g id="PolyCollection_1">
    <defs>
     <path d="M -412.125372 -436.568126 
L -412.125372 -468.887374 
L -410.754991 -470.213985 
L -409.384609 -471.39834 
L -408.014227 -472.39999 
L -406.643845 -473.184083 
L -405.273464 -473.723566 
L -403.903082 -474.000913 
L -402.5327 -474.00925 
L -401.162318 -473.752743 
L -399.791937 -473.24623 
L -398.421555 -472.514123 
L -397.051173 -471.588686 
L -395.680791 -470.507841 
L -394.31041 -469.312716 
L -392.940028 -468.045128 
L -391.569646 -466.745226 
L -390.199265 -465.44946 
L -388.828883 -464.189017 
L -387.458501 -462.988807 
L -386.088119 -461.86701 
L -384.717738 -460.835159 
L -383.347356 -459.898689 
L -381.976974 -459.057816 
L -380.606592 -458.308651 
L -379.236211 -457.644393 
L -377.865829 -457.056504 
L -376.495447 -456.535749 
L -375.125065 -456.073058 
L -373.754684 -455.660142 
L -372.384302 -455.289894 
L -371.01392 -454.956548 
L -369.643538 -454.655672 
L -368.273157 -454.384019 
L -366.902775 -454.139284 
L -365.532393 -453.91984 
L -364.162011 -453.724462 
L -362.79163 -453.552099 
L -361.421248 -453.401688 
L -360.050866 -453.272041 
L -358.680485 -453.161779 
L -357.310103 -453.069332 
L -355.939721 -452.992968 
L -354.569339 -452.930851 
L -353.198958 -452.881111 
L -351.828576 -452.841912 
L -350.458194 -452.811513 
L -349.087812 -452.788319 
L -347.717431 -452.770909 
L -346.347049 -452.758051 
L -344.976667 -452.748709 
L -343.606285 -452.742032 
L -342.235904 -452.737337 
L -340.865522 -452.734089 
L -339.49514 -452.731879 
L -338.124758 -452.730399 
L -336.754377 -452.729424 
L -335.383995 -452.728792 
L -334.013613 -452.728389 
L -332.643231 -452.728137 
L -331.27285 -452.727982 
L -329.902468 -452.727889 
L -328.532086 -452.727836 
L -327.161704 -452.72781 
L -325.791323 -452.727803 
L -324.420941 -452.727813 
L -323.050559 -452.727843 
L -321.680178 -452.727898 
L -320.309796 -452.727992 
L -318.939414 -452.728145 
L -317.569032 -452.728387 
L -316.198651 -452.728762 
L -314.828269 -452.729333 
L -313.457887 -452.730188 
L -312.087505 -452.731446 
L -310.717124 -452.733265 
L -309.346742 -452.73585 
L -307.97636 -452.739461 
L -306.605978 -452.744415 
L -305.235597 -452.751094 
L -303.865215 -452.759938 
L -302.494833 -452.771436 
L -301.124451 -452.786113 
L -299.75407 -452.804499 
L -298.383688 -452.827095 
L -297.013306 -452.85433 
L -295.642924 -452.886504 
L -294.272543 -452.923735 
L -292.902161 -452.965908 
L -291.531779 -453.012621 
L -290.161398 -453.063157 
L -288.791016 -453.116471 
L -287.420634 -453.1712 
L -286.050252 -453.225709 
L -284.679871 -453.278156 
L -283.309489 -453.326594 
L -281.939107 -453.369087 
L -280.568725 -453.403833 
L -279.198344 -453.429294 
L -277.827962 -453.444308 
L -276.45758 -453.448176 
L -276.45758 -452.007324 
L -276.45758 -452.007324 
L -277.827962 -452.011192 
L -279.198344 -452.026206 
L -280.568725 -452.051667 
L -281.939107 -452.086413 
L -283.309489 -452.128906 
L -284.679871 -452.177344 
L -286.050252 -452.229791 
L -287.420634 -452.2843 
L -288.791016 -452.339029 
L -290.161398 -452.392343 
L -291.531779 -452.442879 
L -292.902161 -452.489592 
L -294.272543 -452.531765 
L -295.642924 -452.568996 
L -297.013306 -452.60117 
L -298.383688 -452.628405 
L -299.75407 -452.651001 
L -301.124451 -452.669387 
L -302.494833 -452.684064 
L -303.865215 -452.695562 
L -305.235597 -452.704406 
L -306.605978 -452.711085 
L -307.97636 -452.716039 
L -309.346742 -452.71965 
L -310.717124 -452.722235 
L -312.087505 -452.724054 
L -313.457887 -452.725312 
L -314.828269 -452.726167 
L -316.198651 -452.726738 
L -317.569032 -452.727113 
L -318.939414 -452.727355 
L -320.309796 -452.727508 
L -321.680178 -452.727602 
L -323.050559 -452.727657 
L -324.420941 -452.727687 
L -325.791323 -452.727697 
L -327.161704 -452.72769 
L -328.532086 -452.727664 
L -329.902468 -452.727611 
L -331.27285 -452.727518 
L -332.643231 -452.727363 
L -334.013613 -452.727111 
L -335.383995 -452.726708 
L -336.754377 -452.726076 
L -338.124758 -452.725101 
L -339.49514 -452.723621 
L -340.865522 -452.721411 
L -342.235904 -452.718163 
L -343.606285 -452.713468 
L -344.976667 -452.706791 
L -346.347049 -452.697449 
L -347.717431 -452.684591 
L -349.087812 -452.667181 
L -350.458194 -452.643987 
L -351.828576 -452.613588 
L -353.198958 -452.574389 
L -354.569339 -452.524649 
L -355.939721 -452.462532 
L -357.310103 -452.386168 
L -358.680485 -452.293721 
L -360.050866 -452.183459 
L -361.421248 -452.053812 
L -362.79163 -451.903401 
L -364.162011 -451.731038 
L -365.532393 -451.53566 
L -366.902775 -451.316216 
L -368.273157 -451.071481 
L -369.643538 -450.799828 
L -371.01392 -450.498952 
L -372.384302 -450.165606 
L -373.754684 -449.795358 
L -375.125065 -449.382442 
L -376.495447 -448.919751 
L -377.865829 -448.398996 
L -379.236211 -447.811107 
L -380.606592 -447.146849 
L -381.976974 -446.397684 
L -383.347356 -445.556811 
L -384.717738 -444.620341 
L -386.088119 -443.58849 
L -387.458501 -442.466693 
L -388.828883 -441.266483 
L -390.199265 -440.00604 
L -391.569646 -438.710274 
L -392.940028 -437.410372 
L -394.31041 -436.142784 
L -395.680791 -434.947659 
L -397.051173 -433.866814 
L -398.421555 -432.941377 
L -399.791937 -432.20927 
L -401.162318 -431.702757 
L -402.5327 -431.44625 
L -403.903082 -431.454587 
L -405.273464 -431.731934 
L -406.643845 -432.271417 
L -408.014227 -433.05551 
L -409.384609 -434.05716 
L -410.754991 -435.241515 
L -412.125372 -436.568126 
z
" id="mff285de082" style="stroke:#424242;"/>
    </defs>
    <g clip-path="url(#p2d2c6d970c)">
     <use style="fill:#7c78ab;stroke:#424242;" x="0" xlink:href="#mff285de082" y="487.17"/>
    </g>
   </g>
   <g id="PolyCollection_2">
    <defs>
     <path d="M -404.385706 -408.713522 
L -404.385706 -411.615978 
L -402.323553 -411.624522 
L -400.261401 -411.632883 
L -398.199248 -411.64106 
L -396.137096 -411.649053 
L -394.074944 -411.65686 
L -392.012791 -411.664482 
L -389.950639 -411.671918 
L -387.888486 -411.679169 
L -385.826334 -411.686233 
L -383.764181 -411.693111 
L -381.702029 -411.699803 
L -379.639877 -411.706309 
L -377.577724 -411.712629 
L -375.515572 -411.718765 
L -373.453419 -411.724715 
L -371.391267 -411.730482 
L -369.329114 -411.736065 
L -367.266962 -411.741465 
L -365.20481 -411.746683 
L -363.142657 -411.75172 
L -361.080505 -411.756577 
L -359.018352 -411.761253 
L -356.9562 -411.765751 
L -354.894047 -411.770071 
L -352.831895 -411.774215 
L -350.769743 -411.778182 
L -348.70759 -411.781975 
L -346.645438 -411.785594 
L -344.583285 -411.78904 
L -342.521133 -411.792314 
L -340.45898 -411.795417 
L -338.396828 -411.798351 
L -336.334676 -411.801116 
L -334.272523 -411.803712 
L -332.210371 -411.806142 
L -330.148218 -411.808405 
L -328.086066 -411.810503 
L -326.023913 -411.812436 
L -323.961761 -411.814206 
L -321.899609 -411.815812 
L -319.837456 -411.817256 
L -317.775304 -411.818538 
L -315.713151 -411.819658 
L -313.650999 -411.820617 
L -311.588846 -411.821416 
L -309.526694 -411.822055 
L -307.464542 -411.822534 
L -305.402389 -411.822853 
L -303.340237 -411.823013 
L -301.278084 -411.823013 
L -299.215932 -411.822853 
L -297.153779 -411.822534 
L -295.091627 -411.822055 
L -293.029475 -411.821416 
L -290.967322 -411.820617 
L -288.90517 -411.819658 
L -286.843017 -411.818538 
L -284.780865 -411.817256 
L -282.718713 -411.815812 
L -280.65656 -411.814206 
L -278.594408 -411.812436 
L -276.532255 -411.810503 
L -274.470103 -411.808405 
L -272.40795 -411.806142 
L -270.345798 -411.803712 
L -268.283646 -411.801116 
L -266.221493 -411.798351 
L -264.159341 -411.795417 
L -262.097188 -411.792314 
L -260.035036 -411.78904 
L -257.972883 -411.785594 
L -255.910731 -411.781975 
L -253.848579 -411.778182 
L -251.786426 -411.774215 
L -249.724274 -411.770071 
L -247.662121 -411.765751 
L -245.599969 -411.761253 
L -243.537816 -411.756577 
L -241.475664 -411.75172 
L -239.413512 -411.746683 
L -237.351359 -411.741465 
L -235.289207 -411.736065 
L -233.227054 -411.730482 
L -231.164902 -411.724715 
L -229.102749 -411.718765 
L -227.040597 -411.712629 
L -224.978445 -411.706309 
L -222.916292 -411.699803 
L -220.85414 -411.693111 
L -218.791987 -411.686233 
L -216.729835 -411.679169 
L -214.667682 -411.671918 
L -212.60553 -411.664482 
L -210.543378 -411.65686 
L -208.481225 -411.649053 
L -206.419073 -411.64106 
L -204.35692 -411.632883 
L -202.294768 -411.624522 
L -200.232615 -411.615978 
L -200.232615 -408.713522 
L -200.232615 -408.713522 
L -202.294768 -408.704978 
L -204.35692 -408.696617 
L -206.419073 -408.68844 
L -208.481225 -408.680447 
L -210.543378 -408.67264 
L -212.60553 -408.665018 
L -214.667682 -408.657582 
L -216.729835 -408.650331 
L -218.791987 -408.643267 
L -220.85414 -408.636389 
L -222.916292 -408.629697 
L -224.978445 -408.623191 
L -227.040597 -408.616871 
L -229.102749 -408.610735 
L -231.164902 -408.604785 
L -233.227054 -408.599018 
L -235.289207 -408.593435 
L -237.351359 -408.588035 
L -239.413512 -408.582817 
L -241.475664 -408.57778 
L -243.537816 -408.572923 
L -245.599969 -408.568247 
L -247.662121 -408.563749 
L -249.724274 -408.559429 
L -251.786426 -408.555285 
L -253.848579 -408.551318 
L -255.910731 -408.547525 
L -257.972883 -408.543906 
L -260.035036 -408.54046 
L -262.097188 -408.537186 
L -264.159341 -408.534083 
L -266.221493 -408.531149 
L -268.283646 -408.528384 
L -270.345798 -408.525788 
L -272.40795 -408.523358 
L -274.470103 -408.521095 
L -276.532255 -408.518997 
L -278.594408 -408.517064 
L -280.65656 -408.515294 
L -282.718713 -408.513688 
L -284.780865 -408.512244 
L -286.843017 -408.510962 
L -288.90517 -408.509842 
L -290.967322 -408.508883 
L -293.029475 -408.508084 
L -295.091627 -408.507445 
L -297.153779 -408.506966 
L -299.215932 -408.506647 
L -301.278084 -408.506487 
L -303.340237 -408.506487 
L -305.402389 -408.506647 
L -307.464542 -408.506966 
L -309.526694 -408.507445 
L -311.588846 -408.508084 
L -313.650999 -408.508883 
L -315.713151 -408.509842 
L -317.775304 -408.510962 
L -319.837456 -408.512244 
L -321.899609 -408.513688 
L -323.961761 -408.515294 
L -326.023913 -408.517064 
L -328.086066 -408.518997 
L -330.148218 -408.521095 
L -332.210371 -408.523358 
L -334.272523 -408.525788 
L -336.334676 -408.528384 
L -338.396828 -408.531149 
L -340.45898 -408.534083 
L -342.521133 -408.537186 
L -344.583285 -408.54046 
L -346.645438 -408.543906 
L -348.70759 -408.547525 
L -350.769743 -408.551318 
L -352.831895 -408.555285 
L -354.894047 -408.559429 
L -356.9562 -408.563749 
L -359.018352 -408.568247 
L -361.080505 -408.572923 
L -363.142657 -408.57778 
L -365.20481 -408.582817 
L -367.266962 -408.588035 
L -369.329114 -408.593435 
L -371.391267 -408.599018 
L -373.453419 -408.604785 
L -375.515572 -408.610735 
L -377.577724 -408.616871 
L -379.639877 -408.623191 
L -381.702029 -408.629697 
L -383.764181 -408.636389 
L -385.826334 -408.643267 
L -387.888486 -408.650331 
L -389.950639 -408.657582 
L -392.012791 -408.665018 
L -394.074944 -408.67264 
L -396.137096 -408.680447 
L -398.199248 -408.68844 
L -400.261401 -408.696617 
L -402.323553 -408.704978 
L -404.385706 -408.713522 
z
" id="m0ea8def67f" style="stroke:#424242;"/>
    </defs>
    <g clip-path="url(#p2d2c6d970c)">
     <use style="fill:#be631d;stroke:#424242;" x="0" xlink:href="#m0ea8def67f" y="487.17"/>
    </g>
   </g>
   <g id="PolyCollection_3">
    <defs>
     <path d="M -404.397156 -326.119965 
L -404.397156 -366.520535 
L -403.844747 -366.654287 
L -403.292339 -366.779368 
L -402.739931 -366.89569 
L -402.187522 -367.003183 
L -401.635114 -367.101792 
L -401.082706 -367.191481 
L -400.530297 -367.272228 
L -399.977889 -367.344031 
L -399.425481 -367.406905 
L -398.873072 -367.460881 
L -398.320664 -367.506007 
L -397.768256 -367.542349 
L -397.215847 -367.569988 
L -396.663439 -367.589023 
L -396.111031 -367.599567 
L -395.558622 -367.60175 
L -395.006214 -367.595717 
L -394.453806 -367.581627 
L -393.901397 -367.559654 
L -393.348989 -367.529984 
L -392.79658 -367.492818 
L -392.244172 -367.448366 
L -391.691764 -367.396853 
L -391.139355 -367.338513 
L -390.586947 -367.273589 
L -390.034539 -367.202334 
L -389.48213 -367.12501 
L -388.929722 -367.041887 
L -388.377314 -366.953238 
L -387.824905 -366.859345 
L -387.272497 -366.760493 
L -386.720089 -366.656972 
L -386.16768 -366.549074 
L -385.615272 -366.437092 
L -385.062864 -366.321322 
L -384.510455 -366.202058 
L -383.958047 -366.079595 
L -383.405639 -365.954224 
L -382.85323 -365.826234 
L -382.300822 -365.695912 
L -381.748414 -365.563537 
L -381.196005 -365.429387 
L -380.643597 -365.293729 
L -380.091189 -365.156827 
L -379.53878 -365.018936 
L -378.986372 -364.880302 
L -378.433964 -364.741161 
L -377.881555 -364.601742 
L -377.329147 -364.462262 
L -376.776739 -364.322926 
L -376.22433 -364.183931 
L -375.671922 -364.045458 
L -375.119514 -363.907679 
L -374.567105 -363.770753 
L -374.014697 -363.634824 
L -373.462288 -363.500025 
L -372.90988 -363.366476 
L -372.357472 -363.234283 
L -371.805063 -363.103537 
L -371.252655 -362.974317 
L -370.700247 -362.84669 
L -370.147838 -362.720707 
L -369.59543 -362.596407 
L -369.043022 -362.473816 
L -368.490613 -362.352948 
L -367.938205 -362.233802 
L -367.385797 -362.116368 
L -366.833388 -362.000621 
L -366.28098 -361.886528 
L -365.728572 -361.774042 
L -365.176163 -361.663108 
L -364.623755 -361.553659 
L -364.071347 -361.44562 
L -363.518938 -361.338907 
L -362.96653 -361.233429 
L -362.414122 -361.129084 
L -361.861713 -361.025768 
L -361.309305 -360.923366 
L -360.756897 -360.821762 
L -360.204488 -360.720831 
L -359.65208 -360.620448 
L -359.099672 -360.520481 
L -358.547263 -360.420798 
L -357.994855 -360.321264 
L -357.442447 -360.221744 
L -356.890038 -360.122099 
L -356.33763 -360.022195 
L -355.785222 -359.921896 
L -355.232813 -359.821067 
L -354.680405 -359.719577 
L -354.127996 -359.617297 
L -353.575588 -359.514102 
L -353.02318 -359.40987 
L -352.470771 -359.304484 
L -351.918363 -359.197831 
L -351.365955 -359.089806 
L -350.813546 -358.980308 
L -350.261138 -358.869244 
L -349.70873 -358.756524 
L -349.70873 -333.883976 
L -349.70873 -333.883976 
L -350.261138 -333.771256 
L -350.813546 -333.660192 
L -351.365955 -333.550694 
L -351.918363 -333.442669 
L -352.470771 -333.336016 
L -353.02318 -333.23063 
L -353.575588 -333.126398 
L -354.127996 -333.023203 
L -354.680405 -332.920923 
L -355.232813 -332.819433 
L -355.785222 -332.718604 
L -356.33763 -332.618305 
L -356.890038 -332.518401 
L -357.442447 -332.418756 
L -357.994855 -332.319236 
L -358.547263 -332.219702 
L -359.099672 -332.120019 
L -359.65208 -332.020052 
L -360.204488 -331.919669 
L -360.756897 -331.818738 
L -361.309305 -331.717134 
L -361.861713 -331.614732 
L -362.414122 -331.511416 
L -362.96653 -331.407071 
L -363.518938 -331.301593 
L -364.071347 -331.19488 
L -364.623755 -331.086841 
L -365.176163 -330.977392 
L -365.728572 -330.866458 
L -366.28098 -330.753972 
L -366.833388 -330.639879 
L -367.385797 -330.524132 
L -367.938205 -330.406698 
L -368.490613 -330.287552 
L -369.043022 -330.166684 
L -369.59543 -330.044093 
L -370.147838 -329.919793 
L -370.700247 -329.79381 
L -371.252655 -329.666183 
L -371.805063 -329.536963 
L -372.357472 -329.406217 
L -372.90988 -329.274024 
L -373.462288 -329.140475 
L -374.014697 -329.005676 
L -374.567105 -328.869747 
L -375.119514 -328.732821 
L -375.671922 -328.595042 
L -376.22433 -328.456569 
L -376.776739 -328.317574 
L -377.329147 -328.178238 
L -377.881555 -328.038758 
L -378.433964 -327.899339 
L -378.986372 -327.760198 
L -379.53878 -327.621564 
L -380.091189 -327.483673 
L -380.643597 -327.346771 
L -381.196005 -327.211113 
L -381.748414 -327.076963 
L -382.300822 -326.944588 
L -382.85323 -326.814266 
L -383.405639 -326.686276 
L -383.958047 -326.560905 
L -384.510455 -326.438442 
L -385.062864 -326.319178 
L -385.615272 -326.203408 
L -386.16768 -326.091426 
L -386.720089 -325.983528 
L -387.272497 -325.880007 
L -387.824905 -325.781155 
L -388.377314 -325.687262 
L -388.929722 -325.598613 
L -389.48213 -325.51549 
L -390.034539 -325.438166 
L -390.586947 -325.366911 
L -391.139355 -325.301987 
L -391.691764 -325.243647 
L -392.244172 -325.192134 
L -392.79658 -325.147682 
L -393.348989 -325.110516 
L -393.901397 -325.080846 
L -394.453806 -325.058873 
L -395.006214 -325.044783 
L -395.558622 -325.03875 
L -396.111031 -325.040933 
L -396.663439 -325.051477 
L -397.215847 -325.070512 
L -397.768256 -325.098151 
L -398.320664 -325.134493 
L -398.873072 -325.179619 
L -399.425481 -325.233595 
L -399.977889 -325.296469 
L -400.530297 -325.368272 
L -401.082706 -325.449019 
L -401.635114 -325.538708 
L -402.187522 -325.637317 
L -402.739931 -325.74481 
L -403.292339 -325.861132 
L -403.844747 -325.986213 
L -404.397156 -326.119965 
z
" id="me67316d9be" style="stroke:#424242;"/>
    </defs>
    <g clip-path="url(#p2d2c6d970c)">
     <use style="fill:#7c78ab;stroke:#424242;" x="0" xlink:href="#me67316d9be" y="487.17"/>
    </g>
   </g>
   <g id="PolyCollection_4">
    <defs>
     <path d="M -371.843976 -292.018938 
L -371.843976 -315.495562 
L -371.215024 -315.614213 
L -370.586072 -315.731212 
L -369.957121 -315.846616 
L -369.328169 -315.96049 
L -368.699217 -316.072904 
L -368.070265 -316.183934 
L -367.441314 -316.293658 
L -366.812362 -316.402161 
L -366.18341 -316.509532 
L -365.554458 -316.61586 
L -364.925507 -316.72124 
L -364.296555 -316.825767 
L -363.667603 -316.92954 
L -363.038652 -317.032656 
L -362.4097 -317.135214 
L -361.780748 -317.237314 
L -361.151796 -317.339052 
L -360.522845 -317.440525 
L -359.893893 -317.541827 
L -359.264941 -317.64305 
L -358.635989 -317.744282 
L -358.007038 -317.845607 
L -357.378086 -317.947104 
L -356.749134 -318.048848 
L -356.120182 -318.150908 
L -355.491231 -318.253345 
L -354.862279 -318.356215 
L -354.233327 -318.459566 
L -353.604376 -318.563439 
L -352.975424 -318.667864 
L -352.346472 -318.772866 
L -351.71752 -318.878458 
L -351.088569 -318.984644 
L -350.459617 -319.09142 
L -349.830665 -319.198769 
L -349.201713 -319.306666 
L -348.572762 -319.415074 
L -347.94381 -319.523947 
L -347.314858 -319.633226 
L -346.685906 -319.742844 
L -346.056955 -319.852719 
L -345.428003 -319.962763 
L -344.799051 -320.072873 
L -344.1701 -320.182939 
L -343.541148 -320.292839 
L -342.912196 -320.402439 
L -342.283244 -320.511599 
L -341.654293 -320.620165 
L -341.025341 -320.727979 
L -340.396389 -320.834868 
L -339.767437 -320.940657 
L -339.138486 -321.045158 
L -338.509534 -321.148179 
L -337.880582 -321.24952 
L -337.25163 -321.348973 
L -336.622679 -321.446329 
L -335.993727 -321.54137 
L -335.364775 -321.633875 
L -334.735824 -321.723621 
L -334.106872 -321.81038 
L -333.47792 -321.893924 
L -332.848968 -321.974022 
L -332.220017 -322.050444 
L -331.591065 -322.12296 
L -330.962113 -322.19134 
L -330.333161 -322.255357 
L -329.70421 -322.314787 
L -329.075258 -322.369408 
L -328.446306 -322.419004 
L -327.817354 -322.463364 
L -327.188403 -322.50228 
L -326.559451 -322.535554 
L -325.930499 -322.562993 
L -325.301548 -322.584414 
L -324.672596 -322.599639 
L -324.043644 -322.608503 
L -323.414692 -322.610849 
L -322.785741 -322.606531 
L -322.156789 -322.595414 
L -321.527837 -322.577372 
L -320.898885 -322.552295 
L -320.269934 -322.520083 
L -319.640982 -322.480649 
L -319.01203 -322.43392 
L -318.383078 -322.379833 
L -317.754127 -322.318344 
L -317.125175 -322.249418 
L -316.496223 -322.173037 
L -315.867272 -322.089196 
L -315.23832 -321.997903 
L -314.609368 -321.899183 
L -313.980416 -321.793073 
L -313.351465 -321.679625 
L -312.722513 -321.558904 
L -312.093561 -321.430989 
L -311.464609 -321.295973 
L -310.835658 -321.153964 
L -310.206706 -321.00508 
L -309.577754 -320.849453 
L -309.577754 -286.665047 
L -309.577754 -286.665047 
L -310.206706 -286.50942 
L -310.835658 -286.360536 
L -311.464609 -286.218527 
L -312.093561 -286.083511 
L -312.722513 -285.955596 
L -313.351465 -285.834875 
L -313.980416 -285.721427 
L -314.609368 -285.615317 
L -315.23832 -285.516597 
L -315.867272 -285.425304 
L -316.496223 -285.341463 
L -317.125175 -285.265082 
L -317.754127 -285.196156 
L -318.383078 -285.134667 
L -319.01203 -285.08058 
L -319.640982 -285.033851 
L -320.269934 -284.994417 
L -320.898885 -284.962205 
L -321.527837 -284.937128 
L -322.156789 -284.919086 
L -322.785741 -284.907969 
L -323.414692 -284.903651 
L -324.043644 -284.905997 
L -324.672596 -284.914861 
L -325.301548 -284.930086 
L -325.930499 -284.951507 
L -326.559451 -284.978946 
L -327.188403 -285.01222 
L -327.817354 -285.051136 
L -328.446306 -285.095496 
L -329.075258 -285.145092 
L -329.70421 -285.199713 
L -330.333161 -285.259143 
L -330.962113 -285.32316 
L -331.591065 -285.39154 
L -332.220017 -285.464056 
L -332.848968 -285.540478 
L -333.47792 -285.620576 
L -334.106872 -285.70412 
L -334.735824 -285.790879 
L -335.364775 -285.880625 
L -335.993727 -285.97313 
L -336.622679 -286.068171 
L -337.25163 -286.165527 
L -337.880582 -286.26498 
L -338.509534 -286.366321 
L -339.138486 -286.469342 
L -339.767437 -286.573843 
L -340.396389 -286.679632 
L -341.025341 -286.786521 
L -341.654293 -286.894335 
L -342.283244 -287.002901 
L -342.912196 -287.112061 
L -343.541148 -287.221661 
L -344.1701 -287.331561 
L -344.799051 -287.441627 
L -345.428003 -287.551737 
L -346.056955 -287.661781 
L -346.685906 -287.771656 
L -347.314858 -287.881274 
L -347.94381 -287.990553 
L -348.572762 -288.099426 
L -349.201713 -288.207834 
L -349.830665 -288.315731 
L -350.459617 -288.42308 
L -351.088569 -288.529856 
L -351.71752 -288.636042 
L -352.346472 -288.741634 
L -352.975424 -288.846636 
L -353.604376 -288.951061 
L -354.233327 -289.054934 
L -354.862279 -289.158285 
L -355.491231 -289.261155 
L -356.120182 -289.363592 
L -356.749134 -289.465652 
L -357.378086 -289.567396 
L -358.007038 -289.668893 
L -358.635989 -289.770218 
L -359.264941 -289.87145 
L -359.893893 -289.972673 
L -360.522845 -290.073975 
L -361.151796 -290.175448 
L -361.780748 -290.277186 
L -362.4097 -290.379286 
L -363.038652 -290.481844 
L -363.667603 -290.58496 
L -364.296555 -290.688733 
L -364.925507 -290.79326 
L -365.554458 -290.89864 
L -366.18341 -291.004968 
L -366.812362 -291.112339 
L -367.441314 -291.220842 
L -368.070265 -291.330566 
L -368.699217 -291.441596 
L -369.328169 -291.55401 
L -369.957121 -291.667884 
L -370.586072 -291.783288 
L -371.215024 -291.900287 
L -371.843976 -292.018938 
z
" id="m11a7f9f9b5" style="stroke:#424242;"/>
    </defs>
    <g clip-path="url(#p2d2c6d970c)">
     <use style="fill:#be631d;stroke:#424242;" x="0" xlink:href="#m11a7f9f9b5" y="487.17"/>
    </g>
   </g>
   <g id="patch_3">
    <path clip-path="url(#p2d2c6d970c)" d="M -418.134667 55.72375 
L -418.134667 55.72375 
L -418.134667 55.72375 
L -418.134667 55.72375 
z
" style="fill:#7c78ab;stroke:#424242;stroke-linejoin:miter;stroke-width:0.5;"/>
   </g>
   <g id="patch_4">
    <path clip-path="url(#p2d2c6d970c)" d="M -418.134667 55.72375 
L -418.134667 55.72375 
L -418.134667 55.72375 
L -418.134667 55.72375 
z
" style="fill:#be631d;stroke:#424242;stroke-linejoin:miter;stroke-width:0.5;"/>
   </g>
   <g id="matplotlib.axis_1">
    <g id="xtick_1">
     <g id="line2d_1">
      <defs>
       <path d="M 0 0 
L 0 3.5 
" id="mdd9d6d2c82" style="stroke:#000000;stroke-width:1.6;"/>
      </defs>
      <g/>
     </g>
     <g id="text_1">
      <!-- 0.0 -->
      <defs>
       <path d="M 31.78125 66.40625 
Q 24.171875 66.40625 20.328125 58.90625 
Q 16.5 51.421875 16.5 36.375 
Q 16.5 21.390625 20.328125 13.890625 
Q 24.171875 6.390625 31.78125 6.390625 
Q 39.453125 6.390625 43.28125 13.890625 
Q 47.125 21.390625 47.125 36.375 
Q 47.125 51.421875 43.28125 58.90625 
Q 39.453125 66.40625 31.78125 66.40625 
z
M 31.78125 74.21875 
Q 44.046875 74.21875 50.515625 64.515625 
Q 56.984375 54.828125 56.984375 36.375 
Q 56.984375 17.96875 50.515625 8.265625 
Q 44.046875 -1.421875 31.78125 -1.421875 
Q 19.53125 -1.421875 13.0625 8.265625 
Q 6.59375 17.96875 6.59375 36.375 
Q 6.59375 54.828125 13.0625 64.515625 
Q 19.53125 74.21875 31.78125 74.21875 
z
" id="DejaVuSans-48"/>
       <path d="M 10.6875 12.40625 
L 21 12.40625 
L 21 0 
L 10.6875 0 
z
" id="DejaVuSans-46"/>
      </defs>
      <g transform="translate(-434.037792 458.046875)scale(0.2 -0.2)">
       <use xlink:href="#DejaVuSans-48"/>
       <use x="63.623047" xlink:href="#DejaVuSans-46"/>
       <use x="95.410156" xlink:href="#DejaVuSans-48"/>
      </g>
     </g>
    </g>
    <g id="xtick_2">
     <g id="line2d_2">
      <g/>
     </g>
     <g id="text_2">
      <!-- 0.2 -->
      <defs>
       <path d="M 19.1875 8.296875 
L 53.609375 8.296875 
L 53.609375 0 
L 7.328125 0 
L 7.328125 8.296875 
Q 12.9375 14.109375 22.625 23.890625 
Q 32.328125 33.6875 34.8125 36.53125 
Q 39.546875 41.84375 41.421875 45.53125 
Q 43.3125 49.21875 43.3125 52.78125 
Q 43.3125 58.59375 39.234375 62.25 
Q 35.15625 65.921875 28.609375 65.921875 
Q 23.96875 65.921875 18.8125 64.3125 
Q 13.671875 62.703125 7.8125 59.421875 
L 7.8125 69.390625 
Q 13.765625 71.78125 18.9375 73 
Q 24.125 74.21875 28.421875 74.21875 
Q 39.75 74.21875 46.484375 68.546875 
Q 53.21875 62.890625 53.21875 53.421875 
Q 53.21875 48.921875 51.53125 44.890625 
Q 49.859375 40.875 45.40625 35.40625 
Q 44.1875 33.984375 37.640625 27.21875 
Q 31.109375 20.453125 19.1875 8.296875 
z
" id="DejaVuSans-50"/>
      </defs>
      <g transform="translate(-320.536458 458.046875)scale(0.2 -0.2)">
       <use xlink:href="#DejaVuSans-48"/>
       <use x="63.623047" xlink:href="#DejaVuSans-46"/>
       <use x="95.410156" xlink:href="#DejaVuSans-50"/>
      </g>
     </g>
    </g>
    <g id="xtick_3">
     <g id="line2d_3">
      <g/>
     </g>
     <g id="text_3">
      <!-- 0.4 -->
      <defs>
       <path d="M 37.796875 64.3125 
L 12.890625 25.390625 
L 37.796875 25.390625 
z
M 35.203125 72.90625 
L 47.609375 72.90625 
L 47.609375 25.390625 
L 58.015625 25.390625 
L 58.015625 17.1875 
L 47.609375 17.1875 
L 47.609375 0 
L 37.796875 0 
L 37.796875 17.1875 
L 4.890625 17.1875 
L 4.890625 26.703125 
z
" id="DejaVuSans-52"/>
      </defs>
      <g transform="translate(-207.035125 458.046875)scale(0.2 -0.2)">
       <use xlink:href="#DejaVuSans-48"/>
       <use x="63.623047" xlink:href="#DejaVuSans-46"/>
       <use x="95.410156" xlink:href="#DejaVuSans-52"/>
      </g>
     </g>
    </g>
    <g id="xtick_4">
     <g id="line2d_4">
      <g/>
     </g>
     <g id="text_4">
      <!-- 0.6 -->
      <defs>
       <path d="M 33.015625 40.375 
Q 26.375 40.375 22.484375 35.828125 
Q 18.609375 31.296875 18.609375 23.390625 
Q 18.609375 15.53125 22.484375 10.953125 
Q 26.375 6.390625 33.015625 6.390625 
Q 39.65625 6.390625 43.53125 10.953125 
Q 47.40625 15.53125 47.40625 23.390625 
Q 47.40625 31.296875 43.53125 35.828125 
Q 39.65625 40.375 33.015625 40.375 
z
M 52.59375 71.296875 
L 52.59375 62.3125 
Q 48.875 64.0625 45.09375 64.984375 
Q 41.3125 65.921875 37.59375 65.921875 
Q 27.828125 65.921875 22.671875 59.328125 
Q 17.53125 52.734375 16.796875 39.40625 
Q 19.671875 43.65625 24.015625 45.921875 
Q 28.375 48.1875 33.59375 48.1875 
Q 44.578125 48.1875 50.953125 41.515625 
Q 57.328125 34.859375 57.328125 23.390625 
Q 57.328125 12.15625 50.6875 5.359375 
Q 44.046875 -1.421875 33.015625 -1.421875 
Q 20.359375 -1.421875 13.671875 8.265625 
Q 6.984375 17.96875 6.984375 36.375 
Q 6.984375 53.65625 15.1875 63.9375 
Q 23.390625 74.21875 37.203125 74.21875 
Q 40.921875 74.21875 44.703125 73.484375 
Q 48.484375 72.75 52.59375 71.296875 
z
" id="DejaVuSans-54"/>
      </defs>
      <g transform="translate(-93.533792 458.046875)scale(0.2 -0.2)">
       <use xlink:href="#DejaVuSans-48"/>
       <use x="63.623047" xlink:href="#DejaVuSans-46"/>
       <use x="95.410156" xlink:href="#DejaVuSans-54"/>
      </g>
     </g>
    </g>
    <g id="text_5">
     <!--   -->
     <defs>
      <path id="DejaVuSans-32"/>
     </defs>
     <g transform="translate(-236.873125 481.403125)scale(0.2 -0.2)">
      <use xlink:href="#DejaVuSans-32"/>
     </g>
    </g>
   </g>
   <g id="matplotlib.axis_2">
    <g id="ytick_1">
     <g id="line2d_5">
      <defs>
       <path d="M 0 0 
L -3.5 0 
" id="m7212f6295d" style="stroke:#000000;stroke-width:1.6;"/>
      </defs>
      <g/>
     </g>
     <g id="text_6">
      <!-- [0.00, -->
      <defs>
       <path d="M 8.59375 75.984375 
L 29.296875 75.984375 
L 29.296875 69 
L 17.578125 69 
L 17.578125 -6.203125 
L 29.296875 -6.203125 
L 29.296875 -13.1875 
L 8.59375 -13.1875 
z
" id="DejaVuSans-91"/>
       <path d="M 11.71875 12.40625 
L 22.015625 12.40625 
L 22.015625 4 
L 14.015625 -11.625 
L 7.71875 -11.625 
L 11.71875 4 
z
" id="DejaVuSans-44"/>
      </defs>
      <g transform="translate(-519.900625 52.124375)scale(0.2 -0.2)">
       <use xlink:href="#DejaVuSans-91"/>
       <use x="39.013672" xlink:href="#DejaVuSans-48"/>
       <use x="102.636719" xlink:href="#DejaVuSans-46"/>
       <use x="134.423828" xlink:href="#DejaVuSans-48"/>
       <use x="198.046875" xlink:href="#DejaVuSans-48"/>
       <use x="261.669922" xlink:href="#DejaVuSans-44"/>
      </g>
      <!-- 0.25) -->
      <defs>
       <path d="M 10.796875 72.90625 
L 49.515625 72.90625 
L 49.515625 64.59375 
L 19.828125 64.59375 
L 19.828125 46.734375 
Q 21.96875 47.46875 24.109375 47.828125 
Q 26.265625 48.1875 28.421875 48.1875 
Q 40.625 48.1875 47.75 41.5 
Q 54.890625 34.8125 54.890625 23.390625 
Q 54.890625 11.625 47.5625 5.09375 
Q 40.234375 -1.421875 26.90625 -1.421875 
Q 22.3125 -1.421875 17.546875 -0.640625 
Q 12.796875 0.140625 7.71875 1.703125 
L 7.71875 11.625 
Q 12.109375 9.234375 16.796875 8.0625 
Q 21.484375 6.890625 26.703125 6.890625 
Q 35.15625 6.890625 40.078125 11.328125 
Q 45.015625 15.765625 45.015625 23.390625 
Q 45.015625 31 40.078125 35.4375 
Q 35.15625 39.890625 26.703125 39.890625 
Q 22.75 39.890625 18.8125 39.015625 
Q 14.890625 38.140625 10.796875 36.28125 
z
" id="DejaVuSans-53"/>
       <path d="M 8.015625 75.875 
L 15.828125 75.875 
Q 23.140625 64.359375 26.78125 53.3125 
Q 30.421875 42.28125 30.421875 31.390625 
Q 30.421875 20.453125 26.78125 9.375 
Q 23.140625 -1.703125 15.828125 -13.1875 
L 8.015625 -13.1875 
Q 14.5 -2 17.703125 9.0625 
Q 20.90625 20.125 20.90625 31.390625 
Q 20.90625 42.671875 17.703125 53.65625 
Q 14.5 64.65625 8.015625 75.875 
z
" id="DejaVuSans-41"/>
      </defs>
      <g transform="translate(-513.544375 74.52)scale(0.2 -0.2)">
       <use xlink:href="#DejaVuSans-48"/>
       <use x="63.623047" xlink:href="#DejaVuSans-46"/>
       <use x="95.410156" xlink:href="#DejaVuSans-50"/>
       <use x="159.033203" xlink:href="#DejaVuSans-53"/>
       <use x="222.65625" xlink:href="#DejaVuSans-41"/>
      </g>
     </g>
    </g>
    <g id="ytick_2">
     <g id="line2d_6">
      <g/>
     </g>
     <g id="text_7">
      <!-- [0.25, -->
      <g transform="translate(-519.900625 158.531875)scale(0.2 -0.2)">
       <use xlink:href="#DejaVuSans-91"/>
       <use x="39.013672" xlink:href="#DejaVuSans-48"/>
       <use x="102.636719" xlink:href="#DejaVuSans-46"/>
       <use x="134.423828" xlink:href="#DejaVuSans-50"/>
       <use x="198.046875" xlink:href="#DejaVuSans-53"/>
       <use x="261.669922" xlink:href="#DejaVuSans-44"/>
      </g>
      <!-- 0.50) -->
      <g transform="translate(-513.544375 180.9275)scale(0.2 -0.2)">
       <use xlink:href="#DejaVuSans-48"/>
       <use x="63.623047" xlink:href="#DejaVuSans-46"/>
       <use x="95.410156" xlink:href="#DejaVuSans-53"/>
       <use x="159.033203" xlink:href="#DejaVuSans-48"/>
       <use x="222.65625" xlink:href="#DejaVuSans-41"/>
      </g>
     </g>
    </g>
    <g id="ytick_3">
     <g id="line2d_7">
      <g/>
     </g>
     <g id="text_8">
      <!-- [0.50, -->
      <g transform="translate(-519.900625 264.939375)scale(0.2 -0.2)">
       <use xlink:href="#DejaVuSans-91"/>
       <use x="39.013672" xlink:href="#DejaVuSans-48"/>
       <use x="102.636719" xlink:href="#DejaVuSans-46"/>
       <use x="134.423828" xlink:href="#DejaVuSans-53"/>
       <use x="198.046875" xlink:href="#DejaVuSans-48"/>
       <use x="261.669922" xlink:href="#DejaVuSans-44"/>
      </g>
      <!-- 0.75) -->
      <defs>
       <path d="M 8.203125 72.90625 
L 55.078125 72.90625 
L 55.078125 68.703125 
L 28.609375 0 
L 18.3125 0 
L 43.21875 64.59375 
L 8.203125 64.59375 
z
" id="DejaVuSans-55"/>
      </defs>
      <g transform="translate(-513.544375 287.335)scale(0.2 -0.2)">
       <use xlink:href="#DejaVuSans-48"/>
       <use x="63.623047" xlink:href="#DejaVuSans-46"/>
       <use x="95.410156" xlink:href="#DejaVuSans-55"/>
       <use x="159.033203" xlink:href="#DejaVuSans-53"/>
       <use x="222.65625" xlink:href="#DejaVuSans-41"/>
      </g>
     </g>
    </g>
    <g id="ytick_4">
     <g id="line2d_8">
      <g/>
     </g>
     <g id="text_9">
      <!-- [0.75, -->
      <g transform="translate(-519.900625 371.346875)scale(0.2 -0.2)">
       <use xlink:href="#DejaVuSans-91"/>
       <use x="39.013672" xlink:href="#DejaVuSans-48"/>
       <use x="102.636719" xlink:href="#DejaVuSans-46"/>
       <use x="134.423828" xlink:href="#DejaVuSans-55"/>
       <use x="198.046875" xlink:href="#DejaVuSans-53"/>
       <use x="261.669922" xlink:href="#DejaVuSans-44"/>
      </g>
      <!-- 1.00) -->
      <defs>
       <path d="M 12.40625 8.296875 
L 28.515625 8.296875 
L 28.515625 63.921875 
L 10.984375 60.40625 
L 10.984375 69.390625 
L 28.421875 72.90625 
L 38.28125 72.90625 
L 38.28125 8.296875 
L 54.390625 8.296875 
L 54.390625 0 
L 12.40625 0 
z
" id="DejaVuSans-49"/>
      </defs>
      <g transform="translate(-513.544375 393.7425)scale(0.2 -0.2)">
       <use xlink:href="#DejaVuSans-49"/>
       <use x="63.623047" xlink:href="#DejaVuSans-46"/>
       <use x="95.410156" xlink:href="#DejaVuSans-48"/>
       <use x="159.033203" xlink:href="#DejaVuSans-48"/>
       <use x="222.65625" xlink:href="#DejaVuSans-41"/>
      </g>
     </g>
    </g>
    <g id="text_10">
     <!--   -->
     <g transform="translate(-528.06 218.513125)rotate(-90)scale(0.2 -0.2)">
      <use xlink:href="#DejaVuSans-32"/>
     </g>
    </g>
   </g>
   <g id="line2d_9">
    <path clip-path="url(#p2d2c6d970c)" style="fill:none;stroke:#424242;stroke-dasharray:1.5,1.5;stroke-dashoffset:0;"/>
   </g>
   <g id="line2d_10">
    <path clip-path="url(#p2d2c6d970c)" style="fill:none;stroke:#424242;stroke-dasharray:3,3;stroke-dashoffset:0;"/>
   </g>
   <g id="line2d_11">
    <path clip-path="url(#p2d2c6d970c)" style="fill:none;stroke:#424242;stroke-dasharray:1.5,1.5;stroke-dashoffset:0;"/>
   </g>
   <g id="line2d_12">
    <path clip-path="url(#p2d2c6d970c)" style="fill:none;stroke:#424242;stroke-dasharray:1.5,1.5;stroke-dashoffset:0;"/>
   </g>
   <g id="line2d_13">
    <path clip-path="url(#p2d2c6d970c)" style="fill:none;stroke:#424242;stroke-dasharray:3,3;stroke-dashoffset:0;"/>
   </g>
   <g id="line2d_14">
    <path clip-path="url(#p2d2c6d970c)" style="fill:none;stroke:#424242;stroke-dasharray:1.5,1.5;stroke-dashoffset:0;"/>
   </g>
   <g id="line2d_15">
    <path clip-path="url(#p2d2c6d970c)" style="fill:none;stroke:#424242;stroke-dasharray:1.5,1.5;stroke-dashoffset:0;"/>
   </g>
   <g id="line2d_16">
    <path clip-path="url(#p2d2c6d970c)" style="fill:none;stroke:#424242;stroke-dasharray:3,3;stroke-dashoffset:0;"/>
   </g>
   <g id="line2d_17">
    <path clip-path="url(#p2d2c6d970c)" style="fill:none;stroke:#424242;stroke-dasharray:1.5,1.5;stroke-dashoffset:0;"/>
   </g>
   <g id="line2d_18">
    <path clip-path="url(#p2d2c6d970c)" style="fill:none;stroke:#424242;stroke-dasharray:1.5,1.5;stroke-dashoffset:0;"/>
   </g>
   <g id="line2d_19">
    <path clip-path="url(#p2d2c6d970c)" style="fill:none;stroke:#424242;stroke-dasharray:3,3;stroke-dashoffset:0;"/>
   </g>
   <g id="line2d_20">
    <path clip-path="url(#p2d2c6d970c)" style="fill:none;stroke:#424242;stroke-dasharray:1.5,1.5;stroke-dashoffset:0;"/>
   </g>
   <g id="patch_5">
    <path style="fill:none;stroke:#000000;stroke-linecap:square;stroke-linejoin:miter;stroke-width:0.8;"/>
   </g>
   <g id="patch_6">
    <path style="fill:none;stroke:#000000;stroke-linecap:square;stroke-linejoin:miter;stroke-width:0.8;"/>
   </g>
  </g>
  <g id="axes_2">
   <g id="patch_7">
    <path d="M 70.81 428.15 
L 496.44 428.15 
L 496.44 2.52 
L 70.81 2.52 
z
" style="fill:#ffffff;"/>
   </g>
   <g id="PathCollection_1">
    <path clip-path="url(#pda2bfc1530)" d="M 145.193043 334.493708 
L 145.983612 333.703139 
L 146.774182 334.493708 
L 147.564751 333.703139 
L 146.774182 332.91257 
L 147.564751 332.122 
L 146.774182 331.331431 
L 145.983612 332.122 
L 145.193043 331.331431 
L 144.402473 332.122 
L 145.193043 332.91257 
L 144.402473 333.703139 
z
" style="fill:#d95f02;fill-opacity:0.7;"/>
    <path clip-path="url(#pda2bfc1530)" d="M 122.912207 391.738808 
C 123.33153 391.738808 123.733735 391.572209 124.030241 391.275703 
C 124.326747 390.979197 124.493346 390.576992 124.493346 390.157669 
C 124.493346 389.738346 124.326747 389.336141 124.030241 389.039635 
C 123.733735 388.743129 123.33153 388.57653 122.912207 388.57653 
C 122.492884 388.57653 122.090679 388.743129 121.794173 389.039635 
C 121.497667 389.336141 121.331068 389.738346 121.331068 390.157669 
C 121.331068 390.576992 121.497667 390.979197 121.794173 391.275703 
C 122.090679 391.572209 122.492884 391.738808 122.912207 391.738808 
z
" style="fill:#7570b3;fill-opacity:0.7;"/>
    <path clip-path="url(#pda2bfc1530)" d="M 110.461456 313.873804 
C 110.880779 313.873804 111.282984 313.707206 111.57949 313.4107 
C 111.875996 313.114194 112.042595 312.711989 112.042595 312.292666 
C 112.042595 311.873343 111.875996 311.471138 111.57949 311.174632 
C 111.282984 310.878126 110.880779 310.711527 110.461456 310.711527 
C 110.042133 310.711527 109.639928 310.878126 109.343422 311.174632 
C 109.046916 311.471138 108.880317 311.873343 108.880317 312.292666 
C 108.880317 312.711989 109.046916 313.114194 109.343422 313.4107 
C 109.639928 313.707206 110.042133 313.873804 110.461456 313.873804 
z
" style="fill:#7570b3;fill-opacity:0.7;"/>
    <path clip-path="url(#pda2bfc1530)" d="M 105.412722 388.032904 
C 105.832045 388.032904 106.23425 387.866306 106.530756 387.569799 
C 106.827262 387.273293 106.993861 386.871088 106.993861 386.451765 
C 106.993861 386.032443 106.827262 385.630238 106.530756 385.333731 
C 106.23425 385.037225 105.832045 384.870627 105.412722 384.870627 
C 104.993399 384.870627 104.591194 385.037225 104.294688 385.333731 
C 103.998182 385.630238 103.831583 386.032443 103.831583 386.451765 
C 103.831583 386.871088 103.998182 387.273293 104.294688 387.569799 
C 104.591194 387.866306 104.993399 388.032904 105.412722 388.032904 
z
" style="fill:#7570b3;fill-opacity:0.7;"/>
    <path clip-path="url(#pda2bfc1530)" d="M 189.417381 356.912642 
L 190.207951 356.122073 
L 190.99852 356.912642 
L 191.78909 356.122073 
L 190.99852 355.331503 
L 191.78909 354.540934 
L 190.99852 353.750365 
L 190.207951 354.540934 
L 189.417381 353.750365 
L 188.626812 354.540934 
L 189.417381 355.331503 
L 188.626812 356.122073 
z
" style="fill:#d95f02;fill-opacity:0.7;"/>
    <path clip-path="url(#pda2bfc1530)" d="M 113.575451 345.357343 
C 113.994774 345.357343 114.396979 345.190744 114.693485 344.894238 
C 114.989991 344.597732 115.15659 344.195527 115.15659 343.776204 
C 115.15659 343.356881 114.989991 342.954676 114.693485 342.65817 
C 114.396979 342.361664 113.994774 342.195065 113.575451 342.195065 
C 113.156128 342.195065 112.753923 342.361664 112.457417 342.65817 
C 112.160911 342.954676 111.994312 343.356881 111.994312 343.776204 
C 111.994312 344.195527 112.160911 344.597732 112.457417 344.894238 
C 112.753923 345.190744 113.156128 345.357343 113.575451 345.357343 
z
" style="fill:#7570b3;fill-opacity:0.7;"/>
    <path clip-path="url(#pda2bfc1530)" d="M 167.150655 336.997052 
C 167.569978 336.997052 167.972183 336.830453 168.268689 336.533947 
C 168.565195 336.237441 168.731794 335.835236 168.731794 335.415913 
C 168.731794 334.99659 168.565195 334.594385 168.268689 334.297879 
C 167.972183 334.001373 167.569978 333.834774 167.150655 333.834774 
C 166.731332 333.834774 166.329127 334.001373 166.032621 334.297879 
C 165.736115 334.594385 165.569516 334.99659 165.569516 335.415913 
C 165.569516 335.835236 165.736115 336.237441 166.032621 336.533947 
C 166.329127 336.830453 166.731332 336.997052 167.150655 336.997052 
z
" style="fill:#7570b3;fill-opacity:0.7;"/>
    <path clip-path="url(#pda2bfc1530)" d="M 113.757252 352.741307 
C 114.176575 352.741307 114.57878 352.574708 114.875286 352.278202 
C 115.171792 351.981696 115.33839 351.579491 115.33839 351.160168 
C 115.33839 350.740845 115.171792 350.33864 114.875286 350.042134 
C 114.57878 349.745628 114.176575 349.57903 113.757252 349.57903 
C 113.337929 349.57903 112.935724 349.745628 112.639218 350.042134 
C 112.342712 350.33864 112.176113 350.740845 112.176113 351.160168 
C 112.176113 351.579491 112.342712 351.981696 112.639218 352.278202 
C 112.935724 352.574708 113.337929 352.741307 113.757252 352.741307 
z
" style="fill:#7570b3;fill-opacity:0.7;"/>
    <path clip-path="url(#pda2bfc1530)" d="M 120.25228 377.938351 
C 120.671603 377.938351 121.073808 377.771752 121.370314 377.475246 
C 121.66682 377.17874 121.833419 376.776535 121.833419 376.357212 
C 121.833419 375.937889 121.66682 375.535684 121.370314 375.239178 
C 121.073808 374.942672 120.671603 374.776073 120.25228 374.776073 
C 119.832957 374.776073 119.430752 374.942672 119.134246 375.239178 
C 118.83774 375.535684 118.671141 375.937889 118.671141 376.357212 
C 118.671141 376.776535 118.83774 377.17874 119.134246 377.475246 
C 119.430752 377.771752 119.832957 377.938351 120.25228 377.938351 
z
" style="fill:#7570b3;fill-opacity:0.7;"/>
    <path clip-path="url(#pda2bfc1530)" d="M 113.38346 398.111259 
C 113.802783 398.111259 114.204988 397.944661 114.501494 397.648155 
C 114.798 397.351649 114.964599 396.949444 114.964599 396.530121 
C 114.964599 396.110798 114.798 395.708593 114.501494 395.412087 
C 114.204988 395.115581 113.802783 394.948982 113.38346 394.948982 
C 112.964137 394.948982 112.561932 395.115581 112.265426 395.412087 
C 111.96892 395.708593 111.802321 396.110798 111.802321 396.530121 
C 111.802321 396.949444 111.96892 397.351649 112.265426 397.648155 
C 112.561932 397.944661 112.964137 398.111259 113.38346 398.111259 
z
" style="fill:#7570b3;fill-opacity:0.7;"/>
    <path clip-path="url(#pda2bfc1530)" d="M 113.659373 397.855787 
C 114.078695 397.855787 114.4809 397.689188 114.777407 397.392682 
C 115.073913 397.096176 115.240511 396.693971 115.240511 396.274648 
C 115.240511 395.855325 115.073913 395.45312 114.777407 395.156614 
C 114.4809 394.860108 114.078695 394.693509 113.659373 394.693509 
C 113.24005 394.693509 112.837845 394.860108 112.541339 395.156614 
C 112.244832 395.45312 112.078234 395.855325 112.078234 396.274648 
C 112.078234 396.693971 112.244832 397.096176 112.541339 397.392682 
C 112.837845 397.689188 113.24005 397.855787 113.659373 397.855787 
z
" style="fill:#7570b3;fill-opacity:0.7;"/>
    <path clip-path="url(#pda2bfc1530)" d="M 206.444088 338.877166 
L 207.234658 338.086597 
L 208.025227 338.877166 
L 208.815797 338.086597 
L 208.025227 337.296028 
L 208.815797 336.505458 
L 208.025227 335.714889 
L 207.234658 336.505458 
L 206.444088 335.714889 
L 205.653519 336.505458 
L 206.444088 337.296028 
L 205.653519 338.086597 
z
" style="fill:#d95f02;fill-opacity:0.7;"/>
    <path clip-path="url(#pda2bfc1530)" d="M 110.990189 405.532616 
C 111.409512 405.532616 111.811717 405.366018 112.108223 405.069512 
C 112.404729 404.773005 112.571328 404.370801 112.571328 403.951478 
C 112.571328 403.532155 112.404729 403.12995 112.108223 402.833444 
C 111.811717 402.536938 111.409512 402.370339 110.990189 402.370339 
C 110.570866 402.370339 110.168661 402.536938 109.872155 402.833444 
C 109.575649 403.12995 109.40905 403.532155 109.40905 403.951478 
C 109.40905 404.370801 109.575649 404.773005 109.872155 405.069512 
C 110.168661 405.366018 110.570866 405.532616 110.990189 405.532616 
z
" style="fill:#7570b3;fill-opacity:0.7;"/>
    <path clip-path="url(#pda2bfc1530)" d="M 117.452564 380.901672 
C 117.871887 380.901672 118.274092 380.735073 118.570598 380.438567 
C 118.867104 380.142061 119.033703 379.739856 119.033703 379.320533 
C 119.033703 378.90121 118.867104 378.499005 118.570598 378.202499 
C 118.274092 377.905993 117.871887 377.739394 117.452564 377.739394 
C 117.033241 377.739394 116.631036 377.905993 116.33453 378.202499 
C 116.038024 378.499005 115.871425 378.90121 115.871425 379.320533 
C 115.871425 379.739856 116.038024 380.142061 116.33453 380.438567 
C 116.631036 380.735073 117.033241 380.901672 117.452564 380.901672 
z
" style="fill:#7570b3;fill-opacity:0.7;"/>
    <path clip-path="url(#pda2bfc1530)" d="M 119.111398 346.299443 
C 119.530721 346.299443 119.932926 346.132844 120.229432 345.836338 
C 120.525938 345.539832 120.692537 345.137627 120.692537 344.718304 
C 120.692537 344.298981 120.525938 343.896776 120.229432 343.60027 
C 119.932926 343.303764 119.530721 343.137165 119.111398 343.137165 
C 118.692075 343.137165 118.28987 343.303764 117.993364 343.60027 
C 117.696858 343.896776 117.530259 344.298981 117.530259 344.718304 
C 117.530259 345.137627 117.696858 345.539832 117.993364 345.836338 
C 118.28987 346.132844 118.692075 346.299443 119.111398 346.299443 
z
" style="fill:#7570b3;fill-opacity:0.7;"/>
    <path clip-path="url(#pda2bfc1530)" d="M 120.616667 351.501988 
C 121.03599 351.501988 121.438195 351.335389 121.734701 351.038883 
C 122.031208 350.742377 122.197806 350.340172 122.197806 349.920849 
C 122.197806 349.501526 122.031208 349.099321 121.734701 348.802815 
C 121.438195 348.506309 121.03599 348.33971 120.616667 348.33971 
C 120.197345 348.33971 119.79514 348.506309 119.498633 348.802815 
C 119.202127 349.099321 119.035529 349.501526 119.035529 349.920849 
C 119.035529 350.340172 119.202127 350.742377 119.498633 351.038883 
C 119.79514 351.335389 120.197345 351.501988 120.616667 351.501988 
z
" style="fill:#7570b3;fill-opacity:0.7;"/>
    <path clip-path="url(#pda2bfc1530)" d="M 116.353219 407.034451 
C 116.772542 407.034451 117.174747 406.867852 117.471253 406.571346 
C 117.767759 406.27484 117.934358 405.872635 117.934358 405.453312 
C 117.934358 405.033989 117.767759 404.631784 117.471253 404.335278 
C 117.174747 404.038772 116.772542 403.872173 116.353219 403.872173 
C 115.933896 403.872173 115.531691 404.038772 115.235185 404.335278 
C 114.938679 404.631784 114.77208 405.033989 114.77208 405.453312 
C 114.77208 405.872635 114.938679 406.27484 115.235185 406.571346 
C 115.531691 406.867852 115.933896 407.034451 116.353219 407.034451 
z
" style="fill:#7570b3;fill-opacity:0.7;"/>
    <path clip-path="url(#pda2bfc1530)" d="M 116.464181 388.7927 
C 116.883504 388.7927 117.285709 388.626102 117.582215 388.329596 
C 117.878721 388.03309 118.04532 387.630885 118.04532 387.211562 
C 118.04532 386.792239 117.878721 386.390034 117.582215 386.093528 
C 117.285709 385.797022 116.883504 385.630423 116.464181 385.630423 
C 116.044858 385.630423 115.642653 385.797022 115.346147 386.093528 
C 115.049641 386.390034 114.883042 386.792239 114.883042 387.211562 
C 114.883042 387.630885 115.049641 388.03309 115.346147 388.329596 
C 115.642653 388.626102 116.044858 388.7927 116.464181 388.7927 
z
" style="fill:#7570b3;fill-opacity:0.7;"/>
    <path clip-path="url(#pda2bfc1530)" d="M 135.629759 375.797182 
C 136.049082 375.797182 136.451287 375.630584 136.747793 375.334078 
C 137.044299 375.037571 137.210898 374.635366 137.210898 374.216044 
C 137.210898 373.796721 137.044299 373.394516 136.747793 373.09801 
C 136.451287 372.801504 136.049082 372.634905 135.629759 372.634905 
C 135.210436 372.634905 134.808231 372.801504 134.511725 373.09801 
C 134.215219 373.394516 134.048621 373.796721 134.048621 374.216044 
C 134.048621 374.635366 134.215219 375.037571 134.511725 375.334078 
C 134.808231 375.630584 135.210436 375.797182 135.629759 375.797182 
z
" style="fill:#7570b3;fill-opacity:0.7;"/>
    <path clip-path="url(#pda2bfc1530)" d="M 109.378314 403.385932 
C 109.797637 403.385932 110.199842 403.219333 110.496348 402.922827 
C 110.792854 402.626321 110.959453 402.224116 110.959453 401.804793 
C 110.959453 401.38547 110.792854 400.983265 110.496348 400.686759 
C 110.199842 400.390253 109.797637 400.223654 109.378314 400.223654 
C 108.958991 400.223654 108.556786 400.390253 108.26028 400.686759 
C 107.963774 400.983265 107.797175 401.38547 107.797175 401.804793 
C 107.797175 402.224116 107.963774 402.626321 108.26028 402.922827 
C 108.556786 403.219333 108.958991 403.385932 109.378314 403.385932 
z
" style="fill:#7570b3;fill-opacity:0.7;"/>
    <path clip-path="url(#pda2bfc1530)" d="M 115.041991 403.40707 
C 115.461314 403.40707 115.863519 403.240471 116.160025 402.943965 
C 116.456531 402.647459 116.62313 402.245254 116.62313 401.825931 
C 116.62313 401.406608 116.456531 401.004403 116.160025 400.707897 
C 115.863519 400.411391 115.461314 400.244792 115.041991 400.244792 
C 114.622668 400.244792 114.220463 400.411391 113.923957 400.707897 
C 113.627451 401.004403 113.460852 401.406608 113.460852 401.825931 
C 113.460852 402.245254 113.627451 402.647459 113.923957 402.943965 
C 114.220463 403.240471 114.622668 403.40707 115.041991 403.40707 
z
" style="fill:#7570b3;fill-opacity:0.7;"/>
    <path clip-path="url(#pda2bfc1530)" d="M 109.947095 383.433254 
C 110.366418 383.433254 110.768623 383.266655 111.065129 382.970149 
C 111.361635 382.673643 111.528234 382.271438 111.528234 381.852115 
C 111.528234 381.432792 111.361635 381.030587 111.065129 380.734081 
C 110.768623 380.437575 110.366418 380.270976 109.947095 380.270976 
C 109.527772 380.270976 109.125567 380.437575 108.829061 380.734081 
C 108.532555 381.030587 108.365956 381.432792 108.365956 381.852115 
C 108.365956 382.271438 108.532555 382.673643 108.829061 382.970149 
C 109.125567 383.266655 109.527772 383.433254 109.947095 383.433254 
z
" style="fill:#7570b3;fill-opacity:0.7;"/>
    <path clip-path="url(#pda2bfc1530)" d="M 240.644325 371.917825 
C 241.063648 371.917825 241.465853 371.751226 241.762359 371.45472 
C 242.058866 371.158214 242.225464 370.756009 242.225464 370.336686 
C 242.225464 369.917363 242.058866 369.515158 241.762359 369.218652 
C 241.465853 368.922146 241.063648 368.755547 240.644325 368.755547 
C 240.225003 368.755547 239.822798 368.922146 239.526291 369.218652 
C 239.229785 369.515158 239.063187 369.917363 239.063187 370.336686 
C 239.063187 370.756009 239.229785 371.158214 239.526291 371.45472 
C 239.822798 371.751226 240.225003 371.917825 240.644325 371.917825 
z
" style="fill:#7570b3;fill-opacity:0.7;"/>
    <path clip-path="url(#pda2bfc1530)" d="M 123.702455 285.561504 
C 124.121777 285.561504 124.523982 285.394906 124.820488 285.0984 
C 125.116995 284.801894 125.283593 284.399689 125.283593 283.980366 
C 125.283593 283.561043 125.116995 283.158838 124.820488 282.862332 
C 124.523982 282.565826 124.121777 282.399227 123.702455 282.399227 
C 123.283132 282.399227 122.880927 282.565826 122.584421 282.862332 
C 122.287914 283.158838 122.121316 283.561043 122.121316 283.980366 
C 122.121316 284.399689 122.287914 284.801894 122.584421 285.0984 
C 122.880927 285.394906 123.283132 285.561504 123.702455 285.561504 
z
" style="fill:#7570b3;fill-opacity:0.7;"/>
    <path clip-path="url(#pda2bfc1530)" d="M 141.336643 362.723339 
C 141.755966 362.723339 142.158171 362.55674 142.454677 362.260234 
C 142.751183 361.963728 142.917782 361.561523 142.917782 361.1422 
C 142.917782 360.722877 142.751183 360.320672 142.454677 360.024166 
C 142.158171 359.72766 141.755966 359.561061 141.336643 359.561061 
C 140.91732 359.561061 140.515115 359.72766 140.218609 360.024166 
C 139.922103 360.320672 139.755504 360.722877 139.755504 361.1422 
C 139.755504 361.561523 139.922103 361.963728 140.218609 362.260234 
C 140.515115 362.55674 140.91732 362.723339 141.336643 362.723339 
z
" style="fill:#7570b3;fill-opacity:0.7;"/>
    <path clip-path="url(#pda2bfc1530)" d="M 111.819102 407.071409 
C 112.238425 407.071409 112.64063 406.90481 112.937136 406.608304 
C 113.233642 406.311798 113.400241 405.909593 113.400241 405.49027 
C 113.400241 405.070947 113.233642 404.668742 112.937136 404.372236 
C 112.64063 404.07573 112.238425 403.909131 111.819102 403.909131 
C 111.399779 403.909131 110.997574 404.07573 110.701068 404.372236 
C 110.404562 404.668742 110.237963 405.070947 110.237963 405.49027 
C 110.237963 405.909593 110.404562 406.311798 110.701068 406.608304 
C 110.997574 406.90481 111.399779 407.071409 111.819102 407.071409 
z
" style="fill:#7570b3;fill-opacity:0.7;"/>
    <path clip-path="url(#pda2bfc1530)" d="M 114.798259 407.380412 
C 115.217582 407.380412 115.619787 407.213813 115.916293 406.917307 
C 116.212799 406.620801 116.379398 406.218596 116.379398 405.799273 
C 116.379398 405.37995 116.212799 404.977745 115.916293 404.681239 
C 115.619787 404.384733 115.217582 404.218134 114.798259 404.218134 
C 114.378936 404.218134 113.976731 404.384733 113.680225 404.681239 
C 113.383719 404.977745 113.21712 405.37995 113.21712 405.799273 
C 113.21712 406.218596 113.383719 406.620801 113.680225 406.917307 
C 113.976731 407.213813 114.378936 407.380412 114.798259 407.380412 
z
" style="fill:#7570b3;fill-opacity:0.7;"/>
    <path clip-path="url(#pda2bfc1530)" d="M 116.501507 405.463021 
C 116.92083 405.463021 117.323035 405.296423 117.619541 404.999916 
C 117.916047 404.70341 118.082646 404.301205 118.082646 403.881882 
C 118.082646 403.46256 117.916047 403.060355 117.619541 402.763848 
C 117.323035 402.467342 116.92083 402.300744 116.501507 402.300744 
C 116.082184 402.300744 115.679979 402.467342 115.383473 402.763848 
C 115.086967 403.060355 114.920368 403.46256 114.920368 403.881882 
C 114.920368 404.301205 115.086967 404.70341 115.383473 404.999916 
C 115.679979 405.296423 116.082184 405.463021 116.501507 405.463021 
z
" style="fill:#7570b3;fill-opacity:0.7;"/>
    <path clip-path="url(#pda2bfc1530)" d="M 109.988592 407.623448 
C 110.407915 407.623448 110.81012 407.456849 111.106626 407.160343 
C 111.403132 406.863837 111.569731 406.461632 111.569731 406.042309 
C 111.569731 405.622986 111.403132 405.220781 111.106626 404.924275 
C 110.81012 404.627769 110.407915 404.461171 109.988592 404.461171 
C 109.569269 404.461171 109.167064 404.627769 108.870558 404.924275 
C 108.574052 405.220781 108.407453 405.622986 108.407453 406.042309 
C 108.407453 406.461632 108.574052 406.863837 108.870558 407.160343 
C 109.167064 407.456849 109.569269 407.623448 109.988592 407.623448 
z
" style="fill:#7570b3;fill-opacity:0.7;"/>
    <path clip-path="url(#pda2bfc1530)" d="M 114.596744 260.349512 
L 115.387313 259.558943 
L 116.177883 260.349512 
L 116.968452 259.558943 
L 116.177883 258.768373 
L 116.968452 257.977804 
L 116.177883 257.187235 
L 115.387313 257.977804 
L 114.596744 257.187235 
L 113.806174 257.977804 
L 114.596744 258.768373 
L 113.806174 259.558943 
z
" style="fill:#d95f02;fill-opacity:0.7;"/>
    <path clip-path="url(#pda2bfc1530)" d="M 118.013125 374.394547 
C 118.432448 374.394547 118.834653 374.227949 119.131159 373.931443 
C 119.427665 373.634937 119.594264 373.232732 119.594264 372.813409 
C 119.594264 372.394086 119.427665 371.991881 119.131159 371.695375 
C 118.834653 371.398869 118.432448 371.23227 118.013125 371.23227 
C 117.593802 371.23227 117.191597 371.398869 116.895091 371.695375 
C 116.598585 371.991881 116.431986 372.394086 116.431986 372.813409 
C 116.431986 373.232732 116.598585 373.634937 116.895091 373.931443 
C 117.191597 374.227949 117.593802 374.394547 118.013125 374.394547 
z
" style="fill:#7570b3;fill-opacity:0.7;"/>
    <path clip-path="url(#pda2bfc1530)" d="M 117.655853 410.137855 
C 118.075176 410.137855 118.477381 409.971256 118.773887 409.67475 
C 119.070393 409.378244 119.236992 408.976039 119.236992 408.556716 
C 119.236992 408.137393 119.070393 407.735188 118.773887 407.438682 
C 118.477381 407.142176 118.075176 406.975577 117.655853 406.975577 
C 117.23653 406.975577 116.834326 407.142176 116.537819 407.438682 
C 116.241313 407.735188 116.074715 408.137393 116.074715 408.556716 
C 116.074715 408.976039 116.241313 409.378244 116.537819 409.67475 
C 116.834326 409.971256 117.23653 410.137855 117.655853 410.137855 
z
" style="fill:#7570b3;fill-opacity:0.7;"/>
    <path clip-path="url(#pda2bfc1530)" d="M 138.374031 388.169423 
C 138.793354 388.169423 139.195559 388.002824 139.492065 387.706318 
C 139.788571 387.409812 139.95517 387.007607 139.95517 386.588284 
C 139.95517 386.168961 139.788571 385.766756 139.492065 385.47025 
C 139.195559 385.173744 138.793354 385.007145 138.374031 385.007145 
C 137.954708 385.007145 137.552503 385.173744 137.255997 385.47025 
C 136.959491 385.766756 136.792892 386.168961 136.792892 386.588284 
C 136.792892 387.007607 136.959491 387.409812 137.255997 387.706318 
C 137.552503 388.002824 137.954708 388.169423 138.374031 388.169423 
z
" style="fill:#7570b3;fill-opacity:0.7;"/>
    <path clip-path="url(#pda2bfc1530)" d="M 113.718997 409.220089 
C 114.13832 409.220089 114.540525 409.053491 114.837031 408.756985 
C 115.133537 408.460478 115.300136 408.058273 115.300136 407.638951 
C 115.300136 407.219628 115.133537 406.817423 114.837031 406.520917 
C 114.540525 406.22441 114.13832 406.057812 113.718997 406.057812 
C 113.299674 406.057812 112.897469 406.22441 112.600963 406.520917 
C 112.304457 406.817423 112.137858 407.219628 112.137858 407.638951 
C 112.137858 408.058273 112.304457 408.460478 112.600963 408.756985 
C 112.897469 409.053491 113.299674 409.220089 113.718997 409.220089 
z
" style="fill:#7570b3;fill-opacity:0.7;"/>
    <path clip-path="url(#pda2bfc1530)" d="M 105.760546 406.25665 
C 106.179869 406.25665 106.582074 406.090051 106.87858 405.793545 
C 107.175086 405.497039 107.341685 405.094834 107.341685 404.675511 
C 107.341685 404.256188 107.175086 403.853983 106.87858 403.557477 
C 106.582074 403.260971 106.179869 403.094373 105.760546 403.094373 
C 105.341223 403.094373 104.939018 403.260971 104.642512 403.557477 
C 104.346006 403.853983 104.179408 404.256188 104.179408 404.675511 
C 104.179408 405.094834 104.346006 405.497039 104.642512 405.793545 
C 104.939018 406.090051 105.341223 406.25665 105.760546 406.25665 
z
" style="fill:#7570b3;fill-opacity:0.7;"/>
    <path clip-path="url(#pda2bfc1530)" d="M 110.009593 409.099819 
C 110.428916 409.099819 110.831121 408.93322 111.127627 408.636714 
C 111.424133 408.340208 111.590732 407.938003 111.590732 407.51868 
C 111.590732 407.099357 111.424133 406.697152 111.127627 406.400646 
C 110.831121 406.10414 110.428916 405.937541 110.009593 405.937541 
C 109.59027 405.937541 109.188065 406.10414 108.891559 406.400646 
C 108.595053 406.697152 108.428454 407.099357 108.428454 407.51868 
C 108.428454 407.938003 108.595053 408.340208 108.891559 408.636714 
C 109.188065 408.93322 109.59027 409.099819 110.009593 409.099819 
z
" style="fill:#7570b3;fill-opacity:0.7;"/>
    <path clip-path="url(#pda2bfc1530)" d="M 313.843796 269.796304 
L 314.634366 269.005734 
L 315.424935 269.796304 
L 316.215504 269.005734 
L 315.424935 268.215165 
L 316.215504 267.424595 
L 315.424935 266.634026 
L 314.634366 267.424595 
L 313.843796 266.634026 
L 313.053227 267.424595 
L 313.843796 268.215165 
L 313.053227 269.005734 
z
" style="fill:#d95f02;fill-opacity:0.7;"/>
    <path clip-path="url(#pda2bfc1530)" d="M 126.785741 409.849578 
C 127.205064 409.849578 127.607269 409.682979 127.903775 409.386473 
C 128.200281 409.089967 128.36688 408.687762 128.36688 408.268439 
C 128.36688 407.849116 128.200281 407.446911 127.903775 407.150405 
C 127.607269 406.853899 127.205064 406.6873 126.785741 406.6873 
C 126.366418 406.6873 125.964213 406.853899 125.667707 407.150405 
C 125.371201 407.446911 125.204602 407.849116 125.204602 408.268439 
C 125.204602 408.687762 125.371201 409.089967 125.667707 409.386473 
C 125.964213 409.682979 126.366418 409.849578 126.785741 409.849578 
z
" style="fill:#7570b3;fill-opacity:0.7;"/>
    <path clip-path="url(#pda2bfc1530)" d="M 112.684111 409.144865 
C 113.103434 409.144865 113.505639 408.978267 113.802145 408.681761 
C 114.098651 408.385254 114.26525 407.983049 114.26525 407.563727 
C 114.26525 407.144404 114.098651 406.742199 113.802145 406.445693 
C 113.505639 406.149186 113.103434 405.982588 112.684111 405.982588 
C 112.264788 405.982588 111.862583 406.149186 111.566077 406.445693 
C 111.269571 406.742199 111.102972 407.144404 111.102972 407.563727 
C 111.102972 407.983049 111.269571 408.385254 111.566077 408.681761 
C 111.862583 408.978267 112.264788 409.144865 112.684111 409.144865 
z
" style="fill:#7570b3;fill-opacity:0.7;"/>
    <path clip-path="url(#pda2bfc1530)" d="M 113.746995 408.566612 
C 114.166318 408.566612 114.568523 408.400013 114.865029 408.103507 
C 115.161535 407.807001 115.328134 407.404796 115.328134 406.985473 
C 115.328134 406.56615 115.161535 406.163945 114.865029 405.867439 
C 114.568523 405.570933 114.166318 405.404334 113.746995 405.404334 
C 113.327672 405.404334 112.925467 405.570933 112.628961 405.867439 
C 112.332455 406.163945 112.165856 406.56615 112.165856 406.985473 
C 112.165856 407.404796 112.332455 407.807001 112.628961 408.103507 
C 112.925467 408.400013 113.327672 408.566612 113.746995 408.566612 
z
" style="fill:#7570b3;fill-opacity:0.7;"/>
    <path clip-path="url(#pda2bfc1530)" d="M 113.715978 409.655359 
C 114.135301 409.655359 114.537506 409.48876 114.834012 409.192254 
C 115.130518 408.895748 115.297117 408.493543 115.297117 408.07422 
C 115.297117 407.654897 115.130518 407.252692 114.834012 406.956186 
C 114.537506 406.65968 114.135301 406.493081 113.715978 406.493081 
C 113.296655 406.493081 112.89445 406.65968 112.597944 406.956186 
C 112.301438 407.252692 112.134839 407.654897 112.134839 408.07422 
C 112.134839 408.493543 112.301438 408.895748 112.597944 409.192254 
C 112.89445 409.48876 113.296655 409.655359 113.715978 409.655359 
z
" style="fill:#7570b3;fill-opacity:0.7;"/>
    <path clip-path="url(#pda2bfc1530)" d="M 111.421322 409.317408 
C 111.840645 409.317408 112.24285 409.150809 112.539356 408.854303 
C 112.835862 408.557797 113.002461 408.155592 113.002461 407.736269 
C 113.002461 407.316946 112.835862 406.914741 112.539356 406.618235 
C 112.24285 406.321729 111.840645 406.15513 111.421322 406.15513 
C 111.001999 406.15513 110.599794 406.321729 110.303288 406.618235 
C 110.006782 406.914741 109.840183 407.316946 109.840183 407.736269 
C 109.840183 408.155592 110.006782 408.557797 110.303288 408.854303 
C 110.599794 409.150809 111.001999 409.317408 111.421322 409.317408 
z
" style="fill:#7570b3;fill-opacity:0.7;"/>
    <path clip-path="url(#pda2bfc1530)" d="M 111.307641 408.959738 
C 111.726964 408.959738 112.129169 408.793139 112.425675 408.496633 
C 112.722181 408.200127 112.88878 407.797922 112.88878 407.378599 
C 112.88878 406.959276 112.722181 406.557071 112.425675 406.260565 
C 112.129169 405.964059 111.726964 405.79746 111.307641 405.79746 
C 110.888318 405.79746 110.486113 405.964059 110.189607 406.260565 
C 109.893101 406.557071 109.726502 406.959276 109.726502 407.378599 
C 109.726502 407.797922 109.893101 408.200127 110.189607 408.496633 
C 110.486113 408.793139 110.888318 408.959738 111.307641 408.959738 
z
" style="fill:#7570b3;fill-opacity:0.7;"/>
    <path clip-path="url(#pda2bfc1530)" d="M 106.305437 406.937549 
C 106.72476 406.937549 107.126965 406.77095 107.423471 406.474444 
C 107.719977 406.177938 107.886576 405.775733 107.886576 405.35641 
C 107.886576 404.937087 107.719977 404.534883 107.423471 404.238376 
C 107.126965 403.94187 106.72476 403.775272 106.305437 403.775272 
C 105.886114 403.775272 105.483909 403.94187 105.187403 404.238376 
C 104.890897 404.534883 104.724298 404.937087 104.724298 405.35641 
C 104.724298 405.775733 104.890897 406.177938 105.187403 406.474444 
C 105.483909 406.77095 105.886114 406.937549 106.305437 406.937549 
z
" style="fill:#7570b3;fill-opacity:0.7;"/>
   </g>
   <g id="PathCollection_2"/>
   <g id="PathCollection_3"/>
   <g id="PathCollection_4"/>
   <g id="matplotlib.axis_3">
    <g id="xtick_5">
     <g id="line2d_21">
      <g>
       <use style="stroke:#000000;stroke-width:1.6;" x="99.185333" xlink:href="#mdd9d6d2c82" y="428.15"/>
      </g>
     </g>
     <g id="text_11">
      <!-- 0.0 -->
      <g transform="translate(83.282208 458.046875)scale(0.2 -0.2)">
       <use xlink:href="#DejaVuSans-48"/>
       <use x="63.623047" xlink:href="#DejaVuSans-46"/>
       <use x="95.410156" xlink:href="#DejaVuSans-48"/>
      </g>
     </g>
    </g>
    <g id="xtick_6">
     <g id="line2d_22">
      <g>
       <use style="stroke:#000000;stroke-width:1.6;" x="212.686667" xlink:href="#mdd9d6d2c82" y="428.15"/>
      </g>
     </g>
     <g id="text_12">
      <!-- 0.2 -->
      <g transform="translate(196.783542 458.046875)scale(0.2 -0.2)">
       <use xlink:href="#DejaVuSans-48"/>
       <use x="63.623047" xlink:href="#DejaVuSans-46"/>
       <use x="95.410156" xlink:href="#DejaVuSans-50"/>
      </g>
     </g>
    </g>
    <g id="xtick_7">
     <g id="line2d_23">
      <g>
       <use style="stroke:#000000;stroke-width:1.6;" x="326.188" xlink:href="#mdd9d6d2c82" y="428.15"/>
      </g>
     </g>
     <g id="text_13">
      <!-- 0.4 -->
      <g transform="translate(310.284875 458.046875)scale(0.2 -0.2)">
       <use xlink:href="#DejaVuSans-48"/>
       <use x="63.623047" xlink:href="#DejaVuSans-46"/>
       <use x="95.410156" xlink:href="#DejaVuSans-52"/>
      </g>
     </g>
    </g>
    <g id="xtick_8">
     <g id="line2d_24">
      <g>
       <use style="stroke:#000000;stroke-width:1.6;" x="439.689333" xlink:href="#mdd9d6d2c82" y="428.15"/>
      </g>
     </g>
     <g id="text_14">
      <!-- 0.6 -->
      <g transform="translate(423.786208 458.046875)scale(0.2 -0.2)">
       <use xlink:href="#DejaVuSans-48"/>
       <use x="63.623047" xlink:href="#DejaVuSans-46"/>
       <use x="95.410156" xlink:href="#DejaVuSans-54"/>
      </g>
     </g>
    </g>
    <g id="text_15">
     <!-- JSD (seeds vs base) -->
     <defs>
      <path d="M 9.8125 72.90625 
L 19.671875 72.90625 
L 19.671875 5.078125 
Q 19.671875 -8.109375 14.671875 -14.0625 
Q 9.671875 -20.015625 -1.421875 -20.015625 
L -5.171875 -20.015625 
L -5.171875 -11.71875 
L -2.09375 -11.71875 
Q 4.4375 -11.71875 7.125 -8.046875 
Q 9.8125 -4.390625 9.8125 5.078125 
z
" id="DejaVuSans-74"/>
      <path d="M 53.515625 70.515625 
L 53.515625 60.890625 
Q 47.90625 63.578125 42.921875 64.890625 
Q 37.9375 66.21875 33.296875 66.21875 
Q 25.25 66.21875 20.875 63.09375 
Q 16.5 59.96875 16.5 54.203125 
Q 16.5 49.359375 19.40625 46.890625 
Q 22.3125 44.4375 30.421875 42.921875 
L 36.375 41.703125 
Q 47.40625 39.59375 52.65625 34.296875 
Q 57.90625 29 57.90625 20.125 
Q 57.90625 9.515625 50.796875 4.046875 
Q 43.703125 -1.421875 29.984375 -1.421875 
Q 24.8125 -1.421875 18.96875 -0.25 
Q 13.140625 0.921875 6.890625 3.21875 
L 6.890625 13.375 
Q 12.890625 10.015625 18.65625 8.296875 
Q 24.421875 6.59375 29.984375 6.59375 
Q 38.421875 6.59375 43.015625 9.90625 
Q 47.609375 13.234375 47.609375 19.390625 
Q 47.609375 24.75 44.3125 27.78125 
Q 41.015625 30.8125 33.5 32.328125 
L 27.484375 33.5 
Q 16.453125 35.6875 11.515625 40.375 
Q 6.59375 45.0625 6.59375 53.421875 
Q 6.59375 63.09375 13.40625 68.65625 
Q 20.21875 74.21875 32.171875 74.21875 
Q 37.3125 74.21875 42.625 73.28125 
Q 47.953125 72.359375 53.515625 70.515625 
z
" id="DejaVuSans-83"/>
      <path d="M 19.671875 64.796875 
L 19.671875 8.109375 
L 31.59375 8.109375 
Q 46.6875 8.109375 53.6875 14.9375 
Q 60.6875 21.78125 60.6875 36.53125 
Q 60.6875 51.171875 53.6875 57.984375 
Q 46.6875 64.796875 31.59375 64.796875 
z
M 9.8125 72.90625 
L 30.078125 72.90625 
Q 51.265625 72.90625 61.171875 64.09375 
Q 71.09375 55.28125 71.09375 36.53125 
Q 71.09375 17.671875 61.125 8.828125 
Q 51.171875 0 30.078125 0 
L 9.8125 0 
z
" id="DejaVuSans-68"/>
      <path d="M 31 75.875 
Q 24.46875 64.65625 21.28125 53.65625 
Q 18.109375 42.671875 18.109375 31.390625 
Q 18.109375 20.125 21.3125 9.0625 
Q 24.515625 -2 31 -13.1875 
L 23.1875 -13.1875 
Q 15.875 -1.703125 12.234375 9.375 
Q 8.59375 20.453125 8.59375 31.390625 
Q 8.59375 42.28125 12.203125 53.3125 
Q 15.828125 64.359375 23.1875 75.875 
z
" id="DejaVuSans-40"/>
      <path d="M 44.28125 53.078125 
L 44.28125 44.578125 
Q 40.484375 46.53125 36.375 47.5 
Q 32.28125 48.484375 27.875 48.484375 
Q 21.1875 48.484375 17.84375 46.4375 
Q 14.5 44.390625 14.5 40.28125 
Q 14.5 37.15625 16.890625 35.375 
Q 19.28125 33.59375 26.515625 31.984375 
L 29.59375 31.296875 
Q 39.15625 29.25 43.1875 25.515625 
Q 47.21875 21.78125 47.21875 15.09375 
Q 47.21875 7.46875 41.1875 3.015625 
Q 35.15625 -1.421875 24.609375 -1.421875 
Q 20.21875 -1.421875 15.453125 -0.5625 
Q 10.6875 0.296875 5.421875 2 
L 5.421875 11.28125 
Q 10.40625 8.6875 15.234375 7.390625 
Q 20.0625 6.109375 24.8125 6.109375 
Q 31.15625 6.109375 34.5625 8.28125 
Q 37.984375 10.453125 37.984375 14.40625 
Q 37.984375 18.0625 35.515625 20.015625 
Q 33.0625 21.96875 24.703125 23.78125 
L 21.578125 24.515625 
Q 13.234375 26.265625 9.515625 29.90625 
Q 5.8125 33.546875 5.8125 39.890625 
Q 5.8125 47.609375 11.28125 51.796875 
Q 16.75 56 26.8125 56 
Q 31.78125 56 36.171875 55.265625 
Q 40.578125 54.546875 44.28125 53.078125 
z
" id="DejaVuSans-115"/>
      <path d="M 56.203125 29.59375 
L 56.203125 25.203125 
L 14.890625 25.203125 
Q 15.484375 15.921875 20.484375 11.0625 
Q 25.484375 6.203125 34.421875 6.203125 
Q 39.59375 6.203125 44.453125 7.46875 
Q 49.3125 8.734375 54.109375 11.28125 
L 54.109375 2.78125 
Q 49.265625 0.734375 44.1875 -0.34375 
Q 39.109375 -1.421875 33.890625 -1.421875 
Q 20.796875 -1.421875 13.15625 6.1875 
Q 5.515625 13.8125 5.515625 26.8125 
Q 5.515625 40.234375 12.765625 48.109375 
Q 20.015625 56 32.328125 56 
Q 43.359375 56 49.78125 48.890625 
Q 56.203125 41.796875 56.203125 29.59375 
z
M 47.21875 32.234375 
Q 47.125 39.59375 43.09375 43.984375 
Q 39.0625 48.390625 32.421875 48.390625 
Q 24.90625 48.390625 20.390625 44.140625 
Q 15.875 39.890625 15.1875 32.171875 
z
" id="DejaVuSans-101"/>
      <path d="M 45.40625 46.390625 
L 45.40625 75.984375 
L 54.390625 75.984375 
L 54.390625 0 
L 45.40625 0 
L 45.40625 8.203125 
Q 42.578125 3.328125 38.25 0.953125 
Q 33.9375 -1.421875 27.875 -1.421875 
Q 17.96875 -1.421875 11.734375 6.484375 
Q 5.515625 14.40625 5.515625 27.296875 
Q 5.515625 40.1875 11.734375 48.09375 
Q 17.96875 56 27.875 56 
Q 33.9375 56 38.25 53.625 
Q 42.578125 51.265625 45.40625 46.390625 
z
M 14.796875 27.296875 
Q 14.796875 17.390625 18.875 11.75 
Q 22.953125 6.109375 30.078125 6.109375 
Q 37.203125 6.109375 41.296875 11.75 
Q 45.40625 17.390625 45.40625 27.296875 
Q 45.40625 37.203125 41.296875 42.84375 
Q 37.203125 48.484375 30.078125 48.484375 
Q 22.953125 48.484375 18.875 42.84375 
Q 14.796875 37.203125 14.796875 27.296875 
z
" id="DejaVuSans-100"/>
      <path d="M 2.984375 54.6875 
L 12.5 54.6875 
L 29.59375 8.796875 
L 46.6875 54.6875 
L 56.203125 54.6875 
L 35.6875 0 
L 23.484375 0 
z
" id="DejaVuSans-118"/>
      <path d="M 48.6875 27.296875 
Q 48.6875 37.203125 44.609375 42.84375 
Q 40.53125 48.484375 33.40625 48.484375 
Q 26.265625 48.484375 22.1875 42.84375 
Q 18.109375 37.203125 18.109375 27.296875 
Q 18.109375 17.390625 22.1875 11.75 
Q 26.265625 6.109375 33.40625 6.109375 
Q 40.53125 6.109375 44.609375 11.75 
Q 48.6875 17.390625 48.6875 27.296875 
z
M 18.109375 46.390625 
Q 20.953125 51.265625 25.265625 53.625 
Q 29.59375 56 35.59375 56 
Q 45.5625 56 51.78125 48.09375 
Q 58.015625 40.1875 58.015625 27.296875 
Q 58.015625 14.40625 51.78125 6.484375 
Q 45.5625 -1.421875 35.59375 -1.421875 
Q 29.59375 -1.421875 25.265625 0.953125 
Q 20.953125 3.328125 18.109375 8.203125 
L 18.109375 0 
L 9.078125 0 
L 9.078125 75.984375 
L 18.109375 75.984375 
z
" id="DejaVuSans-98"/>
      <path d="M 34.28125 27.484375 
Q 23.390625 27.484375 19.1875 25 
Q 14.984375 22.515625 14.984375 16.5 
Q 14.984375 11.71875 18.140625 8.90625 
Q 21.296875 6.109375 26.703125 6.109375 
Q 34.1875 6.109375 38.703125 11.40625 
Q 43.21875 16.703125 43.21875 25.484375 
L 43.21875 27.484375 
z
M 52.203125 31.203125 
L 52.203125 0 
L 43.21875 0 
L 43.21875 8.296875 
Q 40.140625 3.328125 35.546875 0.953125 
Q 30.953125 -1.421875 24.3125 -1.421875 
Q 15.921875 -1.421875 10.953125 3.296875 
Q 6 8.015625 6 15.921875 
Q 6 25.140625 12.171875 29.828125 
Q 18.359375 34.515625 30.609375 34.515625 
L 43.21875 34.515625 
L 43.21875 35.40625 
Q 43.21875 41.609375 39.140625 45 
Q 35.0625 48.390625 27.6875 48.390625 
Q 23 48.390625 18.546875 47.265625 
Q 14.109375 46.140625 10.015625 43.890625 
L 10.015625 52.203125 
Q 14.9375 54.109375 19.578125 55.046875 
Q 24.21875 56 28.609375 56 
Q 40.484375 56 46.34375 49.84375 
Q 52.203125 43.703125 52.203125 31.203125 
z
" id="DejaVuSans-97"/>
     </defs>
     <g transform="translate(185.248437 481.403125)scale(0.2 -0.2)">
      <use xlink:href="#DejaVuSans-74"/>
      <use x="29.492188" xlink:href="#DejaVuSans-83"/>
      <use x="92.96875" xlink:href="#DejaVuSans-68"/>
      <use x="169.970703" xlink:href="#DejaVuSans-32"/>
      <use x="201.757812" xlink:href="#DejaVuSans-40"/>
      <use x="240.771484" xlink:href="#DejaVuSans-115"/>
      <use x="292.871094" xlink:href="#DejaVuSans-101"/>
      <use x="354.394531" xlink:href="#DejaVuSans-101"/>
      <use x="415.917969" xlink:href="#DejaVuSans-100"/>
      <use x="479.394531" xlink:href="#DejaVuSans-115"/>
      <use x="531.494141" xlink:href="#DejaVuSans-32"/>
      <use x="563.28125" xlink:href="#DejaVuSans-118"/>
      <use x="622.460938" xlink:href="#DejaVuSans-115"/>
      <use x="674.560547" xlink:href="#DejaVuSans-32"/>
      <use x="706.347656" xlink:href="#DejaVuSans-98"/>
      <use x="769.824219" xlink:href="#DejaVuSans-97"/>
      <use x="831.103516" xlink:href="#DejaVuSans-115"/>
      <use x="883.203125" xlink:href="#DejaVuSans-101"/>
      <use x="944.726562" xlink:href="#DejaVuSans-41"/>
     </g>
    </g>
   </g>
   <g id="matplotlib.axis_4">
    <g id="ytick_5">
     <g id="line2d_25">
      <g>
       <use style="stroke:#000000;stroke-width:1.6;" x="70.81" xlink:href="#m7212f6295d" y="408.803182"/>
      </g>
     </g>
     <g id="text_16">
      <!-- 0.0 -->
      <g transform="translate(24.30375 416.401619)scale(0.2 -0.2)">
       <use xlink:href="#DejaVuSans-48"/>
       <use x="63.623047" xlink:href="#DejaVuSans-46"/>
       <use x="95.410156" xlink:href="#DejaVuSans-48"/>
      </g>
     </g>
    </g>
    <g id="ytick_6">
     <g id="line2d_26">
      <g>
       <use style="stroke:#000000;stroke-width:1.6;" x="70.81" xlink:href="#m7212f6295d" y="331.415909"/>
      </g>
     </g>
     <g id="text_17">
      <!-- 0.2 -->
      <g transform="translate(24.30375 339.014347)scale(0.2 -0.2)">
       <use xlink:href="#DejaVuSans-48"/>
       <use x="63.623047" xlink:href="#DejaVuSans-46"/>
       <use x="95.410156" xlink:href="#DejaVuSans-50"/>
      </g>
     </g>
    </g>
    <g id="ytick_7">
     <g id="line2d_27">
      <g>
       <use style="stroke:#000000;stroke-width:1.6;" x="70.81" xlink:href="#m7212f6295d" y="254.028636"/>
      </g>
     </g>
     <g id="text_18">
      <!-- 0.4 -->
      <g transform="translate(24.30375 261.627074)scale(0.2 -0.2)">
       <use xlink:href="#DejaVuSans-48"/>
       <use x="63.623047" xlink:href="#DejaVuSans-46"/>
       <use x="95.410156" xlink:href="#DejaVuSans-52"/>
      </g>
     </g>
    </g>
    <g id="ytick_8">
     <g id="line2d_28">
      <g>
       <use style="stroke:#000000;stroke-width:1.6;" x="70.81" xlink:href="#m7212f6295d" y="176.641364"/>
      </g>
     </g>
     <g id="text_19">
      <!-- 0.6 -->
      <g transform="translate(24.30375 184.239801)scale(0.2 -0.2)">
       <use xlink:href="#DejaVuSans-48"/>
       <use x="63.623047" xlink:href="#DejaVuSans-46"/>
       <use x="95.410156" xlink:href="#DejaVuSans-54"/>
      </g>
     </g>
    </g>
    <g id="ytick_9">
     <g id="line2d_29">
      <g>
       <use style="stroke:#000000;stroke-width:1.6;" x="70.81" xlink:href="#m7212f6295d" y="99.254091"/>
      </g>
     </g>
     <g id="text_20">
      <!-- 0.8 -->
      <defs>
       <path d="M 31.78125 34.625 
Q 24.75 34.625 20.71875 30.859375 
Q 16.703125 27.09375 16.703125 20.515625 
Q 16.703125 13.921875 20.71875 10.15625 
Q 24.75 6.390625 31.78125 6.390625 
Q 38.8125 6.390625 42.859375 10.171875 
Q 46.921875 13.96875 46.921875 20.515625 
Q 46.921875 27.09375 42.890625 30.859375 
Q 38.875 34.625 31.78125 34.625 
z
M 21.921875 38.8125 
Q 15.578125 40.375 12.03125 44.71875 
Q 8.5 49.078125 8.5 55.328125 
Q 8.5 64.0625 14.71875 69.140625 
Q 20.953125 74.21875 31.78125 74.21875 
Q 42.671875 74.21875 48.875 69.140625 
Q 55.078125 64.0625 55.078125 55.328125 
Q 55.078125 49.078125 51.53125 44.71875 
Q 48 40.375 41.703125 38.8125 
Q 48.828125 37.15625 52.796875 32.3125 
Q 56.78125 27.484375 56.78125 20.515625 
Q 56.78125 9.90625 50.3125 4.234375 
Q 43.84375 -1.421875 31.78125 -1.421875 
Q 19.734375 -1.421875 13.25 4.234375 
Q 6.78125 9.90625 6.78125 20.515625 
Q 6.78125 27.484375 10.78125 32.3125 
Q 14.796875 37.15625 21.921875 38.8125 
z
M 18.3125 54.390625 
Q 18.3125 48.734375 21.84375 45.5625 
Q 25.390625 42.390625 31.78125 42.390625 
Q 38.140625 42.390625 41.71875 45.5625 
Q 45.3125 48.734375 45.3125 54.390625 
Q 45.3125 60.0625 41.71875 63.234375 
Q 38.140625 66.40625 31.78125 66.40625 
Q 25.390625 66.40625 21.84375 63.234375 
Q 18.3125 60.0625 18.3125 54.390625 
z
" id="DejaVuSans-56"/>
      </defs>
      <g transform="translate(24.30375 106.852528)scale(0.2 -0.2)">
       <use xlink:href="#DejaVuSans-48"/>
       <use x="63.623047" xlink:href="#DejaVuSans-46"/>
       <use x="95.410156" xlink:href="#DejaVuSans-56"/>
      </g>
     </g>
    </g>
    <g id="ytick_10">
     <g id="line2d_30">
      <g>
       <use style="stroke:#000000;stroke-width:1.6;" x="70.81" xlink:href="#m7212f6295d" y="21.866818"/>
      </g>
     </g>
     <g id="text_21">
      <!-- 1.0 -->
      <g transform="translate(24.30375 29.465256)scale(0.2 -0.2)">
       <use xlink:href="#DejaVuSans-49"/>
       <use x="63.623047" xlink:href="#DejaVuSans-46"/>
       <use x="95.410156" xlink:href="#DejaVuSans-48"/>
      </g>
     </g>
    </g>
    <g id="text_22">
     <!-- Output Difference -->
     <defs>
      <path d="M 39.40625 66.21875 
Q 28.65625 66.21875 22.328125 58.203125 
Q 16.015625 50.203125 16.015625 36.375 
Q 16.015625 22.609375 22.328125 14.59375 
Q 28.65625 6.59375 39.40625 6.59375 
Q 50.140625 6.59375 56.421875 14.59375 
Q 62.703125 22.609375 62.703125 36.375 
Q 62.703125 50.203125 56.421875 58.203125 
Q 50.140625 66.21875 39.40625 66.21875 
z
M 39.40625 74.21875 
Q 54.734375 74.21875 63.90625 63.9375 
Q 73.09375 53.65625 73.09375 36.375 
Q 73.09375 19.140625 63.90625 8.859375 
Q 54.734375 -1.421875 39.40625 -1.421875 
Q 24.03125 -1.421875 14.8125 8.828125 
Q 5.609375 19.09375 5.609375 36.375 
Q 5.609375 53.65625 14.8125 63.9375 
Q 24.03125 74.21875 39.40625 74.21875 
z
" id="DejaVuSans-79"/>
      <path d="M 8.5 21.578125 
L 8.5 54.6875 
L 17.484375 54.6875 
L 17.484375 21.921875 
Q 17.484375 14.15625 20.5 10.265625 
Q 23.53125 6.390625 29.59375 6.390625 
Q 36.859375 6.390625 41.078125 11.03125 
Q 45.3125 15.671875 45.3125 23.6875 
L 45.3125 54.6875 
L 54.296875 54.6875 
L 54.296875 0 
L 45.3125 0 
L 45.3125 8.40625 
Q 42.046875 3.421875 37.71875 1 
Q 33.40625 -1.421875 27.6875 -1.421875 
Q 18.265625 -1.421875 13.375 4.4375 
Q 8.5 10.296875 8.5 21.578125 
z
M 31.109375 56 
z
" id="DejaVuSans-117"/>
      <path d="M 18.3125 70.21875 
L 18.3125 54.6875 
L 36.8125 54.6875 
L 36.8125 47.703125 
L 18.3125 47.703125 
L 18.3125 18.015625 
Q 18.3125 11.328125 20.140625 9.421875 
Q 21.96875 7.515625 27.59375 7.515625 
L 36.8125 7.515625 
L 36.8125 0 
L 27.59375 0 
Q 17.1875 0 13.234375 3.875 
Q 9.28125 7.765625 9.28125 18.015625 
L 9.28125 47.703125 
L 2.6875 47.703125 
L 2.6875 54.6875 
L 9.28125 54.6875 
L 9.28125 70.21875 
z
" id="DejaVuSans-116"/>
      <path d="M 18.109375 8.203125 
L 18.109375 -20.796875 
L 9.078125 -20.796875 
L 9.078125 54.6875 
L 18.109375 54.6875 
L 18.109375 46.390625 
Q 20.953125 51.265625 25.265625 53.625 
Q 29.59375 56 35.59375 56 
Q 45.5625 56 51.78125 48.09375 
Q 58.015625 40.1875 58.015625 27.296875 
Q 58.015625 14.40625 51.78125 6.484375 
Q 45.5625 -1.421875 35.59375 -1.421875 
Q 29.59375 -1.421875 25.265625 0.953125 
Q 20.953125 3.328125 18.109375 8.203125 
z
M 48.6875 27.296875 
Q 48.6875 37.203125 44.609375 42.84375 
Q 40.53125 48.484375 33.40625 48.484375 
Q 26.265625 48.484375 22.1875 42.84375 
Q 18.109375 37.203125 18.109375 27.296875 
Q 18.109375 17.390625 22.1875 11.75 
Q 26.265625 6.109375 33.40625 6.109375 
Q 40.53125 6.109375 44.609375 11.75 
Q 48.6875 17.390625 48.6875 27.296875 
z
" id="DejaVuSans-112"/>
      <path d="M 9.421875 54.6875 
L 18.40625 54.6875 
L 18.40625 0 
L 9.421875 0 
z
M 9.421875 75.984375 
L 18.40625 75.984375 
L 18.40625 64.59375 
L 9.421875 64.59375 
z
" id="DejaVuSans-105"/>
      <path d="M 37.109375 75.984375 
L 37.109375 68.5 
L 28.515625 68.5 
Q 23.6875 68.5 21.796875 66.546875 
Q 19.921875 64.59375 19.921875 59.515625 
L 19.921875 54.6875 
L 34.71875 54.6875 
L 34.71875 47.703125 
L 19.921875 47.703125 
L 19.921875 0 
L 10.890625 0 
L 10.890625 47.703125 
L 2.296875 47.703125 
L 2.296875 54.6875 
L 10.890625 54.6875 
L 10.890625 58.5 
Q 10.890625 67.625 15.140625 71.796875 
Q 19.390625 75.984375 28.609375 75.984375 
z
" id="DejaVuSans-102"/>
      <path d="M 41.109375 46.296875 
Q 39.59375 47.171875 37.8125 47.578125 
Q 36.03125 48 33.890625 48 
Q 26.265625 48 22.1875 43.046875 
Q 18.109375 38.09375 18.109375 28.8125 
L 18.109375 0 
L 9.078125 0 
L 9.078125 54.6875 
L 18.109375 54.6875 
L 18.109375 46.1875 
Q 20.953125 51.171875 25.484375 53.578125 
Q 30.03125 56 36.53125 56 
Q 37.453125 56 38.578125 55.875 
Q 39.703125 55.765625 41.0625 55.515625 
z
" id="DejaVuSans-114"/>
      <path d="M 54.890625 33.015625 
L 54.890625 0 
L 45.90625 0 
L 45.90625 32.71875 
Q 45.90625 40.484375 42.875 44.328125 
Q 39.84375 48.1875 33.796875 48.1875 
Q 26.515625 48.1875 22.3125 43.546875 
Q 18.109375 38.921875 18.109375 30.90625 
L 18.109375 0 
L 9.078125 0 
L 9.078125 54.6875 
L 18.109375 54.6875 
L 18.109375 46.1875 
Q 21.34375 51.125 25.703125 53.5625 
Q 30.078125 56 35.796875 56 
Q 45.21875 56 50.046875 50.171875 
Q 54.890625 44.34375 54.890625 33.015625 
z
" id="DejaVuSans-110"/>
      <path d="M 48.78125 52.59375 
L 48.78125 44.1875 
Q 44.96875 46.296875 41.140625 47.34375 
Q 37.3125 48.390625 33.40625 48.390625 
Q 24.65625 48.390625 19.8125 42.84375 
Q 14.984375 37.3125 14.984375 27.296875 
Q 14.984375 17.28125 19.8125 11.734375 
Q 24.65625 6.203125 33.40625 6.203125 
Q 37.3125 6.203125 41.140625 7.25 
Q 44.96875 8.296875 48.78125 10.40625 
L 48.78125 2.09375 
Q 45.015625 0.34375 40.984375 -0.53125 
Q 36.96875 -1.421875 32.421875 -1.421875 
Q 20.0625 -1.421875 12.78125 6.34375 
Q 5.515625 14.109375 5.515625 27.296875 
Q 5.515625 40.671875 12.859375 48.328125 
Q 20.21875 56 33.015625 56 
Q 37.15625 56 41.109375 55.140625 
Q 45.0625 54.296875 48.78125 52.59375 
z
" id="DejaVuSans-99"/>
     </defs>
     <g transform="translate(16.144375 305.170937)rotate(-90)scale(0.2 -0.2)">
      <use xlink:href="#DejaVuSans-79"/>
      <use x="78.710938" xlink:href="#DejaVuSans-117"/>
      <use x="142.089844" xlink:href="#DejaVuSans-116"/>
      <use x="181.298828" xlink:href="#DejaVuSans-112"/>
      <use x="244.775391" xlink:href="#DejaVuSans-117"/>
      <use x="308.154297" xlink:href="#DejaVuSans-116"/>
      <use x="347.363281" xlink:href="#DejaVuSans-32"/>
      <use x="379.150391" xlink:href="#DejaVuSans-68"/>
      <use x="456.152344" xlink:href="#DejaVuSans-105"/>
      <use x="483.935547" xlink:href="#DejaVuSans-102"/>
      <use x="519.140625" xlink:href="#DejaVuSans-102"/>
      <use x="554.345703" xlink:href="#DejaVuSans-101"/>
      <use x="615.869141" xlink:href="#DejaVuSans-114"/>
      <use x="656.951172" xlink:href="#DejaVuSans-101"/>
      <use x="718.474609" xlink:href="#DejaVuSans-110"/>
      <use x="781.853516" xlink:href="#DejaVuSans-99"/>
      <use x="836.833984" xlink:href="#DejaVuSans-101"/>
     </g>
    </g>
   </g>
   <g id="patch_8">
    <path d="M 70.81 428.15 
L 70.81 2.52 
" style="fill:none;stroke:#000000;stroke-linecap:square;stroke-linejoin:miter;stroke-width:0.8;"/>
   </g>
   <g id="patch_9">
    <path d="M 70.81 428.15 
L 496.44 428.15 
" style="fill:none;stroke:#000000;stroke-linecap:square;stroke-linejoin:miter;stroke-width:0.8;"/>
   </g>
  </g>
 </g>
 <defs>
  <clipPath id="p2d2c6d970c">
   <rect height="425.63" width="425.63" x="-446.51" y="2.52"/>
  </clipPath>
  <clipPath id="pda2bfc1530">
   <rect height="425.63" width="425.63" x="70.81" y="2.52"/>
  </clipPath>
 </defs>
</svg>
